%TF.GenerationSoftware,KiCad,Pcbnew,8.0.6*%
%TF.CreationDate,2024-11-30T15:29:51-05:00*%
%TF.ProjectId,keyboard,6b657962-6f61-4726-942e-6b696361645f,rev?*%
%TF.SameCoordinates,Original*%
%TF.FileFunction,Paste,Bot*%
%TF.FilePolarity,Positive*%
%FSLAX46Y46*%
G04 Gerber Fmt 4.6, Leading zero omitted, Abs format (unit mm)*
G04 Created by KiCad (PCBNEW 8.0.6) date 2024-11-30 15:29:51*
%MOMM*%
%LPD*%
G01*
G04 APERTURE LIST*
G04 Aperture macros list*
%AMRoundRect*
0 Rectangle with rounded corners*
0 $1 Rounding radius*
0 $2 $3 $4 $5 $6 $7 $8 $9 X,Y pos of 4 corners*
0 Add a 4 corners polygon primitive as box body*
4,1,4,$2,$3,$4,$5,$6,$7,$8,$9,$2,$3,0*
0 Add four circle primitives for the rounded corners*
1,1,$1+$1,$2,$3*
1,1,$1+$1,$4,$5*
1,1,$1+$1,$6,$7*
1,1,$1+$1,$8,$9*
0 Add four rect primitives between the rounded corners*
20,1,$1+$1,$2,$3,$4,$5,0*
20,1,$1+$1,$4,$5,$6,$7,0*
20,1,$1+$1,$6,$7,$8,$9,0*
20,1,$1+$1,$8,$9,$2,$3,0*%
G04 Aperture macros list end*
%ADD10RoundRect,0.225000X0.375000X-0.225000X0.375000X0.225000X-0.375000X0.225000X-0.375000X-0.225000X0*%
%ADD11RoundRect,0.250000X-0.625000X0.375000X-0.625000X-0.375000X0.625000X-0.375000X0.625000X0.375000X0*%
%ADD12RoundRect,0.250000X1.025000X1.000000X-1.025000X1.000000X-1.025000X-1.000000X1.025000X-1.000000X0*%
%ADD13R,1.400000X1.200000*%
%ADD14RoundRect,0.250000X0.475000X-0.250000X0.475000X0.250000X-0.475000X0.250000X-0.475000X-0.250000X0*%
%ADD15RoundRect,0.250000X-0.250000X-0.475000X0.250000X-0.475000X0.250000X0.475000X-0.250000X0.475000X0*%
%ADD16RoundRect,0.250000X0.450000X-0.262500X0.450000X0.262500X-0.450000X0.262500X-0.450000X-0.262500X0*%
%ADD17RoundRect,0.250000X-0.475000X0.250000X-0.475000X-0.250000X0.475000X-0.250000X0.475000X0.250000X0*%
%ADD18R,1.500000X0.820000*%
%ADD19RoundRect,0.225000X0.225000X0.375000X-0.225000X0.375000X-0.225000X-0.375000X0.225000X-0.375000X0*%
%ADD20RoundRect,0.250000X0.250000X0.475000X-0.250000X0.475000X-0.250000X-0.475000X0.250000X-0.475000X0*%
%ADD21R,0.600000X1.140000*%
%ADD22R,0.300000X1.140000*%
%ADD23RoundRect,0.250000X0.262500X0.450000X-0.262500X0.450000X-0.262500X-0.450000X0.262500X-0.450000X0*%
%ADD24RoundRect,0.250000X-0.262500X-0.450000X0.262500X-0.450000X0.262500X0.450000X-0.262500X0.450000X0*%
%ADD25RoundRect,0.250000X-1.000000X1.025000X-1.000000X-1.025000X1.000000X-1.025000X1.000000X1.025000X0*%
%ADD26R,1.100000X0.600000*%
%ADD27RoundRect,0.250000X-0.450000X0.262500X-0.450000X-0.262500X0.450000X-0.262500X0.450000X0.262500X0*%
%ADD28R,1.000000X0.750000*%
%ADD29R,0.820000X1.500000*%
%ADD30R,1.500000X0.550000*%
%ADD31R,0.550000X1.500000*%
G04 APERTURE END LIST*
D10*
%TO.C,D7*%
X179387500Y-111125000D03*
X179387500Y-107825000D03*
%TD*%
D11*
%TO.C,F2*%
X244475000Y-72231250D03*
X244475000Y-75031250D03*
%TD*%
D12*
%TO.C,NumLock1*%
X160915000Y-67310000D03*
X174365000Y-64770000D03*
%TD*%
D13*
%TO.C,Y1*%
X239700000Y-109425000D03*
X241900000Y-109425000D03*
X241900000Y-111125000D03*
X239700000Y-111125000D03*
%TD*%
D14*
%TO.C,C10*%
X192881250Y-133193750D03*
X192881250Y-135093750D03*
%TD*%
D15*
%TO.C,C6*%
X243368750Y-93662500D03*
X245268750Y-93662500D03*
%TD*%
D16*
%TO.C,R1*%
X234156250Y-93900000D03*
X234156250Y-92075000D03*
%TD*%
D17*
%TO.C,C23*%
X200818750Y-110331250D03*
X200818750Y-112231250D03*
%TD*%
D18*
%TO.C,U6*%
X165366556Y-74166600D03*
X165366556Y-75666600D03*
X171166556Y-75666600D03*
X171166556Y-74166600D03*
%TD*%
D19*
%TO.C,D12*%
X228662500Y-106362500D03*
X225362500Y-106362500D03*
%TD*%
D10*
%TO.C,D8*%
X179387500Y-130300000D03*
X179387500Y-127000000D03*
%TD*%
D14*
%TO.C,C16*%
X192881250Y-96837500D03*
X192881250Y-94937500D03*
%TD*%
D10*
%TO.C,D4*%
X179387500Y-92200000D03*
X179387500Y-88900000D03*
%TD*%
D17*
%TO.C,C17*%
X172243750Y-148431250D03*
X172243750Y-150331250D03*
%TD*%
D12*
%TO.C,Custom-1*%
X249021250Y-67310000D03*
X262471250Y-64770000D03*
%TD*%
D14*
%TO.C,C13*%
X261937500Y-135250000D03*
X261937500Y-133350000D03*
%TD*%
D20*
%TO.C,C3*%
X238125000Y-92075000D03*
X236225000Y-92075000D03*
%TD*%
D21*
%TO.C,J2*%
X237937500Y-66587500D03*
X238737500Y-66587500D03*
D22*
X239887500Y-66587500D03*
X240887500Y-66587500D03*
X241387500Y-66587500D03*
X242387500Y-66587500D03*
D21*
X244337500Y-66587500D03*
X243537500Y-66587500D03*
D22*
X242887500Y-66587500D03*
X241887500Y-66587500D03*
X240387500Y-66587500D03*
X239387500Y-66587500D03*
%TD*%
D10*
%TO.C,D21*%
X169862500Y-149350000D03*
X169862500Y-146050000D03*
%TD*%
%TO.C,D5*%
X160337500Y-111250000D03*
X160337500Y-107950000D03*
%TD*%
D15*
%TO.C,C26*%
X247150000Y-63950000D03*
X249050000Y-63950000D03*
%TD*%
D14*
%TO.C,C14*%
X173831250Y-96837500D03*
X173831250Y-94937500D03*
%TD*%
D12*
%TO.C,Custom-3*%
X249021250Y-105410000D03*
X262471250Y-102870000D03*
%TD*%
D18*
%TO.C,U14*%
X184391156Y-112292000D03*
X184391156Y-113792000D03*
X190191156Y-113792000D03*
X190191156Y-112292000D03*
%TD*%
%TO.C,U4*%
X203460000Y-74163246D03*
X203460000Y-75663246D03*
X209260000Y-75663246D03*
X209260000Y-74163246D03*
%TD*%
D15*
%TO.C,C5*%
X243825000Y-110331250D03*
X245725000Y-110331250D03*
%TD*%
D10*
%TO.C,D9*%
X198437500Y-73150000D03*
X198437500Y-69850000D03*
%TD*%
D12*
%TO.C,Key_del1*%
X199015000Y-143510000D03*
X212465000Y-140970000D03*
%TD*%
D17*
%TO.C,C28*%
X219868750Y-72231250D03*
X219868750Y-74131250D03*
%TD*%
D10*
%TO.C,D18*%
X248443750Y-92075000D03*
X248443750Y-88775000D03*
%TD*%
D14*
%TO.C,C2*%
X232568750Y-107468750D03*
X232568750Y-105568750D03*
%TD*%
D17*
%TO.C,C4*%
X249237500Y-96043750D03*
X249237500Y-97943750D03*
%TD*%
%TO.C,C21*%
X250825000Y-110331250D03*
X250825000Y-112231250D03*
%TD*%
D12*
%TO.C,Key_4*%
X160915000Y-105410000D03*
X174365000Y-102870000D03*
%TD*%
D14*
%TO.C,C9*%
X211931250Y-134937500D03*
X211931250Y-133037500D03*
%TD*%
%TO.C,C1*%
X248840000Y-102990000D03*
X248840000Y-101090000D03*
%TD*%
D10*
%TO.C,D23*%
X198437500Y-149225000D03*
X198437500Y-145925000D03*
%TD*%
D12*
%TO.C,Key_6*%
X199015000Y-105410000D03*
X212465000Y-102870000D03*
%TD*%
D18*
%TO.C,U2*%
X253490044Y-74166600D03*
X253490044Y-75666600D03*
X259290044Y-75666600D03*
X259290044Y-74166600D03*
%TD*%
D12*
%TO.C,Key_0*%
X170440000Y-143510000D03*
X183890000Y-140970000D03*
%TD*%
D23*
%TO.C,R4*%
X245675000Y-115000000D03*
X243850000Y-115000000D03*
%TD*%
D18*
%TO.C,U15*%
X165366556Y-112266600D03*
X165366556Y-113766600D03*
X171166556Y-113766600D03*
X171166556Y-112266600D03*
%TD*%
D12*
%TO.C,Key_2*%
X179965000Y-124460000D03*
X193415000Y-121920000D03*
%TD*%
D19*
%TO.C,D16*%
X228725000Y-144462500D03*
X225425000Y-144462500D03*
%TD*%
D12*
%TO.C,Custom-4*%
X249021250Y-124460000D03*
X262471250Y-121920000D03*
%TD*%
D18*
%TO.C,U5*%
X184416556Y-74166600D03*
X184416556Y-75666600D03*
X190216556Y-75666600D03*
X190216556Y-74166600D03*
%TD*%
D10*
%TO.C,D11*%
X217487500Y-73150000D03*
X217487500Y-69850000D03*
%TD*%
%TO.C,D2*%
X179387500Y-73150000D03*
X179387500Y-69850000D03*
%TD*%
D12*
%TO.C,Key_\u002A1*%
X199015000Y-67310000D03*
X212465000Y-64770000D03*
%TD*%
D18*
%TO.C,U11*%
X259284044Y-94714400D03*
X259284044Y-93214400D03*
X253484044Y-93214400D03*
X253484044Y-94714400D03*
%TD*%
D10*
%TO.C,D13*%
X198437500Y-111250000D03*
X198437500Y-107950000D03*
%TD*%
D24*
%TO.C,R8*%
X235743750Y-69056250D03*
X237568750Y-69056250D03*
%TD*%
D10*
%TO.C,D14*%
X198437500Y-130300000D03*
X198437500Y-127000000D03*
%TD*%
D24*
%TO.C,R5*%
X241062500Y-81756250D03*
X242887500Y-81756250D03*
%TD*%
D17*
%TO.C,C20*%
X250825000Y-148431250D03*
X250825000Y-150331250D03*
%TD*%
D23*
%TO.C,R7*%
X245506250Y-69056250D03*
X243681250Y-69056250D03*
%TD*%
D25*
%TO.C,Key_+1*%
X222885000Y-105785000D03*
X220345000Y-92335000D03*
%TD*%
D18*
%TO.C,U16*%
X171177444Y-132822028D03*
X171177444Y-131322028D03*
X165377444Y-131322028D03*
X165377444Y-132822028D03*
%TD*%
D14*
%TO.C,C15*%
X211931250Y-96837500D03*
X211931250Y-94937500D03*
%TD*%
D16*
%TO.C,R2*%
X240032000Y-75325000D03*
X240032000Y-73500000D03*
%TD*%
D12*
%TO.C,Key_7*%
X160915000Y-86360000D03*
X174365000Y-83820000D03*
%TD*%
D18*
%TO.C,U3*%
X222516556Y-74166600D03*
X222516556Y-75666600D03*
X228316556Y-75666600D03*
X228316556Y-74166600D03*
%TD*%
%TO.C,U17*%
X190227444Y-132822028D03*
X190227444Y-131322028D03*
X184427444Y-131322028D03*
X184427444Y-132822028D03*
%TD*%
D26*
%TO.C,TV1*%
X239156250Y-71003200D03*
X239156250Y-70053200D03*
X239156250Y-69103200D03*
X241856250Y-69103200D03*
X241856250Y-70053200D03*
X241856250Y-71003200D03*
%TD*%
D17*
%TO.C,C31*%
X162718750Y-72231250D03*
X162718750Y-74131250D03*
%TD*%
D10*
%TO.C,D20*%
X248443750Y-130237500D03*
X248443750Y-126937500D03*
%TD*%
D18*
%TO.C,U24*%
X174891556Y-150366600D03*
X174891556Y-151866600D03*
X180691556Y-151866600D03*
X180691556Y-150366600D03*
%TD*%
D10*
%TO.C,D17*%
X248443750Y-73150000D03*
X248443750Y-69850000D03*
%TD*%
D17*
%TO.C,C24*%
X181768750Y-110331250D03*
X181768750Y-112231250D03*
%TD*%
D18*
%TO.C,U23*%
X203491956Y-150366600D03*
X203491956Y-151866600D03*
X209291956Y-151866600D03*
X209291956Y-150366600D03*
%TD*%
D12*
%TO.C,Custom-2*%
X249021250Y-86360000D03*
X262471250Y-83820000D03*
%TD*%
D27*
%TO.C,R3*%
X238000000Y-73500000D03*
X238000000Y-75325000D03*
%TD*%
D17*
%TO.C,C18*%
X200818750Y-148431250D03*
X200818750Y-150331250D03*
%TD*%
D10*
%TO.C,D6*%
X160337500Y-130237500D03*
X160337500Y-126937500D03*
%TD*%
%TO.C,D1*%
X160337500Y-73087500D03*
X160337500Y-69787500D03*
%TD*%
D17*
%TO.C,C29*%
X200818750Y-72231250D03*
X200818750Y-74131250D03*
%TD*%
D12*
%TO.C,Key_8*%
X179965000Y-86360000D03*
X193415000Y-83820000D03*
%TD*%
D18*
%TO.C,U7*%
X171197956Y-94745555D03*
X171197956Y-93245555D03*
X165397956Y-93245555D03*
X165397956Y-94745555D03*
%TD*%
%TO.C,U22*%
X253485156Y-150371645D03*
X253485156Y-151871645D03*
X259285156Y-151871645D03*
X259285156Y-150371645D03*
%TD*%
D28*
%TO.C,S2*%
X235850000Y-118875000D03*
X241850000Y-118875000D03*
X235850000Y-115125000D03*
X241850000Y-115125000D03*
%TD*%
D18*
%TO.C,U21*%
X259284044Y-132814400D03*
X259284044Y-131314400D03*
X253484044Y-131314400D03*
X253484044Y-132814400D03*
%TD*%
D15*
%TO.C,C22*%
X229393750Y-92868750D03*
X231293750Y-92868750D03*
%TD*%
D17*
%TO.C,C25*%
X162718750Y-110331250D03*
X162718750Y-112231250D03*
%TD*%
%TO.C,C7*%
X237137500Y-109225000D03*
X237137500Y-111125000D03*
%TD*%
D18*
%TO.C,U18*%
X209271444Y-132814400D03*
X209271444Y-131314400D03*
X203471444Y-131314400D03*
X203471444Y-132814400D03*
%TD*%
%TO.C,U13*%
X203466556Y-112268000D03*
X203466556Y-113768000D03*
X209266556Y-113768000D03*
X209266556Y-112268000D03*
%TD*%
D12*
%TO.C,Key_3*%
X199015000Y-124460000D03*
X212465000Y-121920000D03*
%TD*%
%TO.C,Key_-1*%
X218065000Y-67310000D03*
X231515000Y-64770000D03*
%TD*%
D10*
%TO.C,D10*%
X198437500Y-92200000D03*
X198437500Y-88900000D03*
%TD*%
D29*
%TO.C,U20*%
X231240800Y-133616556D03*
X229740800Y-133616556D03*
X229740800Y-139416556D03*
X231240800Y-139416556D03*
%TD*%
D15*
%TO.C,C19*%
X229393750Y-130968750D03*
X231293750Y-130968750D03*
%TD*%
D17*
%TO.C,C27*%
X250825000Y-72231250D03*
X250825000Y-74131250D03*
%TD*%
D18*
%TO.C,U8*%
X190221444Y-94714400D03*
X190221444Y-93214400D03*
X184421444Y-93214400D03*
X184421444Y-94714400D03*
%TD*%
D12*
%TO.C,Key_9*%
X199015000Y-86360000D03*
X212465000Y-83820000D03*
%TD*%
D15*
%TO.C,C8*%
X243825000Y-112712500D03*
X245725000Y-112712500D03*
%TD*%
D12*
%TO.C,Key_1*%
X160915000Y-124460000D03*
X174365000Y-121920000D03*
%TD*%
D14*
%TO.C,C12*%
X261937500Y-96837500D03*
X261937500Y-94937500D03*
%TD*%
D29*
%TO.C,U10*%
X231247028Y-95528556D03*
X229747028Y-95528556D03*
X229747028Y-101328556D03*
X231247028Y-101328556D03*
%TD*%
D10*
%TO.C,D25*%
X248443750Y-149287500D03*
X248443750Y-145987500D03*
%TD*%
D12*
%TO.C,Custom-5*%
X249021250Y-143510000D03*
X262471250Y-140970000D03*
%TD*%
%TO.C,Key_/1*%
X179965000Y-67310000D03*
X193415000Y-64770000D03*
%TD*%
D25*
%TO.C,Key_enter1*%
X222885000Y-143885000D03*
X220345000Y-130435000D03*
%TD*%
D10*
%TO.C,D19*%
X248443750Y-111187500D03*
X248443750Y-107887500D03*
%TD*%
D18*
%TO.C,U9*%
X209258044Y-94714400D03*
X209258044Y-93214400D03*
X203458044Y-93214400D03*
X203458044Y-94714400D03*
%TD*%
D30*
%TO.C,U1*%
X246206250Y-97600000D03*
X246206250Y-98400000D03*
X246206250Y-99200000D03*
X246206250Y-100000000D03*
X246206250Y-100800000D03*
X246206250Y-101600000D03*
X246206250Y-102400000D03*
X246206250Y-103200000D03*
X246206250Y-104000000D03*
X246206250Y-104800000D03*
X246206250Y-105600000D03*
D31*
X244506250Y-107300000D03*
X243706250Y-107300000D03*
X242906250Y-107300000D03*
X242106250Y-107300000D03*
X241306250Y-107300000D03*
X240506250Y-107300000D03*
X239706250Y-107300000D03*
X238906250Y-107300000D03*
X238106250Y-107300000D03*
X237306250Y-107300000D03*
X236506250Y-107300000D03*
D30*
X234806250Y-105600000D03*
X234806250Y-104800000D03*
X234806250Y-104000000D03*
X234806250Y-103200000D03*
X234806250Y-102400000D03*
X234806250Y-101600000D03*
X234806250Y-100800000D03*
X234806250Y-100000000D03*
X234806250Y-99200000D03*
X234806250Y-98400000D03*
X234806250Y-97600000D03*
D31*
X236506250Y-95900000D03*
X237306250Y-95900000D03*
X238106250Y-95900000D03*
X238906250Y-95900000D03*
X239706250Y-95900000D03*
X240506250Y-95900000D03*
X241306250Y-95900000D03*
X242106250Y-95900000D03*
X242906250Y-95900000D03*
X243706250Y-95900000D03*
X244506250Y-95900000D03*
%TD*%
D12*
%TO.C,Key_5*%
X179965000Y-105410000D03*
X193415000Y-102870000D03*
%TD*%
D17*
%TO.C,C30*%
X181768750Y-72231250D03*
X181768750Y-74131250D03*
%TD*%
D14*
%TO.C,C11*%
X173831250Y-134937500D03*
X173831250Y-133037500D03*
%TD*%
D10*
%TO.C,D3*%
X160337500Y-92075000D03*
X160337500Y-88775000D03*
%TD*%
D18*
%TO.C,U12*%
X253485156Y-112297045D03*
X253485156Y-113797045D03*
X259285156Y-113797045D03*
X259285156Y-112297045D03*
%TD*%
M02*
