%TF.GenerationSoftware,KiCad,Pcbnew,8.0.6*%
%TF.CreationDate,2024-11-23T01:04:23-05:00*%
%TF.ProjectId,keyboard,6b657962-6f61-4726-942e-6b696361645f,rev?*%
%TF.SameCoordinates,Original*%
%TF.FileFunction,Soldermask,Top*%
%TF.FilePolarity,Negative*%
%FSLAX46Y46*%
G04 Gerber Fmt 4.6, Leading zero omitted, Abs format (unit mm)*
G04 Created by KiCad (PCBNEW 8.0.6) date 2024-11-23 01:04:23*
%MOMM*%
%LPD*%
G01*
G04 APERTURE LIST*
%ADD10O,1.104000X1.904000*%
%ADD11O,1.104000X2.204000*%
%ADD12C,0.600000*%
%ADD13C,3.987800*%
%ADD14C,1.701800*%
%ADD15C,3.000000*%
%ADD16C,3.048000*%
G04 APERTURE END LIST*
D10*
%TO.C,J2*%
X245462500Y-61837500D03*
X236812500Y-61837500D03*
D11*
X245462500Y-66007500D03*
X236812500Y-66007500D03*
D12*
X244027500Y-65517500D03*
X238247500Y-65517500D03*
%TD*%
D13*
%TO.C,Key_enter1*%
X217170000Y-148463000D03*
X217170000Y-124587000D03*
D14*
X220345000Y-136525000D03*
D15*
X221615000Y-133985000D03*
D13*
X225425000Y-136525000D03*
D15*
X227965000Y-131445000D03*
D14*
X230505000Y-136525000D03*
D16*
X232410000Y-148463000D03*
X232410000Y-124587000D03*
%TD*%
D13*
%TO.C,Key_0*%
X189738000Y-137795000D03*
D16*
X189738000Y-153035000D03*
D14*
X182880000Y-146050000D03*
D15*
X180340000Y-140970000D03*
D13*
X177800000Y-146050000D03*
D15*
X173990000Y-143510000D03*
D14*
X172720000Y-146050000D03*
D13*
X165862000Y-137795000D03*
D16*
X165862000Y-153035000D03*
%TD*%
%TO.C,Key_+1*%
X232410000Y-86487000D03*
X232410000Y-110363000D03*
D14*
X230505000Y-98425000D03*
D15*
X227965000Y-93345000D03*
D13*
X225425000Y-98425000D03*
D15*
X221615000Y-95885000D03*
D14*
X220345000Y-98425000D03*
D13*
X217170000Y-86487000D03*
X217170000Y-110363000D03*
%TD*%
D14*
%TO.C,Custom-1*%
X261461250Y-69850000D03*
D15*
X258921250Y-64770000D03*
D13*
X256381250Y-69850000D03*
D15*
X252571250Y-67310000D03*
D14*
X251301250Y-69850000D03*
%TD*%
%TO.C,Custom-3*%
X261461250Y-107950000D03*
D15*
X258921250Y-102870000D03*
D13*
X256381250Y-107950000D03*
D15*
X252571250Y-105410000D03*
D14*
X251301250Y-107950000D03*
%TD*%
%TO.C,Key_del1*%
X211455000Y-146050000D03*
D15*
X208915000Y-140970000D03*
D13*
X206375000Y-146050000D03*
D15*
X202565000Y-143510000D03*
D14*
X201295000Y-146050000D03*
%TD*%
%TO.C,Key_4*%
X173355000Y-107950000D03*
D15*
X170815000Y-102870000D03*
D13*
X168275000Y-107950000D03*
D15*
X164465000Y-105410000D03*
D14*
X163195000Y-107950000D03*
%TD*%
%TO.C,Key_6*%
X211455000Y-107950000D03*
D15*
X208915000Y-102870000D03*
D13*
X206375000Y-107950000D03*
D15*
X202565000Y-105410000D03*
D14*
X201295000Y-107950000D03*
%TD*%
%TO.C,Key_2*%
X192405000Y-127000000D03*
D15*
X189865000Y-121920000D03*
D13*
X187325000Y-127000000D03*
D15*
X183515000Y-124460000D03*
D14*
X182245000Y-127000000D03*
%TD*%
%TO.C,Custom-4*%
X251301250Y-127000000D03*
D15*
X252571250Y-124460000D03*
D13*
X256381250Y-127000000D03*
D15*
X258921250Y-121920000D03*
D14*
X261461250Y-127000000D03*
%TD*%
%TO.C,Key_\u002A1*%
X201295000Y-69850000D03*
D15*
X202565000Y-67310000D03*
D13*
X206375000Y-69850000D03*
D15*
X208915000Y-64770000D03*
D14*
X211455000Y-69850000D03*
%TD*%
%TO.C,Key_7*%
X173355000Y-88900000D03*
D15*
X170815000Y-83820000D03*
D13*
X168275000Y-88900000D03*
D15*
X164465000Y-86360000D03*
D14*
X163195000Y-88900000D03*
%TD*%
%TO.C,Custom-2*%
X251301250Y-88900000D03*
D15*
X252571250Y-86360000D03*
D13*
X256381250Y-88900000D03*
D15*
X258921250Y-83820000D03*
D14*
X261461250Y-88900000D03*
%TD*%
%TO.C,Key_8*%
X192405000Y-88900000D03*
D15*
X189865000Y-83820000D03*
D13*
X187325000Y-88900000D03*
D15*
X183515000Y-86360000D03*
D14*
X182245000Y-88900000D03*
%TD*%
%TO.C,Key_3*%
X211455000Y-127000000D03*
D15*
X208915000Y-121920000D03*
D13*
X206375000Y-127000000D03*
D15*
X202565000Y-124460000D03*
D14*
X201295000Y-127000000D03*
%TD*%
%TO.C,Key_-1*%
X220345000Y-69850000D03*
D15*
X221615000Y-67310000D03*
D13*
X225425000Y-69850000D03*
D15*
X227965000Y-64770000D03*
D14*
X230505000Y-69850000D03*
%TD*%
%TO.C,Key_9*%
X211455000Y-88900000D03*
D15*
X208915000Y-83820000D03*
D13*
X206375000Y-88900000D03*
D15*
X202565000Y-86360000D03*
D14*
X201295000Y-88900000D03*
%TD*%
%TO.C,Key_1*%
X173355000Y-127000000D03*
D15*
X170815000Y-121920000D03*
D13*
X168275000Y-127000000D03*
D15*
X164465000Y-124460000D03*
D14*
X163195000Y-127000000D03*
%TD*%
%TO.C,Custom-5*%
X251301250Y-146050000D03*
D15*
X252571250Y-143510000D03*
D13*
X256381250Y-146050000D03*
D15*
X258921250Y-140970000D03*
D14*
X261461250Y-146050000D03*
%TD*%
%TO.C,Key_/1*%
X182245000Y-69850000D03*
D15*
X183515000Y-67310000D03*
D13*
X187325000Y-69850000D03*
D15*
X189865000Y-64770000D03*
D14*
X192405000Y-69850000D03*
%TD*%
%TO.C,Key_5*%
X192405000Y-107950000D03*
D15*
X189865000Y-102870000D03*
D13*
X187325000Y-107950000D03*
D15*
X183515000Y-105410000D03*
D14*
X182245000Y-107950000D03*
%TD*%
%TO.C,NumLock1*%
X173355000Y-69850000D03*
D15*
X170815000Y-64770000D03*
D13*
X168275000Y-69850000D03*
D15*
X164465000Y-67310000D03*
D14*
X163195000Y-69850000D03*
%TD*%
M02*
