%TF.GenerationSoftware,KiCad,Pcbnew,8.0.6*%
%TF.CreationDate,2024-11-23T01:04:23-05:00*%
%TF.ProjectId,keyboard,6b657962-6f61-4726-942e-6b696361645f,rev?*%
%TF.SameCoordinates,Original*%
%TF.FileFunction,Paste,Bot*%
%TF.FilePolarity,Positive*%
%FSLAX46Y46*%
G04 Gerber Fmt 4.6, Leading zero omitted, Abs format (unit mm)*
G04 Created by KiCad (PCBNEW 8.0.6) date 2024-11-23 01:04:23*
%MOMM*%
%LPD*%
G01*
G04 APERTURE LIST*
G04 Aperture macros list*
%AMRoundRect*
0 Rectangle with rounded corners*
0 $1 Rounding radius*
0 $2 $3 $4 $5 $6 $7 $8 $9 X,Y pos of 4 corners*
0 Add a 4 corners polygon primitive as box body*
4,1,4,$2,$3,$4,$5,$6,$7,$8,$9,$2,$3,0*
0 Add four circle primitives for the rounded corners*
1,1,$1+$1,$2,$3*
1,1,$1+$1,$4,$5*
1,1,$1+$1,$6,$7*
1,1,$1+$1,$8,$9*
0 Add four rect primitives between the rounded corners*
20,1,$1+$1,$2,$3,$4,$5,0*
20,1,$1+$1,$4,$5,$6,$7,0*
20,1,$1+$1,$6,$7,$8,$9,0*
20,1,$1+$1,$8,$9,$2,$3,0*%
G04 Aperture macros list end*
%ADD10R,0.300000X1.140000*%
%ADD11R,0.600000X1.140000*%
%ADD12R,1.100000X0.600000*%
%ADD13R,1.500000X0.550000*%
%ADD14R,0.550000X1.500000*%
%ADD15RoundRect,0.200000X1.075000X1.050000X-1.075000X1.050000X-1.075000X-1.050000X1.075000X-1.050000X0*%
%ADD16RoundRect,0.250000X-0.262500X-0.450000X0.262500X-0.450000X0.262500X0.450000X-0.262500X0.450000X0*%
%ADD17RoundRect,0.250000X0.262500X0.450000X-0.262500X0.450000X-0.262500X-0.450000X0.262500X-0.450000X0*%
%ADD18R,0.750000X1.000000*%
%ADD19R,1.400000X1.200000*%
%ADD20RoundRect,0.250000X-0.250000X-0.475000X0.250000X-0.475000X0.250000X0.475000X-0.250000X0.475000X0*%
%ADD21RoundRect,0.250000X0.450000X-0.262500X0.450000X0.262500X-0.450000X0.262500X-0.450000X-0.262500X0*%
%ADD22RoundRect,0.225000X0.375000X-0.225000X0.375000X0.225000X-0.375000X0.225000X-0.375000X-0.225000X0*%
%ADD23RoundRect,0.250000X0.475000X-0.250000X0.475000X0.250000X-0.475000X0.250000X-0.475000X-0.250000X0*%
%ADD24RoundRect,0.250000X-0.475000X0.250000X-0.475000X-0.250000X0.475000X-0.250000X0.475000X0.250000X0*%
%ADD25RoundRect,0.225000X-0.375000X0.225000X-0.375000X-0.225000X0.375000X-0.225000X0.375000X0.225000X0*%
%ADD26RoundRect,0.250000X-0.450000X0.262500X-0.450000X-0.262500X0.450000X-0.262500X0.450000X0.262500X0*%
%ADD27RoundRect,0.250000X0.250000X0.475000X-0.250000X0.475000X-0.250000X-0.475000X0.250000X-0.475000X0*%
%ADD28RoundRect,0.250000X-0.625000X0.375000X-0.625000X-0.375000X0.625000X-0.375000X0.625000X0.375000X0*%
G04 APERTURE END LIST*
D10*
%TO.C,J2*%
X239387500Y-66587500D03*
X240387500Y-66587500D03*
X241887500Y-66587500D03*
X242887500Y-66587500D03*
D11*
X243537500Y-66587500D03*
X244337500Y-66587500D03*
D10*
X242387500Y-66587500D03*
X241387500Y-66587500D03*
X240887500Y-66587500D03*
X239887500Y-66587500D03*
D11*
X238737500Y-66587500D03*
X237937500Y-66587500D03*
%TD*%
D12*
%TO.C,TV1*%
X239156250Y-71003200D03*
X239156250Y-70053200D03*
X239156250Y-69103200D03*
X241856250Y-69103200D03*
X241856250Y-70053200D03*
X241856250Y-71003200D03*
%TD*%
D13*
%TO.C,U1*%
X246856250Y-97625000D03*
X246856250Y-98425000D03*
X246856250Y-99225000D03*
X246856250Y-100025000D03*
X246856250Y-100825000D03*
X246856250Y-101625000D03*
X246856250Y-102425000D03*
X246856250Y-103225000D03*
X246856250Y-104025000D03*
X246856250Y-104825000D03*
X246856250Y-105625000D03*
D14*
X245156250Y-107325000D03*
X244356250Y-107325000D03*
X243556250Y-107325000D03*
X242756250Y-107325000D03*
X241956250Y-107325000D03*
X241156250Y-107325000D03*
X240356250Y-107325000D03*
X239556250Y-107325000D03*
X238756250Y-107325000D03*
X237956250Y-107325000D03*
X237156250Y-107325000D03*
D13*
X235456250Y-105625000D03*
X235456250Y-104825000D03*
X235456250Y-104025000D03*
X235456250Y-103225000D03*
X235456250Y-102425000D03*
X235456250Y-101625000D03*
X235456250Y-100825000D03*
X235456250Y-100025000D03*
X235456250Y-99225000D03*
X235456250Y-98425000D03*
X235456250Y-97625000D03*
D14*
X237156250Y-95925000D03*
X237956250Y-95925000D03*
X238756250Y-95925000D03*
X239556250Y-95925000D03*
X240356250Y-95925000D03*
X241156250Y-95925000D03*
X241956250Y-95925000D03*
X242756250Y-95925000D03*
X243556250Y-95925000D03*
X244356250Y-95925000D03*
X245156250Y-95925000D03*
%TD*%
D15*
%TO.C,Key_enter1*%
X231267000Y-131445000D03*
X218340000Y-133985000D03*
%TD*%
%TO.C,Key_0*%
X170715000Y-143510000D03*
X183642000Y-140970000D03*
%TD*%
%TO.C,Key_+1*%
X218340000Y-95885000D03*
X231267000Y-93345000D03*
%TD*%
D16*
%TO.C,R8*%
X235743750Y-69056250D03*
X237568750Y-69056250D03*
%TD*%
D17*
%TO.C,R7*%
X245506250Y-69056250D03*
X243681250Y-69056250D03*
%TD*%
D18*
%TO.C,S2*%
X238631250Y-127175000D03*
X238631250Y-133175000D03*
X242381250Y-127175000D03*
X242381250Y-133175000D03*
%TD*%
D15*
%TO.C,Custom-1*%
X249296250Y-67310000D03*
X262223250Y-64770000D03*
%TD*%
%TO.C,Custom-3*%
X249296250Y-105410000D03*
X262223250Y-102870000D03*
%TD*%
%TO.C,Key_del1*%
X199290000Y-143510000D03*
X212217000Y-140970000D03*
%TD*%
%TO.C,Key_4*%
X161190000Y-105410000D03*
X174117000Y-102870000D03*
%TD*%
%TO.C,Key_6*%
X199290000Y-105410000D03*
X212217000Y-102870000D03*
%TD*%
%TO.C,Key_2*%
X180240000Y-124460000D03*
X193167000Y-121920000D03*
%TD*%
%TO.C,Custom-4*%
X262223250Y-121920000D03*
X249296250Y-124460000D03*
%TD*%
%TO.C,Key_\u002A1*%
X212217000Y-64770000D03*
X199290000Y-67310000D03*
%TD*%
%TO.C,Key_7*%
X161190000Y-86360000D03*
X174117000Y-83820000D03*
%TD*%
%TO.C,Custom-2*%
X262223250Y-83820000D03*
X249296250Y-86360000D03*
%TD*%
%TO.C,Key_8*%
X180240000Y-86360000D03*
X193167000Y-83820000D03*
%TD*%
%TO.C,Key_3*%
X199290000Y-124460000D03*
X212217000Y-121920000D03*
%TD*%
%TO.C,Key_-1*%
X231267000Y-64770000D03*
X218340000Y-67310000D03*
%TD*%
%TO.C,Key_9*%
X199290000Y-86360000D03*
X212217000Y-83820000D03*
%TD*%
%TO.C,Key_1*%
X161190000Y-124460000D03*
X174117000Y-121920000D03*
%TD*%
%TO.C,Custom-5*%
X262223250Y-140970000D03*
X249296250Y-143510000D03*
%TD*%
%TO.C,Key_/1*%
X193167000Y-64770000D03*
X180240000Y-67310000D03*
%TD*%
%TO.C,Key_5*%
X180240000Y-105410000D03*
X193167000Y-102870000D03*
%TD*%
D19*
%TO.C,Y1*%
X240350000Y-109425000D03*
X242550000Y-109425000D03*
X242550000Y-111125000D03*
X240350000Y-111125000D03*
%TD*%
D20*
%TO.C,C6*%
X245268750Y-93662500D03*
X243368750Y-93662500D03*
%TD*%
D21*
%TO.C,R1*%
X233362500Y-96043750D03*
X233362500Y-97868750D03*
%TD*%
D22*
%TO.C,D1*%
X160337500Y-69787500D03*
X160337500Y-73087500D03*
%TD*%
%TO.C,D14*%
X198437500Y-126937500D03*
X198437500Y-130237500D03*
%TD*%
%TO.C,D8*%
X179387500Y-126937500D03*
X179387500Y-130237500D03*
%TD*%
%TO.C,D6*%
X160337500Y-126937500D03*
X160337500Y-130237500D03*
%TD*%
D20*
%TO.C,C5*%
X246375000Y-110331250D03*
X244475000Y-110331250D03*
%TD*%
D22*
%TO.C,D4*%
X179387500Y-88775000D03*
X179387500Y-92075000D03*
%TD*%
D23*
%TO.C,C2*%
X233362500Y-104775000D03*
X233362500Y-106675000D03*
%TD*%
D24*
%TO.C,C4*%
X249237500Y-98425000D03*
X249237500Y-96525000D03*
%TD*%
D20*
%TO.C,C1*%
X255150000Y-99750000D03*
X253250000Y-99750000D03*
%TD*%
D22*
%TO.C,D2*%
X179387500Y-69787500D03*
X179387500Y-73087500D03*
%TD*%
%TO.C,D10*%
X198437500Y-88837500D03*
X198437500Y-92137500D03*
%TD*%
%TO.C,D11*%
X217487500Y-69787500D03*
X217487500Y-73087500D03*
%TD*%
D16*
%TO.C,R4*%
X240268750Y-125412500D03*
X242093750Y-125412500D03*
%TD*%
D22*
%TO.C,D7*%
X179387500Y-107887500D03*
X179387500Y-111187500D03*
%TD*%
%TO.C,D5*%
X160337500Y-107887500D03*
X160337500Y-111187500D03*
%TD*%
%TO.C,D23*%
X198437500Y-145987500D03*
X198437500Y-149287500D03*
%TD*%
%TO.C,D19*%
X249237500Y-108681250D03*
X249237500Y-111981250D03*
%TD*%
D21*
%TO.C,R2*%
X240982500Y-73025000D03*
X240982500Y-74850000D03*
%TD*%
D25*
%TO.C,D12*%
X217487500Y-93787500D03*
X217487500Y-90487500D03*
%TD*%
D26*
%TO.C,R3*%
X238950500Y-74850000D03*
X238950500Y-73025000D03*
%TD*%
D22*
%TO.C,D3*%
X160337500Y-88775000D03*
X160337500Y-92075000D03*
%TD*%
%TO.C,D13*%
X198437500Y-107887500D03*
X198437500Y-111187500D03*
%TD*%
D24*
%TO.C,C7*%
X237787500Y-109225000D03*
X237787500Y-111125000D03*
%TD*%
D22*
%TO.C,D18*%
X248443750Y-92137500D03*
X248443750Y-88837500D03*
%TD*%
%TO.C,D25*%
X248443750Y-149287500D03*
X248443750Y-145987500D03*
%TD*%
%TO.C,D9*%
X198437500Y-69787500D03*
X198437500Y-73087500D03*
%TD*%
D25*
%TO.C,D16*%
X217487500Y-131825000D03*
X217487500Y-128525000D03*
%TD*%
D22*
%TO.C,D20*%
X248443750Y-130175000D03*
X248443750Y-126875000D03*
%TD*%
D20*
%TO.C,C8*%
X246375000Y-112712500D03*
X244475000Y-112712500D03*
%TD*%
D22*
%TO.C,D21*%
X169862500Y-145987500D03*
X169862500Y-149287500D03*
%TD*%
%TO.C,D17*%
X251618750Y-75406250D03*
X251618750Y-72106250D03*
%TD*%
D15*
%TO.C,NumLock1*%
X161190000Y-67310000D03*
X174117000Y-64770000D03*
%TD*%
D27*
%TO.C,C3*%
X236225000Y-92075000D03*
X238125000Y-92075000D03*
%TD*%
D28*
%TO.C,F2*%
X244475000Y-72231250D03*
X244475000Y-75031250D03*
%TD*%
M02*
