M48
; DRILL file {KiCad 8.0.6} date 2024-11-30T15:29:53-0500
; FORMAT={-:-/ absolute / metric / decimal}
; #@! TF.CreationDate,2024-11-30T15:29:53-05:00
; #@! TF.GenerationSoftware,Kicad,Pcbnew,8.0.6
; #@! TF.FileFunction,NonPlated,1,2,NPTH
FMAT,2
METRIC
; #@! TA.AperFunction,NonPlated,NPTH,ComponentDrill
T1C0.600
; #@! TA.AperFunction,NonPlated,NPTH,ComponentDrill
T2C1.750
; #@! TA.AperFunction,NonPlated,NPTH,ComponentDrill
T3C3.048
; #@! TA.AperFunction,NonPlated,NPTH,ComponentDrill
T4C3.200
; #@! TA.AperFunction,NonPlated,NPTH,ComponentDrill
T5C3.988
%
G90
G05
T1
X238.248Y-65.517
X244.027Y-65.517
T2
X163.195Y-69.85
X163.195Y-88.9
X163.195Y-107.95
X163.195Y-127.0
X172.72Y-146.05
X173.355Y-69.85
X173.355Y-88.9
X173.355Y-107.95
X173.355Y-127.0
X182.245Y-69.85
X182.245Y-88.9
X182.245Y-107.95
X182.245Y-127.0
X182.88Y-146.05
X192.405Y-69.85
X192.405Y-88.9
X192.405Y-107.95
X192.405Y-127.0
X201.295Y-69.85
X201.295Y-88.9
X201.295Y-107.95
X201.295Y-127.0
X201.295Y-146.05
X211.455Y-69.85
X211.455Y-88.9
X211.455Y-107.95
X211.455Y-127.0
X211.455Y-146.05
X220.345Y-69.85
X225.425Y-93.345
X225.425Y-103.505
X225.425Y-131.445
X225.425Y-141.605
X230.505Y-69.85
X251.301Y-69.85
X251.301Y-88.9
X251.301Y-107.95
X251.301Y-127.0
X251.301Y-146.05
X261.461Y-69.85
X261.461Y-88.9
X261.461Y-107.95
X261.461Y-127.0
X261.461Y-146.05
T3
X165.885Y-153.031
X189.698Y-153.031
X232.41Y-124.619
X232.41Y-148.431
X232.413Y-86.522
X232.413Y-110.335
T4
X196.85Y-79.375
X196.85Y-136.525
X246.856Y-79.375
X246.856Y-136.525
T5
X165.885Y-137.791
X168.275Y-69.85
X168.275Y-88.9
X168.275Y-107.95
X168.275Y-127.0
X177.8Y-146.05
X187.325Y-69.85
X187.325Y-88.9
X187.325Y-107.95
X187.325Y-127.0
X189.698Y-137.791
X206.375Y-69.85
X206.375Y-88.9
X206.375Y-107.95
X206.375Y-127.0
X206.375Y-146.05
X217.17Y-124.619
X217.17Y-148.431
X217.173Y-86.522
X217.173Y-110.335
X225.425Y-69.85
X225.425Y-98.425
X225.425Y-136.525
X256.381Y-69.85
X256.381Y-88.9
X256.381Y-107.95
X256.381Y-127.0
X256.381Y-146.05
M30
