%TF.GenerationSoftware,KiCad,Pcbnew,8.0.6*%
%TF.CreationDate,2024-11-23T01:04:23-05:00*%
%TF.ProjectId,keyboard,6b657962-6f61-4726-942e-6b696361645f,rev?*%
%TF.SameCoordinates,Original*%
%TF.FileFunction,Legend,Bot*%
%TF.FilePolarity,Positive*%
%FSLAX46Y46*%
G04 Gerber Fmt 4.6, Leading zero omitted, Abs format (unit mm)*
G04 Created by KiCad (PCBNEW 8.0.6) date 2024-11-23 01:04:23*
%MOMM*%
%LPD*%
G01*
G04 APERTURE LIST*
%ADD10C,0.150000*%
%ADD11C,0.127000*%
%ADD12C,0.200000*%
%ADD13C,0.120000*%
%ADD14C,0.254000*%
G04 APERTURE END LIST*
D10*
X241379333Y-62954819D02*
X241379333Y-63669104D01*
X241379333Y-63669104D02*
X241426952Y-63811961D01*
X241426952Y-63811961D02*
X241522190Y-63907200D01*
X241522190Y-63907200D02*
X241665047Y-63954819D01*
X241665047Y-63954819D02*
X241760285Y-63954819D01*
X240950761Y-63050057D02*
X240903142Y-63002438D01*
X240903142Y-63002438D02*
X240807904Y-62954819D01*
X240807904Y-62954819D02*
X240569809Y-62954819D01*
X240569809Y-62954819D02*
X240474571Y-63002438D01*
X240474571Y-63002438D02*
X240426952Y-63050057D01*
X240426952Y-63050057D02*
X240379333Y-63145295D01*
X240379333Y-63145295D02*
X240379333Y-63240533D01*
X240379333Y-63240533D02*
X240426952Y-63383390D01*
X240426952Y-63383390D02*
X240998380Y-63954819D01*
X240998380Y-63954819D02*
X240379333Y-63954819D01*
X237857142Y-73454819D02*
X237857142Y-72454819D01*
X237857142Y-72454819D02*
X237619047Y-72454819D01*
X237619047Y-72454819D02*
X237476190Y-72502438D01*
X237476190Y-72502438D02*
X237380952Y-72597676D01*
X237380952Y-72597676D02*
X237333333Y-72692914D01*
X237333333Y-72692914D02*
X237285714Y-72883390D01*
X237285714Y-72883390D02*
X237285714Y-73026247D01*
X237285714Y-73026247D02*
X237333333Y-73216723D01*
X237333333Y-73216723D02*
X237380952Y-73311961D01*
X237380952Y-73311961D02*
X237476190Y-73407200D01*
X237476190Y-73407200D02*
X237619047Y-73454819D01*
X237619047Y-73454819D02*
X237857142Y-73454819D01*
X236857142Y-73073866D02*
X236095238Y-73073866D01*
X235095238Y-73454819D02*
X235666666Y-73454819D01*
X235380952Y-73454819D02*
X235380952Y-72454819D01*
X235380952Y-72454819D02*
X235476190Y-72597676D01*
X235476190Y-72597676D02*
X235571428Y-72692914D01*
X235571428Y-72692914D02*
X235666666Y-72740533D01*
X244244642Y-79036069D02*
X244244642Y-78036069D01*
X244244642Y-78036069D02*
X244006547Y-78036069D01*
X244006547Y-78036069D02*
X243863690Y-78083688D01*
X243863690Y-78083688D02*
X243768452Y-78178926D01*
X243768452Y-78178926D02*
X243720833Y-78274164D01*
X243720833Y-78274164D02*
X243673214Y-78464640D01*
X243673214Y-78464640D02*
X243673214Y-78607497D01*
X243673214Y-78607497D02*
X243720833Y-78797973D01*
X243720833Y-78797973D02*
X243768452Y-78893211D01*
X243768452Y-78893211D02*
X243863690Y-78988450D01*
X243863690Y-78988450D02*
X244006547Y-79036069D01*
X244006547Y-79036069D02*
X244244642Y-79036069D01*
X243244642Y-78655116D02*
X242482738Y-78655116D01*
X242863690Y-79036069D02*
X242863690Y-78274164D01*
X241482738Y-79036069D02*
X242054166Y-79036069D01*
X241768452Y-79036069D02*
X241768452Y-78036069D01*
X241768452Y-78036069D02*
X241863690Y-78178926D01*
X241863690Y-78178926D02*
X241958928Y-78274164D01*
X241958928Y-78274164D02*
X242054166Y-78321783D01*
X239961069Y-68862724D02*
X239961069Y-69434152D01*
X240961069Y-69148438D02*
X239961069Y-69148438D01*
X239961069Y-69624629D02*
X240961069Y-69957962D01*
X240961069Y-69957962D02*
X239961069Y-70291295D01*
X240961069Y-71148438D02*
X240961069Y-70577010D01*
X240961069Y-70862724D02*
X239961069Y-70862724D01*
X239961069Y-70862724D02*
X240103926Y-70767486D01*
X240103926Y-70767486D02*
X240199164Y-70672248D01*
X240199164Y-70672248D02*
X240246783Y-70577010D01*
X241918154Y-93629819D02*
X241918154Y-94439342D01*
X241918154Y-94439342D02*
X241870535Y-94534580D01*
X241870535Y-94534580D02*
X241822916Y-94582200D01*
X241822916Y-94582200D02*
X241727678Y-94629819D01*
X241727678Y-94629819D02*
X241537202Y-94629819D01*
X241537202Y-94629819D02*
X241441964Y-94582200D01*
X241441964Y-94582200D02*
X241394345Y-94534580D01*
X241394345Y-94534580D02*
X241346726Y-94439342D01*
X241346726Y-94439342D02*
X241346726Y-93629819D01*
X240346726Y-94629819D02*
X240918154Y-94629819D01*
X240632440Y-94629819D02*
X240632440Y-93629819D01*
X240632440Y-93629819D02*
X240727678Y-93772676D01*
X240727678Y-93772676D02*
X240822916Y-93867914D01*
X240822916Y-93867914D02*
X240918154Y-93915533D01*
X249681845Y-70444438D02*
X249777083Y-70396819D01*
X249777083Y-70396819D02*
X249919940Y-70396819D01*
X249919940Y-70396819D02*
X250062797Y-70444438D01*
X250062797Y-70444438D02*
X250158035Y-70539676D01*
X250158035Y-70539676D02*
X250205654Y-70634914D01*
X250205654Y-70634914D02*
X250253273Y-70825390D01*
X250253273Y-70825390D02*
X250253273Y-70968247D01*
X250253273Y-70968247D02*
X250205654Y-71158723D01*
X250205654Y-71158723D02*
X250158035Y-71253961D01*
X250158035Y-71253961D02*
X250062797Y-71349200D01*
X250062797Y-71349200D02*
X249919940Y-71396819D01*
X249919940Y-71396819D02*
X249824702Y-71396819D01*
X249824702Y-71396819D02*
X249681845Y-71349200D01*
X249681845Y-71349200D02*
X249634226Y-71301580D01*
X249634226Y-71301580D02*
X249634226Y-70968247D01*
X249634226Y-70968247D02*
X249824702Y-70968247D01*
X249205654Y-71396819D02*
X249205654Y-70396819D01*
X249205654Y-70396819D02*
X248634226Y-71396819D01*
X248634226Y-71396819D02*
X248634226Y-70396819D01*
X248158035Y-71396819D02*
X248158035Y-70396819D01*
X248158035Y-70396819D02*
X247919940Y-70396819D01*
X247919940Y-70396819D02*
X247777083Y-70444438D01*
X247777083Y-70444438D02*
X247681845Y-70539676D01*
X247681845Y-70539676D02*
X247634226Y-70634914D01*
X247634226Y-70634914D02*
X247586607Y-70825390D01*
X247586607Y-70825390D02*
X247586607Y-70968247D01*
X247586607Y-70968247D02*
X247634226Y-71158723D01*
X247634226Y-71158723D02*
X247681845Y-71253961D01*
X247681845Y-71253961D02*
X247777083Y-71349200D01*
X247777083Y-71349200D02*
X247919940Y-71396819D01*
X247919940Y-71396819D02*
X248158035Y-71396819D01*
X246634226Y-71396819D02*
X247205654Y-71396819D01*
X246919940Y-71396819D02*
X246919940Y-70396819D01*
X246919940Y-70396819D02*
X247015178Y-70539676D01*
X247015178Y-70539676D02*
X247110416Y-70634914D01*
X247110416Y-70634914D02*
X247205654Y-70682533D01*
X234706319Y-68508583D02*
X234230128Y-68175250D01*
X234706319Y-67937155D02*
X233706319Y-67937155D01*
X233706319Y-67937155D02*
X233706319Y-68318107D01*
X233706319Y-68318107D02*
X233753938Y-68413345D01*
X233753938Y-68413345D02*
X233801557Y-68460964D01*
X233801557Y-68460964D02*
X233896795Y-68508583D01*
X233896795Y-68508583D02*
X234039652Y-68508583D01*
X234039652Y-68508583D02*
X234134890Y-68460964D01*
X234134890Y-68460964D02*
X234182509Y-68413345D01*
X234182509Y-68413345D02*
X234230128Y-68318107D01*
X234230128Y-68318107D02*
X234230128Y-67937155D01*
X234134890Y-69080012D02*
X234087271Y-68984774D01*
X234087271Y-68984774D02*
X234039652Y-68937155D01*
X234039652Y-68937155D02*
X233944414Y-68889536D01*
X233944414Y-68889536D02*
X233896795Y-68889536D01*
X233896795Y-68889536D02*
X233801557Y-68937155D01*
X233801557Y-68937155D02*
X233753938Y-68984774D01*
X233753938Y-68984774D02*
X233706319Y-69080012D01*
X233706319Y-69080012D02*
X233706319Y-69270488D01*
X233706319Y-69270488D02*
X233753938Y-69365726D01*
X233753938Y-69365726D02*
X233801557Y-69413345D01*
X233801557Y-69413345D02*
X233896795Y-69460964D01*
X233896795Y-69460964D02*
X233944414Y-69460964D01*
X233944414Y-69460964D02*
X234039652Y-69413345D01*
X234039652Y-69413345D02*
X234087271Y-69365726D01*
X234087271Y-69365726D02*
X234134890Y-69270488D01*
X234134890Y-69270488D02*
X234134890Y-69080012D01*
X234134890Y-69080012D02*
X234182509Y-68984774D01*
X234182509Y-68984774D02*
X234230128Y-68937155D01*
X234230128Y-68937155D02*
X234325366Y-68889536D01*
X234325366Y-68889536D02*
X234515842Y-68889536D01*
X234515842Y-68889536D02*
X234611080Y-68937155D01*
X234611080Y-68937155D02*
X234658700Y-68984774D01*
X234658700Y-68984774D02*
X234706319Y-69080012D01*
X234706319Y-69080012D02*
X234706319Y-69270488D01*
X234706319Y-69270488D02*
X234658700Y-69365726D01*
X234658700Y-69365726D02*
X234611080Y-69413345D01*
X234611080Y-69413345D02*
X234515842Y-69460964D01*
X234515842Y-69460964D02*
X234325366Y-69460964D01*
X234325366Y-69460964D02*
X234230128Y-69413345D01*
X234230128Y-69413345D02*
X234182509Y-69365726D01*
X234182509Y-69365726D02*
X234134890Y-69270488D01*
X247453319Y-69080083D02*
X246977128Y-68746750D01*
X247453319Y-68508655D02*
X246453319Y-68508655D01*
X246453319Y-68508655D02*
X246453319Y-68889607D01*
X246453319Y-68889607D02*
X246500938Y-68984845D01*
X246500938Y-68984845D02*
X246548557Y-69032464D01*
X246548557Y-69032464D02*
X246643795Y-69080083D01*
X246643795Y-69080083D02*
X246786652Y-69080083D01*
X246786652Y-69080083D02*
X246881890Y-69032464D01*
X246881890Y-69032464D02*
X246929509Y-68984845D01*
X246929509Y-68984845D02*
X246977128Y-68889607D01*
X246977128Y-68889607D02*
X246977128Y-68508655D01*
X246453319Y-69413417D02*
X246453319Y-70080083D01*
X246453319Y-70080083D02*
X247453319Y-69651512D01*
X249729464Y-74861069D02*
X250205654Y-74861069D01*
X250205654Y-74861069D02*
X250253273Y-75337259D01*
X250253273Y-75337259D02*
X250205654Y-75289640D01*
X250205654Y-75289640D02*
X250110416Y-75242021D01*
X250110416Y-75242021D02*
X249872321Y-75242021D01*
X249872321Y-75242021D02*
X249777083Y-75289640D01*
X249777083Y-75289640D02*
X249729464Y-75337259D01*
X249729464Y-75337259D02*
X249681845Y-75432497D01*
X249681845Y-75432497D02*
X249681845Y-75670592D01*
X249681845Y-75670592D02*
X249729464Y-75765830D01*
X249729464Y-75765830D02*
X249777083Y-75813450D01*
X249777083Y-75813450D02*
X249872321Y-75861069D01*
X249872321Y-75861069D02*
X250110416Y-75861069D01*
X250110416Y-75861069D02*
X250205654Y-75813450D01*
X250205654Y-75813450D02*
X250253273Y-75765830D01*
X249396130Y-74861069D02*
X249062797Y-75861069D01*
X249062797Y-75861069D02*
X248729464Y-74861069D01*
X248396130Y-75480116D02*
X247634226Y-75480116D01*
X248015178Y-75861069D02*
X248015178Y-75099164D01*
X247205654Y-74956307D02*
X247158035Y-74908688D01*
X247158035Y-74908688D02*
X247062797Y-74861069D01*
X247062797Y-74861069D02*
X246824702Y-74861069D01*
X246824702Y-74861069D02*
X246729464Y-74908688D01*
X246729464Y-74908688D02*
X246681845Y-74956307D01*
X246681845Y-74956307D02*
X246634226Y-75051545D01*
X246634226Y-75051545D02*
X246634226Y-75146783D01*
X246634226Y-75146783D02*
X246681845Y-75289640D01*
X246681845Y-75289640D02*
X247253273Y-75861069D01*
X247253273Y-75861069D02*
X246634226Y-75861069D01*
X237278450Y-128588095D02*
X237326069Y-128730952D01*
X237326069Y-128730952D02*
X237326069Y-128969047D01*
X237326069Y-128969047D02*
X237278450Y-129064285D01*
X237278450Y-129064285D02*
X237230830Y-129111904D01*
X237230830Y-129111904D02*
X237135592Y-129159523D01*
X237135592Y-129159523D02*
X237040354Y-129159523D01*
X237040354Y-129159523D02*
X236945116Y-129111904D01*
X236945116Y-129111904D02*
X236897497Y-129064285D01*
X236897497Y-129064285D02*
X236849878Y-128969047D01*
X236849878Y-128969047D02*
X236802259Y-128778571D01*
X236802259Y-128778571D02*
X236754640Y-128683333D01*
X236754640Y-128683333D02*
X236707021Y-128635714D01*
X236707021Y-128635714D02*
X236611783Y-128588095D01*
X236611783Y-128588095D02*
X236516545Y-128588095D01*
X236516545Y-128588095D02*
X236421307Y-128635714D01*
X236421307Y-128635714D02*
X236373688Y-128683333D01*
X236373688Y-128683333D02*
X236326069Y-128778571D01*
X236326069Y-128778571D02*
X236326069Y-129016666D01*
X236326069Y-129016666D02*
X236373688Y-129159523D01*
X236421307Y-129540476D02*
X236373688Y-129588095D01*
X236373688Y-129588095D02*
X236326069Y-129683333D01*
X236326069Y-129683333D02*
X236326069Y-129921428D01*
X236326069Y-129921428D02*
X236373688Y-130016666D01*
X236373688Y-130016666D02*
X236421307Y-130064285D01*
X236421307Y-130064285D02*
X236516545Y-130111904D01*
X236516545Y-130111904D02*
X236611783Y-130111904D01*
X236611783Y-130111904D02*
X236754640Y-130064285D01*
X236754640Y-130064285D02*
X237326069Y-129492857D01*
X237326069Y-129492857D02*
X237326069Y-130111904D01*
X241926190Y-112703628D02*
X241926190Y-113179819D01*
X242259523Y-112179819D02*
X241926190Y-112703628D01*
X241926190Y-112703628D02*
X241592857Y-112179819D01*
X240735714Y-113179819D02*
X241307142Y-113179819D01*
X241021428Y-113179819D02*
X241021428Y-112179819D01*
X241021428Y-112179819D02*
X241116666Y-112322676D01*
X241116666Y-112322676D02*
X241211904Y-112417914D01*
X241211904Y-112417914D02*
X241307142Y-112465533D01*
X244485416Y-92434580D02*
X244533035Y-92482200D01*
X244533035Y-92482200D02*
X244675892Y-92529819D01*
X244675892Y-92529819D02*
X244771130Y-92529819D01*
X244771130Y-92529819D02*
X244913987Y-92482200D01*
X244913987Y-92482200D02*
X245009225Y-92386961D01*
X245009225Y-92386961D02*
X245056844Y-92291723D01*
X245056844Y-92291723D02*
X245104463Y-92101247D01*
X245104463Y-92101247D02*
X245104463Y-91958390D01*
X245104463Y-91958390D02*
X245056844Y-91767914D01*
X245056844Y-91767914D02*
X245009225Y-91672676D01*
X245009225Y-91672676D02*
X244913987Y-91577438D01*
X244913987Y-91577438D02*
X244771130Y-91529819D01*
X244771130Y-91529819D02*
X244675892Y-91529819D01*
X244675892Y-91529819D02*
X244533035Y-91577438D01*
X244533035Y-91577438D02*
X244485416Y-91625057D01*
X243628273Y-91529819D02*
X243818749Y-91529819D01*
X243818749Y-91529819D02*
X243913987Y-91577438D01*
X243913987Y-91577438D02*
X243961606Y-91625057D01*
X243961606Y-91625057D02*
X244056844Y-91767914D01*
X244056844Y-91767914D02*
X244104463Y-91958390D01*
X244104463Y-91958390D02*
X244104463Y-92339342D01*
X244104463Y-92339342D02*
X244056844Y-92434580D01*
X244056844Y-92434580D02*
X244009225Y-92482200D01*
X244009225Y-92482200D02*
X243913987Y-92529819D01*
X243913987Y-92529819D02*
X243723511Y-92529819D01*
X243723511Y-92529819D02*
X243628273Y-92482200D01*
X243628273Y-92482200D02*
X243580654Y-92434580D01*
X243580654Y-92434580D02*
X243533035Y-92339342D01*
X243533035Y-92339342D02*
X243533035Y-92101247D01*
X243533035Y-92101247D02*
X243580654Y-92006009D01*
X243580654Y-92006009D02*
X243628273Y-91958390D01*
X243628273Y-91958390D02*
X243723511Y-91910771D01*
X243723511Y-91910771D02*
X243913987Y-91910771D01*
X243913987Y-91910771D02*
X244009225Y-91958390D01*
X244009225Y-91958390D02*
X244056844Y-92006009D01*
X244056844Y-92006009D02*
X244104463Y-92101247D01*
X233817319Y-94408333D02*
X233341128Y-94075000D01*
X233817319Y-93836905D02*
X232817319Y-93836905D01*
X232817319Y-93836905D02*
X232817319Y-94217857D01*
X232817319Y-94217857D02*
X232864938Y-94313095D01*
X232864938Y-94313095D02*
X232912557Y-94360714D01*
X232912557Y-94360714D02*
X233007795Y-94408333D01*
X233007795Y-94408333D02*
X233150652Y-94408333D01*
X233150652Y-94408333D02*
X233245890Y-94360714D01*
X233245890Y-94360714D02*
X233293509Y-94313095D01*
X233293509Y-94313095D02*
X233341128Y-94217857D01*
X233341128Y-94217857D02*
X233341128Y-93836905D01*
X233817319Y-95360714D02*
X233817319Y-94789286D01*
X233817319Y-95075000D02*
X232817319Y-95075000D01*
X232817319Y-95075000D02*
X232960176Y-94979762D01*
X232960176Y-94979762D02*
X233055414Y-94884524D01*
X233055414Y-94884524D02*
X233103033Y-94789286D01*
X245666666Y-109359580D02*
X245714285Y-109407200D01*
X245714285Y-109407200D02*
X245857142Y-109454819D01*
X245857142Y-109454819D02*
X245952380Y-109454819D01*
X245952380Y-109454819D02*
X246095237Y-109407200D01*
X246095237Y-109407200D02*
X246190475Y-109311961D01*
X246190475Y-109311961D02*
X246238094Y-109216723D01*
X246238094Y-109216723D02*
X246285713Y-109026247D01*
X246285713Y-109026247D02*
X246285713Y-108883390D01*
X246285713Y-108883390D02*
X246238094Y-108692914D01*
X246238094Y-108692914D02*
X246190475Y-108597676D01*
X246190475Y-108597676D02*
X246095237Y-108502438D01*
X246095237Y-108502438D02*
X245952380Y-108454819D01*
X245952380Y-108454819D02*
X245857142Y-108454819D01*
X245857142Y-108454819D02*
X245714285Y-108502438D01*
X245714285Y-108502438D02*
X245666666Y-108550057D01*
X244761904Y-108454819D02*
X245238094Y-108454819D01*
X245238094Y-108454819D02*
X245285713Y-108931009D01*
X245285713Y-108931009D02*
X245238094Y-108883390D01*
X245238094Y-108883390D02*
X245142856Y-108835771D01*
X245142856Y-108835771D02*
X244904761Y-108835771D01*
X244904761Y-108835771D02*
X244809523Y-108883390D01*
X244809523Y-108883390D02*
X244761904Y-108931009D01*
X244761904Y-108931009D02*
X244714285Y-109026247D01*
X244714285Y-109026247D02*
X244714285Y-109264342D01*
X244714285Y-109264342D02*
X244761904Y-109359580D01*
X244761904Y-109359580D02*
X244809523Y-109407200D01*
X244809523Y-109407200D02*
X244904761Y-109454819D01*
X244904761Y-109454819D02*
X245142856Y-109454819D01*
X245142856Y-109454819D02*
X245238094Y-109407200D01*
X245238094Y-109407200D02*
X245285713Y-109359580D01*
X231340830Y-105558333D02*
X231388450Y-105510714D01*
X231388450Y-105510714D02*
X231436069Y-105367857D01*
X231436069Y-105367857D02*
X231436069Y-105272619D01*
X231436069Y-105272619D02*
X231388450Y-105129762D01*
X231388450Y-105129762D02*
X231293211Y-105034524D01*
X231293211Y-105034524D02*
X231197973Y-104986905D01*
X231197973Y-104986905D02*
X231007497Y-104939286D01*
X231007497Y-104939286D02*
X230864640Y-104939286D01*
X230864640Y-104939286D02*
X230674164Y-104986905D01*
X230674164Y-104986905D02*
X230578926Y-105034524D01*
X230578926Y-105034524D02*
X230483688Y-105129762D01*
X230483688Y-105129762D02*
X230436069Y-105272619D01*
X230436069Y-105272619D02*
X230436069Y-105367857D01*
X230436069Y-105367857D02*
X230483688Y-105510714D01*
X230483688Y-105510714D02*
X230531307Y-105558333D01*
X230531307Y-105939286D02*
X230483688Y-105986905D01*
X230483688Y-105986905D02*
X230436069Y-106082143D01*
X230436069Y-106082143D02*
X230436069Y-106320238D01*
X230436069Y-106320238D02*
X230483688Y-106415476D01*
X230483688Y-106415476D02*
X230531307Y-106463095D01*
X230531307Y-106463095D02*
X230626545Y-106510714D01*
X230626545Y-106510714D02*
X230721783Y-106510714D01*
X230721783Y-106510714D02*
X230864640Y-106463095D01*
X230864640Y-106463095D02*
X231436069Y-105891667D01*
X231436069Y-105891667D02*
X231436069Y-106510714D01*
X251184580Y-97464583D02*
X251232200Y-97416964D01*
X251232200Y-97416964D02*
X251279819Y-97274107D01*
X251279819Y-97274107D02*
X251279819Y-97178869D01*
X251279819Y-97178869D02*
X251232200Y-97036012D01*
X251232200Y-97036012D02*
X251136961Y-96940774D01*
X251136961Y-96940774D02*
X251041723Y-96893155D01*
X251041723Y-96893155D02*
X250851247Y-96845536D01*
X250851247Y-96845536D02*
X250708390Y-96845536D01*
X250708390Y-96845536D02*
X250517914Y-96893155D01*
X250517914Y-96893155D02*
X250422676Y-96940774D01*
X250422676Y-96940774D02*
X250327438Y-97036012D01*
X250327438Y-97036012D02*
X250279819Y-97178869D01*
X250279819Y-97178869D02*
X250279819Y-97274107D01*
X250279819Y-97274107D02*
X250327438Y-97416964D01*
X250327438Y-97416964D02*
X250375057Y-97464583D01*
X250613152Y-98321726D02*
X251279819Y-98321726D01*
X250232200Y-98083631D02*
X250946485Y-97845536D01*
X250946485Y-97845536D02*
X250946485Y-98464583D01*
X254522916Y-101697080D02*
X254570535Y-101744700D01*
X254570535Y-101744700D02*
X254713392Y-101792319D01*
X254713392Y-101792319D02*
X254808630Y-101792319D01*
X254808630Y-101792319D02*
X254951487Y-101744700D01*
X254951487Y-101744700D02*
X255046725Y-101649461D01*
X255046725Y-101649461D02*
X255094344Y-101554223D01*
X255094344Y-101554223D02*
X255141963Y-101363747D01*
X255141963Y-101363747D02*
X255141963Y-101220890D01*
X255141963Y-101220890D02*
X255094344Y-101030414D01*
X255094344Y-101030414D02*
X255046725Y-100935176D01*
X255046725Y-100935176D02*
X254951487Y-100839938D01*
X254951487Y-100839938D02*
X254808630Y-100792319D01*
X254808630Y-100792319D02*
X254713392Y-100792319D01*
X254713392Y-100792319D02*
X254570535Y-100839938D01*
X254570535Y-100839938D02*
X254522916Y-100887557D01*
X253570535Y-101792319D02*
X254141963Y-101792319D01*
X253856249Y-101792319D02*
X253856249Y-100792319D01*
X253856249Y-100792319D02*
X253951487Y-100935176D01*
X253951487Y-100935176D02*
X254046725Y-101030414D01*
X254046725Y-101030414D02*
X254141963Y-101078033D01*
X241347916Y-124279819D02*
X241681249Y-123803628D01*
X241919344Y-124279819D02*
X241919344Y-123279819D01*
X241919344Y-123279819D02*
X241538392Y-123279819D01*
X241538392Y-123279819D02*
X241443154Y-123327438D01*
X241443154Y-123327438D02*
X241395535Y-123375057D01*
X241395535Y-123375057D02*
X241347916Y-123470295D01*
X241347916Y-123470295D02*
X241347916Y-123613152D01*
X241347916Y-123613152D02*
X241395535Y-123708390D01*
X241395535Y-123708390D02*
X241443154Y-123756009D01*
X241443154Y-123756009D02*
X241538392Y-123803628D01*
X241538392Y-123803628D02*
X241919344Y-123803628D01*
X240490773Y-123613152D02*
X240490773Y-124279819D01*
X240728868Y-123232200D02*
X240966963Y-123946485D01*
X240966963Y-123946485D02*
X240347916Y-123946485D01*
X241149166Y-76797069D02*
X241482499Y-76320878D01*
X241720594Y-76797069D02*
X241720594Y-75797069D01*
X241720594Y-75797069D02*
X241339642Y-75797069D01*
X241339642Y-75797069D02*
X241244404Y-75844688D01*
X241244404Y-75844688D02*
X241196785Y-75892307D01*
X241196785Y-75892307D02*
X241149166Y-75987545D01*
X241149166Y-75987545D02*
X241149166Y-76130402D01*
X241149166Y-76130402D02*
X241196785Y-76225640D01*
X241196785Y-76225640D02*
X241244404Y-76273259D01*
X241244404Y-76273259D02*
X241339642Y-76320878D01*
X241339642Y-76320878D02*
X241720594Y-76320878D01*
X240768213Y-75892307D02*
X240720594Y-75844688D01*
X240720594Y-75844688D02*
X240625356Y-75797069D01*
X240625356Y-75797069D02*
X240387261Y-75797069D01*
X240387261Y-75797069D02*
X240292023Y-75844688D01*
X240292023Y-75844688D02*
X240244404Y-75892307D01*
X240244404Y-75892307D02*
X240196785Y-75987545D01*
X240196785Y-75987545D02*
X240196785Y-76082783D01*
X240196785Y-76082783D02*
X240244404Y-76225640D01*
X240244404Y-76225640D02*
X240815832Y-76797069D01*
X240815832Y-76797069D02*
X240196785Y-76797069D01*
X239117166Y-76797069D02*
X239450499Y-76320878D01*
X239688594Y-76797069D02*
X239688594Y-75797069D01*
X239688594Y-75797069D02*
X239307642Y-75797069D01*
X239307642Y-75797069D02*
X239212404Y-75844688D01*
X239212404Y-75844688D02*
X239164785Y-75892307D01*
X239164785Y-75892307D02*
X239117166Y-75987545D01*
X239117166Y-75987545D02*
X239117166Y-76130402D01*
X239117166Y-76130402D02*
X239164785Y-76225640D01*
X239164785Y-76225640D02*
X239212404Y-76273259D01*
X239212404Y-76273259D02*
X239307642Y-76320878D01*
X239307642Y-76320878D02*
X239688594Y-76320878D01*
X238783832Y-75797069D02*
X238164785Y-75797069D01*
X238164785Y-75797069D02*
X238498118Y-76178021D01*
X238498118Y-76178021D02*
X238355261Y-76178021D01*
X238355261Y-76178021D02*
X238260023Y-76225640D01*
X238260023Y-76225640D02*
X238212404Y-76273259D01*
X238212404Y-76273259D02*
X238164785Y-76368497D01*
X238164785Y-76368497D02*
X238164785Y-76606592D01*
X238164785Y-76606592D02*
X238212404Y-76701830D01*
X238212404Y-76701830D02*
X238260023Y-76749450D01*
X238260023Y-76749450D02*
X238355261Y-76797069D01*
X238355261Y-76797069D02*
X238640975Y-76797069D01*
X238640975Y-76797069D02*
X238736213Y-76749450D01*
X238736213Y-76749450D02*
X238783832Y-76701830D01*
X237954166Y-113072080D02*
X238001785Y-113119700D01*
X238001785Y-113119700D02*
X238144642Y-113167319D01*
X238144642Y-113167319D02*
X238239880Y-113167319D01*
X238239880Y-113167319D02*
X238382737Y-113119700D01*
X238382737Y-113119700D02*
X238477975Y-113024461D01*
X238477975Y-113024461D02*
X238525594Y-112929223D01*
X238525594Y-112929223D02*
X238573213Y-112738747D01*
X238573213Y-112738747D02*
X238573213Y-112595890D01*
X238573213Y-112595890D02*
X238525594Y-112405414D01*
X238525594Y-112405414D02*
X238477975Y-112310176D01*
X238477975Y-112310176D02*
X238382737Y-112214938D01*
X238382737Y-112214938D02*
X238239880Y-112167319D01*
X238239880Y-112167319D02*
X238144642Y-112167319D01*
X238144642Y-112167319D02*
X238001785Y-112214938D01*
X238001785Y-112214938D02*
X237954166Y-112262557D01*
X237620832Y-112167319D02*
X236954166Y-112167319D01*
X236954166Y-112167319D02*
X237382737Y-113167319D01*
X245416666Y-114609580D02*
X245464285Y-114657200D01*
X245464285Y-114657200D02*
X245607142Y-114704819D01*
X245607142Y-114704819D02*
X245702380Y-114704819D01*
X245702380Y-114704819D02*
X245845237Y-114657200D01*
X245845237Y-114657200D02*
X245940475Y-114561961D01*
X245940475Y-114561961D02*
X245988094Y-114466723D01*
X245988094Y-114466723D02*
X246035713Y-114276247D01*
X246035713Y-114276247D02*
X246035713Y-114133390D01*
X246035713Y-114133390D02*
X245988094Y-113942914D01*
X245988094Y-113942914D02*
X245940475Y-113847676D01*
X245940475Y-113847676D02*
X245845237Y-113752438D01*
X245845237Y-113752438D02*
X245702380Y-113704819D01*
X245702380Y-113704819D02*
X245607142Y-113704819D01*
X245607142Y-113704819D02*
X245464285Y-113752438D01*
X245464285Y-113752438D02*
X245416666Y-113800057D01*
X244845237Y-114133390D02*
X244940475Y-114085771D01*
X244940475Y-114085771D02*
X244988094Y-114038152D01*
X244988094Y-114038152D02*
X245035713Y-113942914D01*
X245035713Y-113942914D02*
X245035713Y-113895295D01*
X245035713Y-113895295D02*
X244988094Y-113800057D01*
X244988094Y-113800057D02*
X244940475Y-113752438D01*
X244940475Y-113752438D02*
X244845237Y-113704819D01*
X244845237Y-113704819D02*
X244654761Y-113704819D01*
X244654761Y-113704819D02*
X244559523Y-113752438D01*
X244559523Y-113752438D02*
X244511904Y-113800057D01*
X244511904Y-113800057D02*
X244464285Y-113895295D01*
X244464285Y-113895295D02*
X244464285Y-113942914D01*
X244464285Y-113942914D02*
X244511904Y-114038152D01*
X244511904Y-114038152D02*
X244559523Y-114085771D01*
X244559523Y-114085771D02*
X244654761Y-114133390D01*
X244654761Y-114133390D02*
X244845237Y-114133390D01*
X244845237Y-114133390D02*
X244940475Y-114181009D01*
X244940475Y-114181009D02*
X244988094Y-114228628D01*
X244988094Y-114228628D02*
X245035713Y-114323866D01*
X245035713Y-114323866D02*
X245035713Y-114514342D01*
X245035713Y-114514342D02*
X244988094Y-114609580D01*
X244988094Y-114609580D02*
X244940475Y-114657200D01*
X244940475Y-114657200D02*
X244845237Y-114704819D01*
X244845237Y-114704819D02*
X244654761Y-114704819D01*
X244654761Y-114704819D02*
X244559523Y-114657200D01*
X244559523Y-114657200D02*
X244511904Y-114609580D01*
X244511904Y-114609580D02*
X244464285Y-114514342D01*
X244464285Y-114514342D02*
X244464285Y-114323866D01*
X244464285Y-114323866D02*
X244511904Y-114228628D01*
X244511904Y-114228628D02*
X244559523Y-114181009D01*
X244559523Y-114181009D02*
X244654761Y-114133390D01*
X237341666Y-90754580D02*
X237389285Y-90802200D01*
X237389285Y-90802200D02*
X237532142Y-90849819D01*
X237532142Y-90849819D02*
X237627380Y-90849819D01*
X237627380Y-90849819D02*
X237770237Y-90802200D01*
X237770237Y-90802200D02*
X237865475Y-90706961D01*
X237865475Y-90706961D02*
X237913094Y-90611723D01*
X237913094Y-90611723D02*
X237960713Y-90421247D01*
X237960713Y-90421247D02*
X237960713Y-90278390D01*
X237960713Y-90278390D02*
X237913094Y-90087914D01*
X237913094Y-90087914D02*
X237865475Y-89992676D01*
X237865475Y-89992676D02*
X237770237Y-89897438D01*
X237770237Y-89897438D02*
X237627380Y-89849819D01*
X237627380Y-89849819D02*
X237532142Y-89849819D01*
X237532142Y-89849819D02*
X237389285Y-89897438D01*
X237389285Y-89897438D02*
X237341666Y-89945057D01*
X237008332Y-89849819D02*
X236389285Y-89849819D01*
X236389285Y-89849819D02*
X236722618Y-90230771D01*
X236722618Y-90230771D02*
X236579761Y-90230771D01*
X236579761Y-90230771D02*
X236484523Y-90278390D01*
X236484523Y-90278390D02*
X236436904Y-90326009D01*
X236436904Y-90326009D02*
X236389285Y-90421247D01*
X236389285Y-90421247D02*
X236389285Y-90659342D01*
X236389285Y-90659342D02*
X236436904Y-90754580D01*
X236436904Y-90754580D02*
X236484523Y-90802200D01*
X236484523Y-90802200D02*
X236579761Y-90849819D01*
X236579761Y-90849819D02*
X236865475Y-90849819D01*
X236865475Y-90849819D02*
X236960713Y-90802200D01*
X236960713Y-90802200D02*
X237008332Y-90754580D01*
X244808333Y-73562259D02*
X245141666Y-73562259D01*
X245141666Y-74086069D02*
X245141666Y-73086069D01*
X245141666Y-73086069D02*
X244665476Y-73086069D01*
X244332142Y-73181307D02*
X244284523Y-73133688D01*
X244284523Y-73133688D02*
X244189285Y-73086069D01*
X244189285Y-73086069D02*
X243951190Y-73086069D01*
X243951190Y-73086069D02*
X243855952Y-73133688D01*
X243855952Y-73133688D02*
X243808333Y-73181307D01*
X243808333Y-73181307D02*
X243760714Y-73276545D01*
X243760714Y-73276545D02*
X243760714Y-73371783D01*
X243760714Y-73371783D02*
X243808333Y-73514640D01*
X243808333Y-73514640D02*
X244379761Y-74086069D01*
X244379761Y-74086069D02*
X243760714Y-74086069D01*
D11*
%TO.C,J2*%
X245607500Y-60667500D02*
X245607500Y-59837500D01*
X236667500Y-60667500D02*
X236667500Y-59837500D01*
D12*
X238037500Y-67837500D02*
G75*
G02*
X237837500Y-67837500I-100000J0D01*
G01*
X237837500Y-67837500D02*
G75*
G02*
X238037500Y-67837500I100000J0D01*
G01*
D11*
X245607500Y-63007500D02*
X245607500Y-64687500D01*
X236667500Y-63007500D02*
X236667500Y-64687500D01*
D13*
%TO.C,D-1*%
X235837500Y-70737500D02*
X237237500Y-70737500D01*
X237237500Y-70737500D02*
X237237500Y-72137500D01*
X235837500Y-72137500D02*
X235837500Y-70737500D01*
X237237500Y-72137500D02*
X235837500Y-72137500D01*
%TO.C,D+1*%
X242187500Y-76293750D02*
X243587500Y-76293750D01*
X243587500Y-76293750D02*
X243587500Y-77693750D01*
X242187500Y-77693750D02*
X242187500Y-76293750D01*
X243587500Y-77693750D02*
X242187500Y-77693750D01*
D14*
%TO.C,TV1*%
X239606250Y-68503200D02*
X241406250Y-68503200D01*
X239606250Y-71603200D02*
X241406250Y-71603200D01*
X239236250Y-71704200D02*
G75*
G02*
X238982250Y-71704200I-127000J0D01*
G01*
X238982250Y-71704200D02*
G75*
G02*
X239236250Y-71704200I127000J0D01*
G01*
D10*
%TO.C,U1*%
X246331250Y-97065000D02*
X246331250Y-96450000D01*
X245656250Y-96450000D02*
X246331250Y-96450000D01*
X246331250Y-106125000D02*
X246331250Y-106800000D01*
X245656250Y-106800000D02*
X246331250Y-106800000D01*
X236656250Y-96450000D02*
X235981250Y-96450000D01*
X235981250Y-97125000D02*
X235981250Y-96450000D01*
X236656250Y-106800000D02*
X235981250Y-106800000D01*
X235981250Y-106125000D02*
X235981250Y-106800000D01*
D13*
X247016250Y-97085000D02*
X246676250Y-96615000D01*
X247356250Y-96615000D01*
X247016250Y-97085000D01*
G36*
X247016250Y-97085000D02*
G01*
X246676250Y-96615000D01*
X247356250Y-96615000D01*
X247016250Y-97085000D01*
G37*
%TO.C,GND1*%
X248604000Y-73090000D02*
X247204000Y-73090000D01*
X247204000Y-73090000D02*
X247204000Y-71690000D01*
X248604000Y-71690000D02*
X248604000Y-73090000D01*
X247204000Y-71690000D02*
X248604000Y-71690000D01*
%TO.C,R8*%
X236883314Y-69791250D02*
X236429186Y-69791250D01*
X236883314Y-68321250D02*
X236429186Y-68321250D01*
%TO.C,R7*%
X244366686Y-68321250D02*
X244820814Y-68321250D01*
X244366686Y-69791250D02*
X244820814Y-69791250D01*
%TO.C,5V+2*%
X248540500Y-77662000D02*
X247140500Y-77662000D01*
X247140500Y-77662000D02*
X247140500Y-76262000D01*
X248540500Y-76262000D02*
X248540500Y-77662000D01*
X247140500Y-76262000D02*
X248540500Y-76262000D01*
D11*
%TO.C,S2*%
X241686250Y-127625000D02*
X239326250Y-127625000D01*
X237956250Y-127925000D02*
X237956250Y-132425000D01*
X243056250Y-127925000D02*
X243056250Y-132425000D01*
X239326250Y-132725000D02*
X241686250Y-132725000D01*
D12*
X238731250Y-125925000D02*
G75*
G02*
X238531250Y-125925000I-100000J0D01*
G01*
X238531250Y-125925000D02*
G75*
G02*
X238731250Y-125925000I100000J0D01*
G01*
D13*
%TO.C,Y1*%
X239450000Y-108625000D02*
X239450000Y-111925000D01*
X243450000Y-108625000D02*
X239450000Y-108625000D01*
%TO.C,C6*%
X244580002Y-92927500D02*
X244057498Y-92927500D01*
X244580002Y-94397500D02*
X244057498Y-94397500D01*
%TO.C,R1*%
X232627500Y-96729186D02*
X232627500Y-97183314D01*
X234097500Y-96729186D02*
X234097500Y-97183314D01*
%TO.C,D1*%
X161337500Y-69787500D02*
X161337500Y-73797500D01*
X159337500Y-73797500D02*
X161337500Y-73797500D01*
X159337500Y-69787500D02*
X159337500Y-73797500D01*
%TO.C,D14*%
X199437500Y-126937500D02*
X199437500Y-130947500D01*
X197437500Y-130947500D02*
X199437500Y-130947500D01*
X197437500Y-126937500D02*
X197437500Y-130947500D01*
%TO.C,D8*%
X180387500Y-126937500D02*
X180387500Y-130947500D01*
X178387500Y-130947500D02*
X180387500Y-130947500D01*
X178387500Y-126937500D02*
X178387500Y-130947500D01*
%TO.C,D6*%
X161337500Y-126937500D02*
X161337500Y-130947500D01*
X159337500Y-130947500D02*
X161337500Y-130947500D01*
X159337500Y-126937500D02*
X159337500Y-130947500D01*
%TO.C,C5*%
X245686252Y-111066250D02*
X245163748Y-111066250D01*
X245686252Y-109596250D02*
X245163748Y-109596250D01*
%TO.C,D4*%
X180387500Y-88775000D02*
X180387500Y-92785000D01*
X178387500Y-92785000D02*
X180387500Y-92785000D01*
X178387500Y-88775000D02*
X178387500Y-92785000D01*
%TO.C,C2*%
X234097500Y-105463748D02*
X234097500Y-105986252D01*
X232627500Y-105463748D02*
X232627500Y-105986252D01*
%TO.C,C4*%
X248502500Y-97736252D02*
X248502500Y-97213748D01*
X249972500Y-97736252D02*
X249972500Y-97213748D01*
%TO.C,C1*%
X254461252Y-100485000D02*
X253938748Y-100485000D01*
X254461252Y-99015000D02*
X253938748Y-99015000D01*
%TO.C,D2*%
X180387500Y-69787500D02*
X180387500Y-73797500D01*
X178387500Y-73797500D02*
X180387500Y-73797500D01*
X178387500Y-69787500D02*
X178387500Y-73797500D01*
%TO.C,D10*%
X199437500Y-88837500D02*
X199437500Y-92847500D01*
X197437500Y-92847500D02*
X199437500Y-92847500D01*
X197437500Y-88837500D02*
X197437500Y-92847500D01*
%TO.C,D11*%
X218487500Y-69787500D02*
X218487500Y-73797500D01*
X216487500Y-73797500D02*
X218487500Y-73797500D01*
X216487500Y-69787500D02*
X216487500Y-73797500D01*
%TO.C,R4*%
X241408314Y-124677500D02*
X240954186Y-124677500D01*
X241408314Y-126147500D02*
X240954186Y-126147500D01*
%TO.C,D7*%
X180387500Y-107887500D02*
X180387500Y-111897500D01*
X178387500Y-111897500D02*
X180387500Y-111897500D01*
X178387500Y-107887500D02*
X178387500Y-111897500D01*
%TO.C,D5*%
X161337500Y-107887500D02*
X161337500Y-111897500D01*
X159337500Y-111897500D02*
X161337500Y-111897500D01*
X159337500Y-107887500D02*
X159337500Y-111897500D01*
%TO.C,D23*%
X199437500Y-145987500D02*
X199437500Y-149997500D01*
X197437500Y-149997500D02*
X199437500Y-149997500D01*
X197437500Y-145987500D02*
X197437500Y-149997500D01*
%TO.C,D19*%
X250237500Y-108681250D02*
X250237500Y-112691250D01*
X248237500Y-112691250D02*
X250237500Y-112691250D01*
X248237500Y-108681250D02*
X248237500Y-112691250D01*
%TO.C,R2*%
X241717500Y-73710436D02*
X241717500Y-74164564D01*
X240247500Y-73710436D02*
X240247500Y-74164564D01*
%TO.C,D12*%
X218487500Y-93787500D02*
X218487500Y-89777500D01*
X218487500Y-89777500D02*
X216487500Y-89777500D01*
X216487500Y-93787500D02*
X216487500Y-89777500D01*
%TO.C,R3*%
X239685500Y-74164564D02*
X239685500Y-73710436D01*
X238215500Y-74164564D02*
X238215500Y-73710436D01*
%TO.C,D3*%
X161337500Y-88775000D02*
X161337500Y-92785000D01*
X159337500Y-92785000D02*
X161337500Y-92785000D01*
X159337500Y-88775000D02*
X159337500Y-92785000D01*
%TO.C,D13*%
X199437500Y-107887500D02*
X199437500Y-111897500D01*
X197437500Y-111897500D02*
X199437500Y-111897500D01*
X197437500Y-107887500D02*
X197437500Y-111897500D01*
%TO.C,C7*%
X237052500Y-110436252D02*
X237052500Y-109913748D01*
X238522500Y-110436252D02*
X238522500Y-109913748D01*
%TO.C,D18*%
X247443750Y-88837500D02*
X247443750Y-92847500D01*
X247443750Y-92847500D02*
X249443750Y-92847500D01*
X249443750Y-88837500D02*
X249443750Y-92847500D01*
%TO.C,D25*%
X247443750Y-145987500D02*
X247443750Y-149997500D01*
X247443750Y-149997500D02*
X249443750Y-149997500D01*
X249443750Y-145987500D02*
X249443750Y-149997500D01*
%TO.C,D9*%
X199437500Y-69787500D02*
X199437500Y-73797500D01*
X197437500Y-73797500D02*
X199437500Y-73797500D01*
X197437500Y-69787500D02*
X197437500Y-73797500D01*
%TO.C,D16*%
X218487500Y-131825000D02*
X218487500Y-127815000D01*
X218487500Y-127815000D02*
X216487500Y-127815000D01*
X216487500Y-131825000D02*
X216487500Y-127815000D01*
%TO.C,D20*%
X247443750Y-126875000D02*
X247443750Y-130885000D01*
X247443750Y-130885000D02*
X249443750Y-130885000D01*
X249443750Y-126875000D02*
X249443750Y-130885000D01*
%TO.C,C8*%
X245686252Y-113447500D02*
X245163748Y-113447500D01*
X245686252Y-111977500D02*
X245163748Y-111977500D01*
%TO.C,D21*%
X170862500Y-145987500D02*
X170862500Y-149997500D01*
X168862500Y-149997500D02*
X170862500Y-149997500D01*
X168862500Y-145987500D02*
X168862500Y-149997500D01*
%TO.C,D17*%
X250618750Y-72106250D02*
X250618750Y-76116250D01*
X250618750Y-76116250D02*
X252618750Y-76116250D01*
X252618750Y-72106250D02*
X252618750Y-76116250D01*
%TO.C,C3*%
X236913748Y-92810000D02*
X237436252Y-92810000D01*
X236913748Y-91340000D02*
X237436252Y-91340000D01*
%TO.C,F2*%
X243565000Y-74233314D02*
X243565000Y-73029186D01*
X245385000Y-74233314D02*
X245385000Y-73029186D01*
%TD*%
M02*
