M48
; DRILL file {KiCad 8.0.6} date 2024-11-30T15:29:53-0500
; FORMAT={-:-/ absolute / metric / decimal}
; #@! TF.CreationDate,2024-11-30T15:29:53-05:00
; #@! TF.GenerationSoftware,Kicad,Pcbnew,8.0.6
; #@! TF.FileFunction,Plated,1,2,PTH
FMAT,2
METRIC
; #@! TA.AperFunction,Plated,PTH,ViaDrill
T1C0.300
; #@! TA.AperFunction,Plated,PTH,ComponentDrill
T2C0.600
; #@! TA.AperFunction,Plated,PTH,ComponentDrill
T3C3.000
%
G90
G05
T1
X161.879Y-96.044
X161.879Y-113.506
X161.879Y-137.319
X162.719Y-76.2
X163.512Y-133.35
X165.1Y-128.588
X166.688Y-100.012
X170.815Y-98.425
X174.625Y-146.844
X183.356Y-130.74
X189.865Y-99.219
X201.711Y-130.75
X218.281Y-131.762
X220.972Y-98.071
X221.456Y-107.95
X221.456Y-108.75
X221.456Y-109.55
X225.247Y-101.6
X227.012Y-90.669
X227.806Y-101.6
X229.394Y-94.279
X229.62Y-132.32
X230.981Y-142.081
X231.247Y-94.456
X231.29Y-132.3
X232.569Y-100.806
X232.612Y-101.65
X232.633Y-102.516
X232.64Y-103.395
X236.537Y-75.413
X236.537Y-105.569
X236.626Y-73.724
X238.125Y-94.456
X238.167Y-98.425
X238.919Y-68.263
X239.712Y-97.631
X239.712Y-151.192
X240.506Y-127.794
X240.513Y-97.631
X240.781Y-91.8
X241.294Y-83.344
X241.313Y-97.631
X241.346Y-91.235
X242.094Y-105.569
X242.106Y-89.694
X242.887Y-74.612
X243.681Y-97.631
X244.475Y-100.806
X244.579Y-68.208
X245.222Y-90.534
X245.269Y-88.106
X245.269Y-96.837
X246.062Y-75.406
X246.856Y-73.819
X246.856Y-74.619
X247.65Y-91.281
X248.444Y-112.712
X250.031Y-92.075
X252.412Y-71.438
X252.412Y-110.331
X255.587Y-100.012
X255.587Y-134.938
X259.556Y-76.994
X260.35Y-96.837
X263.525Y-73.025
X263.525Y-96.044
X263.525Y-107.95
X263.525Y-134.938
T3
X164.465Y-67.31
X164.465Y-86.36
X164.465Y-105.41
X164.465Y-124.46
X170.815Y-64.77
X170.815Y-83.82
X170.815Y-102.87
X170.815Y-121.92
X173.99Y-143.51
X180.34Y-140.97
X183.515Y-67.31
X183.515Y-86.36
X183.515Y-105.41
X183.515Y-124.46
X189.865Y-64.77
X189.865Y-83.82
X189.865Y-102.87
X189.865Y-121.92
X202.565Y-67.31
X202.565Y-86.36
X202.565Y-105.41
X202.565Y-124.46
X202.565Y-143.51
X208.915Y-64.77
X208.915Y-83.82
X208.915Y-102.87
X208.915Y-121.92
X208.915Y-140.97
X220.345Y-95.885
X220.345Y-133.985
X221.615Y-67.31
X222.885Y-102.235
X222.885Y-140.335
X227.965Y-64.77
X252.571Y-67.31
X252.571Y-86.36
X252.571Y-105.41
X252.571Y-124.46
X252.571Y-143.51
X258.921Y-64.77
X258.921Y-83.82
X258.921Y-102.87
X258.921Y-121.92
X258.921Y-140.97
T2
X236.812Y-61.438G85X236.812Y-62.237
G05
X236.812Y-65.457G85X236.812Y-66.557
G05
X245.462Y-61.438G85X245.462Y-62.237
G05
X245.462Y-65.457G85X245.462Y-66.557
G05
X250.76Y-61.64G85X250.36Y-61.64
G05
X253.26Y-61.64G85X252.86Y-61.64
G05
X255.76Y-61.64G85X255.36Y-61.64
G05
M30
