%TF.GenerationSoftware,KiCad,Pcbnew,8.0.6*%
%TF.CreationDate,2024-11-30T15:29:54-05:00*%
%TF.ProjectId,keyboard,6b657962-6f61-4726-942e-6b696361645f,rev?*%
%TF.SameCoordinates,Original*%
%TF.FileFunction,Drillmap*%
%TF.FilePolarity,Positive*%
%FSLAX45Y45*%
G04 Gerber Fmt 4.5, Leading zero omitted, Abs format (unit mm)*
G04 Created by KiCad (PCBNEW 8.0.6) date 2024-11-30 15:29:54*
%MOMM*%
%LPD*%
G01*
G04 APERTURE LIST*
%ADD10C,0.050000*%
%ADD11C,0.100000*%
%ADD12C,0.200000*%
%ADD13C,0.300000*%
G04 APERTURE END LIST*
D10*
X15825000Y-5975000D02*
X26650000Y-5975000D01*
X26650000Y-15600000D01*
X15825000Y-15600000D01*
X15825000Y-5975000D01*
D11*
X16655656Y-7422301D02*
X16655656Y-7562870D01*
X16746210Y-7642585D02*
X16905101Y-7642585D01*
X16905101Y-7342585D02*
X16746210Y-7342585D01*
X16995656Y-7562870D02*
X16995656Y-7422301D01*
X16650707Y-7400613D02*
G75*
G02*
X16655654Y-7422301I-45042J-21682D01*
G01*
X16650707Y-7400613D02*
G75*
G02*
X16720984Y-7335755I45051J21688D01*
G01*
X16655656Y-7562870D02*
G75*
G02*
X16650707Y-7584557I-50006J1D01*
G01*
X16720984Y-7649415D02*
G75*
G02*
X16650708Y-7584558I-25226J43170D01*
G01*
X16720985Y-7649415D02*
G75*
G02*
X16746210Y-7642585I25226J-43171D01*
G01*
X16746210Y-7342585D02*
G75*
G02*
X16720984Y-7335755I0J50001D01*
G01*
X16905101Y-7642585D02*
G75*
G02*
X16930327Y-7649415I0J-50001D01*
G01*
X16930327Y-7335756D02*
G75*
G02*
X16905101Y-7342585I-25226J43171D01*
G01*
X16930327Y-7335756D02*
G75*
G02*
X17000604Y-7400613I25226J-43170D01*
G01*
X16995656Y-7422301D02*
G75*
G02*
X17000604Y-7400613I50007J-2D01*
G01*
X17000604Y-7584557D02*
G75*
G02*
X16930327Y-7649415I-45051J-21688D01*
G01*
X17000604Y-7584557D02*
G75*
G02*
X16995656Y-7562870I45031J21683D01*
G01*
X18558116Y-11234841D02*
X18558116Y-11375410D01*
X18648670Y-11455125D02*
X18807561Y-11455125D01*
X18807561Y-11155126D02*
X18648670Y-11155126D01*
X18898116Y-11375410D02*
X18898116Y-11234841D01*
X18553167Y-11213153D02*
G75*
G02*
X18558114Y-11234841I-45042J-21682D01*
G01*
X18553167Y-11213153D02*
G75*
G02*
X18623445Y-11148296I45051J21688D01*
G01*
X18558116Y-11375410D02*
G75*
G02*
X18553167Y-11397097I-50006J1D01*
G01*
X18623445Y-11461955D02*
G75*
G02*
X18553168Y-11397098I-25226J43170D01*
G01*
X18623445Y-11461955D02*
G75*
G02*
X18648670Y-11455125I25226J-43171D01*
G01*
X18648670Y-11155125D02*
G75*
G02*
X18623445Y-11148296I0J50001D01*
G01*
X18807561Y-11455125D02*
G75*
G02*
X18832787Y-11461955I0J-50001D01*
G01*
X18832787Y-11148296D02*
G75*
G02*
X18807561Y-11155126I-25226J43171D01*
G01*
X18832787Y-11148296D02*
G75*
G02*
X18903064Y-11213153I25226J-43170D01*
G01*
X18898116Y-11234841D02*
G75*
G02*
X18903064Y-11213153I50007J-2D01*
G01*
X18903064Y-11397097D02*
G75*
G02*
X18832787Y-11461955I-45051J-21688D01*
G01*
X18903064Y-11397097D02*
G75*
G02*
X18898116Y-11375410I45031J21683D01*
G01*
X20465000Y-7421966D02*
X20465000Y-7562534D01*
X20555555Y-7642250D02*
X20714445Y-7642250D01*
X20714445Y-7342250D02*
X20555555Y-7342250D01*
X20805000Y-7562534D02*
X20805000Y-7421966D01*
X20460052Y-7400278D02*
G75*
G02*
X20464999Y-7421966I-45042J-21682D01*
G01*
X20460052Y-7400278D02*
G75*
G02*
X20530329Y-7335420I45051J21688D01*
G01*
X20465000Y-7562534D02*
G75*
G02*
X20460052Y-7584222I-50006J1D01*
G01*
X20530329Y-7649080D02*
G75*
G02*
X20460052Y-7584222I-25226J43170D01*
G01*
X20530329Y-7649080D02*
G75*
G02*
X20555555Y-7642250I25226J-43171D01*
G01*
X20555555Y-7342250D02*
G75*
G02*
X20530329Y-7335420I0J50001D01*
G01*
X20714445Y-7642250D02*
G75*
G02*
X20739671Y-7649080I0J-50001D01*
G01*
X20739671Y-7335420D02*
G75*
G02*
X20714445Y-7342250I-25226J43171D01*
G01*
X20739671Y-7335420D02*
G75*
G02*
X20809949Y-7400278I25226J-43170D01*
G01*
X20805000Y-7421966D02*
G75*
G02*
X20809948Y-7400278I50007J-2D01*
G01*
X20809948Y-7584222D02*
G75*
G02*
X20739671Y-7649080I-45051J-21688D01*
G01*
X20809948Y-7584222D02*
G75*
G02*
X20805000Y-7562534I45031J21683D01*
G01*
X25468004Y-7422301D02*
X25468004Y-7562870D01*
X25558559Y-7642585D02*
X25717450Y-7642585D01*
X25717450Y-7342585D02*
X25558559Y-7342585D01*
X25808004Y-7562870D02*
X25808004Y-7422301D01*
X25463056Y-7400613D02*
G75*
G02*
X25468003Y-7422301I-45042J-21682D01*
G01*
X25463056Y-7400613D02*
G75*
G02*
X25533333Y-7335755I45051J21688D01*
G01*
X25468004Y-7562870D02*
G75*
G02*
X25463056Y-7584557I-50006J1D01*
G01*
X25533333Y-7649415D02*
G75*
G02*
X25463056Y-7584558I-25226J43170D01*
G01*
X25533333Y-7649415D02*
G75*
G02*
X25558559Y-7642585I25226J-43171D01*
G01*
X25558559Y-7342585D02*
G75*
G02*
X25533333Y-7335755I0J50001D01*
G01*
X25717450Y-7642585D02*
G75*
G02*
X25742675Y-7649415I0J-50001D01*
G01*
X25742675Y-7335756D02*
G75*
G02*
X25717450Y-7342585I-25226J43171D01*
G01*
X25742675Y-7335756D02*
G75*
G02*
X25812953Y-7400613I25226J-43170D01*
G01*
X25808004Y-7422301D02*
G75*
G02*
X25812953Y-7400613I50007J-2D01*
G01*
X25812953Y-7584557D02*
G75*
G02*
X25742675Y-7649415I-45051J-21688D01*
G01*
X25812953Y-7584557D02*
G75*
G02*
X25808004Y-7562870I45031J21683D01*
G01*
X16655656Y-11232301D02*
X16655656Y-11372870D01*
X16746210Y-11452585D02*
X16905101Y-11452585D01*
X16905101Y-11152586D02*
X16746210Y-11152586D01*
X16995656Y-11372870D02*
X16995656Y-11232301D01*
X16650707Y-11210613D02*
G75*
G02*
X16655654Y-11232301I-45042J-21682D01*
G01*
X16650707Y-11210613D02*
G75*
G02*
X16720984Y-11145756I45051J21688D01*
G01*
X16655656Y-11372870D02*
G75*
G02*
X16650707Y-11394557I-50006J1D01*
G01*
X16720984Y-11459415D02*
G75*
G02*
X16650708Y-11394558I-25226J43170D01*
G01*
X16720985Y-11459415D02*
G75*
G02*
X16746210Y-11452585I25226J-43171D01*
G01*
X16746210Y-11152585D02*
G75*
G02*
X16720984Y-11145756I0J50001D01*
G01*
X16905101Y-11452585D02*
G75*
G02*
X16930327Y-11459415I0J-50001D01*
G01*
X16930327Y-11145756D02*
G75*
G02*
X16905101Y-11152586I-25226J43171D01*
G01*
X16930327Y-11145756D02*
G75*
G02*
X17000604Y-11210613I25226J-43170D01*
G01*
X16995656Y-11232301D02*
G75*
G02*
X17000604Y-11210613I50007J-2D01*
G01*
X17000604Y-11394557D02*
G75*
G02*
X16930327Y-11459415I-45051J-21688D01*
G01*
X17000604Y-11394557D02*
G75*
G02*
X16995656Y-11372870I45031J21683D01*
G01*
X18560656Y-7422301D02*
X18560656Y-7562870D01*
X18651210Y-7642585D02*
X18810101Y-7642585D01*
X18810101Y-7342585D02*
X18651210Y-7342585D01*
X18900656Y-7562870D02*
X18900656Y-7422301D01*
X18555707Y-7400613D02*
G75*
G02*
X18560654Y-7422301I-45042J-21682D01*
G01*
X18555707Y-7400613D02*
G75*
G02*
X18625985Y-7335755I45051J21688D01*
G01*
X18560656Y-7562870D02*
G75*
G02*
X18555707Y-7584557I-50006J1D01*
G01*
X18625985Y-7649415D02*
G75*
G02*
X18555708Y-7584558I-25226J43170D01*
G01*
X18625985Y-7649415D02*
G75*
G02*
X18651210Y-7642585I25226J-43171D01*
G01*
X18651210Y-7342585D02*
G75*
G02*
X18625985Y-7335755I0J50001D01*
G01*
X18810101Y-7642585D02*
G75*
G02*
X18835327Y-7649415I0J-50001D01*
G01*
X18835327Y-7335756D02*
G75*
G02*
X18810101Y-7342585I-25226J43171D01*
G01*
X18835327Y-7335756D02*
G75*
G02*
X18905604Y-7400613I25226J-43170D01*
G01*
X18900656Y-7422301D02*
G75*
G02*
X18905604Y-7400613I50007J-2D01*
G01*
X18905604Y-7584557D02*
G75*
G02*
X18835327Y-7649415I-45051J-21688D01*
G01*
X18905604Y-7584557D02*
G75*
G02*
X18900656Y-7562870I45031J21683D01*
G01*
X25467404Y-9327230D02*
X25467404Y-9467799D01*
X25557959Y-9547514D02*
X25716850Y-9547514D01*
X25716850Y-9247515D02*
X25557959Y-9247515D01*
X25807404Y-9467799D02*
X25807404Y-9327230D01*
X25462456Y-9305542D02*
G75*
G02*
X25467403Y-9327230I-45042J-21682D01*
G01*
X25462456Y-9305542D02*
G75*
G02*
X25532733Y-9240685I45051J21688D01*
G01*
X25467404Y-9467799D02*
G75*
G02*
X25462456Y-9489487I-50006J1D01*
G01*
X25532733Y-9554344D02*
G75*
G02*
X25462456Y-9489487I-25226J43170D01*
G01*
X25532733Y-9554344D02*
G75*
G02*
X25557959Y-9547515I25226J-43171D01*
G01*
X25557959Y-9247514D02*
G75*
G02*
X25532733Y-9240685I0J50001D01*
G01*
X25716850Y-9547514D02*
G75*
G02*
X25742075Y-9554344I0J-50001D01*
G01*
X25742075Y-9240685D02*
G75*
G02*
X25716850Y-9247515I-25226J43171D01*
G01*
X25742075Y-9240685D02*
G75*
G02*
X25812353Y-9305542I25226J-43170D01*
G01*
X25807404Y-9327230D02*
G75*
G02*
X25812353Y-9305542I50007J-2D01*
G01*
X25812353Y-9489486D02*
G75*
G02*
X25742075Y-9554344I-45051J-21688D01*
G01*
X25812353Y-9489486D02*
G75*
G02*
X25807404Y-9467799I45031J21683D01*
G01*
X16656744Y-13137993D02*
X16656744Y-13278561D01*
X16747299Y-13358277D02*
X16906190Y-13358277D01*
X16906190Y-13058277D02*
X16747299Y-13058277D01*
X16996744Y-13278561D02*
X16996744Y-13137993D01*
X16651796Y-13116305D02*
G75*
G02*
X16656743Y-13137993I-45042J-21682D01*
G01*
X16651796Y-13116305D02*
G75*
G02*
X16722073Y-13051447I45051J21688D01*
G01*
X16656744Y-13278561D02*
G75*
G02*
X16651796Y-13300249I-50006J1D01*
G01*
X16722073Y-13365107D02*
G75*
G02*
X16651796Y-13300249I-25226J43170D01*
G01*
X16722073Y-13365107D02*
G75*
G02*
X16747299Y-13358277I25226J-43171D01*
G01*
X16747299Y-13058277D02*
G75*
G02*
X16722073Y-13051447I0J50001D01*
G01*
X16906190Y-13358277D02*
G75*
G02*
X16931416Y-13365107I0J-50001D01*
G01*
X16931416Y-13051447D02*
G75*
G02*
X16906190Y-13058277I-25226J43171D01*
G01*
X16931416Y-13051447D02*
G75*
G02*
X17001693Y-13116305I25226J-43170D01*
G01*
X16996744Y-13137993D02*
G75*
G02*
X17001693Y-13116305I50007J-2D01*
G01*
X17001693Y-13300249D02*
G75*
G02*
X16931416Y-13365107I-45051J-21688D01*
G01*
X17001693Y-13300249D02*
G75*
G02*
X16996744Y-13278561I45031J21683D01*
G01*
X22370656Y-7422301D02*
X22370656Y-7562870D01*
X22461210Y-7642585D02*
X22620101Y-7642585D01*
X22620101Y-7342585D02*
X22461210Y-7342585D01*
X22710655Y-7562870D02*
X22710655Y-7422301D01*
X22365707Y-7400613D02*
G75*
G02*
X22370654Y-7422301I-45042J-21682D01*
G01*
X22365707Y-7400613D02*
G75*
G02*
X22435984Y-7335755I45051J21688D01*
G01*
X22370656Y-7562870D02*
G75*
G02*
X22365707Y-7584557I-50006J1D01*
G01*
X22435984Y-7649415D02*
G75*
G02*
X22365708Y-7584558I-25226J43170D01*
G01*
X22435985Y-7649415D02*
G75*
G02*
X22461210Y-7642585I25226J-43171D01*
G01*
X22461210Y-7342585D02*
G75*
G02*
X22435984Y-7335755I0J50001D01*
G01*
X22620101Y-7642585D02*
G75*
G02*
X22645327Y-7649415I0J-50001D01*
G01*
X22645327Y-7335756D02*
G75*
G02*
X22620101Y-7342585I-25226J43171D01*
G01*
X22645327Y-7335756D02*
G75*
G02*
X22715604Y-7400613I25226J-43170D01*
G01*
X22710655Y-7422301D02*
G75*
G02*
X22715604Y-7400613I50007J-2D01*
G01*
X22715604Y-7584557D02*
G75*
G02*
X22645327Y-7649415I-45051J-21688D01*
G01*
X22715604Y-7584557D02*
G75*
G02*
X22710655Y-7562870I45031J21683D01*
G01*
X18561745Y-13137993D02*
X18561745Y-13278561D01*
X18652299Y-13358277D02*
X18811190Y-13358277D01*
X18811190Y-13058277D02*
X18652299Y-13058277D01*
X18901744Y-13278561D02*
X18901744Y-13137993D01*
X18556796Y-13116305D02*
G75*
G02*
X18561743Y-13137993I-45042J-21682D01*
G01*
X18556796Y-13116305D02*
G75*
G02*
X18627073Y-13051447I45051J21688D01*
G01*
X18561745Y-13278561D02*
G75*
G02*
X18556796Y-13300249I-50006J1D01*
G01*
X18627073Y-13365107D02*
G75*
G02*
X18556796Y-13300249I-25226J43170D01*
G01*
X18627073Y-13365107D02*
G75*
G02*
X18652299Y-13358277I25226J-43171D01*
G01*
X18652299Y-13058277D02*
G75*
G02*
X18627073Y-13051447I0J50001D01*
G01*
X18811190Y-13358277D02*
G75*
G02*
X18836416Y-13365107I0J-50001D01*
G01*
X18836416Y-13051447D02*
G75*
G02*
X18811190Y-13058277I-25226J43171D01*
G01*
X18836416Y-13051447D02*
G75*
G02*
X18906693Y-13116305I25226J-43170D01*
G01*
X18901744Y-13137993D02*
G75*
G02*
X18906693Y-13116305I50007J-2D01*
G01*
X18906693Y-13300249D02*
G75*
G02*
X18836416Y-13365107I-45051J-21688D01*
G01*
X18906693Y-13300249D02*
G75*
G02*
X18901744Y-13278561I45031J21683D01*
G01*
X17608156Y-15042301D02*
X17608156Y-15182870D01*
X17698710Y-15262585D02*
X17857601Y-15262585D01*
X17857601Y-14962585D02*
X17698710Y-14962585D01*
X17948156Y-15182870D02*
X17948156Y-15042301D01*
X17603207Y-15020613D02*
G75*
G02*
X17608154Y-15042301I-45042J-21682D01*
G01*
X17603207Y-15020613D02*
G75*
G02*
X17673485Y-14955755I45051J21688D01*
G01*
X17608156Y-15182870D02*
G75*
G02*
X17603207Y-15204557I-50006J1D01*
G01*
X17673485Y-15269415D02*
G75*
G02*
X17603208Y-15204558I-25226J43170D01*
G01*
X17673485Y-15269415D02*
G75*
G02*
X17698710Y-15262585I25226J-43171D01*
G01*
X17698710Y-14962585D02*
G75*
G02*
X17673485Y-14955755I0J50001D01*
G01*
X17857601Y-15262585D02*
G75*
G02*
X17882827Y-15269415I0J-50001D01*
G01*
X17882827Y-14955756D02*
G75*
G02*
X17857601Y-14962585I-25226J43171D01*
G01*
X17882827Y-14955756D02*
G75*
G02*
X17953104Y-15020613I25226J-43170D01*
G01*
X17948156Y-15042301D02*
G75*
G02*
X17953104Y-15020613I50007J-2D01*
G01*
X17953104Y-15204557D02*
G75*
G02*
X17882827Y-15269415I-45051J-21688D01*
G01*
X17953104Y-15204557D02*
G75*
G02*
X17948156Y-15182870I45031J21683D01*
G01*
X20468196Y-15042301D02*
X20468196Y-15182870D01*
X20558750Y-15262585D02*
X20717641Y-15262585D01*
X20717641Y-14962585D02*
X20558750Y-14962585D01*
X20808196Y-15182870D02*
X20808196Y-15042301D01*
X20463247Y-15020613D02*
G75*
G02*
X20468194Y-15042301I-45042J-21682D01*
G01*
X20463247Y-15020613D02*
G75*
G02*
X20533525Y-14955755I45051J21688D01*
G01*
X20468196Y-15182870D02*
G75*
G02*
X20463247Y-15204557I-50006J1D01*
G01*
X20533525Y-15269415D02*
G75*
G02*
X20463248Y-15204558I-25226J43170D01*
G01*
X20533525Y-15269415D02*
G75*
G02*
X20558750Y-15262585I25226J-43171D01*
G01*
X20558750Y-14962585D02*
G75*
G02*
X20533525Y-14955755I0J50001D01*
G01*
X20717641Y-15262585D02*
G75*
G02*
X20742867Y-15269415I0J-50001D01*
G01*
X20742867Y-14955756D02*
G75*
G02*
X20717641Y-14962585I-25226J43171D01*
G01*
X20742867Y-14955756D02*
G75*
G02*
X20813144Y-15020613I25226J-43170D01*
G01*
X20808196Y-15042301D02*
G75*
G02*
X20813144Y-15020613I50007J-2D01*
G01*
X20813144Y-15204557D02*
G75*
G02*
X20742867Y-15269415I-45051J-21688D01*
G01*
X20813144Y-15204557D02*
G75*
G02*
X20808196Y-15182870I45031J21683D01*
G01*
X16658796Y-9330346D02*
X16658796Y-9470914D01*
X16749350Y-9550630D02*
X16908241Y-9550630D01*
X16908241Y-9250630D02*
X16749350Y-9250630D01*
X16998796Y-9470914D02*
X16998796Y-9330346D01*
X16653847Y-9308658D02*
G75*
G02*
X16658794Y-9330346I-45042J-21682D01*
G01*
X16653847Y-9308658D02*
G75*
G02*
X16724124Y-9243800I45051J21688D01*
G01*
X16658796Y-9470914D02*
G75*
G02*
X16653847Y-9492602I-50006J1D01*
G01*
X16724124Y-9557460D02*
G75*
G02*
X16653848Y-9492602I-25226J43170D01*
G01*
X16724125Y-9557460D02*
G75*
G02*
X16749350Y-9550630I25226J-43171D01*
G01*
X16749350Y-9250630D02*
G75*
G02*
X16724124Y-9243800I0J50001D01*
G01*
X16908241Y-9550630D02*
G75*
G02*
X16933467Y-9557460I0J-50001D01*
G01*
X16933467Y-9243800D02*
G75*
G02*
X16908241Y-9250630I-25226J43171D01*
G01*
X16933467Y-9243800D02*
G75*
G02*
X17003744Y-9308658I25226J-43170D01*
G01*
X16998796Y-9330346D02*
G75*
G02*
X17003744Y-9308658I50007J-2D01*
G01*
X17003744Y-9492602D02*
G75*
G02*
X16933467Y-9557460I-45051J-21688D01*
G01*
X17003744Y-9492602D02*
G75*
G02*
X16998796Y-9470914I45031J21683D01*
G01*
X25467516Y-15042806D02*
X25467516Y-15183374D01*
X25558070Y-15263090D02*
X25716961Y-15263090D01*
X25716961Y-14963090D02*
X25558070Y-14963090D01*
X25807515Y-15183374D02*
X25807515Y-15042806D01*
X25462567Y-15021118D02*
G75*
G02*
X25467514Y-15042806I-45042J-21682D01*
G01*
X25462567Y-15021118D02*
G75*
G02*
X25532844Y-14956260I45051J21688D01*
G01*
X25467516Y-15183374D02*
G75*
G02*
X25462567Y-15205062I-50006J1D01*
G01*
X25532844Y-15269920D02*
G75*
G02*
X25462568Y-15205062I-25226J43170D01*
G01*
X25532845Y-15269920D02*
G75*
G02*
X25558070Y-15263090I25226J-43171D01*
G01*
X25558070Y-14963090D02*
G75*
G02*
X25532844Y-14956260I0J50001D01*
G01*
X25716961Y-15263090D02*
G75*
G02*
X25742187Y-15269920I0J-50001D01*
G01*
X25742187Y-14956260D02*
G75*
G02*
X25716961Y-14963090I-25226J43171D01*
G01*
X25742187Y-14956260D02*
G75*
G02*
X25812464Y-15021118I25226J-43170D01*
G01*
X25807515Y-15042806D02*
G75*
G02*
X25812464Y-15021118I50007J-2D01*
G01*
X25812464Y-15205062D02*
G75*
G02*
X25742187Y-15269920I-45051J-21688D01*
G01*
X25812464Y-15205062D02*
G75*
G02*
X25807515Y-15183374I45031J21683D01*
G01*
X25467404Y-13137230D02*
X25467404Y-13277799D01*
X25557959Y-13357514D02*
X25716850Y-13357514D01*
X25716850Y-13057514D02*
X25557959Y-13057514D01*
X25807404Y-13277799D02*
X25807404Y-13137230D01*
X25462456Y-13115542D02*
G75*
G02*
X25467403Y-13137230I-45042J-21682D01*
G01*
X25462456Y-13115542D02*
G75*
G02*
X25532733Y-13050684I45051J21688D01*
G01*
X25467404Y-13277799D02*
G75*
G02*
X25462456Y-13299486I-50006J1D01*
G01*
X25532733Y-13364344D02*
G75*
G02*
X25462456Y-13299487I-25226J43170D01*
G01*
X25532733Y-13364344D02*
G75*
G02*
X25557959Y-13357514I25226J-43171D01*
G01*
X25557959Y-13057514D02*
G75*
G02*
X25532733Y-13050684I0J50001D01*
G01*
X25716850Y-13357514D02*
G75*
G02*
X25742075Y-13364344I0J-50001D01*
G01*
X25742075Y-13050685D02*
G75*
G02*
X25716850Y-13057514I-25226J43171D01*
G01*
X25742075Y-13050685D02*
G75*
G02*
X25812353Y-13115542I25226J-43170D01*
G01*
X25807404Y-13137230D02*
G75*
G02*
X25812353Y-13115542I50007J-2D01*
G01*
X25812353Y-13299486D02*
G75*
G02*
X25742075Y-13364344I-45051J-21688D01*
G01*
X25812353Y-13299486D02*
G75*
G02*
X25807404Y-13277799I45031J21683D01*
G01*
X20466145Y-13137230D02*
X20466145Y-13277799D01*
X20556699Y-13357514D02*
X20715590Y-13357514D01*
X20715590Y-13057514D02*
X20556699Y-13057514D01*
X20806144Y-13277799D02*
X20806144Y-13137230D01*
X20461196Y-13115542D02*
G75*
G02*
X20466143Y-13137230I-45042J-21682D01*
G01*
X20461196Y-13115542D02*
G75*
G02*
X20531473Y-13050684I45051J21688D01*
G01*
X20466145Y-13277799D02*
G75*
G02*
X20461196Y-13299486I-50006J1D01*
G01*
X20531473Y-13364344D02*
G75*
G02*
X20461196Y-13299487I-25226J43170D01*
G01*
X20531473Y-13364344D02*
G75*
G02*
X20556699Y-13357514I25226J-43171D01*
G01*
X20556699Y-13057514D02*
G75*
G02*
X20531473Y-13050684I0J50001D01*
G01*
X20715590Y-13357514D02*
G75*
G02*
X20740816Y-13364344I0J-50001D01*
G01*
X20740816Y-13050685D02*
G75*
G02*
X20715590Y-13057514I-25226J43171D01*
G01*
X20740816Y-13050685D02*
G75*
G02*
X20811093Y-13115542I25226J-43170D01*
G01*
X20806144Y-13137230D02*
G75*
G02*
X20811093Y-13115542I50007J-2D01*
G01*
X20811093Y-13299486D02*
G75*
G02*
X20740816Y-13364344I-45051J-21688D01*
G01*
X20811093Y-13299486D02*
G75*
G02*
X20806144Y-13277799I45031J21683D01*
G01*
X20465656Y-11232441D02*
X20465656Y-11373010D01*
X20556210Y-11452725D02*
X20715101Y-11452725D01*
X20715101Y-11152726D02*
X20556210Y-11152726D01*
X20805656Y-11373010D02*
X20805656Y-11232441D01*
X20460707Y-11210753D02*
G75*
G02*
X20465654Y-11232441I-45042J-21682D01*
G01*
X20460707Y-11210753D02*
G75*
G02*
X20530985Y-11145896I45051J21688D01*
G01*
X20465656Y-11373010D02*
G75*
G02*
X20460707Y-11394697I-50006J1D01*
G01*
X20530985Y-11459555D02*
G75*
G02*
X20460708Y-11394698I-25226J43170D01*
G01*
X20530985Y-11459555D02*
G75*
G02*
X20556210Y-11452725I25226J-43171D01*
G01*
X20556210Y-11152725D02*
G75*
G02*
X20530985Y-11145896I0J50001D01*
G01*
X20715101Y-11452725D02*
G75*
G02*
X20740327Y-11459555I0J-50001D01*
G01*
X20740327Y-11145896D02*
G75*
G02*
X20715101Y-11152726I-25226J43171D01*
G01*
X20740327Y-11145896D02*
G75*
G02*
X20810604Y-11210753I25226J-43170D01*
G01*
X20805656Y-11232441D02*
G75*
G02*
X20810604Y-11210753I50007J-2D01*
G01*
X20810604Y-11394697D02*
G75*
G02*
X20740327Y-11459555I-45051J-21688D01*
G01*
X20810604Y-11394697D02*
G75*
G02*
X20805656Y-11373010I45031J21683D01*
G01*
X22900154Y-13573210D02*
X22900154Y-13732101D01*
X22979870Y-13822655D02*
X23120439Y-13822655D01*
X23120439Y-13482656D02*
X22979870Y-13482656D01*
X23200154Y-13732101D02*
X23200154Y-13573210D01*
X22893325Y-13547984D02*
G75*
G02*
X22900154Y-13573210I-43171J-25226D01*
G01*
X22893325Y-13547984D02*
G75*
G02*
X22958182Y-13477707I43170J25226D01*
G01*
X22900154Y-13732101D02*
G75*
G02*
X22893324Y-13757327I-50001J0D01*
G01*
X22958182Y-13827604D02*
G75*
G02*
X22893324Y-13757327I-21688J45051D01*
G01*
X22958182Y-13827604D02*
G75*
G02*
X22979870Y-13822657I21682J-45042D01*
G01*
X22979870Y-13482656D02*
G75*
G02*
X22958182Y-13477707I2J50007D01*
G01*
X23120439Y-13822655D02*
G75*
G02*
X23142126Y-13827604I-1J-50006D01*
G01*
X23142126Y-13477707D02*
G75*
G02*
X23206984Y-13547984I21688J-45051D01*
G01*
X23142126Y-13477707D02*
G75*
G02*
X23120439Y-13482656I-21683J45031D01*
G01*
X23200154Y-13573210D02*
G75*
G02*
X23206984Y-13547984I50001J0D01*
G01*
X23206984Y-13757327D02*
G75*
G02*
X23142127Y-13827604I-43170J-25226D01*
G01*
X23206984Y-13757327D02*
G75*
G02*
X23200154Y-13732101I43171J25226D01*
G01*
X18561145Y-9327230D02*
X18561145Y-9467799D01*
X18651699Y-9547514D02*
X18810590Y-9547514D01*
X18810590Y-9247515D02*
X18651699Y-9247515D01*
X18901144Y-9467799D02*
X18901144Y-9327230D01*
X18556196Y-9305542D02*
G75*
G02*
X18561143Y-9327230I-45042J-21682D01*
G01*
X18556196Y-9305542D02*
G75*
G02*
X18626473Y-9240685I45051J21688D01*
G01*
X18561145Y-9467799D02*
G75*
G02*
X18556196Y-9489487I-50006J1D01*
G01*
X18626473Y-9554344D02*
G75*
G02*
X18556196Y-9489487I-25226J43170D01*
G01*
X18626473Y-9554344D02*
G75*
G02*
X18651699Y-9547515I25226J-43171D01*
G01*
X18651699Y-9247514D02*
G75*
G02*
X18626473Y-9240685I0J50001D01*
G01*
X18810590Y-9547514D02*
G75*
G02*
X18835816Y-9554344I0J-50001D01*
G01*
X18835816Y-9240685D02*
G75*
G02*
X18810590Y-9247515I-25226J43171D01*
G01*
X18835816Y-9240685D02*
G75*
G02*
X18906093Y-9305542I25226J-43170D01*
G01*
X18901144Y-9327230D02*
G75*
G02*
X18906093Y-9305542I50007J-2D01*
G01*
X18906093Y-9489486D02*
G75*
G02*
X18835816Y-9554344I-45051J-21688D01*
G01*
X18906093Y-9489486D02*
G75*
G02*
X18901144Y-9467799I45031J21683D01*
G01*
X22900777Y-9764410D02*
X22900777Y-9923301D01*
X22980493Y-10013856D02*
X23121061Y-10013856D01*
X23121061Y-9673856D02*
X22980493Y-9673856D01*
X23200777Y-9923301D02*
X23200777Y-9764410D01*
X22893947Y-9739185D02*
G75*
G02*
X22900777Y-9764410I-43171J-25226D01*
G01*
X22893947Y-9739185D02*
G75*
G02*
X22958805Y-9668907I43170J25226D01*
G01*
X22900777Y-9923301D02*
G75*
G02*
X22893947Y-9948527I-50001J0D01*
G01*
X22958805Y-10018804D02*
G75*
G02*
X22893947Y-9948527I-21688J45051D01*
G01*
X22958805Y-10018804D02*
G75*
G02*
X22980493Y-10013857I21682J-45042D01*
G01*
X22980493Y-9673856D02*
G75*
G02*
X22958805Y-9668907I2J50007D01*
G01*
X23121061Y-10013856D02*
G75*
G02*
X23142749Y-10018804I-1J-50006D01*
G01*
X23142749Y-9668907D02*
G75*
G02*
X23207607Y-9739185I21688J-45051D01*
G01*
X23142749Y-9668907D02*
G75*
G02*
X23121061Y-9673856I-21683J45031D01*
G01*
X23200777Y-9764410D02*
G75*
G02*
X23207607Y-9739185I50001J0D01*
G01*
X23207607Y-9948527D02*
G75*
G02*
X23142749Y-10018804I-43170J-25226D01*
G01*
X23207607Y-9948527D02*
G75*
G02*
X23200777Y-9923301I43171J25226D01*
G01*
X20464805Y-9327230D02*
X20464805Y-9467799D01*
X20555359Y-9547514D02*
X20714250Y-9547514D01*
X20714250Y-9247515D02*
X20555359Y-9247515D01*
X20804804Y-9467799D02*
X20804804Y-9327230D01*
X20459856Y-9305542D02*
G75*
G02*
X20464803Y-9327230I-45042J-21682D01*
G01*
X20459856Y-9305542D02*
G75*
G02*
X20530133Y-9240685I45051J21688D01*
G01*
X20464805Y-9467799D02*
G75*
G02*
X20459856Y-9489487I-50006J1D01*
G01*
X20530133Y-9554344D02*
G75*
G02*
X20459856Y-9489487I-25226J43170D01*
G01*
X20530133Y-9554344D02*
G75*
G02*
X20555359Y-9547515I25226J-43171D01*
G01*
X20555359Y-9247514D02*
G75*
G02*
X20530133Y-9240685I0J50001D01*
G01*
X20714250Y-9547514D02*
G75*
G02*
X20739476Y-9554344I0J-50001D01*
G01*
X20739476Y-9240685D02*
G75*
G02*
X20714250Y-9247515I-25226J43171D01*
G01*
X20739476Y-9240685D02*
G75*
G02*
X20809753Y-9305542I25226J-43170D01*
G01*
X20804804Y-9327230D02*
G75*
G02*
X20809753Y-9305542I50007J-2D01*
G01*
X20809753Y-9489486D02*
G75*
G02*
X20739476Y-9554344I-45051J-21688D01*
G01*
X20809753Y-9489486D02*
G75*
G02*
X20804804Y-9467799I45031J21683D01*
G01*
X25467516Y-11235346D02*
X25467516Y-11375914D01*
X25558070Y-11455630D02*
X25716961Y-11455630D01*
X25716961Y-11155630D02*
X25558070Y-11155630D01*
X25807515Y-11375914D02*
X25807515Y-11235346D01*
X25462567Y-11213658D02*
G75*
G02*
X25467514Y-11235346I-45042J-21682D01*
G01*
X25462567Y-11213658D02*
G75*
G02*
X25532844Y-11148800I45051J21688D01*
G01*
X25467516Y-11375914D02*
G75*
G02*
X25462567Y-11397602I-50006J1D01*
G01*
X25532844Y-11462460D02*
G75*
G02*
X25462568Y-11397602I-25226J43170D01*
G01*
X25532845Y-11462460D02*
G75*
G02*
X25558070Y-11455630I25226J-43171D01*
G01*
X25558070Y-11155630D02*
G75*
G02*
X25532844Y-11148800I0J50001D01*
G01*
X25716961Y-11455630D02*
G75*
G02*
X25742187Y-11462460I0J-50001D01*
G01*
X25742187Y-11148800D02*
G75*
G02*
X25716961Y-11155630I-25226J43171D01*
G01*
X25742187Y-11148800D02*
G75*
G02*
X25812464Y-11213658I25226J-43170D01*
G01*
X25807515Y-11235346D02*
G75*
G02*
X25812464Y-11213658I50007J-2D01*
G01*
X25812464Y-11397602D02*
G75*
G02*
X25742187Y-11462460I-45051J-21688D01*
G01*
X25812464Y-11397602D02*
G75*
G02*
X25807515Y-11375914I45031J21683D01*
G01*
D12*
D11*
X16172950Y-9589375D02*
X16202950Y-9619375D01*
X16202950Y-9589375D02*
X16172950Y-9619375D01*
X16172950Y-11335625D02*
X16202950Y-11365625D01*
X16202950Y-11335625D02*
X16172950Y-11365625D01*
X16172950Y-13716875D02*
X16202950Y-13746875D01*
X16202950Y-13716875D02*
X16172950Y-13746875D01*
X16256875Y-7605000D02*
X16286875Y-7635000D01*
X16286875Y-7605000D02*
X16256875Y-7635000D01*
X16336250Y-13320000D02*
X16366250Y-13350000D01*
X16366250Y-13320000D02*
X16336250Y-13350000D01*
X16495000Y-12843750D02*
X16525000Y-12873750D01*
X16525000Y-12843750D02*
X16495000Y-12873750D01*
X16653750Y-9986250D02*
X16683750Y-10016250D01*
X16683750Y-9986250D02*
X16653750Y-10016250D01*
X17066500Y-9827500D02*
X17096500Y-9857500D01*
X17096500Y-9827500D02*
X17066500Y-9857500D01*
X17447500Y-14669375D02*
X17477500Y-14699375D01*
X17477500Y-14669375D02*
X17447500Y-14699375D01*
X18320625Y-13058979D02*
X18350625Y-13088979D01*
X18350625Y-13058979D02*
X18320625Y-13088979D01*
X18971500Y-9906875D02*
X19001500Y-9936875D01*
X19001500Y-9906875D02*
X18971500Y-9936875D01*
X20156055Y-13059977D02*
X20186055Y-13089977D01*
X20186055Y-13059977D02*
X20156055Y-13089977D01*
X21813125Y-13161250D02*
X21843125Y-13191250D01*
X21843125Y-13161250D02*
X21813125Y-13191250D01*
X22082200Y-9792141D02*
X22112200Y-9822141D01*
X22112200Y-9792141D02*
X22082200Y-9822141D01*
X22130625Y-10780000D02*
X22160625Y-10810000D01*
X22160625Y-10780000D02*
X22130625Y-10810000D01*
X22130625Y-10860000D02*
X22160625Y-10890000D01*
X22160625Y-10860000D02*
X22130625Y-10890000D01*
X22130625Y-10940001D02*
X22160625Y-10970001D01*
X22160625Y-10940001D02*
X22130625Y-10970001D01*
X22509704Y-10145000D02*
X22539704Y-10175000D01*
X22539704Y-10145000D02*
X22509704Y-10175000D01*
X22686250Y-9051950D02*
X22716250Y-9081950D01*
X22716250Y-9051950D02*
X22686250Y-9081950D01*
X22765625Y-10145000D02*
X22795625Y-10175000D01*
X22795625Y-10145000D02*
X22765625Y-10175000D01*
X22924375Y-9412855D02*
X22954375Y-9442855D01*
X22954375Y-9412855D02*
X22924375Y-9442855D01*
X22947000Y-13217000D02*
X22977000Y-13247000D01*
X22977000Y-13217000D02*
X22947000Y-13247000D01*
X23083125Y-14193125D02*
X23113125Y-14223125D01*
X23113125Y-14193125D02*
X23083125Y-14223125D01*
X23109703Y-9430625D02*
X23139703Y-9460625D01*
X23139703Y-9430625D02*
X23109703Y-9460625D01*
X23114000Y-13215000D02*
X23144000Y-13245000D01*
X23144000Y-13215000D02*
X23114000Y-13245000D01*
X23241875Y-10065625D02*
X23271875Y-10095625D01*
X23271875Y-10065625D02*
X23241875Y-10095625D01*
X23246210Y-10149961D02*
X23276210Y-10179961D01*
X23276210Y-10149961D02*
X23246210Y-10179961D01*
X23248287Y-10236555D02*
X23278287Y-10266555D01*
X23278287Y-10236555D02*
X23248287Y-10266555D01*
X23249004Y-10324510D02*
X23279004Y-10354510D01*
X23279004Y-10324510D02*
X23249004Y-10354510D01*
X23638750Y-7526250D02*
X23668750Y-7556250D01*
X23668750Y-7526250D02*
X23638750Y-7556250D01*
X23638750Y-10541875D02*
X23668750Y-10571875D01*
X23668750Y-10541875D02*
X23638750Y-10571875D01*
X23647576Y-7357424D02*
X23677576Y-7387424D01*
X23677576Y-7357424D02*
X23647576Y-7387424D01*
X23797500Y-9430625D02*
X23827500Y-9460625D01*
X23827500Y-9430625D02*
X23797500Y-9460625D01*
X23801651Y-9827500D02*
X23831651Y-9857500D01*
X23831651Y-9827500D02*
X23801651Y-9857500D01*
X23876875Y-6811250D02*
X23906875Y-6841250D01*
X23906875Y-6811250D02*
X23876875Y-6841250D01*
X23956250Y-9748125D02*
X23986250Y-9778125D01*
X23986250Y-9748125D02*
X23956250Y-9778125D01*
X23956250Y-15104200D02*
X23986250Y-15134200D01*
X23986250Y-15104200D02*
X23956250Y-15134200D01*
X24035625Y-12764375D02*
X24065625Y-12794375D01*
X24065625Y-12764375D02*
X24035625Y-12794375D01*
X24036250Y-9748125D02*
X24066250Y-9778125D01*
X24066250Y-9748125D02*
X24036250Y-9778125D01*
X24063079Y-9165046D02*
X24093079Y-9195046D01*
X24093079Y-9165046D02*
X24063079Y-9195046D01*
X24114400Y-8319375D02*
X24144400Y-8349375D01*
X24144400Y-8319375D02*
X24114400Y-8349375D01*
X24116251Y-9748125D02*
X24146251Y-9778125D01*
X24146251Y-9748125D02*
X24116251Y-9778125D01*
X24119648Y-9108477D02*
X24149648Y-9138477D01*
X24149648Y-9108477D02*
X24119648Y-9138477D01*
X24194375Y-10541875D02*
X24224375Y-10571875D01*
X24224375Y-10541875D02*
X24194375Y-10571875D01*
X24195625Y-8954375D02*
X24225625Y-8984375D01*
X24225625Y-8954375D02*
X24195625Y-8984375D01*
X24273750Y-7446250D02*
X24303750Y-7476250D01*
X24303750Y-7446250D02*
X24273750Y-7476250D01*
X24353125Y-9748125D02*
X24383125Y-9778125D01*
X24383125Y-9748125D02*
X24353125Y-9778125D01*
X24432500Y-10065625D02*
X24462500Y-10095625D01*
X24462500Y-10065625D02*
X24432500Y-10095625D01*
X24442941Y-6805762D02*
X24472941Y-6835762D01*
X24472941Y-6805762D02*
X24442941Y-6835762D01*
X24507227Y-9038398D02*
X24537227Y-9068398D01*
X24537227Y-9038398D02*
X24507227Y-9068398D01*
X24511875Y-8795625D02*
X24541875Y-8825625D01*
X24541875Y-8795625D02*
X24511875Y-8825625D01*
X24511875Y-9668750D02*
X24541875Y-9698750D01*
X24541875Y-9668750D02*
X24511875Y-9698750D01*
X24591250Y-7525625D02*
X24621250Y-7555625D01*
X24621250Y-7525625D02*
X24591250Y-7555625D01*
X24670625Y-7366875D02*
X24700625Y-7396875D01*
X24700625Y-7366875D02*
X24670625Y-7396875D01*
X24670625Y-7446875D02*
X24700625Y-7476875D01*
X24700625Y-7446875D02*
X24670625Y-7476875D01*
X24750000Y-9113125D02*
X24780000Y-9143125D01*
X24780000Y-9113125D02*
X24750000Y-9143125D01*
X24829375Y-11256250D02*
X24859375Y-11286250D01*
X24859375Y-11256250D02*
X24829375Y-11286250D01*
X24988125Y-9192500D02*
X25018125Y-9222500D01*
X25018125Y-9192500D02*
X24988125Y-9222500D01*
X25226250Y-7128750D02*
X25256250Y-7158750D01*
X25256250Y-7128750D02*
X25226250Y-7158750D01*
X25226250Y-11018125D02*
X25256250Y-11048125D01*
X25256250Y-11018125D02*
X25226250Y-11048125D01*
X25543750Y-9986250D02*
X25573750Y-10016250D01*
X25573750Y-9986250D02*
X25543750Y-10016250D01*
X25543750Y-13478750D02*
X25573750Y-13508750D01*
X25573750Y-13478750D02*
X25543750Y-13508750D01*
X25940625Y-7684375D02*
X25970625Y-7714375D01*
X25970625Y-7684375D02*
X25940625Y-7714375D01*
X26020000Y-9668750D02*
X26050000Y-9698750D01*
X26050000Y-9668750D02*
X26020000Y-9698750D01*
X26337500Y-7287500D02*
X26367500Y-7317500D01*
X26367500Y-7287500D02*
X26337500Y-7317500D01*
X26337500Y-9589375D02*
X26367500Y-9619375D01*
X26367500Y-9589375D02*
X26337500Y-9619375D01*
X26337500Y-10780000D02*
X26367500Y-10810000D01*
X26367500Y-10780000D02*
X26337500Y-10810000D01*
X26337500Y-13478750D02*
X26367500Y-13508750D01*
X26367500Y-13478750D02*
X26337500Y-13508750D01*
X23711250Y-6183750D02*
G75*
G02*
X23651250Y-6183750I-30000J0D01*
G01*
X23651250Y-6183750D02*
G75*
G02*
X23711250Y-6183750I30000J0D01*
G01*
X23651250Y-6143750D02*
X23651250Y-6223750D01*
X23711250Y-6223750D02*
G75*
G02*
X23651250Y-6223750I-30000J0D01*
G01*
X23711250Y-6223750D02*
X23711250Y-6143750D01*
X23711250Y-6143750D02*
G75*
G03*
X23651250Y-6143750I-30000J0D01*
G01*
X23711250Y-6600750D02*
G75*
G02*
X23651250Y-6600750I-30000J0D01*
G01*
X23651250Y-6600750D02*
G75*
G02*
X23711250Y-6600750I30000J0D01*
G01*
X23651250Y-6545750D02*
X23651250Y-6655750D01*
X23711250Y-6655750D02*
G75*
G02*
X23651250Y-6655750I-30000J0D01*
G01*
X23711250Y-6655750D02*
X23711250Y-6545750D01*
X23711250Y-6545750D02*
G75*
G03*
X23651250Y-6545750I-30000J0D01*
G01*
X24576250Y-6183750D02*
G75*
G02*
X24516250Y-6183750I-30000J0D01*
G01*
X24516250Y-6183750D02*
G75*
G02*
X24576250Y-6183750I30000J0D01*
G01*
X24516250Y-6143750D02*
X24516250Y-6223750D01*
X24576250Y-6223750D02*
G75*
G02*
X24516250Y-6223750I-30000J0D01*
G01*
X24576250Y-6223750D02*
X24576250Y-6143750D01*
X24576250Y-6143750D02*
G75*
G03*
X24516250Y-6143750I-30000J0D01*
G01*
X24576250Y-6600750D02*
G75*
G02*
X24516250Y-6600750I-30000J0D01*
G01*
X24516250Y-6600750D02*
G75*
G02*
X24576250Y-6600750I30000J0D01*
G01*
X24516250Y-6545750D02*
X24516250Y-6655750D01*
X24576250Y-6655750D02*
G75*
G02*
X24516250Y-6655750I-30000J0D01*
G01*
X24576250Y-6655750D02*
X24576250Y-6545750D01*
X24576250Y-6545750D02*
G75*
G03*
X24516250Y-6545750I-30000J0D01*
G01*
X25086000Y-6164000D02*
G75*
G02*
X25026000Y-6164000I-30000J0D01*
G01*
X25026000Y-6164000D02*
G75*
G02*
X25086000Y-6164000I30000J0D01*
G01*
X25076000Y-6134000D02*
X25036000Y-6134000D01*
X25036000Y-6194000D02*
G75*
G02*
X25036000Y-6134000I0J30000D01*
G01*
X25036000Y-6194000D02*
X25076000Y-6194000D01*
X25076000Y-6194000D02*
G75*
G03*
X25076000Y-6134000I0J30000D01*
G01*
X25336000Y-6164000D02*
G75*
G02*
X25276000Y-6164000I-30000J0D01*
G01*
X25276000Y-6164000D02*
G75*
G02*
X25336000Y-6164000I30000J0D01*
G01*
X25326000Y-6134000D02*
X25286000Y-6134000D01*
X25286000Y-6194000D02*
G75*
G02*
X25286000Y-6134000I0J30000D01*
G01*
X25286000Y-6194000D02*
X25326000Y-6194000D01*
X25326000Y-6194000D02*
G75*
G03*
X25326000Y-6134000I0J30000D01*
G01*
X25586000Y-6164000D02*
G75*
G02*
X25526000Y-6164000I-30000J0D01*
G01*
X25526000Y-6164000D02*
G75*
G02*
X25586000Y-6164000I30000J0D01*
G01*
X25576000Y-6134000D02*
X25536000Y-6134000D01*
X25536000Y-6194000D02*
G75*
G02*
X25536000Y-6134000I0J30000D01*
G01*
X25536000Y-6194000D02*
X25576000Y-6194000D01*
X25576000Y-6194000D02*
G75*
G03*
X25576000Y-6134000I0J30000D01*
G01*
D13*
X16446500Y-6581000D02*
X16446500Y-6881000D01*
X16296500Y-6731000D02*
X16596500Y-6731000D01*
X16446500Y-8486000D02*
X16446500Y-8786000D01*
X16296500Y-8636000D02*
X16596500Y-8636000D01*
X16446500Y-10391000D02*
X16446500Y-10691000D01*
X16296500Y-10541000D02*
X16596500Y-10541000D01*
X16446500Y-12296000D02*
X16446500Y-12596000D01*
X16296500Y-12446000D02*
X16596500Y-12446000D01*
X17081500Y-6327000D02*
X17081500Y-6627000D01*
X16931500Y-6477000D02*
X17231500Y-6477000D01*
X17081500Y-8232000D02*
X17081500Y-8532000D01*
X16931500Y-8382000D02*
X17231500Y-8382000D01*
X17081500Y-10137000D02*
X17081500Y-10437000D01*
X16931500Y-10287000D02*
X17231500Y-10287000D01*
X17081500Y-12042000D02*
X17081500Y-12342000D01*
X16931500Y-12192000D02*
X17231500Y-12192000D01*
X17399000Y-14201000D02*
X17399000Y-14501000D01*
X17249000Y-14351000D02*
X17549000Y-14351000D01*
X18034000Y-13947000D02*
X18034000Y-14247000D01*
X17884000Y-14097000D02*
X18184000Y-14097000D01*
X18351500Y-6581000D02*
X18351500Y-6881000D01*
X18201500Y-6731000D02*
X18501500Y-6731000D01*
X18351500Y-8486000D02*
X18351500Y-8786000D01*
X18201500Y-8636000D02*
X18501500Y-8636000D01*
X18351500Y-10391000D02*
X18351500Y-10691000D01*
X18201500Y-10541000D02*
X18501500Y-10541000D01*
X18351500Y-12296000D02*
X18351500Y-12596000D01*
X18201500Y-12446000D02*
X18501500Y-12446000D01*
X18986500Y-6327000D02*
X18986500Y-6627000D01*
X18836500Y-6477000D02*
X19136500Y-6477000D01*
X18986500Y-8232000D02*
X18986500Y-8532000D01*
X18836500Y-8382000D02*
X19136500Y-8382000D01*
X18986500Y-10137000D02*
X18986500Y-10437000D01*
X18836500Y-10287000D02*
X19136500Y-10287000D01*
X18986500Y-12042000D02*
X18986500Y-12342000D01*
X18836500Y-12192000D02*
X19136500Y-12192000D01*
X20256500Y-6581000D02*
X20256500Y-6881000D01*
X20106500Y-6731000D02*
X20406500Y-6731000D01*
X20256500Y-8486000D02*
X20256500Y-8786000D01*
X20106500Y-8636000D02*
X20406500Y-8636000D01*
X20256500Y-10391000D02*
X20256500Y-10691000D01*
X20106500Y-10541000D02*
X20406500Y-10541000D01*
X20256500Y-12296000D02*
X20256500Y-12596000D01*
X20106500Y-12446000D02*
X20406500Y-12446000D01*
X20256500Y-14201000D02*
X20256500Y-14501000D01*
X20106500Y-14351000D02*
X20406500Y-14351000D01*
X20891500Y-6327000D02*
X20891500Y-6627000D01*
X20741500Y-6477000D02*
X21041500Y-6477000D01*
X20891500Y-8232000D02*
X20891500Y-8532000D01*
X20741500Y-8382000D02*
X21041500Y-8382000D01*
X20891500Y-10137000D02*
X20891500Y-10437000D01*
X20741500Y-10287000D02*
X21041500Y-10287000D01*
X20891500Y-12042000D02*
X20891500Y-12342000D01*
X20741500Y-12192000D02*
X21041500Y-12192000D01*
X20891500Y-13947000D02*
X20891500Y-14247000D01*
X20741500Y-14097000D02*
X21041500Y-14097000D01*
X22034500Y-9438500D02*
X22034500Y-9738500D01*
X21884500Y-9588500D02*
X22184500Y-9588500D01*
X22034500Y-13248500D02*
X22034500Y-13548500D01*
X21884500Y-13398500D02*
X22184500Y-13398500D01*
X22161500Y-6581000D02*
X22161500Y-6881000D01*
X22011500Y-6731000D02*
X22311500Y-6731000D01*
X22288500Y-10073500D02*
X22288500Y-10373500D01*
X22138500Y-10223500D02*
X22438500Y-10223500D01*
X22288500Y-13883500D02*
X22288500Y-14183500D01*
X22138500Y-14033500D02*
X22438500Y-14033500D01*
X22796500Y-6327000D02*
X22796500Y-6627000D01*
X22646500Y-6477000D02*
X22946500Y-6477000D01*
X25257125Y-6581000D02*
X25257125Y-6881000D01*
X25107125Y-6731000D02*
X25407125Y-6731000D01*
X25257125Y-8486000D02*
X25257125Y-8786000D01*
X25107125Y-8636000D02*
X25407125Y-8636000D01*
X25257125Y-10391000D02*
X25257125Y-10691000D01*
X25107125Y-10541000D02*
X25407125Y-10541000D01*
X25257125Y-12296000D02*
X25257125Y-12596000D01*
X25107125Y-12446000D02*
X25407125Y-12446000D01*
X25257125Y-14201000D02*
X25257125Y-14501000D01*
X25107125Y-14351000D02*
X25407125Y-14351000D01*
X25892125Y-6327000D02*
X25892125Y-6627000D01*
X25742125Y-6477000D02*
X26042125Y-6477000D01*
X25892125Y-8232000D02*
X25892125Y-8532000D01*
X25742125Y-8382000D02*
X26042125Y-8382000D01*
X25892125Y-10137000D02*
X25892125Y-10437000D01*
X25742125Y-10287000D02*
X26042125Y-10287000D01*
X25892125Y-12042000D02*
X25892125Y-12342000D01*
X25742125Y-12192000D02*
X26042125Y-12192000D01*
X25892125Y-13947000D02*
X25892125Y-14247000D01*
X25742125Y-14097000D02*
X26042125Y-14097000D01*
D12*
X16083277Y-15913984D02*
X16083277Y-15713984D01*
X16083277Y-15713984D02*
X16130896Y-15713984D01*
X16130896Y-15713984D02*
X16159467Y-15723508D01*
X16159467Y-15723508D02*
X16178515Y-15742555D01*
X16178515Y-15742555D02*
X16188039Y-15761603D01*
X16188039Y-15761603D02*
X16197562Y-15799698D01*
X16197562Y-15799698D02*
X16197562Y-15828269D01*
X16197562Y-15828269D02*
X16188039Y-15866365D01*
X16188039Y-15866365D02*
X16178515Y-15885412D01*
X16178515Y-15885412D02*
X16159467Y-15904460D01*
X16159467Y-15904460D02*
X16130896Y-15913984D01*
X16130896Y-15913984D02*
X16083277Y-15913984D01*
X16283277Y-15913984D02*
X16283277Y-15780650D01*
X16283277Y-15818746D02*
X16292801Y-15799698D01*
X16292801Y-15799698D02*
X16302324Y-15790174D01*
X16302324Y-15790174D02*
X16321372Y-15780650D01*
X16321372Y-15780650D02*
X16340420Y-15780650D01*
X16407086Y-15913984D02*
X16407086Y-15780650D01*
X16407086Y-15713984D02*
X16397562Y-15723508D01*
X16397562Y-15723508D02*
X16407086Y-15733031D01*
X16407086Y-15733031D02*
X16416610Y-15723508D01*
X16416610Y-15723508D02*
X16407086Y-15713984D01*
X16407086Y-15713984D02*
X16407086Y-15733031D01*
X16530896Y-15913984D02*
X16511848Y-15904460D01*
X16511848Y-15904460D02*
X16502324Y-15885412D01*
X16502324Y-15885412D02*
X16502324Y-15713984D01*
X16635658Y-15913984D02*
X16616610Y-15904460D01*
X16616610Y-15904460D02*
X16607086Y-15885412D01*
X16607086Y-15885412D02*
X16607086Y-15713984D01*
X16864229Y-15913984D02*
X16864229Y-15713984D01*
X16864229Y-15713984D02*
X16930896Y-15856841D01*
X16930896Y-15856841D02*
X16997563Y-15713984D01*
X16997563Y-15713984D02*
X16997563Y-15913984D01*
X17178515Y-15913984D02*
X17178515Y-15809222D01*
X17178515Y-15809222D02*
X17168991Y-15790174D01*
X17168991Y-15790174D02*
X17149944Y-15780650D01*
X17149944Y-15780650D02*
X17111848Y-15780650D01*
X17111848Y-15780650D02*
X17092801Y-15790174D01*
X17178515Y-15904460D02*
X17159467Y-15913984D01*
X17159467Y-15913984D02*
X17111848Y-15913984D01*
X17111848Y-15913984D02*
X17092801Y-15904460D01*
X17092801Y-15904460D02*
X17083277Y-15885412D01*
X17083277Y-15885412D02*
X17083277Y-15866365D01*
X17083277Y-15866365D02*
X17092801Y-15847317D01*
X17092801Y-15847317D02*
X17111848Y-15837793D01*
X17111848Y-15837793D02*
X17159467Y-15837793D01*
X17159467Y-15837793D02*
X17178515Y-15828269D01*
X17273753Y-15780650D02*
X17273753Y-15980650D01*
X17273753Y-15790174D02*
X17292801Y-15780650D01*
X17292801Y-15780650D02*
X17330896Y-15780650D01*
X17330896Y-15780650D02*
X17349944Y-15790174D01*
X17349944Y-15790174D02*
X17359467Y-15799698D01*
X17359467Y-15799698D02*
X17368991Y-15818746D01*
X17368991Y-15818746D02*
X17368991Y-15875888D01*
X17368991Y-15875888D02*
X17359467Y-15894936D01*
X17359467Y-15894936D02*
X17349944Y-15904460D01*
X17349944Y-15904460D02*
X17330896Y-15913984D01*
X17330896Y-15913984D02*
X17292801Y-15913984D01*
X17292801Y-15913984D02*
X17273753Y-15904460D01*
X17454705Y-15894936D02*
X17464229Y-15904460D01*
X17464229Y-15904460D02*
X17454705Y-15913984D01*
X17454705Y-15913984D02*
X17445182Y-15904460D01*
X17445182Y-15904460D02*
X17454705Y-15894936D01*
X17454705Y-15894936D02*
X17454705Y-15913984D01*
X17454705Y-15790174D02*
X17464229Y-15799698D01*
X17464229Y-15799698D02*
X17454705Y-15809222D01*
X17454705Y-15809222D02*
X17445182Y-15799698D01*
X17445182Y-15799698D02*
X17454705Y-15790174D01*
X17454705Y-15790174D02*
X17454705Y-15809222D01*
D11*
X15792500Y-16227500D02*
X15822500Y-16257500D01*
X15822500Y-16227500D02*
X15792500Y-16257500D01*
D12*
X16121372Y-16133984D02*
X16140420Y-16133984D01*
X16140420Y-16133984D02*
X16159467Y-16143508D01*
X16159467Y-16143508D02*
X16168991Y-16153031D01*
X16168991Y-16153031D02*
X16178515Y-16172079D01*
X16178515Y-16172079D02*
X16188039Y-16210174D01*
X16188039Y-16210174D02*
X16188039Y-16257793D01*
X16188039Y-16257793D02*
X16178515Y-16295888D01*
X16178515Y-16295888D02*
X16168991Y-16314936D01*
X16168991Y-16314936D02*
X16159467Y-16324460D01*
X16159467Y-16324460D02*
X16140420Y-16333984D01*
X16140420Y-16333984D02*
X16121372Y-16333984D01*
X16121372Y-16333984D02*
X16102324Y-16324460D01*
X16102324Y-16324460D02*
X16092801Y-16314936D01*
X16092801Y-16314936D02*
X16083277Y-16295888D01*
X16083277Y-16295888D02*
X16073753Y-16257793D01*
X16073753Y-16257793D02*
X16073753Y-16210174D01*
X16073753Y-16210174D02*
X16083277Y-16172079D01*
X16083277Y-16172079D02*
X16092801Y-16153031D01*
X16092801Y-16153031D02*
X16102324Y-16143508D01*
X16102324Y-16143508D02*
X16121372Y-16133984D01*
X16273753Y-16314936D02*
X16283277Y-16324460D01*
X16283277Y-16324460D02*
X16273753Y-16333984D01*
X16273753Y-16333984D02*
X16264229Y-16324460D01*
X16264229Y-16324460D02*
X16273753Y-16314936D01*
X16273753Y-16314936D02*
X16273753Y-16333984D01*
X16349943Y-16133984D02*
X16473753Y-16133984D01*
X16473753Y-16133984D02*
X16407086Y-16210174D01*
X16407086Y-16210174D02*
X16435658Y-16210174D01*
X16435658Y-16210174D02*
X16454705Y-16219698D01*
X16454705Y-16219698D02*
X16464229Y-16229222D01*
X16464229Y-16229222D02*
X16473753Y-16248269D01*
X16473753Y-16248269D02*
X16473753Y-16295888D01*
X16473753Y-16295888D02*
X16464229Y-16314936D01*
X16464229Y-16314936D02*
X16454705Y-16324460D01*
X16454705Y-16324460D02*
X16435658Y-16333984D01*
X16435658Y-16333984D02*
X16378515Y-16333984D01*
X16378515Y-16333984D02*
X16359467Y-16324460D01*
X16359467Y-16324460D02*
X16349943Y-16314936D01*
X16597562Y-16133984D02*
X16616610Y-16133984D01*
X16616610Y-16133984D02*
X16635658Y-16143508D01*
X16635658Y-16143508D02*
X16645182Y-16153031D01*
X16645182Y-16153031D02*
X16654705Y-16172079D01*
X16654705Y-16172079D02*
X16664229Y-16210174D01*
X16664229Y-16210174D02*
X16664229Y-16257793D01*
X16664229Y-16257793D02*
X16654705Y-16295888D01*
X16654705Y-16295888D02*
X16645182Y-16314936D01*
X16645182Y-16314936D02*
X16635658Y-16324460D01*
X16635658Y-16324460D02*
X16616610Y-16333984D01*
X16616610Y-16333984D02*
X16597562Y-16333984D01*
X16597562Y-16333984D02*
X16578515Y-16324460D01*
X16578515Y-16324460D02*
X16568991Y-16314936D01*
X16568991Y-16314936D02*
X16559467Y-16295888D01*
X16559467Y-16295888D02*
X16549943Y-16257793D01*
X16549943Y-16257793D02*
X16549943Y-16210174D01*
X16549943Y-16210174D02*
X16559467Y-16172079D01*
X16559467Y-16172079D02*
X16568991Y-16153031D01*
X16568991Y-16153031D02*
X16578515Y-16143508D01*
X16578515Y-16143508D02*
X16597562Y-16133984D01*
X16788039Y-16133984D02*
X16807086Y-16133984D01*
X16807086Y-16133984D02*
X16826134Y-16143508D01*
X16826134Y-16143508D02*
X16835658Y-16153031D01*
X16835658Y-16153031D02*
X16845182Y-16172079D01*
X16845182Y-16172079D02*
X16854705Y-16210174D01*
X16854705Y-16210174D02*
X16854705Y-16257793D01*
X16854705Y-16257793D02*
X16845182Y-16295888D01*
X16845182Y-16295888D02*
X16835658Y-16314936D01*
X16835658Y-16314936D02*
X16826134Y-16324460D01*
X16826134Y-16324460D02*
X16807086Y-16333984D01*
X16807086Y-16333984D02*
X16788039Y-16333984D01*
X16788039Y-16333984D02*
X16768991Y-16324460D01*
X16768991Y-16324460D02*
X16759467Y-16314936D01*
X16759467Y-16314936D02*
X16749943Y-16295888D01*
X16749943Y-16295888D02*
X16740420Y-16257793D01*
X16740420Y-16257793D02*
X16740420Y-16210174D01*
X16740420Y-16210174D02*
X16749943Y-16172079D01*
X16749943Y-16172079D02*
X16759467Y-16153031D01*
X16759467Y-16153031D02*
X16768991Y-16143508D01*
X16768991Y-16143508D02*
X16788039Y-16133984D01*
X16940420Y-16333984D02*
X16940420Y-16200650D01*
X16940420Y-16219698D02*
X16949944Y-16210174D01*
X16949944Y-16210174D02*
X16968991Y-16200650D01*
X16968991Y-16200650D02*
X16997563Y-16200650D01*
X16997563Y-16200650D02*
X17016610Y-16210174D01*
X17016610Y-16210174D02*
X17026134Y-16229222D01*
X17026134Y-16229222D02*
X17026134Y-16333984D01*
X17026134Y-16229222D02*
X17035658Y-16210174D01*
X17035658Y-16210174D02*
X17054705Y-16200650D01*
X17054705Y-16200650D02*
X17083277Y-16200650D01*
X17083277Y-16200650D02*
X17102325Y-16210174D01*
X17102325Y-16210174D02*
X17111848Y-16229222D01*
X17111848Y-16229222D02*
X17111848Y-16333984D01*
X17207086Y-16333984D02*
X17207086Y-16200650D01*
X17207086Y-16219698D02*
X17216610Y-16210174D01*
X17216610Y-16210174D02*
X17235658Y-16200650D01*
X17235658Y-16200650D02*
X17264229Y-16200650D01*
X17264229Y-16200650D02*
X17283277Y-16210174D01*
X17283277Y-16210174D02*
X17292801Y-16229222D01*
X17292801Y-16229222D02*
X17292801Y-16333984D01*
X17292801Y-16229222D02*
X17302325Y-16210174D01*
X17302325Y-16210174D02*
X17321372Y-16200650D01*
X17321372Y-16200650D02*
X17349944Y-16200650D01*
X17349944Y-16200650D02*
X17368991Y-16210174D01*
X17368991Y-16210174D02*
X17378515Y-16229222D01*
X17378515Y-16229222D02*
X17378515Y-16333984D01*
X17768991Y-16124460D02*
X17597563Y-16381603D01*
X18026134Y-16133984D02*
X18045182Y-16133984D01*
X18045182Y-16133984D02*
X18064229Y-16143508D01*
X18064229Y-16143508D02*
X18073753Y-16153031D01*
X18073753Y-16153031D02*
X18083277Y-16172079D01*
X18083277Y-16172079D02*
X18092801Y-16210174D01*
X18092801Y-16210174D02*
X18092801Y-16257793D01*
X18092801Y-16257793D02*
X18083277Y-16295888D01*
X18083277Y-16295888D02*
X18073753Y-16314936D01*
X18073753Y-16314936D02*
X18064229Y-16324460D01*
X18064229Y-16324460D02*
X18045182Y-16333984D01*
X18045182Y-16333984D02*
X18026134Y-16333984D01*
X18026134Y-16333984D02*
X18007087Y-16324460D01*
X18007087Y-16324460D02*
X17997563Y-16314936D01*
X17997563Y-16314936D02*
X17988039Y-16295888D01*
X17988039Y-16295888D02*
X17978515Y-16257793D01*
X17978515Y-16257793D02*
X17978515Y-16210174D01*
X17978515Y-16210174D02*
X17988039Y-16172079D01*
X17988039Y-16172079D02*
X17997563Y-16153031D01*
X17997563Y-16153031D02*
X18007087Y-16143508D01*
X18007087Y-16143508D02*
X18026134Y-16133984D01*
X18178515Y-16314936D02*
X18188039Y-16324460D01*
X18188039Y-16324460D02*
X18178515Y-16333984D01*
X18178515Y-16333984D02*
X18168991Y-16324460D01*
X18168991Y-16324460D02*
X18178515Y-16314936D01*
X18178515Y-16314936D02*
X18178515Y-16333984D01*
X18311848Y-16133984D02*
X18330896Y-16133984D01*
X18330896Y-16133984D02*
X18349944Y-16143508D01*
X18349944Y-16143508D02*
X18359468Y-16153031D01*
X18359468Y-16153031D02*
X18368991Y-16172079D01*
X18368991Y-16172079D02*
X18378515Y-16210174D01*
X18378515Y-16210174D02*
X18378515Y-16257793D01*
X18378515Y-16257793D02*
X18368991Y-16295888D01*
X18368991Y-16295888D02*
X18359468Y-16314936D01*
X18359468Y-16314936D02*
X18349944Y-16324460D01*
X18349944Y-16324460D02*
X18330896Y-16333984D01*
X18330896Y-16333984D02*
X18311848Y-16333984D01*
X18311848Y-16333984D02*
X18292801Y-16324460D01*
X18292801Y-16324460D02*
X18283277Y-16314936D01*
X18283277Y-16314936D02*
X18273753Y-16295888D01*
X18273753Y-16295888D02*
X18264229Y-16257793D01*
X18264229Y-16257793D02*
X18264229Y-16210174D01*
X18264229Y-16210174D02*
X18273753Y-16172079D01*
X18273753Y-16172079D02*
X18283277Y-16153031D01*
X18283277Y-16153031D02*
X18292801Y-16143508D01*
X18292801Y-16143508D02*
X18311848Y-16133984D01*
X18568991Y-16333984D02*
X18454706Y-16333984D01*
X18511848Y-16333984D02*
X18511848Y-16133984D01*
X18511848Y-16133984D02*
X18492801Y-16162555D01*
X18492801Y-16162555D02*
X18473753Y-16181603D01*
X18473753Y-16181603D02*
X18454706Y-16191127D01*
X18759468Y-16333984D02*
X18645182Y-16333984D01*
X18702325Y-16333984D02*
X18702325Y-16133984D01*
X18702325Y-16133984D02*
X18683277Y-16162555D01*
X18683277Y-16162555D02*
X18664229Y-16181603D01*
X18664229Y-16181603D02*
X18645182Y-16191127D01*
X18873753Y-16219698D02*
X18854706Y-16210174D01*
X18854706Y-16210174D02*
X18845182Y-16200650D01*
X18845182Y-16200650D02*
X18835658Y-16181603D01*
X18835658Y-16181603D02*
X18835658Y-16172079D01*
X18835658Y-16172079D02*
X18845182Y-16153031D01*
X18845182Y-16153031D02*
X18854706Y-16143508D01*
X18854706Y-16143508D02*
X18873753Y-16133984D01*
X18873753Y-16133984D02*
X18911849Y-16133984D01*
X18911849Y-16133984D02*
X18930896Y-16143508D01*
X18930896Y-16143508D02*
X18940420Y-16153031D01*
X18940420Y-16153031D02*
X18949944Y-16172079D01*
X18949944Y-16172079D02*
X18949944Y-16181603D01*
X18949944Y-16181603D02*
X18940420Y-16200650D01*
X18940420Y-16200650D02*
X18930896Y-16210174D01*
X18930896Y-16210174D02*
X18911849Y-16219698D01*
X18911849Y-16219698D02*
X18873753Y-16219698D01*
X18873753Y-16219698D02*
X18854706Y-16229222D01*
X18854706Y-16229222D02*
X18845182Y-16238746D01*
X18845182Y-16238746D02*
X18835658Y-16257793D01*
X18835658Y-16257793D02*
X18835658Y-16295888D01*
X18835658Y-16295888D02*
X18845182Y-16314936D01*
X18845182Y-16314936D02*
X18854706Y-16324460D01*
X18854706Y-16324460D02*
X18873753Y-16333984D01*
X18873753Y-16333984D02*
X18911849Y-16333984D01*
X18911849Y-16333984D02*
X18930896Y-16324460D01*
X18930896Y-16324460D02*
X18940420Y-16314936D01*
X18940420Y-16314936D02*
X18949944Y-16295888D01*
X18949944Y-16295888D02*
X18949944Y-16257793D01*
X18949944Y-16257793D02*
X18940420Y-16238746D01*
X18940420Y-16238746D02*
X18930896Y-16229222D01*
X18930896Y-16229222D02*
X18911849Y-16219698D01*
X19026134Y-16133984D02*
X19026134Y-16172079D01*
X19102325Y-16133984D02*
X19102325Y-16172079D01*
X19397563Y-16410174D02*
X19388039Y-16400650D01*
X19388039Y-16400650D02*
X19368991Y-16372079D01*
X19368991Y-16372079D02*
X19359468Y-16353031D01*
X19359468Y-16353031D02*
X19349944Y-16324460D01*
X19349944Y-16324460D02*
X19340420Y-16276841D01*
X19340420Y-16276841D02*
X19340420Y-16238746D01*
X19340420Y-16238746D02*
X19349944Y-16191127D01*
X19349944Y-16191127D02*
X19359468Y-16162555D01*
X19359468Y-16162555D02*
X19368991Y-16143508D01*
X19368991Y-16143508D02*
X19388039Y-16114936D01*
X19388039Y-16114936D02*
X19397563Y-16105412D01*
X19559468Y-16133984D02*
X19521372Y-16133984D01*
X19521372Y-16133984D02*
X19502325Y-16143508D01*
X19502325Y-16143508D02*
X19492801Y-16153031D01*
X19492801Y-16153031D02*
X19473753Y-16181603D01*
X19473753Y-16181603D02*
X19464230Y-16219698D01*
X19464230Y-16219698D02*
X19464230Y-16295888D01*
X19464230Y-16295888D02*
X19473753Y-16314936D01*
X19473753Y-16314936D02*
X19483277Y-16324460D01*
X19483277Y-16324460D02*
X19502325Y-16333984D01*
X19502325Y-16333984D02*
X19540420Y-16333984D01*
X19540420Y-16333984D02*
X19559468Y-16324460D01*
X19559468Y-16324460D02*
X19568991Y-16314936D01*
X19568991Y-16314936D02*
X19578515Y-16295888D01*
X19578515Y-16295888D02*
X19578515Y-16248269D01*
X19578515Y-16248269D02*
X19568991Y-16229222D01*
X19568991Y-16229222D02*
X19559468Y-16219698D01*
X19559468Y-16219698D02*
X19540420Y-16210174D01*
X19540420Y-16210174D02*
X19502325Y-16210174D01*
X19502325Y-16210174D02*
X19483277Y-16219698D01*
X19483277Y-16219698D02*
X19473753Y-16229222D01*
X19473753Y-16229222D02*
X19464230Y-16248269D01*
X19692801Y-16219698D02*
X19673753Y-16210174D01*
X19673753Y-16210174D02*
X19664230Y-16200650D01*
X19664230Y-16200650D02*
X19654706Y-16181603D01*
X19654706Y-16181603D02*
X19654706Y-16172079D01*
X19654706Y-16172079D02*
X19664230Y-16153031D01*
X19664230Y-16153031D02*
X19673753Y-16143508D01*
X19673753Y-16143508D02*
X19692801Y-16133984D01*
X19692801Y-16133984D02*
X19730896Y-16133984D01*
X19730896Y-16133984D02*
X19749944Y-16143508D01*
X19749944Y-16143508D02*
X19759468Y-16153031D01*
X19759468Y-16153031D02*
X19768991Y-16172079D01*
X19768991Y-16172079D02*
X19768991Y-16181603D01*
X19768991Y-16181603D02*
X19759468Y-16200650D01*
X19759468Y-16200650D02*
X19749944Y-16210174D01*
X19749944Y-16210174D02*
X19730896Y-16219698D01*
X19730896Y-16219698D02*
X19692801Y-16219698D01*
X19692801Y-16219698D02*
X19673753Y-16229222D01*
X19673753Y-16229222D02*
X19664230Y-16238746D01*
X19664230Y-16238746D02*
X19654706Y-16257793D01*
X19654706Y-16257793D02*
X19654706Y-16295888D01*
X19654706Y-16295888D02*
X19664230Y-16314936D01*
X19664230Y-16314936D02*
X19673753Y-16324460D01*
X19673753Y-16324460D02*
X19692801Y-16333984D01*
X19692801Y-16333984D02*
X19730896Y-16333984D01*
X19730896Y-16333984D02*
X19749944Y-16324460D01*
X19749944Y-16324460D02*
X19759468Y-16314936D01*
X19759468Y-16314936D02*
X19768991Y-16295888D01*
X19768991Y-16295888D02*
X19768991Y-16257793D01*
X19768991Y-16257793D02*
X19759468Y-16238746D01*
X19759468Y-16238746D02*
X19749944Y-16229222D01*
X19749944Y-16229222D02*
X19730896Y-16219698D01*
X20007087Y-16333984D02*
X20007087Y-16133984D01*
X20092801Y-16333984D02*
X20092801Y-16229222D01*
X20092801Y-16229222D02*
X20083277Y-16210174D01*
X20083277Y-16210174D02*
X20064230Y-16200650D01*
X20064230Y-16200650D02*
X20035658Y-16200650D01*
X20035658Y-16200650D02*
X20016611Y-16210174D01*
X20016611Y-16210174D02*
X20007087Y-16219698D01*
X20216611Y-16333984D02*
X20197563Y-16324460D01*
X20197563Y-16324460D02*
X20188039Y-16314936D01*
X20188039Y-16314936D02*
X20178515Y-16295888D01*
X20178515Y-16295888D02*
X20178515Y-16238746D01*
X20178515Y-16238746D02*
X20188039Y-16219698D01*
X20188039Y-16219698D02*
X20197563Y-16210174D01*
X20197563Y-16210174D02*
X20216611Y-16200650D01*
X20216611Y-16200650D02*
X20245182Y-16200650D01*
X20245182Y-16200650D02*
X20264230Y-16210174D01*
X20264230Y-16210174D02*
X20273753Y-16219698D01*
X20273753Y-16219698D02*
X20283277Y-16238746D01*
X20283277Y-16238746D02*
X20283277Y-16295888D01*
X20283277Y-16295888D02*
X20273753Y-16314936D01*
X20273753Y-16314936D02*
X20264230Y-16324460D01*
X20264230Y-16324460D02*
X20245182Y-16333984D01*
X20245182Y-16333984D02*
X20216611Y-16333984D01*
X20397563Y-16333984D02*
X20378515Y-16324460D01*
X20378515Y-16324460D02*
X20368992Y-16305412D01*
X20368992Y-16305412D02*
X20368992Y-16133984D01*
X20549944Y-16324460D02*
X20530896Y-16333984D01*
X20530896Y-16333984D02*
X20492801Y-16333984D01*
X20492801Y-16333984D02*
X20473753Y-16324460D01*
X20473753Y-16324460D02*
X20464230Y-16305412D01*
X20464230Y-16305412D02*
X20464230Y-16229222D01*
X20464230Y-16229222D02*
X20473753Y-16210174D01*
X20473753Y-16210174D02*
X20492801Y-16200650D01*
X20492801Y-16200650D02*
X20530896Y-16200650D01*
X20530896Y-16200650D02*
X20549944Y-16210174D01*
X20549944Y-16210174D02*
X20559468Y-16229222D01*
X20559468Y-16229222D02*
X20559468Y-16248269D01*
X20559468Y-16248269D02*
X20464230Y-16267317D01*
X20635658Y-16324460D02*
X20654706Y-16333984D01*
X20654706Y-16333984D02*
X20692801Y-16333984D01*
X20692801Y-16333984D02*
X20711849Y-16324460D01*
X20711849Y-16324460D02*
X20721373Y-16305412D01*
X20721373Y-16305412D02*
X20721373Y-16295888D01*
X20721373Y-16295888D02*
X20711849Y-16276841D01*
X20711849Y-16276841D02*
X20692801Y-16267317D01*
X20692801Y-16267317D02*
X20664230Y-16267317D01*
X20664230Y-16267317D02*
X20645182Y-16257793D01*
X20645182Y-16257793D02*
X20635658Y-16238746D01*
X20635658Y-16238746D02*
X20635658Y-16229222D01*
X20635658Y-16229222D02*
X20645182Y-16210174D01*
X20645182Y-16210174D02*
X20664230Y-16200650D01*
X20664230Y-16200650D02*
X20692801Y-16200650D01*
X20692801Y-16200650D02*
X20711849Y-16210174D01*
X20788039Y-16410174D02*
X20797563Y-16400650D01*
X20797563Y-16400650D02*
X20816611Y-16372079D01*
X20816611Y-16372079D02*
X20826134Y-16353031D01*
X20826134Y-16353031D02*
X20835658Y-16324460D01*
X20835658Y-16324460D02*
X20845182Y-16276841D01*
X20845182Y-16276841D02*
X20845182Y-16238746D01*
X20845182Y-16238746D02*
X20835658Y-16191127D01*
X20835658Y-16191127D02*
X20826134Y-16162555D01*
X20826134Y-16162555D02*
X20816611Y-16143508D01*
X20816611Y-16143508D02*
X20797563Y-16114936D01*
X20797563Y-16114936D02*
X20788039Y-16105412D01*
D11*
X15822500Y-16506500D02*
G75*
G02*
X15762500Y-16506500I-30000J0D01*
G01*
X15762500Y-16506500D02*
G75*
G02*
X15822500Y-16506500I30000J0D01*
G01*
D12*
X16121372Y-16397984D02*
X16140420Y-16397984D01*
X16140420Y-16397984D02*
X16159467Y-16407508D01*
X16159467Y-16407508D02*
X16168991Y-16417031D01*
X16168991Y-16417031D02*
X16178515Y-16436079D01*
X16178515Y-16436079D02*
X16188039Y-16474174D01*
X16188039Y-16474174D02*
X16188039Y-16521793D01*
X16188039Y-16521793D02*
X16178515Y-16559888D01*
X16178515Y-16559888D02*
X16168991Y-16578936D01*
X16168991Y-16578936D02*
X16159467Y-16588460D01*
X16159467Y-16588460D02*
X16140420Y-16597984D01*
X16140420Y-16597984D02*
X16121372Y-16597984D01*
X16121372Y-16597984D02*
X16102324Y-16588460D01*
X16102324Y-16588460D02*
X16092801Y-16578936D01*
X16092801Y-16578936D02*
X16083277Y-16559888D01*
X16083277Y-16559888D02*
X16073753Y-16521793D01*
X16073753Y-16521793D02*
X16073753Y-16474174D01*
X16073753Y-16474174D02*
X16083277Y-16436079D01*
X16083277Y-16436079D02*
X16092801Y-16417031D01*
X16092801Y-16417031D02*
X16102324Y-16407508D01*
X16102324Y-16407508D02*
X16121372Y-16397984D01*
X16273753Y-16578936D02*
X16283277Y-16588460D01*
X16283277Y-16588460D02*
X16273753Y-16597984D01*
X16273753Y-16597984D02*
X16264229Y-16588460D01*
X16264229Y-16588460D02*
X16273753Y-16578936D01*
X16273753Y-16578936D02*
X16273753Y-16597984D01*
X16454705Y-16397984D02*
X16416610Y-16397984D01*
X16416610Y-16397984D02*
X16397562Y-16407508D01*
X16397562Y-16407508D02*
X16388039Y-16417031D01*
X16388039Y-16417031D02*
X16368991Y-16445603D01*
X16368991Y-16445603D02*
X16359467Y-16483698D01*
X16359467Y-16483698D02*
X16359467Y-16559888D01*
X16359467Y-16559888D02*
X16368991Y-16578936D01*
X16368991Y-16578936D02*
X16378515Y-16588460D01*
X16378515Y-16588460D02*
X16397562Y-16597984D01*
X16397562Y-16597984D02*
X16435658Y-16597984D01*
X16435658Y-16597984D02*
X16454705Y-16588460D01*
X16454705Y-16588460D02*
X16464229Y-16578936D01*
X16464229Y-16578936D02*
X16473753Y-16559888D01*
X16473753Y-16559888D02*
X16473753Y-16512269D01*
X16473753Y-16512269D02*
X16464229Y-16493222D01*
X16464229Y-16493222D02*
X16454705Y-16483698D01*
X16454705Y-16483698D02*
X16435658Y-16474174D01*
X16435658Y-16474174D02*
X16397562Y-16474174D01*
X16397562Y-16474174D02*
X16378515Y-16483698D01*
X16378515Y-16483698D02*
X16368991Y-16493222D01*
X16368991Y-16493222D02*
X16359467Y-16512269D01*
X16597562Y-16397984D02*
X16616610Y-16397984D01*
X16616610Y-16397984D02*
X16635658Y-16407508D01*
X16635658Y-16407508D02*
X16645182Y-16417031D01*
X16645182Y-16417031D02*
X16654705Y-16436079D01*
X16654705Y-16436079D02*
X16664229Y-16474174D01*
X16664229Y-16474174D02*
X16664229Y-16521793D01*
X16664229Y-16521793D02*
X16654705Y-16559888D01*
X16654705Y-16559888D02*
X16645182Y-16578936D01*
X16645182Y-16578936D02*
X16635658Y-16588460D01*
X16635658Y-16588460D02*
X16616610Y-16597984D01*
X16616610Y-16597984D02*
X16597562Y-16597984D01*
X16597562Y-16597984D02*
X16578515Y-16588460D01*
X16578515Y-16588460D02*
X16568991Y-16578936D01*
X16568991Y-16578936D02*
X16559467Y-16559888D01*
X16559467Y-16559888D02*
X16549943Y-16521793D01*
X16549943Y-16521793D02*
X16549943Y-16474174D01*
X16549943Y-16474174D02*
X16559467Y-16436079D01*
X16559467Y-16436079D02*
X16568991Y-16417031D01*
X16568991Y-16417031D02*
X16578515Y-16407508D01*
X16578515Y-16407508D02*
X16597562Y-16397984D01*
X16788039Y-16397984D02*
X16807086Y-16397984D01*
X16807086Y-16397984D02*
X16826134Y-16407508D01*
X16826134Y-16407508D02*
X16835658Y-16417031D01*
X16835658Y-16417031D02*
X16845182Y-16436079D01*
X16845182Y-16436079D02*
X16854705Y-16474174D01*
X16854705Y-16474174D02*
X16854705Y-16521793D01*
X16854705Y-16521793D02*
X16845182Y-16559888D01*
X16845182Y-16559888D02*
X16835658Y-16578936D01*
X16835658Y-16578936D02*
X16826134Y-16588460D01*
X16826134Y-16588460D02*
X16807086Y-16597984D01*
X16807086Y-16597984D02*
X16788039Y-16597984D01*
X16788039Y-16597984D02*
X16768991Y-16588460D01*
X16768991Y-16588460D02*
X16759467Y-16578936D01*
X16759467Y-16578936D02*
X16749943Y-16559888D01*
X16749943Y-16559888D02*
X16740420Y-16521793D01*
X16740420Y-16521793D02*
X16740420Y-16474174D01*
X16740420Y-16474174D02*
X16749943Y-16436079D01*
X16749943Y-16436079D02*
X16759467Y-16417031D01*
X16759467Y-16417031D02*
X16768991Y-16407508D01*
X16768991Y-16407508D02*
X16788039Y-16397984D01*
X16940420Y-16597984D02*
X16940420Y-16464650D01*
X16940420Y-16483698D02*
X16949944Y-16474174D01*
X16949944Y-16474174D02*
X16968991Y-16464650D01*
X16968991Y-16464650D02*
X16997563Y-16464650D01*
X16997563Y-16464650D02*
X17016610Y-16474174D01*
X17016610Y-16474174D02*
X17026134Y-16493222D01*
X17026134Y-16493222D02*
X17026134Y-16597984D01*
X17026134Y-16493222D02*
X17035658Y-16474174D01*
X17035658Y-16474174D02*
X17054705Y-16464650D01*
X17054705Y-16464650D02*
X17083277Y-16464650D01*
X17083277Y-16464650D02*
X17102325Y-16474174D01*
X17102325Y-16474174D02*
X17111848Y-16493222D01*
X17111848Y-16493222D02*
X17111848Y-16597984D01*
X17207086Y-16597984D02*
X17207086Y-16464650D01*
X17207086Y-16483698D02*
X17216610Y-16474174D01*
X17216610Y-16474174D02*
X17235658Y-16464650D01*
X17235658Y-16464650D02*
X17264229Y-16464650D01*
X17264229Y-16464650D02*
X17283277Y-16474174D01*
X17283277Y-16474174D02*
X17292801Y-16493222D01*
X17292801Y-16493222D02*
X17292801Y-16597984D01*
X17292801Y-16493222D02*
X17302325Y-16474174D01*
X17302325Y-16474174D02*
X17321372Y-16464650D01*
X17321372Y-16464650D02*
X17349944Y-16464650D01*
X17349944Y-16464650D02*
X17368991Y-16474174D01*
X17368991Y-16474174D02*
X17378515Y-16493222D01*
X17378515Y-16493222D02*
X17378515Y-16597984D01*
X17768991Y-16388460D02*
X17597563Y-16645603D01*
X18026134Y-16397984D02*
X18045182Y-16397984D01*
X18045182Y-16397984D02*
X18064229Y-16407508D01*
X18064229Y-16407508D02*
X18073753Y-16417031D01*
X18073753Y-16417031D02*
X18083277Y-16436079D01*
X18083277Y-16436079D02*
X18092801Y-16474174D01*
X18092801Y-16474174D02*
X18092801Y-16521793D01*
X18092801Y-16521793D02*
X18083277Y-16559888D01*
X18083277Y-16559888D02*
X18073753Y-16578936D01*
X18073753Y-16578936D02*
X18064229Y-16588460D01*
X18064229Y-16588460D02*
X18045182Y-16597984D01*
X18045182Y-16597984D02*
X18026134Y-16597984D01*
X18026134Y-16597984D02*
X18007087Y-16588460D01*
X18007087Y-16588460D02*
X17997563Y-16578936D01*
X17997563Y-16578936D02*
X17988039Y-16559888D01*
X17988039Y-16559888D02*
X17978515Y-16521793D01*
X17978515Y-16521793D02*
X17978515Y-16474174D01*
X17978515Y-16474174D02*
X17988039Y-16436079D01*
X17988039Y-16436079D02*
X17997563Y-16417031D01*
X17997563Y-16417031D02*
X18007087Y-16407508D01*
X18007087Y-16407508D02*
X18026134Y-16397984D01*
X18178515Y-16578936D02*
X18188039Y-16588460D01*
X18188039Y-16588460D02*
X18178515Y-16597984D01*
X18178515Y-16597984D02*
X18168991Y-16588460D01*
X18168991Y-16588460D02*
X18178515Y-16578936D01*
X18178515Y-16578936D02*
X18178515Y-16597984D01*
X18311848Y-16397984D02*
X18330896Y-16397984D01*
X18330896Y-16397984D02*
X18349944Y-16407508D01*
X18349944Y-16407508D02*
X18359468Y-16417031D01*
X18359468Y-16417031D02*
X18368991Y-16436079D01*
X18368991Y-16436079D02*
X18378515Y-16474174D01*
X18378515Y-16474174D02*
X18378515Y-16521793D01*
X18378515Y-16521793D02*
X18368991Y-16559888D01*
X18368991Y-16559888D02*
X18359468Y-16578936D01*
X18359468Y-16578936D02*
X18349944Y-16588460D01*
X18349944Y-16588460D02*
X18330896Y-16597984D01*
X18330896Y-16597984D02*
X18311848Y-16597984D01*
X18311848Y-16597984D02*
X18292801Y-16588460D01*
X18292801Y-16588460D02*
X18283277Y-16578936D01*
X18283277Y-16578936D02*
X18273753Y-16559888D01*
X18273753Y-16559888D02*
X18264229Y-16521793D01*
X18264229Y-16521793D02*
X18264229Y-16474174D01*
X18264229Y-16474174D02*
X18273753Y-16436079D01*
X18273753Y-16436079D02*
X18283277Y-16417031D01*
X18283277Y-16417031D02*
X18292801Y-16407508D01*
X18292801Y-16407508D02*
X18311848Y-16397984D01*
X18454706Y-16417031D02*
X18464229Y-16407508D01*
X18464229Y-16407508D02*
X18483277Y-16397984D01*
X18483277Y-16397984D02*
X18530896Y-16397984D01*
X18530896Y-16397984D02*
X18549944Y-16407508D01*
X18549944Y-16407508D02*
X18559468Y-16417031D01*
X18559468Y-16417031D02*
X18568991Y-16436079D01*
X18568991Y-16436079D02*
X18568991Y-16455127D01*
X18568991Y-16455127D02*
X18559468Y-16483698D01*
X18559468Y-16483698D02*
X18445182Y-16597984D01*
X18445182Y-16597984D02*
X18568991Y-16597984D01*
X18635658Y-16397984D02*
X18759468Y-16397984D01*
X18759468Y-16397984D02*
X18692801Y-16474174D01*
X18692801Y-16474174D02*
X18721372Y-16474174D01*
X18721372Y-16474174D02*
X18740420Y-16483698D01*
X18740420Y-16483698D02*
X18749944Y-16493222D01*
X18749944Y-16493222D02*
X18759468Y-16512269D01*
X18759468Y-16512269D02*
X18759468Y-16559888D01*
X18759468Y-16559888D02*
X18749944Y-16578936D01*
X18749944Y-16578936D02*
X18740420Y-16588460D01*
X18740420Y-16588460D02*
X18721372Y-16597984D01*
X18721372Y-16597984D02*
X18664229Y-16597984D01*
X18664229Y-16597984D02*
X18645182Y-16588460D01*
X18645182Y-16588460D02*
X18635658Y-16578936D01*
X18930896Y-16397984D02*
X18892801Y-16397984D01*
X18892801Y-16397984D02*
X18873753Y-16407508D01*
X18873753Y-16407508D02*
X18864229Y-16417031D01*
X18864229Y-16417031D02*
X18845182Y-16445603D01*
X18845182Y-16445603D02*
X18835658Y-16483698D01*
X18835658Y-16483698D02*
X18835658Y-16559888D01*
X18835658Y-16559888D02*
X18845182Y-16578936D01*
X18845182Y-16578936D02*
X18854706Y-16588460D01*
X18854706Y-16588460D02*
X18873753Y-16597984D01*
X18873753Y-16597984D02*
X18911849Y-16597984D01*
X18911849Y-16597984D02*
X18930896Y-16588460D01*
X18930896Y-16588460D02*
X18940420Y-16578936D01*
X18940420Y-16578936D02*
X18949944Y-16559888D01*
X18949944Y-16559888D02*
X18949944Y-16512269D01*
X18949944Y-16512269D02*
X18940420Y-16493222D01*
X18940420Y-16493222D02*
X18930896Y-16483698D01*
X18930896Y-16483698D02*
X18911849Y-16474174D01*
X18911849Y-16474174D02*
X18873753Y-16474174D01*
X18873753Y-16474174D02*
X18854706Y-16483698D01*
X18854706Y-16483698D02*
X18845182Y-16493222D01*
X18845182Y-16493222D02*
X18835658Y-16512269D01*
X19026134Y-16397984D02*
X19026134Y-16436079D01*
X19102325Y-16397984D02*
X19102325Y-16436079D01*
X19397563Y-16674174D02*
X19388039Y-16664650D01*
X19388039Y-16664650D02*
X19368991Y-16636079D01*
X19368991Y-16636079D02*
X19359468Y-16617031D01*
X19359468Y-16617031D02*
X19349944Y-16588460D01*
X19349944Y-16588460D02*
X19340420Y-16540841D01*
X19340420Y-16540841D02*
X19340420Y-16502746D01*
X19340420Y-16502746D02*
X19349944Y-16455127D01*
X19349944Y-16455127D02*
X19359468Y-16426555D01*
X19359468Y-16426555D02*
X19368991Y-16407508D01*
X19368991Y-16407508D02*
X19388039Y-16378936D01*
X19388039Y-16378936D02*
X19397563Y-16369412D01*
X19511849Y-16397984D02*
X19530896Y-16397984D01*
X19530896Y-16397984D02*
X19549944Y-16407508D01*
X19549944Y-16407508D02*
X19559468Y-16417031D01*
X19559468Y-16417031D02*
X19568991Y-16436079D01*
X19568991Y-16436079D02*
X19578515Y-16474174D01*
X19578515Y-16474174D02*
X19578515Y-16521793D01*
X19578515Y-16521793D02*
X19568991Y-16559888D01*
X19568991Y-16559888D02*
X19559468Y-16578936D01*
X19559468Y-16578936D02*
X19549944Y-16588460D01*
X19549944Y-16588460D02*
X19530896Y-16597984D01*
X19530896Y-16597984D02*
X19511849Y-16597984D01*
X19511849Y-16597984D02*
X19492801Y-16588460D01*
X19492801Y-16588460D02*
X19483277Y-16578936D01*
X19483277Y-16578936D02*
X19473753Y-16559888D01*
X19473753Y-16559888D02*
X19464230Y-16521793D01*
X19464230Y-16521793D02*
X19464230Y-16474174D01*
X19464230Y-16474174D02*
X19473753Y-16436079D01*
X19473753Y-16436079D02*
X19483277Y-16417031D01*
X19483277Y-16417031D02*
X19492801Y-16407508D01*
X19492801Y-16407508D02*
X19511849Y-16397984D01*
X19816611Y-16597984D02*
X19816611Y-16397984D01*
X19902325Y-16597984D02*
X19902325Y-16493222D01*
X19902325Y-16493222D02*
X19892801Y-16474174D01*
X19892801Y-16474174D02*
X19873753Y-16464650D01*
X19873753Y-16464650D02*
X19845182Y-16464650D01*
X19845182Y-16464650D02*
X19826134Y-16474174D01*
X19826134Y-16474174D02*
X19816611Y-16483698D01*
X20026134Y-16597984D02*
X20007087Y-16588460D01*
X20007087Y-16588460D02*
X19997563Y-16578936D01*
X19997563Y-16578936D02*
X19988039Y-16559888D01*
X19988039Y-16559888D02*
X19988039Y-16502746D01*
X19988039Y-16502746D02*
X19997563Y-16483698D01*
X19997563Y-16483698D02*
X20007087Y-16474174D01*
X20007087Y-16474174D02*
X20026134Y-16464650D01*
X20026134Y-16464650D02*
X20054706Y-16464650D01*
X20054706Y-16464650D02*
X20073753Y-16474174D01*
X20073753Y-16474174D02*
X20083277Y-16483698D01*
X20083277Y-16483698D02*
X20092801Y-16502746D01*
X20092801Y-16502746D02*
X20092801Y-16559888D01*
X20092801Y-16559888D02*
X20083277Y-16578936D01*
X20083277Y-16578936D02*
X20073753Y-16588460D01*
X20073753Y-16588460D02*
X20054706Y-16597984D01*
X20054706Y-16597984D02*
X20026134Y-16597984D01*
X20207087Y-16597984D02*
X20188039Y-16588460D01*
X20188039Y-16588460D02*
X20178515Y-16569412D01*
X20178515Y-16569412D02*
X20178515Y-16397984D01*
X20359468Y-16588460D02*
X20340420Y-16597984D01*
X20340420Y-16597984D02*
X20302325Y-16597984D01*
X20302325Y-16597984D02*
X20283277Y-16588460D01*
X20283277Y-16588460D02*
X20273753Y-16569412D01*
X20273753Y-16569412D02*
X20273753Y-16493222D01*
X20273753Y-16493222D02*
X20283277Y-16474174D01*
X20283277Y-16474174D02*
X20302325Y-16464650D01*
X20302325Y-16464650D02*
X20340420Y-16464650D01*
X20340420Y-16464650D02*
X20359468Y-16474174D01*
X20359468Y-16474174D02*
X20368992Y-16493222D01*
X20368992Y-16493222D02*
X20368992Y-16512269D01*
X20368992Y-16512269D02*
X20273753Y-16531317D01*
X20445182Y-16588460D02*
X20464230Y-16597984D01*
X20464230Y-16597984D02*
X20502325Y-16597984D01*
X20502325Y-16597984D02*
X20521373Y-16588460D01*
X20521373Y-16588460D02*
X20530896Y-16569412D01*
X20530896Y-16569412D02*
X20530896Y-16559888D01*
X20530896Y-16559888D02*
X20521373Y-16540841D01*
X20521373Y-16540841D02*
X20502325Y-16531317D01*
X20502325Y-16531317D02*
X20473753Y-16531317D01*
X20473753Y-16531317D02*
X20454706Y-16521793D01*
X20454706Y-16521793D02*
X20445182Y-16502746D01*
X20445182Y-16502746D02*
X20445182Y-16493222D01*
X20445182Y-16493222D02*
X20454706Y-16474174D01*
X20454706Y-16474174D02*
X20473753Y-16464650D01*
X20473753Y-16464650D02*
X20502325Y-16464650D01*
X20502325Y-16464650D02*
X20521373Y-16474174D01*
X20768992Y-16521793D02*
X20921373Y-16521793D01*
X20845182Y-16597984D02*
X20845182Y-16445603D01*
X21149944Y-16397984D02*
X21283277Y-16397984D01*
X21283277Y-16397984D02*
X21197563Y-16597984D01*
X21502325Y-16588460D02*
X21521373Y-16597984D01*
X21521373Y-16597984D02*
X21559468Y-16597984D01*
X21559468Y-16597984D02*
X21578516Y-16588460D01*
X21578516Y-16588460D02*
X21588039Y-16569412D01*
X21588039Y-16569412D02*
X21588039Y-16559888D01*
X21588039Y-16559888D02*
X21578516Y-16540841D01*
X21578516Y-16540841D02*
X21559468Y-16531317D01*
X21559468Y-16531317D02*
X21530896Y-16531317D01*
X21530896Y-16531317D02*
X21511849Y-16521793D01*
X21511849Y-16521793D02*
X21502325Y-16502746D01*
X21502325Y-16502746D02*
X21502325Y-16493222D01*
X21502325Y-16493222D02*
X21511849Y-16474174D01*
X21511849Y-16474174D02*
X21530896Y-16464650D01*
X21530896Y-16464650D02*
X21559468Y-16464650D01*
X21559468Y-16464650D02*
X21578516Y-16474174D01*
X21702325Y-16597984D02*
X21683277Y-16588460D01*
X21683277Y-16588460D02*
X21673754Y-16569412D01*
X21673754Y-16569412D02*
X21673754Y-16397984D01*
X21807087Y-16597984D02*
X21788039Y-16588460D01*
X21788039Y-16588460D02*
X21778516Y-16578936D01*
X21778516Y-16578936D02*
X21768992Y-16559888D01*
X21768992Y-16559888D02*
X21768992Y-16502746D01*
X21768992Y-16502746D02*
X21778516Y-16483698D01*
X21778516Y-16483698D02*
X21788039Y-16474174D01*
X21788039Y-16474174D02*
X21807087Y-16464650D01*
X21807087Y-16464650D02*
X21835658Y-16464650D01*
X21835658Y-16464650D02*
X21854706Y-16474174D01*
X21854706Y-16474174D02*
X21864230Y-16483698D01*
X21864230Y-16483698D02*
X21873754Y-16502746D01*
X21873754Y-16502746D02*
X21873754Y-16559888D01*
X21873754Y-16559888D02*
X21864230Y-16578936D01*
X21864230Y-16578936D02*
X21854706Y-16588460D01*
X21854706Y-16588460D02*
X21835658Y-16597984D01*
X21835658Y-16597984D02*
X21807087Y-16597984D01*
X21930897Y-16464650D02*
X22007087Y-16464650D01*
X21959468Y-16397984D02*
X21959468Y-16569412D01*
X21959468Y-16569412D02*
X21968992Y-16588460D01*
X21968992Y-16588460D02*
X21988039Y-16597984D01*
X21988039Y-16597984D02*
X22007087Y-16597984D01*
X22064230Y-16588460D02*
X22083277Y-16597984D01*
X22083277Y-16597984D02*
X22121373Y-16597984D01*
X22121373Y-16597984D02*
X22140420Y-16588460D01*
X22140420Y-16588460D02*
X22149944Y-16569412D01*
X22149944Y-16569412D02*
X22149944Y-16559888D01*
X22149944Y-16559888D02*
X22140420Y-16540841D01*
X22140420Y-16540841D02*
X22121373Y-16531317D01*
X22121373Y-16531317D02*
X22092801Y-16531317D01*
X22092801Y-16531317D02*
X22073754Y-16521793D01*
X22073754Y-16521793D02*
X22064230Y-16502746D01*
X22064230Y-16502746D02*
X22064230Y-16493222D01*
X22064230Y-16493222D02*
X22073754Y-16474174D01*
X22073754Y-16474174D02*
X22092801Y-16464650D01*
X22092801Y-16464650D02*
X22121373Y-16464650D01*
X22121373Y-16464650D02*
X22140420Y-16474174D01*
X22216611Y-16674174D02*
X22226135Y-16664650D01*
X22226135Y-16664650D02*
X22245182Y-16636079D01*
X22245182Y-16636079D02*
X22254706Y-16617031D01*
X22254706Y-16617031D02*
X22264230Y-16588460D01*
X22264230Y-16588460D02*
X22273754Y-16540841D01*
X22273754Y-16540841D02*
X22273754Y-16502746D01*
X22273754Y-16502746D02*
X22264230Y-16455127D01*
X22264230Y-16455127D02*
X22254706Y-16426555D01*
X22254706Y-16426555D02*
X22245182Y-16407508D01*
X22245182Y-16407508D02*
X22226135Y-16378936D01*
X22226135Y-16378936D02*
X22216611Y-16369412D01*
X15722500Y-16670500D02*
X15722500Y-16870500D01*
X15622500Y-16770500D02*
X15822500Y-16770500D01*
X16064229Y-16661984D02*
X16188039Y-16661984D01*
X16188039Y-16661984D02*
X16121372Y-16738174D01*
X16121372Y-16738174D02*
X16149943Y-16738174D01*
X16149943Y-16738174D02*
X16168991Y-16747698D01*
X16168991Y-16747698D02*
X16178515Y-16757222D01*
X16178515Y-16757222D02*
X16188039Y-16776269D01*
X16188039Y-16776269D02*
X16188039Y-16823889D01*
X16188039Y-16823889D02*
X16178515Y-16842936D01*
X16178515Y-16842936D02*
X16168991Y-16852460D01*
X16168991Y-16852460D02*
X16149943Y-16861984D01*
X16149943Y-16861984D02*
X16092801Y-16861984D01*
X16092801Y-16861984D02*
X16073753Y-16852460D01*
X16073753Y-16852460D02*
X16064229Y-16842936D01*
X16273753Y-16842936D02*
X16283277Y-16852460D01*
X16283277Y-16852460D02*
X16273753Y-16861984D01*
X16273753Y-16861984D02*
X16264229Y-16852460D01*
X16264229Y-16852460D02*
X16273753Y-16842936D01*
X16273753Y-16842936D02*
X16273753Y-16861984D01*
X16407086Y-16661984D02*
X16426134Y-16661984D01*
X16426134Y-16661984D02*
X16445182Y-16671508D01*
X16445182Y-16671508D02*
X16454705Y-16681031D01*
X16454705Y-16681031D02*
X16464229Y-16700079D01*
X16464229Y-16700079D02*
X16473753Y-16738174D01*
X16473753Y-16738174D02*
X16473753Y-16785793D01*
X16473753Y-16785793D02*
X16464229Y-16823889D01*
X16464229Y-16823889D02*
X16454705Y-16842936D01*
X16454705Y-16842936D02*
X16445182Y-16852460D01*
X16445182Y-16852460D02*
X16426134Y-16861984D01*
X16426134Y-16861984D02*
X16407086Y-16861984D01*
X16407086Y-16861984D02*
X16388039Y-16852460D01*
X16388039Y-16852460D02*
X16378515Y-16842936D01*
X16378515Y-16842936D02*
X16368991Y-16823889D01*
X16368991Y-16823889D02*
X16359467Y-16785793D01*
X16359467Y-16785793D02*
X16359467Y-16738174D01*
X16359467Y-16738174D02*
X16368991Y-16700079D01*
X16368991Y-16700079D02*
X16378515Y-16681031D01*
X16378515Y-16681031D02*
X16388039Y-16671508D01*
X16388039Y-16671508D02*
X16407086Y-16661984D01*
X16597562Y-16661984D02*
X16616610Y-16661984D01*
X16616610Y-16661984D02*
X16635658Y-16671508D01*
X16635658Y-16671508D02*
X16645182Y-16681031D01*
X16645182Y-16681031D02*
X16654705Y-16700079D01*
X16654705Y-16700079D02*
X16664229Y-16738174D01*
X16664229Y-16738174D02*
X16664229Y-16785793D01*
X16664229Y-16785793D02*
X16654705Y-16823889D01*
X16654705Y-16823889D02*
X16645182Y-16842936D01*
X16645182Y-16842936D02*
X16635658Y-16852460D01*
X16635658Y-16852460D02*
X16616610Y-16861984D01*
X16616610Y-16861984D02*
X16597562Y-16861984D01*
X16597562Y-16861984D02*
X16578515Y-16852460D01*
X16578515Y-16852460D02*
X16568991Y-16842936D01*
X16568991Y-16842936D02*
X16559467Y-16823889D01*
X16559467Y-16823889D02*
X16549943Y-16785793D01*
X16549943Y-16785793D02*
X16549943Y-16738174D01*
X16549943Y-16738174D02*
X16559467Y-16700079D01*
X16559467Y-16700079D02*
X16568991Y-16681031D01*
X16568991Y-16681031D02*
X16578515Y-16671508D01*
X16578515Y-16671508D02*
X16597562Y-16661984D01*
X16788039Y-16661984D02*
X16807086Y-16661984D01*
X16807086Y-16661984D02*
X16826134Y-16671508D01*
X16826134Y-16671508D02*
X16835658Y-16681031D01*
X16835658Y-16681031D02*
X16845182Y-16700079D01*
X16845182Y-16700079D02*
X16854705Y-16738174D01*
X16854705Y-16738174D02*
X16854705Y-16785793D01*
X16854705Y-16785793D02*
X16845182Y-16823889D01*
X16845182Y-16823889D02*
X16835658Y-16842936D01*
X16835658Y-16842936D02*
X16826134Y-16852460D01*
X16826134Y-16852460D02*
X16807086Y-16861984D01*
X16807086Y-16861984D02*
X16788039Y-16861984D01*
X16788039Y-16861984D02*
X16768991Y-16852460D01*
X16768991Y-16852460D02*
X16759467Y-16842936D01*
X16759467Y-16842936D02*
X16749943Y-16823889D01*
X16749943Y-16823889D02*
X16740420Y-16785793D01*
X16740420Y-16785793D02*
X16740420Y-16738174D01*
X16740420Y-16738174D02*
X16749943Y-16700079D01*
X16749943Y-16700079D02*
X16759467Y-16681031D01*
X16759467Y-16681031D02*
X16768991Y-16671508D01*
X16768991Y-16671508D02*
X16788039Y-16661984D01*
X16940420Y-16861984D02*
X16940420Y-16728650D01*
X16940420Y-16747698D02*
X16949944Y-16738174D01*
X16949944Y-16738174D02*
X16968991Y-16728650D01*
X16968991Y-16728650D02*
X16997563Y-16728650D01*
X16997563Y-16728650D02*
X17016610Y-16738174D01*
X17016610Y-16738174D02*
X17026134Y-16757222D01*
X17026134Y-16757222D02*
X17026134Y-16861984D01*
X17026134Y-16757222D02*
X17035658Y-16738174D01*
X17035658Y-16738174D02*
X17054705Y-16728650D01*
X17054705Y-16728650D02*
X17083277Y-16728650D01*
X17083277Y-16728650D02*
X17102325Y-16738174D01*
X17102325Y-16738174D02*
X17111848Y-16757222D01*
X17111848Y-16757222D02*
X17111848Y-16861984D01*
X17207086Y-16861984D02*
X17207086Y-16728650D01*
X17207086Y-16747698D02*
X17216610Y-16738174D01*
X17216610Y-16738174D02*
X17235658Y-16728650D01*
X17235658Y-16728650D02*
X17264229Y-16728650D01*
X17264229Y-16728650D02*
X17283277Y-16738174D01*
X17283277Y-16738174D02*
X17292801Y-16757222D01*
X17292801Y-16757222D02*
X17292801Y-16861984D01*
X17292801Y-16757222D02*
X17302325Y-16738174D01*
X17302325Y-16738174D02*
X17321372Y-16728650D01*
X17321372Y-16728650D02*
X17349944Y-16728650D01*
X17349944Y-16728650D02*
X17368991Y-16738174D01*
X17368991Y-16738174D02*
X17378515Y-16757222D01*
X17378515Y-16757222D02*
X17378515Y-16861984D01*
X17768991Y-16652460D02*
X17597563Y-16909603D01*
X18026134Y-16661984D02*
X18045182Y-16661984D01*
X18045182Y-16661984D02*
X18064229Y-16671508D01*
X18064229Y-16671508D02*
X18073753Y-16681031D01*
X18073753Y-16681031D02*
X18083277Y-16700079D01*
X18083277Y-16700079D02*
X18092801Y-16738174D01*
X18092801Y-16738174D02*
X18092801Y-16785793D01*
X18092801Y-16785793D02*
X18083277Y-16823889D01*
X18083277Y-16823889D02*
X18073753Y-16842936D01*
X18073753Y-16842936D02*
X18064229Y-16852460D01*
X18064229Y-16852460D02*
X18045182Y-16861984D01*
X18045182Y-16861984D02*
X18026134Y-16861984D01*
X18026134Y-16861984D02*
X18007087Y-16852460D01*
X18007087Y-16852460D02*
X17997563Y-16842936D01*
X17997563Y-16842936D02*
X17988039Y-16823889D01*
X17988039Y-16823889D02*
X17978515Y-16785793D01*
X17978515Y-16785793D02*
X17978515Y-16738174D01*
X17978515Y-16738174D02*
X17988039Y-16700079D01*
X17988039Y-16700079D02*
X17997563Y-16681031D01*
X17997563Y-16681031D02*
X18007087Y-16671508D01*
X18007087Y-16671508D02*
X18026134Y-16661984D01*
X18178515Y-16842936D02*
X18188039Y-16852460D01*
X18188039Y-16852460D02*
X18178515Y-16861984D01*
X18178515Y-16861984D02*
X18168991Y-16852460D01*
X18168991Y-16852460D02*
X18178515Y-16842936D01*
X18178515Y-16842936D02*
X18178515Y-16861984D01*
X18378515Y-16861984D02*
X18264229Y-16861984D01*
X18321372Y-16861984D02*
X18321372Y-16661984D01*
X18321372Y-16661984D02*
X18302325Y-16690555D01*
X18302325Y-16690555D02*
X18283277Y-16709603D01*
X18283277Y-16709603D02*
X18264229Y-16719127D01*
X18568991Y-16861984D02*
X18454706Y-16861984D01*
X18511848Y-16861984D02*
X18511848Y-16661984D01*
X18511848Y-16661984D02*
X18492801Y-16690555D01*
X18492801Y-16690555D02*
X18473753Y-16709603D01*
X18473753Y-16709603D02*
X18454706Y-16719127D01*
X18683277Y-16747698D02*
X18664229Y-16738174D01*
X18664229Y-16738174D02*
X18654706Y-16728650D01*
X18654706Y-16728650D02*
X18645182Y-16709603D01*
X18645182Y-16709603D02*
X18645182Y-16700079D01*
X18645182Y-16700079D02*
X18654706Y-16681031D01*
X18654706Y-16681031D02*
X18664229Y-16671508D01*
X18664229Y-16671508D02*
X18683277Y-16661984D01*
X18683277Y-16661984D02*
X18721372Y-16661984D01*
X18721372Y-16661984D02*
X18740420Y-16671508D01*
X18740420Y-16671508D02*
X18749944Y-16681031D01*
X18749944Y-16681031D02*
X18759468Y-16700079D01*
X18759468Y-16700079D02*
X18759468Y-16709603D01*
X18759468Y-16709603D02*
X18749944Y-16728650D01*
X18749944Y-16728650D02*
X18740420Y-16738174D01*
X18740420Y-16738174D02*
X18721372Y-16747698D01*
X18721372Y-16747698D02*
X18683277Y-16747698D01*
X18683277Y-16747698D02*
X18664229Y-16757222D01*
X18664229Y-16757222D02*
X18654706Y-16766746D01*
X18654706Y-16766746D02*
X18645182Y-16785793D01*
X18645182Y-16785793D02*
X18645182Y-16823889D01*
X18645182Y-16823889D02*
X18654706Y-16842936D01*
X18654706Y-16842936D02*
X18664229Y-16852460D01*
X18664229Y-16852460D02*
X18683277Y-16861984D01*
X18683277Y-16861984D02*
X18721372Y-16861984D01*
X18721372Y-16861984D02*
X18740420Y-16852460D01*
X18740420Y-16852460D02*
X18749944Y-16842936D01*
X18749944Y-16842936D02*
X18759468Y-16823889D01*
X18759468Y-16823889D02*
X18759468Y-16785793D01*
X18759468Y-16785793D02*
X18749944Y-16766746D01*
X18749944Y-16766746D02*
X18740420Y-16757222D01*
X18740420Y-16757222D02*
X18721372Y-16747698D01*
X18949944Y-16861984D02*
X18835658Y-16861984D01*
X18892801Y-16861984D02*
X18892801Y-16661984D01*
X18892801Y-16661984D02*
X18873753Y-16690555D01*
X18873753Y-16690555D02*
X18854706Y-16709603D01*
X18854706Y-16709603D02*
X18835658Y-16719127D01*
X19026134Y-16661984D02*
X19026134Y-16700079D01*
X19102325Y-16661984D02*
X19102325Y-16700079D01*
X19397563Y-16938174D02*
X19388039Y-16928650D01*
X19388039Y-16928650D02*
X19368991Y-16900079D01*
X19368991Y-16900079D02*
X19359468Y-16881031D01*
X19359468Y-16881031D02*
X19349944Y-16852460D01*
X19349944Y-16852460D02*
X19340420Y-16804841D01*
X19340420Y-16804841D02*
X19340420Y-16766746D01*
X19340420Y-16766746D02*
X19349944Y-16719127D01*
X19349944Y-16719127D02*
X19359468Y-16690555D01*
X19359468Y-16690555D02*
X19368991Y-16671508D01*
X19368991Y-16671508D02*
X19388039Y-16642936D01*
X19388039Y-16642936D02*
X19397563Y-16633412D01*
X19559468Y-16728650D02*
X19559468Y-16861984D01*
X19511849Y-16652460D02*
X19464230Y-16795317D01*
X19464230Y-16795317D02*
X19588039Y-16795317D01*
X19749944Y-16728650D02*
X19749944Y-16861984D01*
X19702325Y-16652460D02*
X19654706Y-16795317D01*
X19654706Y-16795317D02*
X19778515Y-16795317D01*
X20007087Y-16861984D02*
X20007087Y-16661984D01*
X20092801Y-16861984D02*
X20092801Y-16757222D01*
X20092801Y-16757222D02*
X20083277Y-16738174D01*
X20083277Y-16738174D02*
X20064230Y-16728650D01*
X20064230Y-16728650D02*
X20035658Y-16728650D01*
X20035658Y-16728650D02*
X20016611Y-16738174D01*
X20016611Y-16738174D02*
X20007087Y-16747698D01*
X20216611Y-16861984D02*
X20197563Y-16852460D01*
X20197563Y-16852460D02*
X20188039Y-16842936D01*
X20188039Y-16842936D02*
X20178515Y-16823889D01*
X20178515Y-16823889D02*
X20178515Y-16766746D01*
X20178515Y-16766746D02*
X20188039Y-16747698D01*
X20188039Y-16747698D02*
X20197563Y-16738174D01*
X20197563Y-16738174D02*
X20216611Y-16728650D01*
X20216611Y-16728650D02*
X20245182Y-16728650D01*
X20245182Y-16728650D02*
X20264230Y-16738174D01*
X20264230Y-16738174D02*
X20273753Y-16747698D01*
X20273753Y-16747698D02*
X20283277Y-16766746D01*
X20283277Y-16766746D02*
X20283277Y-16823889D01*
X20283277Y-16823889D02*
X20273753Y-16842936D01*
X20273753Y-16842936D02*
X20264230Y-16852460D01*
X20264230Y-16852460D02*
X20245182Y-16861984D01*
X20245182Y-16861984D02*
X20216611Y-16861984D01*
X20397563Y-16861984D02*
X20378515Y-16852460D01*
X20378515Y-16852460D02*
X20368992Y-16833412D01*
X20368992Y-16833412D02*
X20368992Y-16661984D01*
X20549944Y-16852460D02*
X20530896Y-16861984D01*
X20530896Y-16861984D02*
X20492801Y-16861984D01*
X20492801Y-16861984D02*
X20473753Y-16852460D01*
X20473753Y-16852460D02*
X20464230Y-16833412D01*
X20464230Y-16833412D02*
X20464230Y-16757222D01*
X20464230Y-16757222D02*
X20473753Y-16738174D01*
X20473753Y-16738174D02*
X20492801Y-16728650D01*
X20492801Y-16728650D02*
X20530896Y-16728650D01*
X20530896Y-16728650D02*
X20549944Y-16738174D01*
X20549944Y-16738174D02*
X20559468Y-16757222D01*
X20559468Y-16757222D02*
X20559468Y-16776269D01*
X20559468Y-16776269D02*
X20464230Y-16795317D01*
X20635658Y-16852460D02*
X20654706Y-16861984D01*
X20654706Y-16861984D02*
X20692801Y-16861984D01*
X20692801Y-16861984D02*
X20711849Y-16852460D01*
X20711849Y-16852460D02*
X20721373Y-16833412D01*
X20721373Y-16833412D02*
X20721373Y-16823889D01*
X20721373Y-16823889D02*
X20711849Y-16804841D01*
X20711849Y-16804841D02*
X20692801Y-16795317D01*
X20692801Y-16795317D02*
X20664230Y-16795317D01*
X20664230Y-16795317D02*
X20645182Y-16785793D01*
X20645182Y-16785793D02*
X20635658Y-16766746D01*
X20635658Y-16766746D02*
X20635658Y-16757222D01*
X20635658Y-16757222D02*
X20645182Y-16738174D01*
X20645182Y-16738174D02*
X20664230Y-16728650D01*
X20664230Y-16728650D02*
X20692801Y-16728650D01*
X20692801Y-16728650D02*
X20711849Y-16738174D01*
X20788039Y-16938174D02*
X20797563Y-16928650D01*
X20797563Y-16928650D02*
X20816611Y-16900079D01*
X20816611Y-16900079D02*
X20826134Y-16881031D01*
X20826134Y-16881031D02*
X20835658Y-16852460D01*
X20835658Y-16852460D02*
X20845182Y-16804841D01*
X20845182Y-16804841D02*
X20845182Y-16766746D01*
X20845182Y-16766746D02*
X20835658Y-16719127D01*
X20835658Y-16719127D02*
X20826134Y-16690555D01*
X20826134Y-16690555D02*
X20816611Y-16671508D01*
X20816611Y-16671508D02*
X20797563Y-16642936D01*
X20797563Y-16642936D02*
X20788039Y-16633412D01*
M02*
