%TF.GenerationSoftware,KiCad,Pcbnew,8.0.6*%
%TF.CreationDate,2024-11-30T15:29:54-05:00*%
%TF.ProjectId,keyboard,6b657962-6f61-4726-942e-6b696361645f,rev?*%
%TF.SameCoordinates,Original*%
%TF.FileFunction,Drillmap*%
%TF.FilePolarity,Positive*%
%FSLAX45Y45*%
G04 Gerber Fmt 4.5, Leading zero omitted, Abs format (unit mm)*
G04 Created by KiCad (PCBNEW 8.0.6) date 2024-11-30 15:29:54*
%MOMM*%
%LPD*%
G01*
G04 APERTURE LIST*
%ADD10C,0.050000*%
%ADD11C,0.100000*%
%ADD12C,0.200000*%
%ADD13C,0.175000*%
%ADD14C,0.304800*%
%ADD15C,0.320000*%
%ADD16C,0.398780*%
G04 APERTURE END LIST*
D10*
X15825000Y-5975000D02*
X26650000Y-5975000D01*
X26650000Y-15600000D01*
X15825000Y-15600000D01*
X15825000Y-5975000D01*
D11*
X16655656Y-7422301D02*
X16655656Y-7562870D01*
X16746210Y-7642585D02*
X16905101Y-7642585D01*
X16905101Y-7342585D02*
X16746210Y-7342585D01*
X16995656Y-7562870D02*
X16995656Y-7422301D01*
X16650707Y-7400613D02*
G75*
G02*
X16655654Y-7422301I-45042J-21682D01*
G01*
X16650707Y-7400613D02*
G75*
G02*
X16720984Y-7335755I45051J21688D01*
G01*
X16655656Y-7562870D02*
G75*
G02*
X16650707Y-7584557I-50006J1D01*
G01*
X16720984Y-7649415D02*
G75*
G02*
X16650708Y-7584558I-25226J43170D01*
G01*
X16720985Y-7649415D02*
G75*
G02*
X16746210Y-7642585I25226J-43171D01*
G01*
X16746210Y-7342585D02*
G75*
G02*
X16720984Y-7335755I0J50001D01*
G01*
X16905101Y-7642585D02*
G75*
G02*
X16930327Y-7649415I0J-50001D01*
G01*
X16930327Y-7335756D02*
G75*
G02*
X16905101Y-7342585I-25226J43171D01*
G01*
X16930327Y-7335756D02*
G75*
G02*
X17000604Y-7400613I25226J-43170D01*
G01*
X16995656Y-7422301D02*
G75*
G02*
X17000604Y-7400613I50007J-2D01*
G01*
X17000604Y-7584557D02*
G75*
G02*
X16930327Y-7649415I-45051J-21688D01*
G01*
X17000604Y-7584557D02*
G75*
G02*
X16995656Y-7562870I45031J21683D01*
G01*
X18558116Y-11234841D02*
X18558116Y-11375410D01*
X18648670Y-11455125D02*
X18807561Y-11455125D01*
X18807561Y-11155126D02*
X18648670Y-11155126D01*
X18898116Y-11375410D02*
X18898116Y-11234841D01*
X18553167Y-11213153D02*
G75*
G02*
X18558114Y-11234841I-45042J-21682D01*
G01*
X18553167Y-11213153D02*
G75*
G02*
X18623445Y-11148296I45051J21688D01*
G01*
X18558116Y-11375410D02*
G75*
G02*
X18553167Y-11397097I-50006J1D01*
G01*
X18623445Y-11461955D02*
G75*
G02*
X18553168Y-11397098I-25226J43170D01*
G01*
X18623445Y-11461955D02*
G75*
G02*
X18648670Y-11455125I25226J-43171D01*
G01*
X18648670Y-11155125D02*
G75*
G02*
X18623445Y-11148296I0J50001D01*
G01*
X18807561Y-11455125D02*
G75*
G02*
X18832787Y-11461955I0J-50001D01*
G01*
X18832787Y-11148296D02*
G75*
G02*
X18807561Y-11155126I-25226J43171D01*
G01*
X18832787Y-11148296D02*
G75*
G02*
X18903064Y-11213153I25226J-43170D01*
G01*
X18898116Y-11234841D02*
G75*
G02*
X18903064Y-11213153I50007J-2D01*
G01*
X18903064Y-11397097D02*
G75*
G02*
X18832787Y-11461955I-45051J-21688D01*
G01*
X18903064Y-11397097D02*
G75*
G02*
X18898116Y-11375410I45031J21683D01*
G01*
X20465000Y-7421966D02*
X20465000Y-7562534D01*
X20555555Y-7642250D02*
X20714445Y-7642250D01*
X20714445Y-7342250D02*
X20555555Y-7342250D01*
X20805000Y-7562534D02*
X20805000Y-7421966D01*
X20460052Y-7400278D02*
G75*
G02*
X20464999Y-7421966I-45042J-21682D01*
G01*
X20460052Y-7400278D02*
G75*
G02*
X20530329Y-7335420I45051J21688D01*
G01*
X20465000Y-7562534D02*
G75*
G02*
X20460052Y-7584222I-50006J1D01*
G01*
X20530329Y-7649080D02*
G75*
G02*
X20460052Y-7584222I-25226J43170D01*
G01*
X20530329Y-7649080D02*
G75*
G02*
X20555555Y-7642250I25226J-43171D01*
G01*
X20555555Y-7342250D02*
G75*
G02*
X20530329Y-7335420I0J50001D01*
G01*
X20714445Y-7642250D02*
G75*
G02*
X20739671Y-7649080I0J-50001D01*
G01*
X20739671Y-7335420D02*
G75*
G02*
X20714445Y-7342250I-25226J43171D01*
G01*
X20739671Y-7335420D02*
G75*
G02*
X20809949Y-7400278I25226J-43170D01*
G01*
X20805000Y-7421966D02*
G75*
G02*
X20809948Y-7400278I50007J-2D01*
G01*
X20809948Y-7584222D02*
G75*
G02*
X20739671Y-7649080I-45051J-21688D01*
G01*
X20809948Y-7584222D02*
G75*
G02*
X20805000Y-7562534I45031J21683D01*
G01*
X25468004Y-7422301D02*
X25468004Y-7562870D01*
X25558559Y-7642585D02*
X25717450Y-7642585D01*
X25717450Y-7342585D02*
X25558559Y-7342585D01*
X25808004Y-7562870D02*
X25808004Y-7422301D01*
X25463056Y-7400613D02*
G75*
G02*
X25468003Y-7422301I-45042J-21682D01*
G01*
X25463056Y-7400613D02*
G75*
G02*
X25533333Y-7335755I45051J21688D01*
G01*
X25468004Y-7562870D02*
G75*
G02*
X25463056Y-7584557I-50006J1D01*
G01*
X25533333Y-7649415D02*
G75*
G02*
X25463056Y-7584558I-25226J43170D01*
G01*
X25533333Y-7649415D02*
G75*
G02*
X25558559Y-7642585I25226J-43171D01*
G01*
X25558559Y-7342585D02*
G75*
G02*
X25533333Y-7335755I0J50001D01*
G01*
X25717450Y-7642585D02*
G75*
G02*
X25742675Y-7649415I0J-50001D01*
G01*
X25742675Y-7335756D02*
G75*
G02*
X25717450Y-7342585I-25226J43171D01*
G01*
X25742675Y-7335756D02*
G75*
G02*
X25812953Y-7400613I25226J-43170D01*
G01*
X25808004Y-7422301D02*
G75*
G02*
X25812953Y-7400613I50007J-2D01*
G01*
X25812953Y-7584557D02*
G75*
G02*
X25742675Y-7649415I-45051J-21688D01*
G01*
X25812953Y-7584557D02*
G75*
G02*
X25808004Y-7562870I45031J21683D01*
G01*
X16655656Y-11232301D02*
X16655656Y-11372870D01*
X16746210Y-11452585D02*
X16905101Y-11452585D01*
X16905101Y-11152586D02*
X16746210Y-11152586D01*
X16995656Y-11372870D02*
X16995656Y-11232301D01*
X16650707Y-11210613D02*
G75*
G02*
X16655654Y-11232301I-45042J-21682D01*
G01*
X16650707Y-11210613D02*
G75*
G02*
X16720984Y-11145756I45051J21688D01*
G01*
X16655656Y-11372870D02*
G75*
G02*
X16650707Y-11394557I-50006J1D01*
G01*
X16720984Y-11459415D02*
G75*
G02*
X16650708Y-11394558I-25226J43170D01*
G01*
X16720985Y-11459415D02*
G75*
G02*
X16746210Y-11452585I25226J-43171D01*
G01*
X16746210Y-11152585D02*
G75*
G02*
X16720984Y-11145756I0J50001D01*
G01*
X16905101Y-11452585D02*
G75*
G02*
X16930327Y-11459415I0J-50001D01*
G01*
X16930327Y-11145756D02*
G75*
G02*
X16905101Y-11152586I-25226J43171D01*
G01*
X16930327Y-11145756D02*
G75*
G02*
X17000604Y-11210613I25226J-43170D01*
G01*
X16995656Y-11232301D02*
G75*
G02*
X17000604Y-11210613I50007J-2D01*
G01*
X17000604Y-11394557D02*
G75*
G02*
X16930327Y-11459415I-45051J-21688D01*
G01*
X17000604Y-11394557D02*
G75*
G02*
X16995656Y-11372870I45031J21683D01*
G01*
X18560656Y-7422301D02*
X18560656Y-7562870D01*
X18651210Y-7642585D02*
X18810101Y-7642585D01*
X18810101Y-7342585D02*
X18651210Y-7342585D01*
X18900656Y-7562870D02*
X18900656Y-7422301D01*
X18555707Y-7400613D02*
G75*
G02*
X18560654Y-7422301I-45042J-21682D01*
G01*
X18555707Y-7400613D02*
G75*
G02*
X18625985Y-7335755I45051J21688D01*
G01*
X18560656Y-7562870D02*
G75*
G02*
X18555707Y-7584557I-50006J1D01*
G01*
X18625985Y-7649415D02*
G75*
G02*
X18555708Y-7584558I-25226J43170D01*
G01*
X18625985Y-7649415D02*
G75*
G02*
X18651210Y-7642585I25226J-43171D01*
G01*
X18651210Y-7342585D02*
G75*
G02*
X18625985Y-7335755I0J50001D01*
G01*
X18810101Y-7642585D02*
G75*
G02*
X18835327Y-7649415I0J-50001D01*
G01*
X18835327Y-7335756D02*
G75*
G02*
X18810101Y-7342585I-25226J43171D01*
G01*
X18835327Y-7335756D02*
G75*
G02*
X18905604Y-7400613I25226J-43170D01*
G01*
X18900656Y-7422301D02*
G75*
G02*
X18905604Y-7400613I50007J-2D01*
G01*
X18905604Y-7584557D02*
G75*
G02*
X18835327Y-7649415I-45051J-21688D01*
G01*
X18905604Y-7584557D02*
G75*
G02*
X18900656Y-7562870I45031J21683D01*
G01*
X25467404Y-9327230D02*
X25467404Y-9467799D01*
X25557959Y-9547514D02*
X25716850Y-9547514D01*
X25716850Y-9247515D02*
X25557959Y-9247515D01*
X25807404Y-9467799D02*
X25807404Y-9327230D01*
X25462456Y-9305542D02*
G75*
G02*
X25467403Y-9327230I-45042J-21682D01*
G01*
X25462456Y-9305542D02*
G75*
G02*
X25532733Y-9240685I45051J21688D01*
G01*
X25467404Y-9467799D02*
G75*
G02*
X25462456Y-9489487I-50006J1D01*
G01*
X25532733Y-9554344D02*
G75*
G02*
X25462456Y-9489487I-25226J43170D01*
G01*
X25532733Y-9554344D02*
G75*
G02*
X25557959Y-9547515I25226J-43171D01*
G01*
X25557959Y-9247514D02*
G75*
G02*
X25532733Y-9240685I0J50001D01*
G01*
X25716850Y-9547514D02*
G75*
G02*
X25742075Y-9554344I0J-50001D01*
G01*
X25742075Y-9240685D02*
G75*
G02*
X25716850Y-9247515I-25226J43171D01*
G01*
X25742075Y-9240685D02*
G75*
G02*
X25812353Y-9305542I25226J-43170D01*
G01*
X25807404Y-9327230D02*
G75*
G02*
X25812353Y-9305542I50007J-2D01*
G01*
X25812353Y-9489486D02*
G75*
G02*
X25742075Y-9554344I-45051J-21688D01*
G01*
X25812353Y-9489486D02*
G75*
G02*
X25807404Y-9467799I45031J21683D01*
G01*
X16656744Y-13137993D02*
X16656744Y-13278561D01*
X16747299Y-13358277D02*
X16906190Y-13358277D01*
X16906190Y-13058277D02*
X16747299Y-13058277D01*
X16996744Y-13278561D02*
X16996744Y-13137993D01*
X16651796Y-13116305D02*
G75*
G02*
X16656743Y-13137993I-45042J-21682D01*
G01*
X16651796Y-13116305D02*
G75*
G02*
X16722073Y-13051447I45051J21688D01*
G01*
X16656744Y-13278561D02*
G75*
G02*
X16651796Y-13300249I-50006J1D01*
G01*
X16722073Y-13365107D02*
G75*
G02*
X16651796Y-13300249I-25226J43170D01*
G01*
X16722073Y-13365107D02*
G75*
G02*
X16747299Y-13358277I25226J-43171D01*
G01*
X16747299Y-13058277D02*
G75*
G02*
X16722073Y-13051447I0J50001D01*
G01*
X16906190Y-13358277D02*
G75*
G02*
X16931416Y-13365107I0J-50001D01*
G01*
X16931416Y-13051447D02*
G75*
G02*
X16906190Y-13058277I-25226J43171D01*
G01*
X16931416Y-13051447D02*
G75*
G02*
X17001693Y-13116305I25226J-43170D01*
G01*
X16996744Y-13137993D02*
G75*
G02*
X17001693Y-13116305I50007J-2D01*
G01*
X17001693Y-13300249D02*
G75*
G02*
X16931416Y-13365107I-45051J-21688D01*
G01*
X17001693Y-13300249D02*
G75*
G02*
X16996744Y-13278561I45031J21683D01*
G01*
X22370656Y-7422301D02*
X22370656Y-7562870D01*
X22461210Y-7642585D02*
X22620101Y-7642585D01*
X22620101Y-7342585D02*
X22461210Y-7342585D01*
X22710655Y-7562870D02*
X22710655Y-7422301D01*
X22365707Y-7400613D02*
G75*
G02*
X22370654Y-7422301I-45042J-21682D01*
G01*
X22365707Y-7400613D02*
G75*
G02*
X22435984Y-7335755I45051J21688D01*
G01*
X22370656Y-7562870D02*
G75*
G02*
X22365707Y-7584557I-50006J1D01*
G01*
X22435984Y-7649415D02*
G75*
G02*
X22365708Y-7584558I-25226J43170D01*
G01*
X22435985Y-7649415D02*
G75*
G02*
X22461210Y-7642585I25226J-43171D01*
G01*
X22461210Y-7342585D02*
G75*
G02*
X22435984Y-7335755I0J50001D01*
G01*
X22620101Y-7642585D02*
G75*
G02*
X22645327Y-7649415I0J-50001D01*
G01*
X22645327Y-7335756D02*
G75*
G02*
X22620101Y-7342585I-25226J43171D01*
G01*
X22645327Y-7335756D02*
G75*
G02*
X22715604Y-7400613I25226J-43170D01*
G01*
X22710655Y-7422301D02*
G75*
G02*
X22715604Y-7400613I50007J-2D01*
G01*
X22715604Y-7584557D02*
G75*
G02*
X22645327Y-7649415I-45051J-21688D01*
G01*
X22715604Y-7584557D02*
G75*
G02*
X22710655Y-7562870I45031J21683D01*
G01*
X18561745Y-13137993D02*
X18561745Y-13278561D01*
X18652299Y-13358277D02*
X18811190Y-13358277D01*
X18811190Y-13058277D02*
X18652299Y-13058277D01*
X18901744Y-13278561D02*
X18901744Y-13137993D01*
X18556796Y-13116305D02*
G75*
G02*
X18561743Y-13137993I-45042J-21682D01*
G01*
X18556796Y-13116305D02*
G75*
G02*
X18627073Y-13051447I45051J21688D01*
G01*
X18561745Y-13278561D02*
G75*
G02*
X18556796Y-13300249I-50006J1D01*
G01*
X18627073Y-13365107D02*
G75*
G02*
X18556796Y-13300249I-25226J43170D01*
G01*
X18627073Y-13365107D02*
G75*
G02*
X18652299Y-13358277I25226J-43171D01*
G01*
X18652299Y-13058277D02*
G75*
G02*
X18627073Y-13051447I0J50001D01*
G01*
X18811190Y-13358277D02*
G75*
G02*
X18836416Y-13365107I0J-50001D01*
G01*
X18836416Y-13051447D02*
G75*
G02*
X18811190Y-13058277I-25226J43171D01*
G01*
X18836416Y-13051447D02*
G75*
G02*
X18906693Y-13116305I25226J-43170D01*
G01*
X18901744Y-13137993D02*
G75*
G02*
X18906693Y-13116305I50007J-2D01*
G01*
X18906693Y-13300249D02*
G75*
G02*
X18836416Y-13365107I-45051J-21688D01*
G01*
X18906693Y-13300249D02*
G75*
G02*
X18901744Y-13278561I45031J21683D01*
G01*
X17608156Y-15042301D02*
X17608156Y-15182870D01*
X17698710Y-15262585D02*
X17857601Y-15262585D01*
X17857601Y-14962585D02*
X17698710Y-14962585D01*
X17948156Y-15182870D02*
X17948156Y-15042301D01*
X17603207Y-15020613D02*
G75*
G02*
X17608154Y-15042301I-45042J-21682D01*
G01*
X17603207Y-15020613D02*
G75*
G02*
X17673485Y-14955755I45051J21688D01*
G01*
X17608156Y-15182870D02*
G75*
G02*
X17603207Y-15204557I-50006J1D01*
G01*
X17673485Y-15269415D02*
G75*
G02*
X17603208Y-15204558I-25226J43170D01*
G01*
X17673485Y-15269415D02*
G75*
G02*
X17698710Y-15262585I25226J-43171D01*
G01*
X17698710Y-14962585D02*
G75*
G02*
X17673485Y-14955755I0J50001D01*
G01*
X17857601Y-15262585D02*
G75*
G02*
X17882827Y-15269415I0J-50001D01*
G01*
X17882827Y-14955756D02*
G75*
G02*
X17857601Y-14962585I-25226J43171D01*
G01*
X17882827Y-14955756D02*
G75*
G02*
X17953104Y-15020613I25226J-43170D01*
G01*
X17948156Y-15042301D02*
G75*
G02*
X17953104Y-15020613I50007J-2D01*
G01*
X17953104Y-15204557D02*
G75*
G02*
X17882827Y-15269415I-45051J-21688D01*
G01*
X17953104Y-15204557D02*
G75*
G02*
X17948156Y-15182870I45031J21683D01*
G01*
X20468196Y-15042301D02*
X20468196Y-15182870D01*
X20558750Y-15262585D02*
X20717641Y-15262585D01*
X20717641Y-14962585D02*
X20558750Y-14962585D01*
X20808196Y-15182870D02*
X20808196Y-15042301D01*
X20463247Y-15020613D02*
G75*
G02*
X20468194Y-15042301I-45042J-21682D01*
G01*
X20463247Y-15020613D02*
G75*
G02*
X20533525Y-14955755I45051J21688D01*
G01*
X20468196Y-15182870D02*
G75*
G02*
X20463247Y-15204557I-50006J1D01*
G01*
X20533525Y-15269415D02*
G75*
G02*
X20463248Y-15204558I-25226J43170D01*
G01*
X20533525Y-15269415D02*
G75*
G02*
X20558750Y-15262585I25226J-43171D01*
G01*
X20558750Y-14962585D02*
G75*
G02*
X20533525Y-14955755I0J50001D01*
G01*
X20717641Y-15262585D02*
G75*
G02*
X20742867Y-15269415I0J-50001D01*
G01*
X20742867Y-14955756D02*
G75*
G02*
X20717641Y-14962585I-25226J43171D01*
G01*
X20742867Y-14955756D02*
G75*
G02*
X20813144Y-15020613I25226J-43170D01*
G01*
X20808196Y-15042301D02*
G75*
G02*
X20813144Y-15020613I50007J-2D01*
G01*
X20813144Y-15204557D02*
G75*
G02*
X20742867Y-15269415I-45051J-21688D01*
G01*
X20813144Y-15204557D02*
G75*
G02*
X20808196Y-15182870I45031J21683D01*
G01*
X16658796Y-9330346D02*
X16658796Y-9470914D01*
X16749350Y-9550630D02*
X16908241Y-9550630D01*
X16908241Y-9250630D02*
X16749350Y-9250630D01*
X16998796Y-9470914D02*
X16998796Y-9330346D01*
X16653847Y-9308658D02*
G75*
G02*
X16658794Y-9330346I-45042J-21682D01*
G01*
X16653847Y-9308658D02*
G75*
G02*
X16724124Y-9243800I45051J21688D01*
G01*
X16658796Y-9470914D02*
G75*
G02*
X16653847Y-9492602I-50006J1D01*
G01*
X16724124Y-9557460D02*
G75*
G02*
X16653848Y-9492602I-25226J43170D01*
G01*
X16724125Y-9557460D02*
G75*
G02*
X16749350Y-9550630I25226J-43171D01*
G01*
X16749350Y-9250630D02*
G75*
G02*
X16724124Y-9243800I0J50001D01*
G01*
X16908241Y-9550630D02*
G75*
G02*
X16933467Y-9557460I0J-50001D01*
G01*
X16933467Y-9243800D02*
G75*
G02*
X16908241Y-9250630I-25226J43171D01*
G01*
X16933467Y-9243800D02*
G75*
G02*
X17003744Y-9308658I25226J-43170D01*
G01*
X16998796Y-9330346D02*
G75*
G02*
X17003744Y-9308658I50007J-2D01*
G01*
X17003744Y-9492602D02*
G75*
G02*
X16933467Y-9557460I-45051J-21688D01*
G01*
X17003744Y-9492602D02*
G75*
G02*
X16998796Y-9470914I45031J21683D01*
G01*
X25467516Y-15042806D02*
X25467516Y-15183374D01*
X25558070Y-15263090D02*
X25716961Y-15263090D01*
X25716961Y-14963090D02*
X25558070Y-14963090D01*
X25807515Y-15183374D02*
X25807515Y-15042806D01*
X25462567Y-15021118D02*
G75*
G02*
X25467514Y-15042806I-45042J-21682D01*
G01*
X25462567Y-15021118D02*
G75*
G02*
X25532844Y-14956260I45051J21688D01*
G01*
X25467516Y-15183374D02*
G75*
G02*
X25462567Y-15205062I-50006J1D01*
G01*
X25532844Y-15269920D02*
G75*
G02*
X25462568Y-15205062I-25226J43170D01*
G01*
X25532845Y-15269920D02*
G75*
G02*
X25558070Y-15263090I25226J-43171D01*
G01*
X25558070Y-14963090D02*
G75*
G02*
X25532844Y-14956260I0J50001D01*
G01*
X25716961Y-15263090D02*
G75*
G02*
X25742187Y-15269920I0J-50001D01*
G01*
X25742187Y-14956260D02*
G75*
G02*
X25716961Y-14963090I-25226J43171D01*
G01*
X25742187Y-14956260D02*
G75*
G02*
X25812464Y-15021118I25226J-43170D01*
G01*
X25807515Y-15042806D02*
G75*
G02*
X25812464Y-15021118I50007J-2D01*
G01*
X25812464Y-15205062D02*
G75*
G02*
X25742187Y-15269920I-45051J-21688D01*
G01*
X25812464Y-15205062D02*
G75*
G02*
X25807515Y-15183374I45031J21683D01*
G01*
X25467404Y-13137230D02*
X25467404Y-13277799D01*
X25557959Y-13357514D02*
X25716850Y-13357514D01*
X25716850Y-13057514D02*
X25557959Y-13057514D01*
X25807404Y-13277799D02*
X25807404Y-13137230D01*
X25462456Y-13115542D02*
G75*
G02*
X25467403Y-13137230I-45042J-21682D01*
G01*
X25462456Y-13115542D02*
G75*
G02*
X25532733Y-13050684I45051J21688D01*
G01*
X25467404Y-13277799D02*
G75*
G02*
X25462456Y-13299486I-50006J1D01*
G01*
X25532733Y-13364344D02*
G75*
G02*
X25462456Y-13299487I-25226J43170D01*
G01*
X25532733Y-13364344D02*
G75*
G02*
X25557959Y-13357514I25226J-43171D01*
G01*
X25557959Y-13057514D02*
G75*
G02*
X25532733Y-13050684I0J50001D01*
G01*
X25716850Y-13357514D02*
G75*
G02*
X25742075Y-13364344I0J-50001D01*
G01*
X25742075Y-13050685D02*
G75*
G02*
X25716850Y-13057514I-25226J43171D01*
G01*
X25742075Y-13050685D02*
G75*
G02*
X25812353Y-13115542I25226J-43170D01*
G01*
X25807404Y-13137230D02*
G75*
G02*
X25812353Y-13115542I50007J-2D01*
G01*
X25812353Y-13299486D02*
G75*
G02*
X25742075Y-13364344I-45051J-21688D01*
G01*
X25812353Y-13299486D02*
G75*
G02*
X25807404Y-13277799I45031J21683D01*
G01*
X20466145Y-13137230D02*
X20466145Y-13277799D01*
X20556699Y-13357514D02*
X20715590Y-13357514D01*
X20715590Y-13057514D02*
X20556699Y-13057514D01*
X20806144Y-13277799D02*
X20806144Y-13137230D01*
X20461196Y-13115542D02*
G75*
G02*
X20466143Y-13137230I-45042J-21682D01*
G01*
X20461196Y-13115542D02*
G75*
G02*
X20531473Y-13050684I45051J21688D01*
G01*
X20466145Y-13277799D02*
G75*
G02*
X20461196Y-13299486I-50006J1D01*
G01*
X20531473Y-13364344D02*
G75*
G02*
X20461196Y-13299487I-25226J43170D01*
G01*
X20531473Y-13364344D02*
G75*
G02*
X20556699Y-13357514I25226J-43171D01*
G01*
X20556699Y-13057514D02*
G75*
G02*
X20531473Y-13050684I0J50001D01*
G01*
X20715590Y-13357514D02*
G75*
G02*
X20740816Y-13364344I0J-50001D01*
G01*
X20740816Y-13050685D02*
G75*
G02*
X20715590Y-13057514I-25226J43171D01*
G01*
X20740816Y-13050685D02*
G75*
G02*
X20811093Y-13115542I25226J-43170D01*
G01*
X20806144Y-13137230D02*
G75*
G02*
X20811093Y-13115542I50007J-2D01*
G01*
X20811093Y-13299486D02*
G75*
G02*
X20740816Y-13364344I-45051J-21688D01*
G01*
X20811093Y-13299486D02*
G75*
G02*
X20806144Y-13277799I45031J21683D01*
G01*
X20465656Y-11232441D02*
X20465656Y-11373010D01*
X20556210Y-11452725D02*
X20715101Y-11452725D01*
X20715101Y-11152726D02*
X20556210Y-11152726D01*
X20805656Y-11373010D02*
X20805656Y-11232441D01*
X20460707Y-11210753D02*
G75*
G02*
X20465654Y-11232441I-45042J-21682D01*
G01*
X20460707Y-11210753D02*
G75*
G02*
X20530985Y-11145896I45051J21688D01*
G01*
X20465656Y-11373010D02*
G75*
G02*
X20460707Y-11394697I-50006J1D01*
G01*
X20530985Y-11459555D02*
G75*
G02*
X20460708Y-11394698I-25226J43170D01*
G01*
X20530985Y-11459555D02*
G75*
G02*
X20556210Y-11452725I25226J-43171D01*
G01*
X20556210Y-11152725D02*
G75*
G02*
X20530985Y-11145896I0J50001D01*
G01*
X20715101Y-11452725D02*
G75*
G02*
X20740327Y-11459555I0J-50001D01*
G01*
X20740327Y-11145896D02*
G75*
G02*
X20715101Y-11152726I-25226J43171D01*
G01*
X20740327Y-11145896D02*
G75*
G02*
X20810604Y-11210753I25226J-43170D01*
G01*
X20805656Y-11232441D02*
G75*
G02*
X20810604Y-11210753I50007J-2D01*
G01*
X20810604Y-11394697D02*
G75*
G02*
X20740327Y-11459555I-45051J-21688D01*
G01*
X20810604Y-11394697D02*
G75*
G02*
X20805656Y-11373010I45031J21683D01*
G01*
X22900154Y-13573210D02*
X22900154Y-13732101D01*
X22979870Y-13822655D02*
X23120439Y-13822655D01*
X23120439Y-13482656D02*
X22979870Y-13482656D01*
X23200154Y-13732101D02*
X23200154Y-13573210D01*
X22893325Y-13547984D02*
G75*
G02*
X22900154Y-13573210I-43171J-25226D01*
G01*
X22893325Y-13547984D02*
G75*
G02*
X22958182Y-13477707I43170J25226D01*
G01*
X22900154Y-13732101D02*
G75*
G02*
X22893324Y-13757327I-50001J0D01*
G01*
X22958182Y-13827604D02*
G75*
G02*
X22893324Y-13757327I-21688J45051D01*
G01*
X22958182Y-13827604D02*
G75*
G02*
X22979870Y-13822657I21682J-45042D01*
G01*
X22979870Y-13482656D02*
G75*
G02*
X22958182Y-13477707I2J50007D01*
G01*
X23120439Y-13822655D02*
G75*
G02*
X23142126Y-13827604I-1J-50006D01*
G01*
X23142126Y-13477707D02*
G75*
G02*
X23206984Y-13547984I21688J-45051D01*
G01*
X23142126Y-13477707D02*
G75*
G02*
X23120439Y-13482656I-21683J45031D01*
G01*
X23200154Y-13573210D02*
G75*
G02*
X23206984Y-13547984I50001J0D01*
G01*
X23206984Y-13757327D02*
G75*
G02*
X23142127Y-13827604I-43170J-25226D01*
G01*
X23206984Y-13757327D02*
G75*
G02*
X23200154Y-13732101I43171J25226D01*
G01*
X18561145Y-9327230D02*
X18561145Y-9467799D01*
X18651699Y-9547514D02*
X18810590Y-9547514D01*
X18810590Y-9247515D02*
X18651699Y-9247515D01*
X18901144Y-9467799D02*
X18901144Y-9327230D01*
X18556196Y-9305542D02*
G75*
G02*
X18561143Y-9327230I-45042J-21682D01*
G01*
X18556196Y-9305542D02*
G75*
G02*
X18626473Y-9240685I45051J21688D01*
G01*
X18561145Y-9467799D02*
G75*
G02*
X18556196Y-9489487I-50006J1D01*
G01*
X18626473Y-9554344D02*
G75*
G02*
X18556196Y-9489487I-25226J43170D01*
G01*
X18626473Y-9554344D02*
G75*
G02*
X18651699Y-9547515I25226J-43171D01*
G01*
X18651699Y-9247514D02*
G75*
G02*
X18626473Y-9240685I0J50001D01*
G01*
X18810590Y-9547514D02*
G75*
G02*
X18835816Y-9554344I0J-50001D01*
G01*
X18835816Y-9240685D02*
G75*
G02*
X18810590Y-9247515I-25226J43171D01*
G01*
X18835816Y-9240685D02*
G75*
G02*
X18906093Y-9305542I25226J-43170D01*
G01*
X18901144Y-9327230D02*
G75*
G02*
X18906093Y-9305542I50007J-2D01*
G01*
X18906093Y-9489486D02*
G75*
G02*
X18835816Y-9554344I-45051J-21688D01*
G01*
X18906093Y-9489486D02*
G75*
G02*
X18901144Y-9467799I45031J21683D01*
G01*
X22900777Y-9764410D02*
X22900777Y-9923301D01*
X22980493Y-10013856D02*
X23121061Y-10013856D01*
X23121061Y-9673856D02*
X22980493Y-9673856D01*
X23200777Y-9923301D02*
X23200777Y-9764410D01*
X22893947Y-9739185D02*
G75*
G02*
X22900777Y-9764410I-43171J-25226D01*
G01*
X22893947Y-9739185D02*
G75*
G02*
X22958805Y-9668907I43170J25226D01*
G01*
X22900777Y-9923301D02*
G75*
G02*
X22893947Y-9948527I-50001J0D01*
G01*
X22958805Y-10018804D02*
G75*
G02*
X22893947Y-9948527I-21688J45051D01*
G01*
X22958805Y-10018804D02*
G75*
G02*
X22980493Y-10013857I21682J-45042D01*
G01*
X22980493Y-9673856D02*
G75*
G02*
X22958805Y-9668907I2J50007D01*
G01*
X23121061Y-10013856D02*
G75*
G02*
X23142749Y-10018804I-1J-50006D01*
G01*
X23142749Y-9668907D02*
G75*
G02*
X23207607Y-9739185I21688J-45051D01*
G01*
X23142749Y-9668907D02*
G75*
G02*
X23121061Y-9673856I-21683J45031D01*
G01*
X23200777Y-9764410D02*
G75*
G02*
X23207607Y-9739185I50001J0D01*
G01*
X23207607Y-9948527D02*
G75*
G02*
X23142749Y-10018804I-43170J-25226D01*
G01*
X23207607Y-9948527D02*
G75*
G02*
X23200777Y-9923301I43171J25226D01*
G01*
X20464805Y-9327230D02*
X20464805Y-9467799D01*
X20555359Y-9547514D02*
X20714250Y-9547514D01*
X20714250Y-9247515D02*
X20555359Y-9247515D01*
X20804804Y-9467799D02*
X20804804Y-9327230D01*
X20459856Y-9305542D02*
G75*
G02*
X20464803Y-9327230I-45042J-21682D01*
G01*
X20459856Y-9305542D02*
G75*
G02*
X20530133Y-9240685I45051J21688D01*
G01*
X20464805Y-9467799D02*
G75*
G02*
X20459856Y-9489487I-50006J1D01*
G01*
X20530133Y-9554344D02*
G75*
G02*
X20459856Y-9489487I-25226J43170D01*
G01*
X20530133Y-9554344D02*
G75*
G02*
X20555359Y-9547515I25226J-43171D01*
G01*
X20555359Y-9247514D02*
G75*
G02*
X20530133Y-9240685I0J50001D01*
G01*
X20714250Y-9547514D02*
G75*
G02*
X20739476Y-9554344I0J-50001D01*
G01*
X20739476Y-9240685D02*
G75*
G02*
X20714250Y-9247515I-25226J43171D01*
G01*
X20739476Y-9240685D02*
G75*
G02*
X20809753Y-9305542I25226J-43170D01*
G01*
X20804804Y-9327230D02*
G75*
G02*
X20809753Y-9305542I50007J-2D01*
G01*
X20809753Y-9489486D02*
G75*
G02*
X20739476Y-9554344I-45051J-21688D01*
G01*
X20809753Y-9489486D02*
G75*
G02*
X20804804Y-9467799I45031J21683D01*
G01*
X25467516Y-11235346D02*
X25467516Y-11375914D01*
X25558070Y-11455630D02*
X25716961Y-11455630D01*
X25716961Y-11155630D02*
X25558070Y-11155630D01*
X25807515Y-11375914D02*
X25807515Y-11235346D01*
X25462567Y-11213658D02*
G75*
G02*
X25467514Y-11235346I-45042J-21682D01*
G01*
X25462567Y-11213658D02*
G75*
G02*
X25532844Y-11148800I45051J21688D01*
G01*
X25467516Y-11375914D02*
G75*
G02*
X25462567Y-11397602I-50006J1D01*
G01*
X25532844Y-11462460D02*
G75*
G02*
X25462568Y-11397602I-25226J43170D01*
G01*
X25532845Y-11462460D02*
G75*
G02*
X25558070Y-11455630I25226J-43171D01*
G01*
X25558070Y-11155630D02*
G75*
G02*
X25532844Y-11148800I0J50001D01*
G01*
X25716961Y-11455630D02*
G75*
G02*
X25742187Y-11462460I0J-50001D01*
G01*
X25742187Y-11148800D02*
G75*
G02*
X25716961Y-11155630I-25226J43171D01*
G01*
X25742187Y-11148800D02*
G75*
G02*
X25812464Y-11213658I25226J-43170D01*
G01*
X25807515Y-11235346D02*
G75*
G02*
X25812464Y-11213658I50007J-2D01*
G01*
X25812464Y-11397602D02*
G75*
G02*
X25742187Y-11462460I-45051J-21688D01*
G01*
X25812464Y-11397602D02*
G75*
G02*
X25807515Y-11375914I45031J21683D01*
G01*
D12*
D11*
X23794750Y-6521750D02*
X23854750Y-6581750D01*
X23854750Y-6521750D02*
X23794750Y-6581750D01*
X24372750Y-6521750D02*
X24432750Y-6581750D01*
X24432750Y-6521750D02*
X24372750Y-6581750D01*
D13*
X16407000Y-6985000D02*
G75*
G02*
X16232000Y-6985000I-87500J0D01*
G01*
X16232000Y-6985000D02*
G75*
G02*
X16407000Y-6985000I87500J0D01*
G01*
X16407000Y-8890000D02*
G75*
G02*
X16232000Y-8890000I-87500J0D01*
G01*
X16232000Y-8890000D02*
G75*
G02*
X16407000Y-8890000I87500J0D01*
G01*
X16407000Y-10795000D02*
G75*
G02*
X16232000Y-10795000I-87500J0D01*
G01*
X16232000Y-10795000D02*
G75*
G02*
X16407000Y-10795000I87500J0D01*
G01*
X16407000Y-12700000D02*
G75*
G02*
X16232000Y-12700000I-87500J0D01*
G01*
X16232000Y-12700000D02*
G75*
G02*
X16407000Y-12700000I87500J0D01*
G01*
X17359500Y-14605000D02*
G75*
G02*
X17184500Y-14605000I-87500J0D01*
G01*
X17184500Y-14605000D02*
G75*
G02*
X17359500Y-14605000I87500J0D01*
G01*
X17423000Y-6985000D02*
G75*
G02*
X17248000Y-6985000I-87500J0D01*
G01*
X17248000Y-6985000D02*
G75*
G02*
X17423000Y-6985000I87500J0D01*
G01*
X17423000Y-8890000D02*
G75*
G02*
X17248000Y-8890000I-87500J0D01*
G01*
X17248000Y-8890000D02*
G75*
G02*
X17423000Y-8890000I87500J0D01*
G01*
X17423000Y-10795000D02*
G75*
G02*
X17248000Y-10795000I-87500J0D01*
G01*
X17248000Y-10795000D02*
G75*
G02*
X17423000Y-10795000I87500J0D01*
G01*
X17423000Y-12700000D02*
G75*
G02*
X17248000Y-12700000I-87500J0D01*
G01*
X17248000Y-12700000D02*
G75*
G02*
X17423000Y-12700000I87500J0D01*
G01*
X18312000Y-6985000D02*
G75*
G02*
X18137000Y-6985000I-87500J0D01*
G01*
X18137000Y-6985000D02*
G75*
G02*
X18312000Y-6985000I87500J0D01*
G01*
X18312000Y-8890000D02*
G75*
G02*
X18137000Y-8890000I-87500J0D01*
G01*
X18137000Y-8890000D02*
G75*
G02*
X18312000Y-8890000I87500J0D01*
G01*
X18312000Y-10795000D02*
G75*
G02*
X18137000Y-10795000I-87500J0D01*
G01*
X18137000Y-10795000D02*
G75*
G02*
X18312000Y-10795000I87500J0D01*
G01*
X18312000Y-12700000D02*
G75*
G02*
X18137000Y-12700000I-87500J0D01*
G01*
X18137000Y-12700000D02*
G75*
G02*
X18312000Y-12700000I87500J0D01*
G01*
X18375500Y-14605000D02*
G75*
G02*
X18200500Y-14605000I-87500J0D01*
G01*
X18200500Y-14605000D02*
G75*
G02*
X18375500Y-14605000I87500J0D01*
G01*
X19328000Y-6985000D02*
G75*
G02*
X19153000Y-6985000I-87500J0D01*
G01*
X19153000Y-6985000D02*
G75*
G02*
X19328000Y-6985000I87500J0D01*
G01*
X19328000Y-8890000D02*
G75*
G02*
X19153000Y-8890000I-87500J0D01*
G01*
X19153000Y-8890000D02*
G75*
G02*
X19328000Y-8890000I87500J0D01*
G01*
X19328000Y-10795000D02*
G75*
G02*
X19153000Y-10795000I-87500J0D01*
G01*
X19153000Y-10795000D02*
G75*
G02*
X19328000Y-10795000I87500J0D01*
G01*
X19328000Y-12700000D02*
G75*
G02*
X19153000Y-12700000I-87500J0D01*
G01*
X19153000Y-12700000D02*
G75*
G02*
X19328000Y-12700000I87500J0D01*
G01*
X20217000Y-6985000D02*
G75*
G02*
X20042000Y-6985000I-87500J0D01*
G01*
X20042000Y-6985000D02*
G75*
G02*
X20217000Y-6985000I87500J0D01*
G01*
X20217000Y-8890000D02*
G75*
G02*
X20042000Y-8890000I-87500J0D01*
G01*
X20042000Y-8890000D02*
G75*
G02*
X20217000Y-8890000I87500J0D01*
G01*
X20217000Y-10795000D02*
G75*
G02*
X20042000Y-10795000I-87500J0D01*
G01*
X20042000Y-10795000D02*
G75*
G02*
X20217000Y-10795000I87500J0D01*
G01*
X20217000Y-12700000D02*
G75*
G02*
X20042000Y-12700000I-87500J0D01*
G01*
X20042000Y-12700000D02*
G75*
G02*
X20217000Y-12700000I87500J0D01*
G01*
X20217000Y-14605000D02*
G75*
G02*
X20042000Y-14605000I-87500J0D01*
G01*
X20042000Y-14605000D02*
G75*
G02*
X20217000Y-14605000I87500J0D01*
G01*
X21233000Y-6985000D02*
G75*
G02*
X21058000Y-6985000I-87500J0D01*
G01*
X21058000Y-6985000D02*
G75*
G02*
X21233000Y-6985000I87500J0D01*
G01*
X21233000Y-8890000D02*
G75*
G02*
X21058000Y-8890000I-87500J0D01*
G01*
X21058000Y-8890000D02*
G75*
G02*
X21233000Y-8890000I87500J0D01*
G01*
X21233000Y-10795000D02*
G75*
G02*
X21058000Y-10795000I-87500J0D01*
G01*
X21058000Y-10795000D02*
G75*
G02*
X21233000Y-10795000I87500J0D01*
G01*
X21233000Y-12700000D02*
G75*
G02*
X21058000Y-12700000I-87500J0D01*
G01*
X21058000Y-12700000D02*
G75*
G02*
X21233000Y-12700000I87500J0D01*
G01*
X21233000Y-14605000D02*
G75*
G02*
X21058000Y-14605000I-87500J0D01*
G01*
X21058000Y-14605000D02*
G75*
G02*
X21233000Y-14605000I87500J0D01*
G01*
X22122000Y-6985000D02*
G75*
G02*
X21947000Y-6985000I-87500J0D01*
G01*
X21947000Y-6985000D02*
G75*
G02*
X22122000Y-6985000I87500J0D01*
G01*
X22630000Y-9334500D02*
G75*
G02*
X22455000Y-9334500I-87500J0D01*
G01*
X22455000Y-9334500D02*
G75*
G02*
X22630000Y-9334500I87500J0D01*
G01*
X22630000Y-10350500D02*
G75*
G02*
X22455000Y-10350500I-87500J0D01*
G01*
X22455000Y-10350500D02*
G75*
G02*
X22630000Y-10350500I87500J0D01*
G01*
X22630000Y-13144500D02*
G75*
G02*
X22455000Y-13144500I-87500J0D01*
G01*
X22455000Y-13144500D02*
G75*
G02*
X22630000Y-13144500I87500J0D01*
G01*
X22630000Y-14160500D02*
G75*
G02*
X22455000Y-14160500I-87500J0D01*
G01*
X22455000Y-14160500D02*
G75*
G02*
X22630000Y-14160500I87500J0D01*
G01*
X23138000Y-6985000D02*
G75*
G02*
X22963000Y-6985000I-87500J0D01*
G01*
X22963000Y-6985000D02*
G75*
G02*
X23138000Y-6985000I87500J0D01*
G01*
X25217625Y-6985000D02*
G75*
G02*
X25042625Y-6985000I-87500J0D01*
G01*
X25042625Y-6985000D02*
G75*
G02*
X25217625Y-6985000I87500J0D01*
G01*
X25217625Y-8890000D02*
G75*
G02*
X25042625Y-8890000I-87500J0D01*
G01*
X25042625Y-8890000D02*
G75*
G02*
X25217625Y-8890000I87500J0D01*
G01*
X25217625Y-10795000D02*
G75*
G02*
X25042625Y-10795000I-87500J0D01*
G01*
X25042625Y-10795000D02*
G75*
G02*
X25217625Y-10795000I87500J0D01*
G01*
X25217625Y-12700000D02*
G75*
G02*
X25042625Y-12700000I-87500J0D01*
G01*
X25042625Y-12700000D02*
G75*
G02*
X25217625Y-12700000I87500J0D01*
G01*
X25217625Y-14605000D02*
G75*
G02*
X25042625Y-14605000I-87500J0D01*
G01*
X25042625Y-14605000D02*
G75*
G02*
X25217625Y-14605000I87500J0D01*
G01*
X26233625Y-6985000D02*
G75*
G02*
X26058625Y-6985000I-87500J0D01*
G01*
X26058625Y-6985000D02*
G75*
G02*
X26233625Y-6985000I87500J0D01*
G01*
X26233625Y-8890000D02*
G75*
G02*
X26058625Y-8890000I-87500J0D01*
G01*
X26058625Y-8890000D02*
G75*
G02*
X26233625Y-8890000I87500J0D01*
G01*
X26233625Y-10795000D02*
G75*
G02*
X26058625Y-10795000I-87500J0D01*
G01*
X26058625Y-10795000D02*
G75*
G02*
X26233625Y-10795000I87500J0D01*
G01*
X26233625Y-12700000D02*
G75*
G02*
X26058625Y-12700000I-87500J0D01*
G01*
X26058625Y-12700000D02*
G75*
G02*
X26233625Y-12700000I87500J0D01*
G01*
X26233625Y-14605000D02*
G75*
G02*
X26058625Y-14605000I-87500J0D01*
G01*
X26058625Y-14605000D02*
G75*
G02*
X26233625Y-14605000I87500J0D01*
G01*
D14*
X16588531Y-15150685D02*
X16588531Y-15455485D01*
X16436131Y-15303085D02*
X16740931Y-15303085D01*
X18969781Y-15150685D02*
X18969781Y-15455485D01*
X18817381Y-15303085D02*
X19122181Y-15303085D01*
X23241000Y-12309475D02*
X23241000Y-12614275D01*
X23088600Y-12461875D02*
X23393400Y-12461875D01*
X23241000Y-14690725D02*
X23241000Y-14995525D01*
X23088600Y-14843125D02*
X23393400Y-14843125D01*
X23241277Y-8499831D02*
X23241277Y-8804631D01*
X23088877Y-8652231D02*
X23393677Y-8652231D01*
X23241277Y-10881081D02*
X23241277Y-11185881D01*
X23088877Y-11033481D02*
X23393677Y-11033481D01*
D15*
X19798138Y-8050638D02*
X19798138Y-7824362D01*
X19571862Y-7824362D01*
X19571862Y-8050638D01*
X19798138Y-8050638D01*
X19798138Y-13765638D02*
X19798138Y-13539362D01*
X19571862Y-13539362D01*
X19571862Y-13765638D01*
X19798138Y-13765638D01*
X24798763Y-8050638D02*
X24798763Y-7824362D01*
X24572487Y-7824362D01*
X24572487Y-8050638D01*
X24798763Y-8050638D01*
X24798763Y-13765638D02*
X24798763Y-13539362D01*
X24572487Y-13539362D01*
X24572487Y-13765638D01*
X24798763Y-13765638D01*
D16*
X16588531Y-13978475D02*
X16787921Y-13779085D01*
X16588531Y-13579695D01*
X16389141Y-13779085D01*
X16588531Y-13978475D01*
X16827500Y-7184390D02*
X17026890Y-6985000D01*
X16827500Y-6785610D01*
X16628110Y-6985000D01*
X16827500Y-7184390D01*
X16827500Y-9089390D02*
X17026890Y-8890000D01*
X16827500Y-8690610D01*
X16628110Y-8890000D01*
X16827500Y-9089390D01*
X16827500Y-10994390D02*
X17026890Y-10795000D01*
X16827500Y-10595610D01*
X16628110Y-10795000D01*
X16827500Y-10994390D01*
X16827500Y-12899390D02*
X17026890Y-12700000D01*
X16827500Y-12500610D01*
X16628110Y-12700000D01*
X16827500Y-12899390D01*
X17780000Y-14804390D02*
X17979390Y-14605000D01*
X17780000Y-14405610D01*
X17580610Y-14605000D01*
X17780000Y-14804390D01*
X18732500Y-7184390D02*
X18931890Y-6985000D01*
X18732500Y-6785610D01*
X18533110Y-6985000D01*
X18732500Y-7184390D01*
X18732500Y-9089390D02*
X18931890Y-8890000D01*
X18732500Y-8690610D01*
X18533110Y-8890000D01*
X18732500Y-9089390D01*
X18732500Y-10994390D02*
X18931890Y-10795000D01*
X18732500Y-10595610D01*
X18533110Y-10795000D01*
X18732500Y-10994390D01*
X18732500Y-12899390D02*
X18931890Y-12700000D01*
X18732500Y-12500610D01*
X18533110Y-12700000D01*
X18732500Y-12899390D01*
X18969781Y-13978475D02*
X19169171Y-13779085D01*
X18969781Y-13579695D01*
X18770391Y-13779085D01*
X18969781Y-13978475D01*
X20637500Y-7184390D02*
X20836890Y-6985000D01*
X20637500Y-6785610D01*
X20438110Y-6985000D01*
X20637500Y-7184390D01*
X20637500Y-9089390D02*
X20836890Y-8890000D01*
X20637500Y-8690610D01*
X20438110Y-8890000D01*
X20637500Y-9089390D01*
X20637500Y-10994390D02*
X20836890Y-10795000D01*
X20637500Y-10595610D01*
X20438110Y-10795000D01*
X20637500Y-10994390D01*
X20637500Y-12899390D02*
X20836890Y-12700000D01*
X20637500Y-12500610D01*
X20438110Y-12700000D01*
X20637500Y-12899390D01*
X20637500Y-14804390D02*
X20836890Y-14605000D01*
X20637500Y-14405610D01*
X20438110Y-14605000D01*
X20637500Y-14804390D01*
X21717000Y-12661265D02*
X21916390Y-12461875D01*
X21717000Y-12262485D01*
X21517610Y-12461875D01*
X21717000Y-12661265D01*
X21717000Y-15042515D02*
X21916390Y-14843125D01*
X21717000Y-14643735D01*
X21517610Y-14843125D01*
X21717000Y-15042515D01*
X21717277Y-8851621D02*
X21916667Y-8652231D01*
X21717277Y-8452841D01*
X21517887Y-8652231D01*
X21717277Y-8851621D01*
X21717277Y-11232871D02*
X21916667Y-11033481D01*
X21717277Y-10834091D01*
X21517887Y-11033481D01*
X21717277Y-11232871D01*
X22542500Y-7184390D02*
X22741890Y-6985000D01*
X22542500Y-6785610D01*
X22343110Y-6985000D01*
X22542500Y-7184390D01*
X22542500Y-10041890D02*
X22741890Y-9842500D01*
X22542500Y-9643110D01*
X22343110Y-9842500D01*
X22542500Y-10041890D01*
X22542500Y-13851890D02*
X22741890Y-13652500D01*
X22542500Y-13453110D01*
X22343110Y-13652500D01*
X22542500Y-13851890D01*
X25638125Y-7184390D02*
X25837515Y-6985000D01*
X25638125Y-6785610D01*
X25438735Y-6985000D01*
X25638125Y-7184390D01*
X25638125Y-9089390D02*
X25837515Y-8890000D01*
X25638125Y-8690610D01*
X25438735Y-8890000D01*
X25638125Y-9089390D01*
X25638125Y-10994390D02*
X25837515Y-10795000D01*
X25638125Y-10595610D01*
X25438735Y-10795000D01*
X25638125Y-10994390D01*
X25638125Y-12899390D02*
X25837515Y-12700000D01*
X25638125Y-12500610D01*
X25438735Y-12700000D01*
X25638125Y-12899390D01*
X25638125Y-14804390D02*
X25837515Y-14605000D01*
X25638125Y-14405610D01*
X25438735Y-14605000D01*
X25638125Y-14804390D01*
D12*
X16083277Y-15913984D02*
X16083277Y-15713984D01*
X16083277Y-15713984D02*
X16130896Y-15713984D01*
X16130896Y-15713984D02*
X16159467Y-15723508D01*
X16159467Y-15723508D02*
X16178515Y-15742555D01*
X16178515Y-15742555D02*
X16188039Y-15761603D01*
X16188039Y-15761603D02*
X16197562Y-15799698D01*
X16197562Y-15799698D02*
X16197562Y-15828269D01*
X16197562Y-15828269D02*
X16188039Y-15866365D01*
X16188039Y-15866365D02*
X16178515Y-15885412D01*
X16178515Y-15885412D02*
X16159467Y-15904460D01*
X16159467Y-15904460D02*
X16130896Y-15913984D01*
X16130896Y-15913984D02*
X16083277Y-15913984D01*
X16283277Y-15913984D02*
X16283277Y-15780650D01*
X16283277Y-15818746D02*
X16292801Y-15799698D01*
X16292801Y-15799698D02*
X16302324Y-15790174D01*
X16302324Y-15790174D02*
X16321372Y-15780650D01*
X16321372Y-15780650D02*
X16340420Y-15780650D01*
X16407086Y-15913984D02*
X16407086Y-15780650D01*
X16407086Y-15713984D02*
X16397562Y-15723508D01*
X16397562Y-15723508D02*
X16407086Y-15733031D01*
X16407086Y-15733031D02*
X16416610Y-15723508D01*
X16416610Y-15723508D02*
X16407086Y-15713984D01*
X16407086Y-15713984D02*
X16407086Y-15733031D01*
X16530896Y-15913984D02*
X16511848Y-15904460D01*
X16511848Y-15904460D02*
X16502324Y-15885412D01*
X16502324Y-15885412D02*
X16502324Y-15713984D01*
X16635658Y-15913984D02*
X16616610Y-15904460D01*
X16616610Y-15904460D02*
X16607086Y-15885412D01*
X16607086Y-15885412D02*
X16607086Y-15713984D01*
X16864229Y-15913984D02*
X16864229Y-15713984D01*
X16864229Y-15713984D02*
X16930896Y-15856841D01*
X16930896Y-15856841D02*
X16997563Y-15713984D01*
X16997563Y-15713984D02*
X16997563Y-15913984D01*
X17178515Y-15913984D02*
X17178515Y-15809222D01*
X17178515Y-15809222D02*
X17168991Y-15790174D01*
X17168991Y-15790174D02*
X17149944Y-15780650D01*
X17149944Y-15780650D02*
X17111848Y-15780650D01*
X17111848Y-15780650D02*
X17092801Y-15790174D01*
X17178515Y-15904460D02*
X17159467Y-15913984D01*
X17159467Y-15913984D02*
X17111848Y-15913984D01*
X17111848Y-15913984D02*
X17092801Y-15904460D01*
X17092801Y-15904460D02*
X17083277Y-15885412D01*
X17083277Y-15885412D02*
X17083277Y-15866365D01*
X17083277Y-15866365D02*
X17092801Y-15847317D01*
X17092801Y-15847317D02*
X17111848Y-15837793D01*
X17111848Y-15837793D02*
X17159467Y-15837793D01*
X17159467Y-15837793D02*
X17178515Y-15828269D01*
X17273753Y-15780650D02*
X17273753Y-15980650D01*
X17273753Y-15790174D02*
X17292801Y-15780650D01*
X17292801Y-15780650D02*
X17330896Y-15780650D01*
X17330896Y-15780650D02*
X17349944Y-15790174D01*
X17349944Y-15790174D02*
X17359467Y-15799698D01*
X17359467Y-15799698D02*
X17368991Y-15818746D01*
X17368991Y-15818746D02*
X17368991Y-15875888D01*
X17368991Y-15875888D02*
X17359467Y-15894936D01*
X17359467Y-15894936D02*
X17349944Y-15904460D01*
X17349944Y-15904460D02*
X17330896Y-15913984D01*
X17330896Y-15913984D02*
X17292801Y-15913984D01*
X17292801Y-15913984D02*
X17273753Y-15904460D01*
X17454705Y-15894936D02*
X17464229Y-15904460D01*
X17464229Y-15904460D02*
X17454705Y-15913984D01*
X17454705Y-15913984D02*
X17445182Y-15904460D01*
X17445182Y-15904460D02*
X17454705Y-15894936D01*
X17454705Y-15894936D02*
X17454705Y-15913984D01*
X17454705Y-15790174D02*
X17464229Y-15799698D01*
X17464229Y-15799698D02*
X17454705Y-15809222D01*
X17454705Y-15809222D02*
X17445182Y-15799698D01*
X17445182Y-15799698D02*
X17454705Y-15790174D01*
X17454705Y-15790174D02*
X17454705Y-15809222D01*
D11*
X15762500Y-16212500D02*
X15822500Y-16272500D01*
X15822500Y-16212500D02*
X15762500Y-16272500D01*
D12*
X16121372Y-16133984D02*
X16140420Y-16133984D01*
X16140420Y-16133984D02*
X16159467Y-16143508D01*
X16159467Y-16143508D02*
X16168991Y-16153031D01*
X16168991Y-16153031D02*
X16178515Y-16172079D01*
X16178515Y-16172079D02*
X16188039Y-16210174D01*
X16188039Y-16210174D02*
X16188039Y-16257793D01*
X16188039Y-16257793D02*
X16178515Y-16295888D01*
X16178515Y-16295888D02*
X16168991Y-16314936D01*
X16168991Y-16314936D02*
X16159467Y-16324460D01*
X16159467Y-16324460D02*
X16140420Y-16333984D01*
X16140420Y-16333984D02*
X16121372Y-16333984D01*
X16121372Y-16333984D02*
X16102324Y-16324460D01*
X16102324Y-16324460D02*
X16092801Y-16314936D01*
X16092801Y-16314936D02*
X16083277Y-16295888D01*
X16083277Y-16295888D02*
X16073753Y-16257793D01*
X16073753Y-16257793D02*
X16073753Y-16210174D01*
X16073753Y-16210174D02*
X16083277Y-16172079D01*
X16083277Y-16172079D02*
X16092801Y-16153031D01*
X16092801Y-16153031D02*
X16102324Y-16143508D01*
X16102324Y-16143508D02*
X16121372Y-16133984D01*
X16273753Y-16314936D02*
X16283277Y-16324460D01*
X16283277Y-16324460D02*
X16273753Y-16333984D01*
X16273753Y-16333984D02*
X16264229Y-16324460D01*
X16264229Y-16324460D02*
X16273753Y-16314936D01*
X16273753Y-16314936D02*
X16273753Y-16333984D01*
X16454705Y-16133984D02*
X16416610Y-16133984D01*
X16416610Y-16133984D02*
X16397562Y-16143508D01*
X16397562Y-16143508D02*
X16388039Y-16153031D01*
X16388039Y-16153031D02*
X16368991Y-16181603D01*
X16368991Y-16181603D02*
X16359467Y-16219698D01*
X16359467Y-16219698D02*
X16359467Y-16295888D01*
X16359467Y-16295888D02*
X16368991Y-16314936D01*
X16368991Y-16314936D02*
X16378515Y-16324460D01*
X16378515Y-16324460D02*
X16397562Y-16333984D01*
X16397562Y-16333984D02*
X16435658Y-16333984D01*
X16435658Y-16333984D02*
X16454705Y-16324460D01*
X16454705Y-16324460D02*
X16464229Y-16314936D01*
X16464229Y-16314936D02*
X16473753Y-16295888D01*
X16473753Y-16295888D02*
X16473753Y-16248269D01*
X16473753Y-16248269D02*
X16464229Y-16229222D01*
X16464229Y-16229222D02*
X16454705Y-16219698D01*
X16454705Y-16219698D02*
X16435658Y-16210174D01*
X16435658Y-16210174D02*
X16397562Y-16210174D01*
X16397562Y-16210174D02*
X16378515Y-16219698D01*
X16378515Y-16219698D02*
X16368991Y-16229222D01*
X16368991Y-16229222D02*
X16359467Y-16248269D01*
X16597562Y-16133984D02*
X16616610Y-16133984D01*
X16616610Y-16133984D02*
X16635658Y-16143508D01*
X16635658Y-16143508D02*
X16645182Y-16153031D01*
X16645182Y-16153031D02*
X16654705Y-16172079D01*
X16654705Y-16172079D02*
X16664229Y-16210174D01*
X16664229Y-16210174D02*
X16664229Y-16257793D01*
X16664229Y-16257793D02*
X16654705Y-16295888D01*
X16654705Y-16295888D02*
X16645182Y-16314936D01*
X16645182Y-16314936D02*
X16635658Y-16324460D01*
X16635658Y-16324460D02*
X16616610Y-16333984D01*
X16616610Y-16333984D02*
X16597562Y-16333984D01*
X16597562Y-16333984D02*
X16578515Y-16324460D01*
X16578515Y-16324460D02*
X16568991Y-16314936D01*
X16568991Y-16314936D02*
X16559467Y-16295888D01*
X16559467Y-16295888D02*
X16549943Y-16257793D01*
X16549943Y-16257793D02*
X16549943Y-16210174D01*
X16549943Y-16210174D02*
X16559467Y-16172079D01*
X16559467Y-16172079D02*
X16568991Y-16153031D01*
X16568991Y-16153031D02*
X16578515Y-16143508D01*
X16578515Y-16143508D02*
X16597562Y-16133984D01*
X16788039Y-16133984D02*
X16807086Y-16133984D01*
X16807086Y-16133984D02*
X16826134Y-16143508D01*
X16826134Y-16143508D02*
X16835658Y-16153031D01*
X16835658Y-16153031D02*
X16845182Y-16172079D01*
X16845182Y-16172079D02*
X16854705Y-16210174D01*
X16854705Y-16210174D02*
X16854705Y-16257793D01*
X16854705Y-16257793D02*
X16845182Y-16295888D01*
X16845182Y-16295888D02*
X16835658Y-16314936D01*
X16835658Y-16314936D02*
X16826134Y-16324460D01*
X16826134Y-16324460D02*
X16807086Y-16333984D01*
X16807086Y-16333984D02*
X16788039Y-16333984D01*
X16788039Y-16333984D02*
X16768991Y-16324460D01*
X16768991Y-16324460D02*
X16759467Y-16314936D01*
X16759467Y-16314936D02*
X16749943Y-16295888D01*
X16749943Y-16295888D02*
X16740420Y-16257793D01*
X16740420Y-16257793D02*
X16740420Y-16210174D01*
X16740420Y-16210174D02*
X16749943Y-16172079D01*
X16749943Y-16172079D02*
X16759467Y-16153031D01*
X16759467Y-16153031D02*
X16768991Y-16143508D01*
X16768991Y-16143508D02*
X16788039Y-16133984D01*
X16940420Y-16333984D02*
X16940420Y-16200650D01*
X16940420Y-16219698D02*
X16949944Y-16210174D01*
X16949944Y-16210174D02*
X16968991Y-16200650D01*
X16968991Y-16200650D02*
X16997563Y-16200650D01*
X16997563Y-16200650D02*
X17016610Y-16210174D01*
X17016610Y-16210174D02*
X17026134Y-16229222D01*
X17026134Y-16229222D02*
X17026134Y-16333984D01*
X17026134Y-16229222D02*
X17035658Y-16210174D01*
X17035658Y-16210174D02*
X17054705Y-16200650D01*
X17054705Y-16200650D02*
X17083277Y-16200650D01*
X17083277Y-16200650D02*
X17102325Y-16210174D01*
X17102325Y-16210174D02*
X17111848Y-16229222D01*
X17111848Y-16229222D02*
X17111848Y-16333984D01*
X17207086Y-16333984D02*
X17207086Y-16200650D01*
X17207086Y-16219698D02*
X17216610Y-16210174D01*
X17216610Y-16210174D02*
X17235658Y-16200650D01*
X17235658Y-16200650D02*
X17264229Y-16200650D01*
X17264229Y-16200650D02*
X17283277Y-16210174D01*
X17283277Y-16210174D02*
X17292801Y-16229222D01*
X17292801Y-16229222D02*
X17292801Y-16333984D01*
X17292801Y-16229222D02*
X17302325Y-16210174D01*
X17302325Y-16210174D02*
X17321372Y-16200650D01*
X17321372Y-16200650D02*
X17349944Y-16200650D01*
X17349944Y-16200650D02*
X17368991Y-16210174D01*
X17368991Y-16210174D02*
X17378515Y-16229222D01*
X17378515Y-16229222D02*
X17378515Y-16333984D01*
X17768991Y-16124460D02*
X17597563Y-16381603D01*
X18026134Y-16133984D02*
X18045182Y-16133984D01*
X18045182Y-16133984D02*
X18064229Y-16143508D01*
X18064229Y-16143508D02*
X18073753Y-16153031D01*
X18073753Y-16153031D02*
X18083277Y-16172079D01*
X18083277Y-16172079D02*
X18092801Y-16210174D01*
X18092801Y-16210174D02*
X18092801Y-16257793D01*
X18092801Y-16257793D02*
X18083277Y-16295888D01*
X18083277Y-16295888D02*
X18073753Y-16314936D01*
X18073753Y-16314936D02*
X18064229Y-16324460D01*
X18064229Y-16324460D02*
X18045182Y-16333984D01*
X18045182Y-16333984D02*
X18026134Y-16333984D01*
X18026134Y-16333984D02*
X18007087Y-16324460D01*
X18007087Y-16324460D02*
X17997563Y-16314936D01*
X17997563Y-16314936D02*
X17988039Y-16295888D01*
X17988039Y-16295888D02*
X17978515Y-16257793D01*
X17978515Y-16257793D02*
X17978515Y-16210174D01*
X17978515Y-16210174D02*
X17988039Y-16172079D01*
X17988039Y-16172079D02*
X17997563Y-16153031D01*
X17997563Y-16153031D02*
X18007087Y-16143508D01*
X18007087Y-16143508D02*
X18026134Y-16133984D01*
X18178515Y-16314936D02*
X18188039Y-16324460D01*
X18188039Y-16324460D02*
X18178515Y-16333984D01*
X18178515Y-16333984D02*
X18168991Y-16324460D01*
X18168991Y-16324460D02*
X18178515Y-16314936D01*
X18178515Y-16314936D02*
X18178515Y-16333984D01*
X18311848Y-16133984D02*
X18330896Y-16133984D01*
X18330896Y-16133984D02*
X18349944Y-16143508D01*
X18349944Y-16143508D02*
X18359468Y-16153031D01*
X18359468Y-16153031D02*
X18368991Y-16172079D01*
X18368991Y-16172079D02*
X18378515Y-16210174D01*
X18378515Y-16210174D02*
X18378515Y-16257793D01*
X18378515Y-16257793D02*
X18368991Y-16295888D01*
X18368991Y-16295888D02*
X18359468Y-16314936D01*
X18359468Y-16314936D02*
X18349944Y-16324460D01*
X18349944Y-16324460D02*
X18330896Y-16333984D01*
X18330896Y-16333984D02*
X18311848Y-16333984D01*
X18311848Y-16333984D02*
X18292801Y-16324460D01*
X18292801Y-16324460D02*
X18283277Y-16314936D01*
X18283277Y-16314936D02*
X18273753Y-16295888D01*
X18273753Y-16295888D02*
X18264229Y-16257793D01*
X18264229Y-16257793D02*
X18264229Y-16210174D01*
X18264229Y-16210174D02*
X18273753Y-16172079D01*
X18273753Y-16172079D02*
X18283277Y-16153031D01*
X18283277Y-16153031D02*
X18292801Y-16143508D01*
X18292801Y-16143508D02*
X18311848Y-16133984D01*
X18454706Y-16153031D02*
X18464229Y-16143508D01*
X18464229Y-16143508D02*
X18483277Y-16133984D01*
X18483277Y-16133984D02*
X18530896Y-16133984D01*
X18530896Y-16133984D02*
X18549944Y-16143508D01*
X18549944Y-16143508D02*
X18559468Y-16153031D01*
X18559468Y-16153031D02*
X18568991Y-16172079D01*
X18568991Y-16172079D02*
X18568991Y-16191127D01*
X18568991Y-16191127D02*
X18559468Y-16219698D01*
X18559468Y-16219698D02*
X18445182Y-16333984D01*
X18445182Y-16333984D02*
X18568991Y-16333984D01*
X18635658Y-16133984D02*
X18759468Y-16133984D01*
X18759468Y-16133984D02*
X18692801Y-16210174D01*
X18692801Y-16210174D02*
X18721372Y-16210174D01*
X18721372Y-16210174D02*
X18740420Y-16219698D01*
X18740420Y-16219698D02*
X18749944Y-16229222D01*
X18749944Y-16229222D02*
X18759468Y-16248269D01*
X18759468Y-16248269D02*
X18759468Y-16295888D01*
X18759468Y-16295888D02*
X18749944Y-16314936D01*
X18749944Y-16314936D02*
X18740420Y-16324460D01*
X18740420Y-16324460D02*
X18721372Y-16333984D01*
X18721372Y-16333984D02*
X18664229Y-16333984D01*
X18664229Y-16333984D02*
X18645182Y-16324460D01*
X18645182Y-16324460D02*
X18635658Y-16314936D01*
X18930896Y-16133984D02*
X18892801Y-16133984D01*
X18892801Y-16133984D02*
X18873753Y-16143508D01*
X18873753Y-16143508D02*
X18864229Y-16153031D01*
X18864229Y-16153031D02*
X18845182Y-16181603D01*
X18845182Y-16181603D02*
X18835658Y-16219698D01*
X18835658Y-16219698D02*
X18835658Y-16295888D01*
X18835658Y-16295888D02*
X18845182Y-16314936D01*
X18845182Y-16314936D02*
X18854706Y-16324460D01*
X18854706Y-16324460D02*
X18873753Y-16333984D01*
X18873753Y-16333984D02*
X18911849Y-16333984D01*
X18911849Y-16333984D02*
X18930896Y-16324460D01*
X18930896Y-16324460D02*
X18940420Y-16314936D01*
X18940420Y-16314936D02*
X18949944Y-16295888D01*
X18949944Y-16295888D02*
X18949944Y-16248269D01*
X18949944Y-16248269D02*
X18940420Y-16229222D01*
X18940420Y-16229222D02*
X18930896Y-16219698D01*
X18930896Y-16219698D02*
X18911849Y-16210174D01*
X18911849Y-16210174D02*
X18873753Y-16210174D01*
X18873753Y-16210174D02*
X18854706Y-16219698D01*
X18854706Y-16219698D02*
X18845182Y-16229222D01*
X18845182Y-16229222D02*
X18835658Y-16248269D01*
X19026134Y-16133984D02*
X19026134Y-16172079D01*
X19102325Y-16133984D02*
X19102325Y-16172079D01*
X19397563Y-16410174D02*
X19388039Y-16400650D01*
X19388039Y-16400650D02*
X19368991Y-16372079D01*
X19368991Y-16372079D02*
X19359468Y-16353031D01*
X19359468Y-16353031D02*
X19349944Y-16324460D01*
X19349944Y-16324460D02*
X19340420Y-16276841D01*
X19340420Y-16276841D02*
X19340420Y-16238746D01*
X19340420Y-16238746D02*
X19349944Y-16191127D01*
X19349944Y-16191127D02*
X19359468Y-16162555D01*
X19359468Y-16162555D02*
X19368991Y-16143508D01*
X19368991Y-16143508D02*
X19388039Y-16114936D01*
X19388039Y-16114936D02*
X19397563Y-16105412D01*
X19464230Y-16153031D02*
X19473753Y-16143508D01*
X19473753Y-16143508D02*
X19492801Y-16133984D01*
X19492801Y-16133984D02*
X19540420Y-16133984D01*
X19540420Y-16133984D02*
X19559468Y-16143508D01*
X19559468Y-16143508D02*
X19568991Y-16153031D01*
X19568991Y-16153031D02*
X19578515Y-16172079D01*
X19578515Y-16172079D02*
X19578515Y-16191127D01*
X19578515Y-16191127D02*
X19568991Y-16219698D01*
X19568991Y-16219698D02*
X19454706Y-16333984D01*
X19454706Y-16333984D02*
X19578515Y-16333984D01*
X19816611Y-16333984D02*
X19816611Y-16133984D01*
X19902325Y-16333984D02*
X19902325Y-16229222D01*
X19902325Y-16229222D02*
X19892801Y-16210174D01*
X19892801Y-16210174D02*
X19873753Y-16200650D01*
X19873753Y-16200650D02*
X19845182Y-16200650D01*
X19845182Y-16200650D02*
X19826134Y-16210174D01*
X19826134Y-16210174D02*
X19816611Y-16219698D01*
X20026134Y-16333984D02*
X20007087Y-16324460D01*
X20007087Y-16324460D02*
X19997563Y-16314936D01*
X19997563Y-16314936D02*
X19988039Y-16295888D01*
X19988039Y-16295888D02*
X19988039Y-16238746D01*
X19988039Y-16238746D02*
X19997563Y-16219698D01*
X19997563Y-16219698D02*
X20007087Y-16210174D01*
X20007087Y-16210174D02*
X20026134Y-16200650D01*
X20026134Y-16200650D02*
X20054706Y-16200650D01*
X20054706Y-16200650D02*
X20073753Y-16210174D01*
X20073753Y-16210174D02*
X20083277Y-16219698D01*
X20083277Y-16219698D02*
X20092801Y-16238746D01*
X20092801Y-16238746D02*
X20092801Y-16295888D01*
X20092801Y-16295888D02*
X20083277Y-16314936D01*
X20083277Y-16314936D02*
X20073753Y-16324460D01*
X20073753Y-16324460D02*
X20054706Y-16333984D01*
X20054706Y-16333984D02*
X20026134Y-16333984D01*
X20207087Y-16333984D02*
X20188039Y-16324460D01*
X20188039Y-16324460D02*
X20178515Y-16305412D01*
X20178515Y-16305412D02*
X20178515Y-16133984D01*
X20359468Y-16324460D02*
X20340420Y-16333984D01*
X20340420Y-16333984D02*
X20302325Y-16333984D01*
X20302325Y-16333984D02*
X20283277Y-16324460D01*
X20283277Y-16324460D02*
X20273753Y-16305412D01*
X20273753Y-16305412D02*
X20273753Y-16229222D01*
X20273753Y-16229222D02*
X20283277Y-16210174D01*
X20283277Y-16210174D02*
X20302325Y-16200650D01*
X20302325Y-16200650D02*
X20340420Y-16200650D01*
X20340420Y-16200650D02*
X20359468Y-16210174D01*
X20359468Y-16210174D02*
X20368992Y-16229222D01*
X20368992Y-16229222D02*
X20368992Y-16248269D01*
X20368992Y-16248269D02*
X20273753Y-16267317D01*
X20445182Y-16324460D02*
X20464230Y-16333984D01*
X20464230Y-16333984D02*
X20502325Y-16333984D01*
X20502325Y-16333984D02*
X20521373Y-16324460D01*
X20521373Y-16324460D02*
X20530896Y-16305412D01*
X20530896Y-16305412D02*
X20530896Y-16295888D01*
X20530896Y-16295888D02*
X20521373Y-16276841D01*
X20521373Y-16276841D02*
X20502325Y-16267317D01*
X20502325Y-16267317D02*
X20473753Y-16267317D01*
X20473753Y-16267317D02*
X20454706Y-16257793D01*
X20454706Y-16257793D02*
X20445182Y-16238746D01*
X20445182Y-16238746D02*
X20445182Y-16229222D01*
X20445182Y-16229222D02*
X20454706Y-16210174D01*
X20454706Y-16210174D02*
X20473753Y-16200650D01*
X20473753Y-16200650D02*
X20502325Y-16200650D01*
X20502325Y-16200650D02*
X20521373Y-16210174D01*
X20597563Y-16410174D02*
X20607087Y-16400650D01*
X20607087Y-16400650D02*
X20626134Y-16372079D01*
X20626134Y-16372079D02*
X20635658Y-16353031D01*
X20635658Y-16353031D02*
X20645182Y-16324460D01*
X20645182Y-16324460D02*
X20654706Y-16276841D01*
X20654706Y-16276841D02*
X20654706Y-16238746D01*
X20654706Y-16238746D02*
X20645182Y-16191127D01*
X20645182Y-16191127D02*
X20635658Y-16162555D01*
X20635658Y-16162555D02*
X20626134Y-16143508D01*
X20626134Y-16143508D02*
X20607087Y-16114936D01*
X20607087Y-16114936D02*
X20597563Y-16105412D01*
X20959468Y-16410174D02*
X20949944Y-16400650D01*
X20949944Y-16400650D02*
X20930896Y-16372079D01*
X20930896Y-16372079D02*
X20921373Y-16353031D01*
X20921373Y-16353031D02*
X20911849Y-16324460D01*
X20911849Y-16324460D02*
X20902325Y-16276841D01*
X20902325Y-16276841D02*
X20902325Y-16238746D01*
X20902325Y-16238746D02*
X20911849Y-16191127D01*
X20911849Y-16191127D02*
X20921373Y-16162555D01*
X20921373Y-16162555D02*
X20930896Y-16143508D01*
X20930896Y-16143508D02*
X20949944Y-16114936D01*
X20949944Y-16114936D02*
X20959468Y-16105412D01*
X21035658Y-16200650D02*
X21035658Y-16333984D01*
X21035658Y-16219698D02*
X21045182Y-16210174D01*
X21045182Y-16210174D02*
X21064230Y-16200650D01*
X21064230Y-16200650D02*
X21092801Y-16200650D01*
X21092801Y-16200650D02*
X21111849Y-16210174D01*
X21111849Y-16210174D02*
X21121373Y-16229222D01*
X21121373Y-16229222D02*
X21121373Y-16333984D01*
X21245182Y-16333984D02*
X21226134Y-16324460D01*
X21226134Y-16324460D02*
X21216611Y-16314936D01*
X21216611Y-16314936D02*
X21207087Y-16295888D01*
X21207087Y-16295888D02*
X21207087Y-16238746D01*
X21207087Y-16238746D02*
X21216611Y-16219698D01*
X21216611Y-16219698D02*
X21226134Y-16210174D01*
X21226134Y-16210174D02*
X21245182Y-16200650D01*
X21245182Y-16200650D02*
X21273754Y-16200650D01*
X21273754Y-16200650D02*
X21292801Y-16210174D01*
X21292801Y-16210174D02*
X21302325Y-16219698D01*
X21302325Y-16219698D02*
X21311849Y-16238746D01*
X21311849Y-16238746D02*
X21311849Y-16295888D01*
X21311849Y-16295888D02*
X21302325Y-16314936D01*
X21302325Y-16314936D02*
X21292801Y-16324460D01*
X21292801Y-16324460D02*
X21273754Y-16333984D01*
X21273754Y-16333984D02*
X21245182Y-16333984D01*
X21368992Y-16200650D02*
X21445182Y-16200650D01*
X21397563Y-16133984D02*
X21397563Y-16305412D01*
X21397563Y-16305412D02*
X21407087Y-16324460D01*
X21407087Y-16324460D02*
X21426134Y-16333984D01*
X21426134Y-16333984D02*
X21445182Y-16333984D01*
X21664230Y-16200650D02*
X21664230Y-16400650D01*
X21664230Y-16210174D02*
X21683277Y-16200650D01*
X21683277Y-16200650D02*
X21721373Y-16200650D01*
X21721373Y-16200650D02*
X21740420Y-16210174D01*
X21740420Y-16210174D02*
X21749944Y-16219698D01*
X21749944Y-16219698D02*
X21759468Y-16238746D01*
X21759468Y-16238746D02*
X21759468Y-16295888D01*
X21759468Y-16295888D02*
X21749944Y-16314936D01*
X21749944Y-16314936D02*
X21740420Y-16324460D01*
X21740420Y-16324460D02*
X21721373Y-16333984D01*
X21721373Y-16333984D02*
X21683277Y-16333984D01*
X21683277Y-16333984D02*
X21664230Y-16324460D01*
X21873754Y-16333984D02*
X21854706Y-16324460D01*
X21854706Y-16324460D02*
X21845182Y-16305412D01*
X21845182Y-16305412D02*
X21845182Y-16133984D01*
X22035658Y-16333984D02*
X22035658Y-16229222D01*
X22035658Y-16229222D02*
X22026135Y-16210174D01*
X22026135Y-16210174D02*
X22007087Y-16200650D01*
X22007087Y-16200650D02*
X21968992Y-16200650D01*
X21968992Y-16200650D02*
X21949944Y-16210174D01*
X22035658Y-16324460D02*
X22016611Y-16333984D01*
X22016611Y-16333984D02*
X21968992Y-16333984D01*
X21968992Y-16333984D02*
X21949944Y-16324460D01*
X21949944Y-16324460D02*
X21940420Y-16305412D01*
X21940420Y-16305412D02*
X21940420Y-16286365D01*
X21940420Y-16286365D02*
X21949944Y-16267317D01*
X21949944Y-16267317D02*
X21968992Y-16257793D01*
X21968992Y-16257793D02*
X22016611Y-16257793D01*
X22016611Y-16257793D02*
X22035658Y-16248269D01*
X22102325Y-16200650D02*
X22178515Y-16200650D01*
X22130896Y-16133984D02*
X22130896Y-16305412D01*
X22130896Y-16305412D02*
X22140420Y-16324460D01*
X22140420Y-16324460D02*
X22159468Y-16333984D01*
X22159468Y-16333984D02*
X22178515Y-16333984D01*
X22321373Y-16324460D02*
X22302325Y-16333984D01*
X22302325Y-16333984D02*
X22264230Y-16333984D01*
X22264230Y-16333984D02*
X22245182Y-16324460D01*
X22245182Y-16324460D02*
X22235658Y-16305412D01*
X22235658Y-16305412D02*
X22235658Y-16229222D01*
X22235658Y-16229222D02*
X22245182Y-16210174D01*
X22245182Y-16210174D02*
X22264230Y-16200650D01*
X22264230Y-16200650D02*
X22302325Y-16200650D01*
X22302325Y-16200650D02*
X22321373Y-16210174D01*
X22321373Y-16210174D02*
X22330896Y-16229222D01*
X22330896Y-16229222D02*
X22330896Y-16248269D01*
X22330896Y-16248269D02*
X22235658Y-16267317D01*
X22502325Y-16333984D02*
X22502325Y-16133984D01*
X22502325Y-16324460D02*
X22483277Y-16333984D01*
X22483277Y-16333984D02*
X22445182Y-16333984D01*
X22445182Y-16333984D02*
X22426134Y-16324460D01*
X22426134Y-16324460D02*
X22416611Y-16314936D01*
X22416611Y-16314936D02*
X22407087Y-16295888D01*
X22407087Y-16295888D02*
X22407087Y-16238746D01*
X22407087Y-16238746D02*
X22416611Y-16219698D01*
X22416611Y-16219698D02*
X22426134Y-16210174D01*
X22426134Y-16210174D02*
X22445182Y-16200650D01*
X22445182Y-16200650D02*
X22483277Y-16200650D01*
X22483277Y-16200650D02*
X22502325Y-16210174D01*
X22578515Y-16410174D02*
X22588039Y-16400650D01*
X22588039Y-16400650D02*
X22607087Y-16372079D01*
X22607087Y-16372079D02*
X22616611Y-16353031D01*
X22616611Y-16353031D02*
X22626134Y-16324460D01*
X22626134Y-16324460D02*
X22635658Y-16276841D01*
X22635658Y-16276841D02*
X22635658Y-16238746D01*
X22635658Y-16238746D02*
X22626134Y-16191127D01*
X22626134Y-16191127D02*
X22616611Y-16162555D01*
X22616611Y-16162555D02*
X22607087Y-16143508D01*
X22607087Y-16143508D02*
X22588039Y-16114936D01*
X22588039Y-16114936D02*
X22578515Y-16105412D01*
D13*
X15822500Y-16506500D02*
G75*
G02*
X15647500Y-16506500I-87500J0D01*
G01*
X15647500Y-16506500D02*
G75*
G02*
X15822500Y-16506500I87500J0D01*
G01*
D12*
X16188039Y-16597984D02*
X16073753Y-16597984D01*
X16130896Y-16597984D02*
X16130896Y-16397984D01*
X16130896Y-16397984D02*
X16111848Y-16426555D01*
X16111848Y-16426555D02*
X16092801Y-16445603D01*
X16092801Y-16445603D02*
X16073753Y-16455127D01*
X16273753Y-16578936D02*
X16283277Y-16588460D01*
X16283277Y-16588460D02*
X16273753Y-16597984D01*
X16273753Y-16597984D02*
X16264229Y-16588460D01*
X16264229Y-16588460D02*
X16273753Y-16578936D01*
X16273753Y-16578936D02*
X16273753Y-16597984D01*
X16349943Y-16397984D02*
X16483277Y-16397984D01*
X16483277Y-16397984D02*
X16397562Y-16597984D01*
X16654705Y-16397984D02*
X16559467Y-16397984D01*
X16559467Y-16397984D02*
X16549943Y-16493222D01*
X16549943Y-16493222D02*
X16559467Y-16483698D01*
X16559467Y-16483698D02*
X16578515Y-16474174D01*
X16578515Y-16474174D02*
X16626134Y-16474174D01*
X16626134Y-16474174D02*
X16645182Y-16483698D01*
X16645182Y-16483698D02*
X16654705Y-16493222D01*
X16654705Y-16493222D02*
X16664229Y-16512269D01*
X16664229Y-16512269D02*
X16664229Y-16559888D01*
X16664229Y-16559888D02*
X16654705Y-16578936D01*
X16654705Y-16578936D02*
X16645182Y-16588460D01*
X16645182Y-16588460D02*
X16626134Y-16597984D01*
X16626134Y-16597984D02*
X16578515Y-16597984D01*
X16578515Y-16597984D02*
X16559467Y-16588460D01*
X16559467Y-16588460D02*
X16549943Y-16578936D01*
X16788039Y-16397984D02*
X16807086Y-16397984D01*
X16807086Y-16397984D02*
X16826134Y-16407508D01*
X16826134Y-16407508D02*
X16835658Y-16417031D01*
X16835658Y-16417031D02*
X16845182Y-16436079D01*
X16845182Y-16436079D02*
X16854705Y-16474174D01*
X16854705Y-16474174D02*
X16854705Y-16521793D01*
X16854705Y-16521793D02*
X16845182Y-16559888D01*
X16845182Y-16559888D02*
X16835658Y-16578936D01*
X16835658Y-16578936D02*
X16826134Y-16588460D01*
X16826134Y-16588460D02*
X16807086Y-16597984D01*
X16807086Y-16597984D02*
X16788039Y-16597984D01*
X16788039Y-16597984D02*
X16768991Y-16588460D01*
X16768991Y-16588460D02*
X16759467Y-16578936D01*
X16759467Y-16578936D02*
X16749943Y-16559888D01*
X16749943Y-16559888D02*
X16740420Y-16521793D01*
X16740420Y-16521793D02*
X16740420Y-16474174D01*
X16740420Y-16474174D02*
X16749943Y-16436079D01*
X16749943Y-16436079D02*
X16759467Y-16417031D01*
X16759467Y-16417031D02*
X16768991Y-16407508D01*
X16768991Y-16407508D02*
X16788039Y-16397984D01*
X16940420Y-16597984D02*
X16940420Y-16464650D01*
X16940420Y-16483698D02*
X16949944Y-16474174D01*
X16949944Y-16474174D02*
X16968991Y-16464650D01*
X16968991Y-16464650D02*
X16997563Y-16464650D01*
X16997563Y-16464650D02*
X17016610Y-16474174D01*
X17016610Y-16474174D02*
X17026134Y-16493222D01*
X17026134Y-16493222D02*
X17026134Y-16597984D01*
X17026134Y-16493222D02*
X17035658Y-16474174D01*
X17035658Y-16474174D02*
X17054705Y-16464650D01*
X17054705Y-16464650D02*
X17083277Y-16464650D01*
X17083277Y-16464650D02*
X17102325Y-16474174D01*
X17102325Y-16474174D02*
X17111848Y-16493222D01*
X17111848Y-16493222D02*
X17111848Y-16597984D01*
X17207086Y-16597984D02*
X17207086Y-16464650D01*
X17207086Y-16483698D02*
X17216610Y-16474174D01*
X17216610Y-16474174D02*
X17235658Y-16464650D01*
X17235658Y-16464650D02*
X17264229Y-16464650D01*
X17264229Y-16464650D02*
X17283277Y-16474174D01*
X17283277Y-16474174D02*
X17292801Y-16493222D01*
X17292801Y-16493222D02*
X17292801Y-16597984D01*
X17292801Y-16493222D02*
X17302325Y-16474174D01*
X17302325Y-16474174D02*
X17321372Y-16464650D01*
X17321372Y-16464650D02*
X17349944Y-16464650D01*
X17349944Y-16464650D02*
X17368991Y-16474174D01*
X17368991Y-16474174D02*
X17378515Y-16493222D01*
X17378515Y-16493222D02*
X17378515Y-16597984D01*
X17768991Y-16388460D02*
X17597563Y-16645603D01*
X18026134Y-16397984D02*
X18045182Y-16397984D01*
X18045182Y-16397984D02*
X18064229Y-16407508D01*
X18064229Y-16407508D02*
X18073753Y-16417031D01*
X18073753Y-16417031D02*
X18083277Y-16436079D01*
X18083277Y-16436079D02*
X18092801Y-16474174D01*
X18092801Y-16474174D02*
X18092801Y-16521793D01*
X18092801Y-16521793D02*
X18083277Y-16559888D01*
X18083277Y-16559888D02*
X18073753Y-16578936D01*
X18073753Y-16578936D02*
X18064229Y-16588460D01*
X18064229Y-16588460D02*
X18045182Y-16597984D01*
X18045182Y-16597984D02*
X18026134Y-16597984D01*
X18026134Y-16597984D02*
X18007087Y-16588460D01*
X18007087Y-16588460D02*
X17997563Y-16578936D01*
X17997563Y-16578936D02*
X17988039Y-16559888D01*
X17988039Y-16559888D02*
X17978515Y-16521793D01*
X17978515Y-16521793D02*
X17978515Y-16474174D01*
X17978515Y-16474174D02*
X17988039Y-16436079D01*
X17988039Y-16436079D02*
X17997563Y-16417031D01*
X17997563Y-16417031D02*
X18007087Y-16407508D01*
X18007087Y-16407508D02*
X18026134Y-16397984D01*
X18178515Y-16578936D02*
X18188039Y-16588460D01*
X18188039Y-16588460D02*
X18178515Y-16597984D01*
X18178515Y-16597984D02*
X18168991Y-16588460D01*
X18168991Y-16588460D02*
X18178515Y-16578936D01*
X18178515Y-16578936D02*
X18178515Y-16597984D01*
X18311848Y-16397984D02*
X18330896Y-16397984D01*
X18330896Y-16397984D02*
X18349944Y-16407508D01*
X18349944Y-16407508D02*
X18359468Y-16417031D01*
X18359468Y-16417031D02*
X18368991Y-16436079D01*
X18368991Y-16436079D02*
X18378515Y-16474174D01*
X18378515Y-16474174D02*
X18378515Y-16521793D01*
X18378515Y-16521793D02*
X18368991Y-16559888D01*
X18368991Y-16559888D02*
X18359468Y-16578936D01*
X18359468Y-16578936D02*
X18349944Y-16588460D01*
X18349944Y-16588460D02*
X18330896Y-16597984D01*
X18330896Y-16597984D02*
X18311848Y-16597984D01*
X18311848Y-16597984D02*
X18292801Y-16588460D01*
X18292801Y-16588460D02*
X18283277Y-16578936D01*
X18283277Y-16578936D02*
X18273753Y-16559888D01*
X18273753Y-16559888D02*
X18264229Y-16521793D01*
X18264229Y-16521793D02*
X18264229Y-16474174D01*
X18264229Y-16474174D02*
X18273753Y-16436079D01*
X18273753Y-16436079D02*
X18283277Y-16417031D01*
X18283277Y-16417031D02*
X18292801Y-16407508D01*
X18292801Y-16407508D02*
X18311848Y-16397984D01*
X18549944Y-16397984D02*
X18511848Y-16397984D01*
X18511848Y-16397984D02*
X18492801Y-16407508D01*
X18492801Y-16407508D02*
X18483277Y-16417031D01*
X18483277Y-16417031D02*
X18464229Y-16445603D01*
X18464229Y-16445603D02*
X18454706Y-16483698D01*
X18454706Y-16483698D02*
X18454706Y-16559888D01*
X18454706Y-16559888D02*
X18464229Y-16578936D01*
X18464229Y-16578936D02*
X18473753Y-16588460D01*
X18473753Y-16588460D02*
X18492801Y-16597984D01*
X18492801Y-16597984D02*
X18530896Y-16597984D01*
X18530896Y-16597984D02*
X18549944Y-16588460D01*
X18549944Y-16588460D02*
X18559468Y-16578936D01*
X18559468Y-16578936D02*
X18568991Y-16559888D01*
X18568991Y-16559888D02*
X18568991Y-16512269D01*
X18568991Y-16512269D02*
X18559468Y-16493222D01*
X18559468Y-16493222D02*
X18549944Y-16483698D01*
X18549944Y-16483698D02*
X18530896Y-16474174D01*
X18530896Y-16474174D02*
X18492801Y-16474174D01*
X18492801Y-16474174D02*
X18473753Y-16483698D01*
X18473753Y-16483698D02*
X18464229Y-16493222D01*
X18464229Y-16493222D02*
X18454706Y-16512269D01*
X18683277Y-16483698D02*
X18664229Y-16474174D01*
X18664229Y-16474174D02*
X18654706Y-16464650D01*
X18654706Y-16464650D02*
X18645182Y-16445603D01*
X18645182Y-16445603D02*
X18645182Y-16436079D01*
X18645182Y-16436079D02*
X18654706Y-16417031D01*
X18654706Y-16417031D02*
X18664229Y-16407508D01*
X18664229Y-16407508D02*
X18683277Y-16397984D01*
X18683277Y-16397984D02*
X18721372Y-16397984D01*
X18721372Y-16397984D02*
X18740420Y-16407508D01*
X18740420Y-16407508D02*
X18749944Y-16417031D01*
X18749944Y-16417031D02*
X18759468Y-16436079D01*
X18759468Y-16436079D02*
X18759468Y-16445603D01*
X18759468Y-16445603D02*
X18749944Y-16464650D01*
X18749944Y-16464650D02*
X18740420Y-16474174D01*
X18740420Y-16474174D02*
X18721372Y-16483698D01*
X18721372Y-16483698D02*
X18683277Y-16483698D01*
X18683277Y-16483698D02*
X18664229Y-16493222D01*
X18664229Y-16493222D02*
X18654706Y-16502746D01*
X18654706Y-16502746D02*
X18645182Y-16521793D01*
X18645182Y-16521793D02*
X18645182Y-16559888D01*
X18645182Y-16559888D02*
X18654706Y-16578936D01*
X18654706Y-16578936D02*
X18664229Y-16588460D01*
X18664229Y-16588460D02*
X18683277Y-16597984D01*
X18683277Y-16597984D02*
X18721372Y-16597984D01*
X18721372Y-16597984D02*
X18740420Y-16588460D01*
X18740420Y-16588460D02*
X18749944Y-16578936D01*
X18749944Y-16578936D02*
X18759468Y-16559888D01*
X18759468Y-16559888D02*
X18759468Y-16521793D01*
X18759468Y-16521793D02*
X18749944Y-16502746D01*
X18749944Y-16502746D02*
X18740420Y-16493222D01*
X18740420Y-16493222D02*
X18721372Y-16483698D01*
X18854706Y-16597984D02*
X18892801Y-16597984D01*
X18892801Y-16597984D02*
X18911849Y-16588460D01*
X18911849Y-16588460D02*
X18921372Y-16578936D01*
X18921372Y-16578936D02*
X18940420Y-16550365D01*
X18940420Y-16550365D02*
X18949944Y-16512269D01*
X18949944Y-16512269D02*
X18949944Y-16436079D01*
X18949944Y-16436079D02*
X18940420Y-16417031D01*
X18940420Y-16417031D02*
X18930896Y-16407508D01*
X18930896Y-16407508D02*
X18911849Y-16397984D01*
X18911849Y-16397984D02*
X18873753Y-16397984D01*
X18873753Y-16397984D02*
X18854706Y-16407508D01*
X18854706Y-16407508D02*
X18845182Y-16417031D01*
X18845182Y-16417031D02*
X18835658Y-16436079D01*
X18835658Y-16436079D02*
X18835658Y-16483698D01*
X18835658Y-16483698D02*
X18845182Y-16502746D01*
X18845182Y-16502746D02*
X18854706Y-16512269D01*
X18854706Y-16512269D02*
X18873753Y-16521793D01*
X18873753Y-16521793D02*
X18911849Y-16521793D01*
X18911849Y-16521793D02*
X18930896Y-16512269D01*
X18930896Y-16512269D02*
X18940420Y-16502746D01*
X18940420Y-16502746D02*
X18949944Y-16483698D01*
X19026134Y-16397984D02*
X19026134Y-16436079D01*
X19102325Y-16397984D02*
X19102325Y-16436079D01*
X19397563Y-16674174D02*
X19388039Y-16664650D01*
X19388039Y-16664650D02*
X19368991Y-16636079D01*
X19368991Y-16636079D02*
X19359468Y-16617031D01*
X19359468Y-16617031D02*
X19349944Y-16588460D01*
X19349944Y-16588460D02*
X19340420Y-16540841D01*
X19340420Y-16540841D02*
X19340420Y-16502746D01*
X19340420Y-16502746D02*
X19349944Y-16455127D01*
X19349944Y-16455127D02*
X19359468Y-16426555D01*
X19359468Y-16426555D02*
X19368991Y-16407508D01*
X19368991Y-16407508D02*
X19388039Y-16378936D01*
X19388039Y-16378936D02*
X19397563Y-16369412D01*
X19559468Y-16464650D02*
X19559468Y-16597984D01*
X19511849Y-16388460D02*
X19464230Y-16531317D01*
X19464230Y-16531317D02*
X19588039Y-16531317D01*
X19749944Y-16464650D02*
X19749944Y-16597984D01*
X19702325Y-16388460D02*
X19654706Y-16531317D01*
X19654706Y-16531317D02*
X19778515Y-16531317D01*
X20007087Y-16597984D02*
X20007087Y-16397984D01*
X20092801Y-16597984D02*
X20092801Y-16493222D01*
X20092801Y-16493222D02*
X20083277Y-16474174D01*
X20083277Y-16474174D02*
X20064230Y-16464650D01*
X20064230Y-16464650D02*
X20035658Y-16464650D01*
X20035658Y-16464650D02*
X20016611Y-16474174D01*
X20016611Y-16474174D02*
X20007087Y-16483698D01*
X20216611Y-16597984D02*
X20197563Y-16588460D01*
X20197563Y-16588460D02*
X20188039Y-16578936D01*
X20188039Y-16578936D02*
X20178515Y-16559888D01*
X20178515Y-16559888D02*
X20178515Y-16502746D01*
X20178515Y-16502746D02*
X20188039Y-16483698D01*
X20188039Y-16483698D02*
X20197563Y-16474174D01*
X20197563Y-16474174D02*
X20216611Y-16464650D01*
X20216611Y-16464650D02*
X20245182Y-16464650D01*
X20245182Y-16464650D02*
X20264230Y-16474174D01*
X20264230Y-16474174D02*
X20273753Y-16483698D01*
X20273753Y-16483698D02*
X20283277Y-16502746D01*
X20283277Y-16502746D02*
X20283277Y-16559888D01*
X20283277Y-16559888D02*
X20273753Y-16578936D01*
X20273753Y-16578936D02*
X20264230Y-16588460D01*
X20264230Y-16588460D02*
X20245182Y-16597984D01*
X20245182Y-16597984D02*
X20216611Y-16597984D01*
X20397563Y-16597984D02*
X20378515Y-16588460D01*
X20378515Y-16588460D02*
X20368992Y-16569412D01*
X20368992Y-16569412D02*
X20368992Y-16397984D01*
X20549944Y-16588460D02*
X20530896Y-16597984D01*
X20530896Y-16597984D02*
X20492801Y-16597984D01*
X20492801Y-16597984D02*
X20473753Y-16588460D01*
X20473753Y-16588460D02*
X20464230Y-16569412D01*
X20464230Y-16569412D02*
X20464230Y-16493222D01*
X20464230Y-16493222D02*
X20473753Y-16474174D01*
X20473753Y-16474174D02*
X20492801Y-16464650D01*
X20492801Y-16464650D02*
X20530896Y-16464650D01*
X20530896Y-16464650D02*
X20549944Y-16474174D01*
X20549944Y-16474174D02*
X20559468Y-16493222D01*
X20559468Y-16493222D02*
X20559468Y-16512269D01*
X20559468Y-16512269D02*
X20464230Y-16531317D01*
X20635658Y-16588460D02*
X20654706Y-16597984D01*
X20654706Y-16597984D02*
X20692801Y-16597984D01*
X20692801Y-16597984D02*
X20711849Y-16588460D01*
X20711849Y-16588460D02*
X20721373Y-16569412D01*
X20721373Y-16569412D02*
X20721373Y-16559888D01*
X20721373Y-16559888D02*
X20711849Y-16540841D01*
X20711849Y-16540841D02*
X20692801Y-16531317D01*
X20692801Y-16531317D02*
X20664230Y-16531317D01*
X20664230Y-16531317D02*
X20645182Y-16521793D01*
X20645182Y-16521793D02*
X20635658Y-16502746D01*
X20635658Y-16502746D02*
X20635658Y-16493222D01*
X20635658Y-16493222D02*
X20645182Y-16474174D01*
X20645182Y-16474174D02*
X20664230Y-16464650D01*
X20664230Y-16464650D02*
X20692801Y-16464650D01*
X20692801Y-16464650D02*
X20711849Y-16474174D01*
X20788039Y-16674174D02*
X20797563Y-16664650D01*
X20797563Y-16664650D02*
X20816611Y-16636079D01*
X20816611Y-16636079D02*
X20826134Y-16617031D01*
X20826134Y-16617031D02*
X20835658Y-16588460D01*
X20835658Y-16588460D02*
X20845182Y-16540841D01*
X20845182Y-16540841D02*
X20845182Y-16502746D01*
X20845182Y-16502746D02*
X20835658Y-16455127D01*
X20835658Y-16455127D02*
X20826134Y-16426555D01*
X20826134Y-16426555D02*
X20816611Y-16407508D01*
X20816611Y-16407508D02*
X20797563Y-16378936D01*
X20797563Y-16378936D02*
X20788039Y-16369412D01*
X21149944Y-16674174D02*
X21140420Y-16664650D01*
X21140420Y-16664650D02*
X21121373Y-16636079D01*
X21121373Y-16636079D02*
X21111849Y-16617031D01*
X21111849Y-16617031D02*
X21102325Y-16588460D01*
X21102325Y-16588460D02*
X21092801Y-16540841D01*
X21092801Y-16540841D02*
X21092801Y-16502746D01*
X21092801Y-16502746D02*
X21102325Y-16455127D01*
X21102325Y-16455127D02*
X21111849Y-16426555D01*
X21111849Y-16426555D02*
X21121373Y-16407508D01*
X21121373Y-16407508D02*
X21140420Y-16378936D01*
X21140420Y-16378936D02*
X21149944Y-16369412D01*
X21226134Y-16464650D02*
X21226134Y-16597984D01*
X21226134Y-16483698D02*
X21235658Y-16474174D01*
X21235658Y-16474174D02*
X21254706Y-16464650D01*
X21254706Y-16464650D02*
X21283277Y-16464650D01*
X21283277Y-16464650D02*
X21302325Y-16474174D01*
X21302325Y-16474174D02*
X21311849Y-16493222D01*
X21311849Y-16493222D02*
X21311849Y-16597984D01*
X21435658Y-16597984D02*
X21416611Y-16588460D01*
X21416611Y-16588460D02*
X21407087Y-16578936D01*
X21407087Y-16578936D02*
X21397563Y-16559888D01*
X21397563Y-16559888D02*
X21397563Y-16502746D01*
X21397563Y-16502746D02*
X21407087Y-16483698D01*
X21407087Y-16483698D02*
X21416611Y-16474174D01*
X21416611Y-16474174D02*
X21435658Y-16464650D01*
X21435658Y-16464650D02*
X21464230Y-16464650D01*
X21464230Y-16464650D02*
X21483277Y-16474174D01*
X21483277Y-16474174D02*
X21492801Y-16483698D01*
X21492801Y-16483698D02*
X21502325Y-16502746D01*
X21502325Y-16502746D02*
X21502325Y-16559888D01*
X21502325Y-16559888D02*
X21492801Y-16578936D01*
X21492801Y-16578936D02*
X21483277Y-16588460D01*
X21483277Y-16588460D02*
X21464230Y-16597984D01*
X21464230Y-16597984D02*
X21435658Y-16597984D01*
X21559468Y-16464650D02*
X21635658Y-16464650D01*
X21588039Y-16397984D02*
X21588039Y-16569412D01*
X21588039Y-16569412D02*
X21597563Y-16588460D01*
X21597563Y-16588460D02*
X21616611Y-16597984D01*
X21616611Y-16597984D02*
X21635658Y-16597984D01*
X21854706Y-16464650D02*
X21854706Y-16664650D01*
X21854706Y-16474174D02*
X21873754Y-16464650D01*
X21873754Y-16464650D02*
X21911849Y-16464650D01*
X21911849Y-16464650D02*
X21930896Y-16474174D01*
X21930896Y-16474174D02*
X21940420Y-16483698D01*
X21940420Y-16483698D02*
X21949944Y-16502746D01*
X21949944Y-16502746D02*
X21949944Y-16559888D01*
X21949944Y-16559888D02*
X21940420Y-16578936D01*
X21940420Y-16578936D02*
X21930896Y-16588460D01*
X21930896Y-16588460D02*
X21911849Y-16597984D01*
X21911849Y-16597984D02*
X21873754Y-16597984D01*
X21873754Y-16597984D02*
X21854706Y-16588460D01*
X22064230Y-16597984D02*
X22045182Y-16588460D01*
X22045182Y-16588460D02*
X22035658Y-16569412D01*
X22035658Y-16569412D02*
X22035658Y-16397984D01*
X22226135Y-16597984D02*
X22226135Y-16493222D01*
X22226135Y-16493222D02*
X22216611Y-16474174D01*
X22216611Y-16474174D02*
X22197563Y-16464650D01*
X22197563Y-16464650D02*
X22159468Y-16464650D01*
X22159468Y-16464650D02*
X22140420Y-16474174D01*
X22226135Y-16588460D02*
X22207087Y-16597984D01*
X22207087Y-16597984D02*
X22159468Y-16597984D01*
X22159468Y-16597984D02*
X22140420Y-16588460D01*
X22140420Y-16588460D02*
X22130896Y-16569412D01*
X22130896Y-16569412D02*
X22130896Y-16550365D01*
X22130896Y-16550365D02*
X22140420Y-16531317D01*
X22140420Y-16531317D02*
X22159468Y-16521793D01*
X22159468Y-16521793D02*
X22207087Y-16521793D01*
X22207087Y-16521793D02*
X22226135Y-16512269D01*
X22292801Y-16464650D02*
X22368992Y-16464650D01*
X22321373Y-16397984D02*
X22321373Y-16569412D01*
X22321373Y-16569412D02*
X22330896Y-16588460D01*
X22330896Y-16588460D02*
X22349944Y-16597984D01*
X22349944Y-16597984D02*
X22368992Y-16597984D01*
X22511849Y-16588460D02*
X22492801Y-16597984D01*
X22492801Y-16597984D02*
X22454706Y-16597984D01*
X22454706Y-16597984D02*
X22435658Y-16588460D01*
X22435658Y-16588460D02*
X22426134Y-16569412D01*
X22426134Y-16569412D02*
X22426134Y-16493222D01*
X22426134Y-16493222D02*
X22435658Y-16474174D01*
X22435658Y-16474174D02*
X22454706Y-16464650D01*
X22454706Y-16464650D02*
X22492801Y-16464650D01*
X22492801Y-16464650D02*
X22511849Y-16474174D01*
X22511849Y-16474174D02*
X22521373Y-16493222D01*
X22521373Y-16493222D02*
X22521373Y-16512269D01*
X22521373Y-16512269D02*
X22426134Y-16531317D01*
X22692801Y-16597984D02*
X22692801Y-16397984D01*
X22692801Y-16588460D02*
X22673754Y-16597984D01*
X22673754Y-16597984D02*
X22635658Y-16597984D01*
X22635658Y-16597984D02*
X22616611Y-16588460D01*
X22616611Y-16588460D02*
X22607087Y-16578936D01*
X22607087Y-16578936D02*
X22597563Y-16559888D01*
X22597563Y-16559888D02*
X22597563Y-16502746D01*
X22597563Y-16502746D02*
X22607087Y-16483698D01*
X22607087Y-16483698D02*
X22616611Y-16474174D01*
X22616611Y-16474174D02*
X22635658Y-16464650D01*
X22635658Y-16464650D02*
X22673754Y-16464650D01*
X22673754Y-16464650D02*
X22692801Y-16474174D01*
X22768992Y-16674174D02*
X22778515Y-16664650D01*
X22778515Y-16664650D02*
X22797563Y-16636079D01*
X22797563Y-16636079D02*
X22807087Y-16617031D01*
X22807087Y-16617031D02*
X22816611Y-16588460D01*
X22816611Y-16588460D02*
X22826134Y-16540841D01*
X22826134Y-16540841D02*
X22826134Y-16502746D01*
X22826134Y-16502746D02*
X22816611Y-16455127D01*
X22816611Y-16455127D02*
X22807087Y-16426555D01*
X22807087Y-16426555D02*
X22797563Y-16407508D01*
X22797563Y-16407508D02*
X22778515Y-16378936D01*
X22778515Y-16378936D02*
X22768992Y-16369412D01*
X15722500Y-16701500D02*
X15722500Y-16901500D01*
X15622500Y-16801500D02*
X15822500Y-16801500D01*
X16064229Y-16692984D02*
X16188039Y-16692984D01*
X16188039Y-16692984D02*
X16121372Y-16769174D01*
X16121372Y-16769174D02*
X16149943Y-16769174D01*
X16149943Y-16769174D02*
X16168991Y-16778698D01*
X16168991Y-16778698D02*
X16178515Y-16788222D01*
X16178515Y-16788222D02*
X16188039Y-16807270D01*
X16188039Y-16807270D02*
X16188039Y-16854889D01*
X16188039Y-16854889D02*
X16178515Y-16873936D01*
X16178515Y-16873936D02*
X16168991Y-16883460D01*
X16168991Y-16883460D02*
X16149943Y-16892984D01*
X16149943Y-16892984D02*
X16092801Y-16892984D01*
X16092801Y-16892984D02*
X16073753Y-16883460D01*
X16073753Y-16883460D02*
X16064229Y-16873936D01*
X16273753Y-16873936D02*
X16283277Y-16883460D01*
X16283277Y-16883460D02*
X16273753Y-16892984D01*
X16273753Y-16892984D02*
X16264229Y-16883460D01*
X16264229Y-16883460D02*
X16273753Y-16873936D01*
X16273753Y-16873936D02*
X16273753Y-16892984D01*
X16407086Y-16692984D02*
X16426134Y-16692984D01*
X16426134Y-16692984D02*
X16445182Y-16702508D01*
X16445182Y-16702508D02*
X16454705Y-16712031D01*
X16454705Y-16712031D02*
X16464229Y-16731079D01*
X16464229Y-16731079D02*
X16473753Y-16769174D01*
X16473753Y-16769174D02*
X16473753Y-16816793D01*
X16473753Y-16816793D02*
X16464229Y-16854889D01*
X16464229Y-16854889D02*
X16454705Y-16873936D01*
X16454705Y-16873936D02*
X16445182Y-16883460D01*
X16445182Y-16883460D02*
X16426134Y-16892984D01*
X16426134Y-16892984D02*
X16407086Y-16892984D01*
X16407086Y-16892984D02*
X16388039Y-16883460D01*
X16388039Y-16883460D02*
X16378515Y-16873936D01*
X16378515Y-16873936D02*
X16368991Y-16854889D01*
X16368991Y-16854889D02*
X16359467Y-16816793D01*
X16359467Y-16816793D02*
X16359467Y-16769174D01*
X16359467Y-16769174D02*
X16368991Y-16731079D01*
X16368991Y-16731079D02*
X16378515Y-16712031D01*
X16378515Y-16712031D02*
X16388039Y-16702508D01*
X16388039Y-16702508D02*
X16407086Y-16692984D01*
X16645182Y-16759650D02*
X16645182Y-16892984D01*
X16597562Y-16683460D02*
X16549943Y-16826317D01*
X16549943Y-16826317D02*
X16673753Y-16826317D01*
X16778515Y-16778698D02*
X16759467Y-16769174D01*
X16759467Y-16769174D02*
X16749943Y-16759650D01*
X16749943Y-16759650D02*
X16740420Y-16740603D01*
X16740420Y-16740603D02*
X16740420Y-16731079D01*
X16740420Y-16731079D02*
X16749943Y-16712031D01*
X16749943Y-16712031D02*
X16759467Y-16702508D01*
X16759467Y-16702508D02*
X16778515Y-16692984D01*
X16778515Y-16692984D02*
X16816610Y-16692984D01*
X16816610Y-16692984D02*
X16835658Y-16702508D01*
X16835658Y-16702508D02*
X16845182Y-16712031D01*
X16845182Y-16712031D02*
X16854705Y-16731079D01*
X16854705Y-16731079D02*
X16854705Y-16740603D01*
X16854705Y-16740603D02*
X16845182Y-16759650D01*
X16845182Y-16759650D02*
X16835658Y-16769174D01*
X16835658Y-16769174D02*
X16816610Y-16778698D01*
X16816610Y-16778698D02*
X16778515Y-16778698D01*
X16778515Y-16778698D02*
X16759467Y-16788222D01*
X16759467Y-16788222D02*
X16749943Y-16797746D01*
X16749943Y-16797746D02*
X16740420Y-16816793D01*
X16740420Y-16816793D02*
X16740420Y-16854889D01*
X16740420Y-16854889D02*
X16749943Y-16873936D01*
X16749943Y-16873936D02*
X16759467Y-16883460D01*
X16759467Y-16883460D02*
X16778515Y-16892984D01*
X16778515Y-16892984D02*
X16816610Y-16892984D01*
X16816610Y-16892984D02*
X16835658Y-16883460D01*
X16835658Y-16883460D02*
X16845182Y-16873936D01*
X16845182Y-16873936D02*
X16854705Y-16854889D01*
X16854705Y-16854889D02*
X16854705Y-16816793D01*
X16854705Y-16816793D02*
X16845182Y-16797746D01*
X16845182Y-16797746D02*
X16835658Y-16788222D01*
X16835658Y-16788222D02*
X16816610Y-16778698D01*
X16940420Y-16892984D02*
X16940420Y-16759650D01*
X16940420Y-16778698D02*
X16949944Y-16769174D01*
X16949944Y-16769174D02*
X16968991Y-16759650D01*
X16968991Y-16759650D02*
X16997563Y-16759650D01*
X16997563Y-16759650D02*
X17016610Y-16769174D01*
X17016610Y-16769174D02*
X17026134Y-16788222D01*
X17026134Y-16788222D02*
X17026134Y-16892984D01*
X17026134Y-16788222D02*
X17035658Y-16769174D01*
X17035658Y-16769174D02*
X17054705Y-16759650D01*
X17054705Y-16759650D02*
X17083277Y-16759650D01*
X17083277Y-16759650D02*
X17102325Y-16769174D01*
X17102325Y-16769174D02*
X17111848Y-16788222D01*
X17111848Y-16788222D02*
X17111848Y-16892984D01*
X17207086Y-16892984D02*
X17207086Y-16759650D01*
X17207086Y-16778698D02*
X17216610Y-16769174D01*
X17216610Y-16769174D02*
X17235658Y-16759650D01*
X17235658Y-16759650D02*
X17264229Y-16759650D01*
X17264229Y-16759650D02*
X17283277Y-16769174D01*
X17283277Y-16769174D02*
X17292801Y-16788222D01*
X17292801Y-16788222D02*
X17292801Y-16892984D01*
X17292801Y-16788222D02*
X17302325Y-16769174D01*
X17302325Y-16769174D02*
X17321372Y-16759650D01*
X17321372Y-16759650D02*
X17349944Y-16759650D01*
X17349944Y-16759650D02*
X17368991Y-16769174D01*
X17368991Y-16769174D02*
X17378515Y-16788222D01*
X17378515Y-16788222D02*
X17378515Y-16892984D01*
X17768991Y-16683460D02*
X17597563Y-16940603D01*
X18026134Y-16692984D02*
X18045182Y-16692984D01*
X18045182Y-16692984D02*
X18064229Y-16702508D01*
X18064229Y-16702508D02*
X18073753Y-16712031D01*
X18073753Y-16712031D02*
X18083277Y-16731079D01*
X18083277Y-16731079D02*
X18092801Y-16769174D01*
X18092801Y-16769174D02*
X18092801Y-16816793D01*
X18092801Y-16816793D02*
X18083277Y-16854889D01*
X18083277Y-16854889D02*
X18073753Y-16873936D01*
X18073753Y-16873936D02*
X18064229Y-16883460D01*
X18064229Y-16883460D02*
X18045182Y-16892984D01*
X18045182Y-16892984D02*
X18026134Y-16892984D01*
X18026134Y-16892984D02*
X18007087Y-16883460D01*
X18007087Y-16883460D02*
X17997563Y-16873936D01*
X17997563Y-16873936D02*
X17988039Y-16854889D01*
X17988039Y-16854889D02*
X17978515Y-16816793D01*
X17978515Y-16816793D02*
X17978515Y-16769174D01*
X17978515Y-16769174D02*
X17988039Y-16731079D01*
X17988039Y-16731079D02*
X17997563Y-16712031D01*
X17997563Y-16712031D02*
X18007087Y-16702508D01*
X18007087Y-16702508D02*
X18026134Y-16692984D01*
X18178515Y-16873936D02*
X18188039Y-16883460D01*
X18188039Y-16883460D02*
X18178515Y-16892984D01*
X18178515Y-16892984D02*
X18168991Y-16883460D01*
X18168991Y-16883460D02*
X18178515Y-16873936D01*
X18178515Y-16873936D02*
X18178515Y-16892984D01*
X18378515Y-16892984D02*
X18264229Y-16892984D01*
X18321372Y-16892984D02*
X18321372Y-16692984D01*
X18321372Y-16692984D02*
X18302325Y-16721555D01*
X18302325Y-16721555D02*
X18283277Y-16740603D01*
X18283277Y-16740603D02*
X18264229Y-16750127D01*
X18454706Y-16712031D02*
X18464229Y-16702508D01*
X18464229Y-16702508D02*
X18483277Y-16692984D01*
X18483277Y-16692984D02*
X18530896Y-16692984D01*
X18530896Y-16692984D02*
X18549944Y-16702508D01*
X18549944Y-16702508D02*
X18559468Y-16712031D01*
X18559468Y-16712031D02*
X18568991Y-16731079D01*
X18568991Y-16731079D02*
X18568991Y-16750127D01*
X18568991Y-16750127D02*
X18559468Y-16778698D01*
X18559468Y-16778698D02*
X18445182Y-16892984D01*
X18445182Y-16892984D02*
X18568991Y-16892984D01*
X18692801Y-16692984D02*
X18711849Y-16692984D01*
X18711849Y-16692984D02*
X18730896Y-16702508D01*
X18730896Y-16702508D02*
X18740420Y-16712031D01*
X18740420Y-16712031D02*
X18749944Y-16731079D01*
X18749944Y-16731079D02*
X18759468Y-16769174D01*
X18759468Y-16769174D02*
X18759468Y-16816793D01*
X18759468Y-16816793D02*
X18749944Y-16854889D01*
X18749944Y-16854889D02*
X18740420Y-16873936D01*
X18740420Y-16873936D02*
X18730896Y-16883460D01*
X18730896Y-16883460D02*
X18711849Y-16892984D01*
X18711849Y-16892984D02*
X18692801Y-16892984D01*
X18692801Y-16892984D02*
X18673753Y-16883460D01*
X18673753Y-16883460D02*
X18664229Y-16873936D01*
X18664229Y-16873936D02*
X18654706Y-16854889D01*
X18654706Y-16854889D02*
X18645182Y-16816793D01*
X18645182Y-16816793D02*
X18645182Y-16769174D01*
X18645182Y-16769174D02*
X18654706Y-16731079D01*
X18654706Y-16731079D02*
X18664229Y-16712031D01*
X18664229Y-16712031D02*
X18673753Y-16702508D01*
X18673753Y-16702508D02*
X18692801Y-16692984D01*
X18883277Y-16692984D02*
X18902325Y-16692984D01*
X18902325Y-16692984D02*
X18921372Y-16702508D01*
X18921372Y-16702508D02*
X18930896Y-16712031D01*
X18930896Y-16712031D02*
X18940420Y-16731079D01*
X18940420Y-16731079D02*
X18949944Y-16769174D01*
X18949944Y-16769174D02*
X18949944Y-16816793D01*
X18949944Y-16816793D02*
X18940420Y-16854889D01*
X18940420Y-16854889D02*
X18930896Y-16873936D01*
X18930896Y-16873936D02*
X18921372Y-16883460D01*
X18921372Y-16883460D02*
X18902325Y-16892984D01*
X18902325Y-16892984D02*
X18883277Y-16892984D01*
X18883277Y-16892984D02*
X18864229Y-16883460D01*
X18864229Y-16883460D02*
X18854706Y-16873936D01*
X18854706Y-16873936D02*
X18845182Y-16854889D01*
X18845182Y-16854889D02*
X18835658Y-16816793D01*
X18835658Y-16816793D02*
X18835658Y-16769174D01*
X18835658Y-16769174D02*
X18845182Y-16731079D01*
X18845182Y-16731079D02*
X18854706Y-16712031D01*
X18854706Y-16712031D02*
X18864229Y-16702508D01*
X18864229Y-16702508D02*
X18883277Y-16692984D01*
X19026134Y-16692984D02*
X19026134Y-16731079D01*
X19102325Y-16692984D02*
X19102325Y-16731079D01*
X19397563Y-16969174D02*
X19388039Y-16959650D01*
X19388039Y-16959650D02*
X19368991Y-16931079D01*
X19368991Y-16931079D02*
X19359468Y-16912031D01*
X19359468Y-16912031D02*
X19349944Y-16883460D01*
X19349944Y-16883460D02*
X19340420Y-16835841D01*
X19340420Y-16835841D02*
X19340420Y-16797746D01*
X19340420Y-16797746D02*
X19349944Y-16750127D01*
X19349944Y-16750127D02*
X19359468Y-16721555D01*
X19359468Y-16721555D02*
X19368991Y-16702508D01*
X19368991Y-16702508D02*
X19388039Y-16673936D01*
X19388039Y-16673936D02*
X19397563Y-16664412D01*
X19559468Y-16692984D02*
X19521372Y-16692984D01*
X19521372Y-16692984D02*
X19502325Y-16702508D01*
X19502325Y-16702508D02*
X19492801Y-16712031D01*
X19492801Y-16712031D02*
X19473753Y-16740603D01*
X19473753Y-16740603D02*
X19464230Y-16778698D01*
X19464230Y-16778698D02*
X19464230Y-16854889D01*
X19464230Y-16854889D02*
X19473753Y-16873936D01*
X19473753Y-16873936D02*
X19483277Y-16883460D01*
X19483277Y-16883460D02*
X19502325Y-16892984D01*
X19502325Y-16892984D02*
X19540420Y-16892984D01*
X19540420Y-16892984D02*
X19559468Y-16883460D01*
X19559468Y-16883460D02*
X19568991Y-16873936D01*
X19568991Y-16873936D02*
X19578515Y-16854889D01*
X19578515Y-16854889D02*
X19578515Y-16807270D01*
X19578515Y-16807270D02*
X19568991Y-16788222D01*
X19568991Y-16788222D02*
X19559468Y-16778698D01*
X19559468Y-16778698D02*
X19540420Y-16769174D01*
X19540420Y-16769174D02*
X19502325Y-16769174D01*
X19502325Y-16769174D02*
X19483277Y-16778698D01*
X19483277Y-16778698D02*
X19473753Y-16788222D01*
X19473753Y-16788222D02*
X19464230Y-16807270D01*
X19816611Y-16892984D02*
X19816611Y-16692984D01*
X19902325Y-16892984D02*
X19902325Y-16788222D01*
X19902325Y-16788222D02*
X19892801Y-16769174D01*
X19892801Y-16769174D02*
X19873753Y-16759650D01*
X19873753Y-16759650D02*
X19845182Y-16759650D01*
X19845182Y-16759650D02*
X19826134Y-16769174D01*
X19826134Y-16769174D02*
X19816611Y-16778698D01*
X20026134Y-16892984D02*
X20007087Y-16883460D01*
X20007087Y-16883460D02*
X19997563Y-16873936D01*
X19997563Y-16873936D02*
X19988039Y-16854889D01*
X19988039Y-16854889D02*
X19988039Y-16797746D01*
X19988039Y-16797746D02*
X19997563Y-16778698D01*
X19997563Y-16778698D02*
X20007087Y-16769174D01*
X20007087Y-16769174D02*
X20026134Y-16759650D01*
X20026134Y-16759650D02*
X20054706Y-16759650D01*
X20054706Y-16759650D02*
X20073753Y-16769174D01*
X20073753Y-16769174D02*
X20083277Y-16778698D01*
X20083277Y-16778698D02*
X20092801Y-16797746D01*
X20092801Y-16797746D02*
X20092801Y-16854889D01*
X20092801Y-16854889D02*
X20083277Y-16873936D01*
X20083277Y-16873936D02*
X20073753Y-16883460D01*
X20073753Y-16883460D02*
X20054706Y-16892984D01*
X20054706Y-16892984D02*
X20026134Y-16892984D01*
X20207087Y-16892984D02*
X20188039Y-16883460D01*
X20188039Y-16883460D02*
X20178515Y-16864412D01*
X20178515Y-16864412D02*
X20178515Y-16692984D01*
X20359468Y-16883460D02*
X20340420Y-16892984D01*
X20340420Y-16892984D02*
X20302325Y-16892984D01*
X20302325Y-16892984D02*
X20283277Y-16883460D01*
X20283277Y-16883460D02*
X20273753Y-16864412D01*
X20273753Y-16864412D02*
X20273753Y-16788222D01*
X20273753Y-16788222D02*
X20283277Y-16769174D01*
X20283277Y-16769174D02*
X20302325Y-16759650D01*
X20302325Y-16759650D02*
X20340420Y-16759650D01*
X20340420Y-16759650D02*
X20359468Y-16769174D01*
X20359468Y-16769174D02*
X20368992Y-16788222D01*
X20368992Y-16788222D02*
X20368992Y-16807270D01*
X20368992Y-16807270D02*
X20273753Y-16826317D01*
X20445182Y-16883460D02*
X20464230Y-16892984D01*
X20464230Y-16892984D02*
X20502325Y-16892984D01*
X20502325Y-16892984D02*
X20521373Y-16883460D01*
X20521373Y-16883460D02*
X20530896Y-16864412D01*
X20530896Y-16864412D02*
X20530896Y-16854889D01*
X20530896Y-16854889D02*
X20521373Y-16835841D01*
X20521373Y-16835841D02*
X20502325Y-16826317D01*
X20502325Y-16826317D02*
X20473753Y-16826317D01*
X20473753Y-16826317D02*
X20454706Y-16816793D01*
X20454706Y-16816793D02*
X20445182Y-16797746D01*
X20445182Y-16797746D02*
X20445182Y-16788222D01*
X20445182Y-16788222D02*
X20454706Y-16769174D01*
X20454706Y-16769174D02*
X20473753Y-16759650D01*
X20473753Y-16759650D02*
X20502325Y-16759650D01*
X20502325Y-16759650D02*
X20521373Y-16769174D01*
X20597563Y-16969174D02*
X20607087Y-16959650D01*
X20607087Y-16959650D02*
X20626134Y-16931079D01*
X20626134Y-16931079D02*
X20635658Y-16912031D01*
X20635658Y-16912031D02*
X20645182Y-16883460D01*
X20645182Y-16883460D02*
X20654706Y-16835841D01*
X20654706Y-16835841D02*
X20654706Y-16797746D01*
X20654706Y-16797746D02*
X20645182Y-16750127D01*
X20645182Y-16750127D02*
X20635658Y-16721555D01*
X20635658Y-16721555D02*
X20626134Y-16702508D01*
X20626134Y-16702508D02*
X20607087Y-16673936D01*
X20607087Y-16673936D02*
X20597563Y-16664412D01*
X20959468Y-16969174D02*
X20949944Y-16959650D01*
X20949944Y-16959650D02*
X20930896Y-16931079D01*
X20930896Y-16931079D02*
X20921373Y-16912031D01*
X20921373Y-16912031D02*
X20911849Y-16883460D01*
X20911849Y-16883460D02*
X20902325Y-16835841D01*
X20902325Y-16835841D02*
X20902325Y-16797746D01*
X20902325Y-16797746D02*
X20911849Y-16750127D01*
X20911849Y-16750127D02*
X20921373Y-16721555D01*
X20921373Y-16721555D02*
X20930896Y-16702508D01*
X20930896Y-16702508D02*
X20949944Y-16673936D01*
X20949944Y-16673936D02*
X20959468Y-16664412D01*
X21035658Y-16759650D02*
X21035658Y-16892984D01*
X21035658Y-16778698D02*
X21045182Y-16769174D01*
X21045182Y-16769174D02*
X21064230Y-16759650D01*
X21064230Y-16759650D02*
X21092801Y-16759650D01*
X21092801Y-16759650D02*
X21111849Y-16769174D01*
X21111849Y-16769174D02*
X21121373Y-16788222D01*
X21121373Y-16788222D02*
X21121373Y-16892984D01*
X21245182Y-16892984D02*
X21226134Y-16883460D01*
X21226134Y-16883460D02*
X21216611Y-16873936D01*
X21216611Y-16873936D02*
X21207087Y-16854889D01*
X21207087Y-16854889D02*
X21207087Y-16797746D01*
X21207087Y-16797746D02*
X21216611Y-16778698D01*
X21216611Y-16778698D02*
X21226134Y-16769174D01*
X21226134Y-16769174D02*
X21245182Y-16759650D01*
X21245182Y-16759650D02*
X21273754Y-16759650D01*
X21273754Y-16759650D02*
X21292801Y-16769174D01*
X21292801Y-16769174D02*
X21302325Y-16778698D01*
X21302325Y-16778698D02*
X21311849Y-16797746D01*
X21311849Y-16797746D02*
X21311849Y-16854889D01*
X21311849Y-16854889D02*
X21302325Y-16873936D01*
X21302325Y-16873936D02*
X21292801Y-16883460D01*
X21292801Y-16883460D02*
X21273754Y-16892984D01*
X21273754Y-16892984D02*
X21245182Y-16892984D01*
X21368992Y-16759650D02*
X21445182Y-16759650D01*
X21397563Y-16692984D02*
X21397563Y-16864412D01*
X21397563Y-16864412D02*
X21407087Y-16883460D01*
X21407087Y-16883460D02*
X21426134Y-16892984D01*
X21426134Y-16892984D02*
X21445182Y-16892984D01*
X21664230Y-16759650D02*
X21664230Y-16959650D01*
X21664230Y-16769174D02*
X21683277Y-16759650D01*
X21683277Y-16759650D02*
X21721373Y-16759650D01*
X21721373Y-16759650D02*
X21740420Y-16769174D01*
X21740420Y-16769174D02*
X21749944Y-16778698D01*
X21749944Y-16778698D02*
X21759468Y-16797746D01*
X21759468Y-16797746D02*
X21759468Y-16854889D01*
X21759468Y-16854889D02*
X21749944Y-16873936D01*
X21749944Y-16873936D02*
X21740420Y-16883460D01*
X21740420Y-16883460D02*
X21721373Y-16892984D01*
X21721373Y-16892984D02*
X21683277Y-16892984D01*
X21683277Y-16892984D02*
X21664230Y-16883460D01*
X21873754Y-16892984D02*
X21854706Y-16883460D01*
X21854706Y-16883460D02*
X21845182Y-16864412D01*
X21845182Y-16864412D02*
X21845182Y-16692984D01*
X22035658Y-16892984D02*
X22035658Y-16788222D01*
X22035658Y-16788222D02*
X22026135Y-16769174D01*
X22026135Y-16769174D02*
X22007087Y-16759650D01*
X22007087Y-16759650D02*
X21968992Y-16759650D01*
X21968992Y-16759650D02*
X21949944Y-16769174D01*
X22035658Y-16883460D02*
X22016611Y-16892984D01*
X22016611Y-16892984D02*
X21968992Y-16892984D01*
X21968992Y-16892984D02*
X21949944Y-16883460D01*
X21949944Y-16883460D02*
X21940420Y-16864412D01*
X21940420Y-16864412D02*
X21940420Y-16845365D01*
X21940420Y-16845365D02*
X21949944Y-16826317D01*
X21949944Y-16826317D02*
X21968992Y-16816793D01*
X21968992Y-16816793D02*
X22016611Y-16816793D01*
X22016611Y-16816793D02*
X22035658Y-16807270D01*
X22102325Y-16759650D02*
X22178515Y-16759650D01*
X22130896Y-16692984D02*
X22130896Y-16864412D01*
X22130896Y-16864412D02*
X22140420Y-16883460D01*
X22140420Y-16883460D02*
X22159468Y-16892984D01*
X22159468Y-16892984D02*
X22178515Y-16892984D01*
X22321373Y-16883460D02*
X22302325Y-16892984D01*
X22302325Y-16892984D02*
X22264230Y-16892984D01*
X22264230Y-16892984D02*
X22245182Y-16883460D01*
X22245182Y-16883460D02*
X22235658Y-16864412D01*
X22235658Y-16864412D02*
X22235658Y-16788222D01*
X22235658Y-16788222D02*
X22245182Y-16769174D01*
X22245182Y-16769174D02*
X22264230Y-16759650D01*
X22264230Y-16759650D02*
X22302325Y-16759650D01*
X22302325Y-16759650D02*
X22321373Y-16769174D01*
X22321373Y-16769174D02*
X22330896Y-16788222D01*
X22330896Y-16788222D02*
X22330896Y-16807270D01*
X22330896Y-16807270D02*
X22235658Y-16826317D01*
X22502325Y-16892984D02*
X22502325Y-16692984D01*
X22502325Y-16883460D02*
X22483277Y-16892984D01*
X22483277Y-16892984D02*
X22445182Y-16892984D01*
X22445182Y-16892984D02*
X22426134Y-16883460D01*
X22426134Y-16883460D02*
X22416611Y-16873936D01*
X22416611Y-16873936D02*
X22407087Y-16854889D01*
X22407087Y-16854889D02*
X22407087Y-16797746D01*
X22407087Y-16797746D02*
X22416611Y-16778698D01*
X22416611Y-16778698D02*
X22426134Y-16769174D01*
X22426134Y-16769174D02*
X22445182Y-16759650D01*
X22445182Y-16759650D02*
X22483277Y-16759650D01*
X22483277Y-16759650D02*
X22502325Y-16769174D01*
X22578515Y-16969174D02*
X22588039Y-16959650D01*
X22588039Y-16959650D02*
X22607087Y-16931079D01*
X22607087Y-16931079D02*
X22616611Y-16912031D01*
X22616611Y-16912031D02*
X22626134Y-16883460D01*
X22626134Y-16883460D02*
X22635658Y-16835841D01*
X22635658Y-16835841D02*
X22635658Y-16797746D01*
X22635658Y-16797746D02*
X22626134Y-16750127D01*
X22626134Y-16750127D02*
X22616611Y-16721555D01*
X22616611Y-16721555D02*
X22607087Y-16702508D01*
X22607087Y-16702508D02*
X22588039Y-16673936D01*
X22588039Y-16673936D02*
X22578515Y-16664412D01*
X15793211Y-17192211D02*
X15793211Y-17050789D01*
X15651789Y-17050789D01*
X15651789Y-17192211D01*
X15793211Y-17192211D01*
X16064229Y-17012984D02*
X16188039Y-17012984D01*
X16188039Y-17012984D02*
X16121372Y-17089174D01*
X16121372Y-17089174D02*
X16149943Y-17089174D01*
X16149943Y-17089174D02*
X16168991Y-17098698D01*
X16168991Y-17098698D02*
X16178515Y-17108222D01*
X16178515Y-17108222D02*
X16188039Y-17127270D01*
X16188039Y-17127270D02*
X16188039Y-17174889D01*
X16188039Y-17174889D02*
X16178515Y-17193936D01*
X16178515Y-17193936D02*
X16168991Y-17203460D01*
X16168991Y-17203460D02*
X16149943Y-17212984D01*
X16149943Y-17212984D02*
X16092801Y-17212984D01*
X16092801Y-17212984D02*
X16073753Y-17203460D01*
X16073753Y-17203460D02*
X16064229Y-17193936D01*
X16273753Y-17193936D02*
X16283277Y-17203460D01*
X16283277Y-17203460D02*
X16273753Y-17212984D01*
X16273753Y-17212984D02*
X16264229Y-17203460D01*
X16264229Y-17203460D02*
X16273753Y-17193936D01*
X16273753Y-17193936D02*
X16273753Y-17212984D01*
X16359467Y-17032031D02*
X16368991Y-17022508D01*
X16368991Y-17022508D02*
X16388039Y-17012984D01*
X16388039Y-17012984D02*
X16435658Y-17012984D01*
X16435658Y-17012984D02*
X16454705Y-17022508D01*
X16454705Y-17022508D02*
X16464229Y-17032031D01*
X16464229Y-17032031D02*
X16473753Y-17051079D01*
X16473753Y-17051079D02*
X16473753Y-17070127D01*
X16473753Y-17070127D02*
X16464229Y-17098698D01*
X16464229Y-17098698D02*
X16349943Y-17212984D01*
X16349943Y-17212984D02*
X16473753Y-17212984D01*
X16597562Y-17012984D02*
X16616610Y-17012984D01*
X16616610Y-17012984D02*
X16635658Y-17022508D01*
X16635658Y-17022508D02*
X16645182Y-17032031D01*
X16645182Y-17032031D02*
X16654705Y-17051079D01*
X16654705Y-17051079D02*
X16664229Y-17089174D01*
X16664229Y-17089174D02*
X16664229Y-17136793D01*
X16664229Y-17136793D02*
X16654705Y-17174889D01*
X16654705Y-17174889D02*
X16645182Y-17193936D01*
X16645182Y-17193936D02*
X16635658Y-17203460D01*
X16635658Y-17203460D02*
X16616610Y-17212984D01*
X16616610Y-17212984D02*
X16597562Y-17212984D01*
X16597562Y-17212984D02*
X16578515Y-17203460D01*
X16578515Y-17203460D02*
X16568991Y-17193936D01*
X16568991Y-17193936D02*
X16559467Y-17174889D01*
X16559467Y-17174889D02*
X16549943Y-17136793D01*
X16549943Y-17136793D02*
X16549943Y-17089174D01*
X16549943Y-17089174D02*
X16559467Y-17051079D01*
X16559467Y-17051079D02*
X16568991Y-17032031D01*
X16568991Y-17032031D02*
X16578515Y-17022508D01*
X16578515Y-17022508D02*
X16597562Y-17012984D01*
X16788039Y-17012984D02*
X16807086Y-17012984D01*
X16807086Y-17012984D02*
X16826134Y-17022508D01*
X16826134Y-17022508D02*
X16835658Y-17032031D01*
X16835658Y-17032031D02*
X16845182Y-17051079D01*
X16845182Y-17051079D02*
X16854705Y-17089174D01*
X16854705Y-17089174D02*
X16854705Y-17136793D01*
X16854705Y-17136793D02*
X16845182Y-17174889D01*
X16845182Y-17174889D02*
X16835658Y-17193936D01*
X16835658Y-17193936D02*
X16826134Y-17203460D01*
X16826134Y-17203460D02*
X16807086Y-17212984D01*
X16807086Y-17212984D02*
X16788039Y-17212984D01*
X16788039Y-17212984D02*
X16768991Y-17203460D01*
X16768991Y-17203460D02*
X16759467Y-17193936D01*
X16759467Y-17193936D02*
X16749943Y-17174889D01*
X16749943Y-17174889D02*
X16740420Y-17136793D01*
X16740420Y-17136793D02*
X16740420Y-17089174D01*
X16740420Y-17089174D02*
X16749943Y-17051079D01*
X16749943Y-17051079D02*
X16759467Y-17032031D01*
X16759467Y-17032031D02*
X16768991Y-17022508D01*
X16768991Y-17022508D02*
X16788039Y-17012984D01*
X16940420Y-17212984D02*
X16940420Y-17079650D01*
X16940420Y-17098698D02*
X16949944Y-17089174D01*
X16949944Y-17089174D02*
X16968991Y-17079650D01*
X16968991Y-17079650D02*
X16997563Y-17079650D01*
X16997563Y-17079650D02*
X17016610Y-17089174D01*
X17016610Y-17089174D02*
X17026134Y-17108222D01*
X17026134Y-17108222D02*
X17026134Y-17212984D01*
X17026134Y-17108222D02*
X17035658Y-17089174D01*
X17035658Y-17089174D02*
X17054705Y-17079650D01*
X17054705Y-17079650D02*
X17083277Y-17079650D01*
X17083277Y-17079650D02*
X17102325Y-17089174D01*
X17102325Y-17089174D02*
X17111848Y-17108222D01*
X17111848Y-17108222D02*
X17111848Y-17212984D01*
X17207086Y-17212984D02*
X17207086Y-17079650D01*
X17207086Y-17098698D02*
X17216610Y-17089174D01*
X17216610Y-17089174D02*
X17235658Y-17079650D01*
X17235658Y-17079650D02*
X17264229Y-17079650D01*
X17264229Y-17079650D02*
X17283277Y-17089174D01*
X17283277Y-17089174D02*
X17292801Y-17108222D01*
X17292801Y-17108222D02*
X17292801Y-17212984D01*
X17292801Y-17108222D02*
X17302325Y-17089174D01*
X17302325Y-17089174D02*
X17321372Y-17079650D01*
X17321372Y-17079650D02*
X17349944Y-17079650D01*
X17349944Y-17079650D02*
X17368991Y-17089174D01*
X17368991Y-17089174D02*
X17378515Y-17108222D01*
X17378515Y-17108222D02*
X17378515Y-17212984D01*
X17768991Y-17003460D02*
X17597563Y-17260603D01*
X18026134Y-17012984D02*
X18045182Y-17012984D01*
X18045182Y-17012984D02*
X18064229Y-17022508D01*
X18064229Y-17022508D02*
X18073753Y-17032031D01*
X18073753Y-17032031D02*
X18083277Y-17051079D01*
X18083277Y-17051079D02*
X18092801Y-17089174D01*
X18092801Y-17089174D02*
X18092801Y-17136793D01*
X18092801Y-17136793D02*
X18083277Y-17174889D01*
X18083277Y-17174889D02*
X18073753Y-17193936D01*
X18073753Y-17193936D02*
X18064229Y-17203460D01*
X18064229Y-17203460D02*
X18045182Y-17212984D01*
X18045182Y-17212984D02*
X18026134Y-17212984D01*
X18026134Y-17212984D02*
X18007087Y-17203460D01*
X18007087Y-17203460D02*
X17997563Y-17193936D01*
X17997563Y-17193936D02*
X17988039Y-17174889D01*
X17988039Y-17174889D02*
X17978515Y-17136793D01*
X17978515Y-17136793D02*
X17978515Y-17089174D01*
X17978515Y-17089174D02*
X17988039Y-17051079D01*
X17988039Y-17051079D02*
X17997563Y-17032031D01*
X17997563Y-17032031D02*
X18007087Y-17022508D01*
X18007087Y-17022508D02*
X18026134Y-17012984D01*
X18178515Y-17193936D02*
X18188039Y-17203460D01*
X18188039Y-17203460D02*
X18178515Y-17212984D01*
X18178515Y-17212984D02*
X18168991Y-17203460D01*
X18168991Y-17203460D02*
X18178515Y-17193936D01*
X18178515Y-17193936D02*
X18178515Y-17212984D01*
X18378515Y-17212984D02*
X18264229Y-17212984D01*
X18321372Y-17212984D02*
X18321372Y-17012984D01*
X18321372Y-17012984D02*
X18302325Y-17041555D01*
X18302325Y-17041555D02*
X18283277Y-17060603D01*
X18283277Y-17060603D02*
X18264229Y-17070127D01*
X18454706Y-17032031D02*
X18464229Y-17022508D01*
X18464229Y-17022508D02*
X18483277Y-17012984D01*
X18483277Y-17012984D02*
X18530896Y-17012984D01*
X18530896Y-17012984D02*
X18549944Y-17022508D01*
X18549944Y-17022508D02*
X18559468Y-17032031D01*
X18559468Y-17032031D02*
X18568991Y-17051079D01*
X18568991Y-17051079D02*
X18568991Y-17070127D01*
X18568991Y-17070127D02*
X18559468Y-17098698D01*
X18559468Y-17098698D02*
X18445182Y-17212984D01*
X18445182Y-17212984D02*
X18568991Y-17212984D01*
X18740420Y-17012984D02*
X18702325Y-17012984D01*
X18702325Y-17012984D02*
X18683277Y-17022508D01*
X18683277Y-17022508D02*
X18673753Y-17032031D01*
X18673753Y-17032031D02*
X18654706Y-17060603D01*
X18654706Y-17060603D02*
X18645182Y-17098698D01*
X18645182Y-17098698D02*
X18645182Y-17174889D01*
X18645182Y-17174889D02*
X18654706Y-17193936D01*
X18654706Y-17193936D02*
X18664229Y-17203460D01*
X18664229Y-17203460D02*
X18683277Y-17212984D01*
X18683277Y-17212984D02*
X18721372Y-17212984D01*
X18721372Y-17212984D02*
X18740420Y-17203460D01*
X18740420Y-17203460D02*
X18749944Y-17193936D01*
X18749944Y-17193936D02*
X18759468Y-17174889D01*
X18759468Y-17174889D02*
X18759468Y-17127270D01*
X18759468Y-17127270D02*
X18749944Y-17108222D01*
X18749944Y-17108222D02*
X18740420Y-17098698D01*
X18740420Y-17098698D02*
X18721372Y-17089174D01*
X18721372Y-17089174D02*
X18683277Y-17089174D01*
X18683277Y-17089174D02*
X18664229Y-17098698D01*
X18664229Y-17098698D02*
X18654706Y-17108222D01*
X18654706Y-17108222D02*
X18645182Y-17127270D01*
X18883277Y-17012984D02*
X18902325Y-17012984D01*
X18902325Y-17012984D02*
X18921372Y-17022508D01*
X18921372Y-17022508D02*
X18930896Y-17032031D01*
X18930896Y-17032031D02*
X18940420Y-17051079D01*
X18940420Y-17051079D02*
X18949944Y-17089174D01*
X18949944Y-17089174D02*
X18949944Y-17136793D01*
X18949944Y-17136793D02*
X18940420Y-17174889D01*
X18940420Y-17174889D02*
X18930896Y-17193936D01*
X18930896Y-17193936D02*
X18921372Y-17203460D01*
X18921372Y-17203460D02*
X18902325Y-17212984D01*
X18902325Y-17212984D02*
X18883277Y-17212984D01*
X18883277Y-17212984D02*
X18864229Y-17203460D01*
X18864229Y-17203460D02*
X18854706Y-17193936D01*
X18854706Y-17193936D02*
X18845182Y-17174889D01*
X18845182Y-17174889D02*
X18835658Y-17136793D01*
X18835658Y-17136793D02*
X18835658Y-17089174D01*
X18835658Y-17089174D02*
X18845182Y-17051079D01*
X18845182Y-17051079D02*
X18854706Y-17032031D01*
X18854706Y-17032031D02*
X18864229Y-17022508D01*
X18864229Y-17022508D02*
X18883277Y-17012984D01*
X19026134Y-17012984D02*
X19026134Y-17051079D01*
X19102325Y-17012984D02*
X19102325Y-17051079D01*
X19397563Y-17289174D02*
X19388039Y-17279650D01*
X19388039Y-17279650D02*
X19368991Y-17251079D01*
X19368991Y-17251079D02*
X19359468Y-17232031D01*
X19359468Y-17232031D02*
X19349944Y-17203460D01*
X19349944Y-17203460D02*
X19340420Y-17155841D01*
X19340420Y-17155841D02*
X19340420Y-17117746D01*
X19340420Y-17117746D02*
X19349944Y-17070127D01*
X19349944Y-17070127D02*
X19359468Y-17041555D01*
X19359468Y-17041555D02*
X19368991Y-17022508D01*
X19368991Y-17022508D02*
X19388039Y-16993936D01*
X19388039Y-16993936D02*
X19397563Y-16984412D01*
X19559468Y-17079650D02*
X19559468Y-17212984D01*
X19511849Y-17003460D02*
X19464230Y-17146317D01*
X19464230Y-17146317D02*
X19588039Y-17146317D01*
X19816611Y-17212984D02*
X19816611Y-17012984D01*
X19902325Y-17212984D02*
X19902325Y-17108222D01*
X19902325Y-17108222D02*
X19892801Y-17089174D01*
X19892801Y-17089174D02*
X19873753Y-17079650D01*
X19873753Y-17079650D02*
X19845182Y-17079650D01*
X19845182Y-17079650D02*
X19826134Y-17089174D01*
X19826134Y-17089174D02*
X19816611Y-17098698D01*
X20026134Y-17212984D02*
X20007087Y-17203460D01*
X20007087Y-17203460D02*
X19997563Y-17193936D01*
X19997563Y-17193936D02*
X19988039Y-17174889D01*
X19988039Y-17174889D02*
X19988039Y-17117746D01*
X19988039Y-17117746D02*
X19997563Y-17098698D01*
X19997563Y-17098698D02*
X20007087Y-17089174D01*
X20007087Y-17089174D02*
X20026134Y-17079650D01*
X20026134Y-17079650D02*
X20054706Y-17079650D01*
X20054706Y-17079650D02*
X20073753Y-17089174D01*
X20073753Y-17089174D02*
X20083277Y-17098698D01*
X20083277Y-17098698D02*
X20092801Y-17117746D01*
X20092801Y-17117746D02*
X20092801Y-17174889D01*
X20092801Y-17174889D02*
X20083277Y-17193936D01*
X20083277Y-17193936D02*
X20073753Y-17203460D01*
X20073753Y-17203460D02*
X20054706Y-17212984D01*
X20054706Y-17212984D02*
X20026134Y-17212984D01*
X20207087Y-17212984D02*
X20188039Y-17203460D01*
X20188039Y-17203460D02*
X20178515Y-17184412D01*
X20178515Y-17184412D02*
X20178515Y-17012984D01*
X20359468Y-17203460D02*
X20340420Y-17212984D01*
X20340420Y-17212984D02*
X20302325Y-17212984D01*
X20302325Y-17212984D02*
X20283277Y-17203460D01*
X20283277Y-17203460D02*
X20273753Y-17184412D01*
X20273753Y-17184412D02*
X20273753Y-17108222D01*
X20273753Y-17108222D02*
X20283277Y-17089174D01*
X20283277Y-17089174D02*
X20302325Y-17079650D01*
X20302325Y-17079650D02*
X20340420Y-17079650D01*
X20340420Y-17079650D02*
X20359468Y-17089174D01*
X20359468Y-17089174D02*
X20368992Y-17108222D01*
X20368992Y-17108222D02*
X20368992Y-17127270D01*
X20368992Y-17127270D02*
X20273753Y-17146317D01*
X20445182Y-17203460D02*
X20464230Y-17212984D01*
X20464230Y-17212984D02*
X20502325Y-17212984D01*
X20502325Y-17212984D02*
X20521373Y-17203460D01*
X20521373Y-17203460D02*
X20530896Y-17184412D01*
X20530896Y-17184412D02*
X20530896Y-17174889D01*
X20530896Y-17174889D02*
X20521373Y-17155841D01*
X20521373Y-17155841D02*
X20502325Y-17146317D01*
X20502325Y-17146317D02*
X20473753Y-17146317D01*
X20473753Y-17146317D02*
X20454706Y-17136793D01*
X20454706Y-17136793D02*
X20445182Y-17117746D01*
X20445182Y-17117746D02*
X20445182Y-17108222D01*
X20445182Y-17108222D02*
X20454706Y-17089174D01*
X20454706Y-17089174D02*
X20473753Y-17079650D01*
X20473753Y-17079650D02*
X20502325Y-17079650D01*
X20502325Y-17079650D02*
X20521373Y-17089174D01*
X20597563Y-17289174D02*
X20607087Y-17279650D01*
X20607087Y-17279650D02*
X20626134Y-17251079D01*
X20626134Y-17251079D02*
X20635658Y-17232031D01*
X20635658Y-17232031D02*
X20645182Y-17203460D01*
X20645182Y-17203460D02*
X20654706Y-17155841D01*
X20654706Y-17155841D02*
X20654706Y-17117746D01*
X20654706Y-17117746D02*
X20645182Y-17070127D01*
X20645182Y-17070127D02*
X20635658Y-17041555D01*
X20635658Y-17041555D02*
X20626134Y-17022508D01*
X20626134Y-17022508D02*
X20607087Y-16993936D01*
X20607087Y-16993936D02*
X20597563Y-16984412D01*
X20959468Y-17289174D02*
X20949944Y-17279650D01*
X20949944Y-17279650D02*
X20930896Y-17251079D01*
X20930896Y-17251079D02*
X20921373Y-17232031D01*
X20921373Y-17232031D02*
X20911849Y-17203460D01*
X20911849Y-17203460D02*
X20902325Y-17155841D01*
X20902325Y-17155841D02*
X20902325Y-17117746D01*
X20902325Y-17117746D02*
X20911849Y-17070127D01*
X20911849Y-17070127D02*
X20921373Y-17041555D01*
X20921373Y-17041555D02*
X20930896Y-17022508D01*
X20930896Y-17022508D02*
X20949944Y-16993936D01*
X20949944Y-16993936D02*
X20959468Y-16984412D01*
X21035658Y-17079650D02*
X21035658Y-17212984D01*
X21035658Y-17098698D02*
X21045182Y-17089174D01*
X21045182Y-17089174D02*
X21064230Y-17079650D01*
X21064230Y-17079650D02*
X21092801Y-17079650D01*
X21092801Y-17079650D02*
X21111849Y-17089174D01*
X21111849Y-17089174D02*
X21121373Y-17108222D01*
X21121373Y-17108222D02*
X21121373Y-17212984D01*
X21245182Y-17212984D02*
X21226134Y-17203460D01*
X21226134Y-17203460D02*
X21216611Y-17193936D01*
X21216611Y-17193936D02*
X21207087Y-17174889D01*
X21207087Y-17174889D02*
X21207087Y-17117746D01*
X21207087Y-17117746D02*
X21216611Y-17098698D01*
X21216611Y-17098698D02*
X21226134Y-17089174D01*
X21226134Y-17089174D02*
X21245182Y-17079650D01*
X21245182Y-17079650D02*
X21273754Y-17079650D01*
X21273754Y-17079650D02*
X21292801Y-17089174D01*
X21292801Y-17089174D02*
X21302325Y-17098698D01*
X21302325Y-17098698D02*
X21311849Y-17117746D01*
X21311849Y-17117746D02*
X21311849Y-17174889D01*
X21311849Y-17174889D02*
X21302325Y-17193936D01*
X21302325Y-17193936D02*
X21292801Y-17203460D01*
X21292801Y-17203460D02*
X21273754Y-17212984D01*
X21273754Y-17212984D02*
X21245182Y-17212984D01*
X21368992Y-17079650D02*
X21445182Y-17079650D01*
X21397563Y-17012984D02*
X21397563Y-17184412D01*
X21397563Y-17184412D02*
X21407087Y-17203460D01*
X21407087Y-17203460D02*
X21426134Y-17212984D01*
X21426134Y-17212984D02*
X21445182Y-17212984D01*
X21664230Y-17079650D02*
X21664230Y-17279650D01*
X21664230Y-17089174D02*
X21683277Y-17079650D01*
X21683277Y-17079650D02*
X21721373Y-17079650D01*
X21721373Y-17079650D02*
X21740420Y-17089174D01*
X21740420Y-17089174D02*
X21749944Y-17098698D01*
X21749944Y-17098698D02*
X21759468Y-17117746D01*
X21759468Y-17117746D02*
X21759468Y-17174889D01*
X21759468Y-17174889D02*
X21749944Y-17193936D01*
X21749944Y-17193936D02*
X21740420Y-17203460D01*
X21740420Y-17203460D02*
X21721373Y-17212984D01*
X21721373Y-17212984D02*
X21683277Y-17212984D01*
X21683277Y-17212984D02*
X21664230Y-17203460D01*
X21873754Y-17212984D02*
X21854706Y-17203460D01*
X21854706Y-17203460D02*
X21845182Y-17184412D01*
X21845182Y-17184412D02*
X21845182Y-17012984D01*
X22035658Y-17212984D02*
X22035658Y-17108222D01*
X22035658Y-17108222D02*
X22026135Y-17089174D01*
X22026135Y-17089174D02*
X22007087Y-17079650D01*
X22007087Y-17079650D02*
X21968992Y-17079650D01*
X21968992Y-17079650D02*
X21949944Y-17089174D01*
X22035658Y-17203460D02*
X22016611Y-17212984D01*
X22016611Y-17212984D02*
X21968992Y-17212984D01*
X21968992Y-17212984D02*
X21949944Y-17203460D01*
X21949944Y-17203460D02*
X21940420Y-17184412D01*
X21940420Y-17184412D02*
X21940420Y-17165365D01*
X21940420Y-17165365D02*
X21949944Y-17146317D01*
X21949944Y-17146317D02*
X21968992Y-17136793D01*
X21968992Y-17136793D02*
X22016611Y-17136793D01*
X22016611Y-17136793D02*
X22035658Y-17127270D01*
X22102325Y-17079650D02*
X22178515Y-17079650D01*
X22130896Y-17012984D02*
X22130896Y-17184412D01*
X22130896Y-17184412D02*
X22140420Y-17203460D01*
X22140420Y-17203460D02*
X22159468Y-17212984D01*
X22159468Y-17212984D02*
X22178515Y-17212984D01*
X22321373Y-17203460D02*
X22302325Y-17212984D01*
X22302325Y-17212984D02*
X22264230Y-17212984D01*
X22264230Y-17212984D02*
X22245182Y-17203460D01*
X22245182Y-17203460D02*
X22235658Y-17184412D01*
X22235658Y-17184412D02*
X22235658Y-17108222D01*
X22235658Y-17108222D02*
X22245182Y-17089174D01*
X22245182Y-17089174D02*
X22264230Y-17079650D01*
X22264230Y-17079650D02*
X22302325Y-17079650D01*
X22302325Y-17079650D02*
X22321373Y-17089174D01*
X22321373Y-17089174D02*
X22330896Y-17108222D01*
X22330896Y-17108222D02*
X22330896Y-17127270D01*
X22330896Y-17127270D02*
X22235658Y-17146317D01*
X22502325Y-17212984D02*
X22502325Y-17012984D01*
X22502325Y-17203460D02*
X22483277Y-17212984D01*
X22483277Y-17212984D02*
X22445182Y-17212984D01*
X22445182Y-17212984D02*
X22426134Y-17203460D01*
X22426134Y-17203460D02*
X22416611Y-17193936D01*
X22416611Y-17193936D02*
X22407087Y-17174889D01*
X22407087Y-17174889D02*
X22407087Y-17117746D01*
X22407087Y-17117746D02*
X22416611Y-17098698D01*
X22416611Y-17098698D02*
X22426134Y-17089174D01*
X22426134Y-17089174D02*
X22445182Y-17079650D01*
X22445182Y-17079650D02*
X22483277Y-17079650D01*
X22483277Y-17079650D02*
X22502325Y-17089174D01*
X22578515Y-17289174D02*
X22588039Y-17279650D01*
X22588039Y-17279650D02*
X22607087Y-17251079D01*
X22607087Y-17251079D02*
X22616611Y-17232031D01*
X22616611Y-17232031D02*
X22626134Y-17203460D01*
X22626134Y-17203460D02*
X22635658Y-17155841D01*
X22635658Y-17155841D02*
X22635658Y-17117746D01*
X22635658Y-17117746D02*
X22626134Y-17070127D01*
X22626134Y-17070127D02*
X22616611Y-17041555D01*
X22616611Y-17041555D02*
X22607087Y-17022508D01*
X22607087Y-17022508D02*
X22588039Y-16993936D01*
X22588039Y-16993936D02*
X22578515Y-16984412D01*
X15722500Y-17541500D02*
X15822500Y-17441500D01*
X15722500Y-17341500D01*
X15622500Y-17441500D01*
X15722500Y-17541500D01*
X16064229Y-17332984D02*
X16188039Y-17332984D01*
X16188039Y-17332984D02*
X16121372Y-17409174D01*
X16121372Y-17409174D02*
X16149943Y-17409174D01*
X16149943Y-17409174D02*
X16168991Y-17418698D01*
X16168991Y-17418698D02*
X16178515Y-17428222D01*
X16178515Y-17428222D02*
X16188039Y-17447270D01*
X16188039Y-17447270D02*
X16188039Y-17494889D01*
X16188039Y-17494889D02*
X16178515Y-17513936D01*
X16178515Y-17513936D02*
X16168991Y-17523460D01*
X16168991Y-17523460D02*
X16149943Y-17532984D01*
X16149943Y-17532984D02*
X16092801Y-17532984D01*
X16092801Y-17532984D02*
X16073753Y-17523460D01*
X16073753Y-17523460D02*
X16064229Y-17513936D01*
X16273753Y-17513936D02*
X16283277Y-17523460D01*
X16283277Y-17523460D02*
X16273753Y-17532984D01*
X16273753Y-17532984D02*
X16264229Y-17523460D01*
X16264229Y-17523460D02*
X16273753Y-17513936D01*
X16273753Y-17513936D02*
X16273753Y-17532984D01*
X16378515Y-17532984D02*
X16416610Y-17532984D01*
X16416610Y-17532984D02*
X16435658Y-17523460D01*
X16435658Y-17523460D02*
X16445182Y-17513936D01*
X16445182Y-17513936D02*
X16464229Y-17485365D01*
X16464229Y-17485365D02*
X16473753Y-17447270D01*
X16473753Y-17447270D02*
X16473753Y-17371079D01*
X16473753Y-17371079D02*
X16464229Y-17352031D01*
X16464229Y-17352031D02*
X16454705Y-17342508D01*
X16454705Y-17342508D02*
X16435658Y-17332984D01*
X16435658Y-17332984D02*
X16397562Y-17332984D01*
X16397562Y-17332984D02*
X16378515Y-17342508D01*
X16378515Y-17342508D02*
X16368991Y-17352031D01*
X16368991Y-17352031D02*
X16359467Y-17371079D01*
X16359467Y-17371079D02*
X16359467Y-17418698D01*
X16359467Y-17418698D02*
X16368991Y-17437746D01*
X16368991Y-17437746D02*
X16378515Y-17447270D01*
X16378515Y-17447270D02*
X16397562Y-17456793D01*
X16397562Y-17456793D02*
X16435658Y-17456793D01*
X16435658Y-17456793D02*
X16454705Y-17447270D01*
X16454705Y-17447270D02*
X16464229Y-17437746D01*
X16464229Y-17437746D02*
X16473753Y-17418698D01*
X16588039Y-17418698D02*
X16568991Y-17409174D01*
X16568991Y-17409174D02*
X16559467Y-17399650D01*
X16559467Y-17399650D02*
X16549943Y-17380603D01*
X16549943Y-17380603D02*
X16549943Y-17371079D01*
X16549943Y-17371079D02*
X16559467Y-17352031D01*
X16559467Y-17352031D02*
X16568991Y-17342508D01*
X16568991Y-17342508D02*
X16588039Y-17332984D01*
X16588039Y-17332984D02*
X16626134Y-17332984D01*
X16626134Y-17332984D02*
X16645182Y-17342508D01*
X16645182Y-17342508D02*
X16654705Y-17352031D01*
X16654705Y-17352031D02*
X16664229Y-17371079D01*
X16664229Y-17371079D02*
X16664229Y-17380603D01*
X16664229Y-17380603D02*
X16654705Y-17399650D01*
X16654705Y-17399650D02*
X16645182Y-17409174D01*
X16645182Y-17409174D02*
X16626134Y-17418698D01*
X16626134Y-17418698D02*
X16588039Y-17418698D01*
X16588039Y-17418698D02*
X16568991Y-17428222D01*
X16568991Y-17428222D02*
X16559467Y-17437746D01*
X16559467Y-17437746D02*
X16549943Y-17456793D01*
X16549943Y-17456793D02*
X16549943Y-17494889D01*
X16549943Y-17494889D02*
X16559467Y-17513936D01*
X16559467Y-17513936D02*
X16568991Y-17523460D01*
X16568991Y-17523460D02*
X16588039Y-17532984D01*
X16588039Y-17532984D02*
X16626134Y-17532984D01*
X16626134Y-17532984D02*
X16645182Y-17523460D01*
X16645182Y-17523460D02*
X16654705Y-17513936D01*
X16654705Y-17513936D02*
X16664229Y-17494889D01*
X16664229Y-17494889D02*
X16664229Y-17456793D01*
X16664229Y-17456793D02*
X16654705Y-17437746D01*
X16654705Y-17437746D02*
X16645182Y-17428222D01*
X16645182Y-17428222D02*
X16626134Y-17418698D01*
X16778515Y-17418698D02*
X16759467Y-17409174D01*
X16759467Y-17409174D02*
X16749943Y-17399650D01*
X16749943Y-17399650D02*
X16740420Y-17380603D01*
X16740420Y-17380603D02*
X16740420Y-17371079D01*
X16740420Y-17371079D02*
X16749943Y-17352031D01*
X16749943Y-17352031D02*
X16759467Y-17342508D01*
X16759467Y-17342508D02*
X16778515Y-17332984D01*
X16778515Y-17332984D02*
X16816610Y-17332984D01*
X16816610Y-17332984D02*
X16835658Y-17342508D01*
X16835658Y-17342508D02*
X16845182Y-17352031D01*
X16845182Y-17352031D02*
X16854705Y-17371079D01*
X16854705Y-17371079D02*
X16854705Y-17380603D01*
X16854705Y-17380603D02*
X16845182Y-17399650D01*
X16845182Y-17399650D02*
X16835658Y-17409174D01*
X16835658Y-17409174D02*
X16816610Y-17418698D01*
X16816610Y-17418698D02*
X16778515Y-17418698D01*
X16778515Y-17418698D02*
X16759467Y-17428222D01*
X16759467Y-17428222D02*
X16749943Y-17437746D01*
X16749943Y-17437746D02*
X16740420Y-17456793D01*
X16740420Y-17456793D02*
X16740420Y-17494889D01*
X16740420Y-17494889D02*
X16749943Y-17513936D01*
X16749943Y-17513936D02*
X16759467Y-17523460D01*
X16759467Y-17523460D02*
X16778515Y-17532984D01*
X16778515Y-17532984D02*
X16816610Y-17532984D01*
X16816610Y-17532984D02*
X16835658Y-17523460D01*
X16835658Y-17523460D02*
X16845182Y-17513936D01*
X16845182Y-17513936D02*
X16854705Y-17494889D01*
X16854705Y-17494889D02*
X16854705Y-17456793D01*
X16854705Y-17456793D02*
X16845182Y-17437746D01*
X16845182Y-17437746D02*
X16835658Y-17428222D01*
X16835658Y-17428222D02*
X16816610Y-17418698D01*
X16940420Y-17532984D02*
X16940420Y-17399650D01*
X16940420Y-17418698D02*
X16949944Y-17409174D01*
X16949944Y-17409174D02*
X16968991Y-17399650D01*
X16968991Y-17399650D02*
X16997563Y-17399650D01*
X16997563Y-17399650D02*
X17016610Y-17409174D01*
X17016610Y-17409174D02*
X17026134Y-17428222D01*
X17026134Y-17428222D02*
X17026134Y-17532984D01*
X17026134Y-17428222D02*
X17035658Y-17409174D01*
X17035658Y-17409174D02*
X17054705Y-17399650D01*
X17054705Y-17399650D02*
X17083277Y-17399650D01*
X17083277Y-17399650D02*
X17102325Y-17409174D01*
X17102325Y-17409174D02*
X17111848Y-17428222D01*
X17111848Y-17428222D02*
X17111848Y-17532984D01*
X17207086Y-17532984D02*
X17207086Y-17399650D01*
X17207086Y-17418698D02*
X17216610Y-17409174D01*
X17216610Y-17409174D02*
X17235658Y-17399650D01*
X17235658Y-17399650D02*
X17264229Y-17399650D01*
X17264229Y-17399650D02*
X17283277Y-17409174D01*
X17283277Y-17409174D02*
X17292801Y-17428222D01*
X17292801Y-17428222D02*
X17292801Y-17532984D01*
X17292801Y-17428222D02*
X17302325Y-17409174D01*
X17302325Y-17409174D02*
X17321372Y-17399650D01*
X17321372Y-17399650D02*
X17349944Y-17399650D01*
X17349944Y-17399650D02*
X17368991Y-17409174D01*
X17368991Y-17409174D02*
X17378515Y-17428222D01*
X17378515Y-17428222D02*
X17378515Y-17532984D01*
X17768991Y-17323460D02*
X17597563Y-17580603D01*
X18026134Y-17332984D02*
X18045182Y-17332984D01*
X18045182Y-17332984D02*
X18064229Y-17342508D01*
X18064229Y-17342508D02*
X18073753Y-17352031D01*
X18073753Y-17352031D02*
X18083277Y-17371079D01*
X18083277Y-17371079D02*
X18092801Y-17409174D01*
X18092801Y-17409174D02*
X18092801Y-17456793D01*
X18092801Y-17456793D02*
X18083277Y-17494889D01*
X18083277Y-17494889D02*
X18073753Y-17513936D01*
X18073753Y-17513936D02*
X18064229Y-17523460D01*
X18064229Y-17523460D02*
X18045182Y-17532984D01*
X18045182Y-17532984D02*
X18026134Y-17532984D01*
X18026134Y-17532984D02*
X18007087Y-17523460D01*
X18007087Y-17523460D02*
X17997563Y-17513936D01*
X17997563Y-17513936D02*
X17988039Y-17494889D01*
X17988039Y-17494889D02*
X17978515Y-17456793D01*
X17978515Y-17456793D02*
X17978515Y-17409174D01*
X17978515Y-17409174D02*
X17988039Y-17371079D01*
X17988039Y-17371079D02*
X17997563Y-17352031D01*
X17997563Y-17352031D02*
X18007087Y-17342508D01*
X18007087Y-17342508D02*
X18026134Y-17332984D01*
X18178515Y-17513936D02*
X18188039Y-17523460D01*
X18188039Y-17523460D02*
X18178515Y-17532984D01*
X18178515Y-17532984D02*
X18168991Y-17523460D01*
X18168991Y-17523460D02*
X18178515Y-17513936D01*
X18178515Y-17513936D02*
X18178515Y-17532984D01*
X18378515Y-17532984D02*
X18264229Y-17532984D01*
X18321372Y-17532984D02*
X18321372Y-17332984D01*
X18321372Y-17332984D02*
X18302325Y-17361555D01*
X18302325Y-17361555D02*
X18283277Y-17380603D01*
X18283277Y-17380603D02*
X18264229Y-17390127D01*
X18559468Y-17332984D02*
X18464229Y-17332984D01*
X18464229Y-17332984D02*
X18454706Y-17428222D01*
X18454706Y-17428222D02*
X18464229Y-17418698D01*
X18464229Y-17418698D02*
X18483277Y-17409174D01*
X18483277Y-17409174D02*
X18530896Y-17409174D01*
X18530896Y-17409174D02*
X18549944Y-17418698D01*
X18549944Y-17418698D02*
X18559468Y-17428222D01*
X18559468Y-17428222D02*
X18568991Y-17447270D01*
X18568991Y-17447270D02*
X18568991Y-17494889D01*
X18568991Y-17494889D02*
X18559468Y-17513936D01*
X18559468Y-17513936D02*
X18549944Y-17523460D01*
X18549944Y-17523460D02*
X18530896Y-17532984D01*
X18530896Y-17532984D02*
X18483277Y-17532984D01*
X18483277Y-17532984D02*
X18464229Y-17523460D01*
X18464229Y-17523460D02*
X18454706Y-17513936D01*
X18635658Y-17332984D02*
X18768991Y-17332984D01*
X18768991Y-17332984D02*
X18683277Y-17532984D01*
X18883277Y-17332984D02*
X18902325Y-17332984D01*
X18902325Y-17332984D02*
X18921372Y-17342508D01*
X18921372Y-17342508D02*
X18930896Y-17352031D01*
X18930896Y-17352031D02*
X18940420Y-17371079D01*
X18940420Y-17371079D02*
X18949944Y-17409174D01*
X18949944Y-17409174D02*
X18949944Y-17456793D01*
X18949944Y-17456793D02*
X18940420Y-17494889D01*
X18940420Y-17494889D02*
X18930896Y-17513936D01*
X18930896Y-17513936D02*
X18921372Y-17523460D01*
X18921372Y-17523460D02*
X18902325Y-17532984D01*
X18902325Y-17532984D02*
X18883277Y-17532984D01*
X18883277Y-17532984D02*
X18864229Y-17523460D01*
X18864229Y-17523460D02*
X18854706Y-17513936D01*
X18854706Y-17513936D02*
X18845182Y-17494889D01*
X18845182Y-17494889D02*
X18835658Y-17456793D01*
X18835658Y-17456793D02*
X18835658Y-17409174D01*
X18835658Y-17409174D02*
X18845182Y-17371079D01*
X18845182Y-17371079D02*
X18854706Y-17352031D01*
X18854706Y-17352031D02*
X18864229Y-17342508D01*
X18864229Y-17342508D02*
X18883277Y-17332984D01*
X19026134Y-17332984D02*
X19026134Y-17371079D01*
X19102325Y-17332984D02*
X19102325Y-17371079D01*
X19397563Y-17609174D02*
X19388039Y-17599650D01*
X19388039Y-17599650D02*
X19368991Y-17571079D01*
X19368991Y-17571079D02*
X19359468Y-17552031D01*
X19359468Y-17552031D02*
X19349944Y-17523460D01*
X19349944Y-17523460D02*
X19340420Y-17475841D01*
X19340420Y-17475841D02*
X19340420Y-17437746D01*
X19340420Y-17437746D02*
X19349944Y-17390127D01*
X19349944Y-17390127D02*
X19359468Y-17361555D01*
X19359468Y-17361555D02*
X19368991Y-17342508D01*
X19368991Y-17342508D02*
X19388039Y-17313936D01*
X19388039Y-17313936D02*
X19397563Y-17304412D01*
X19464230Y-17352031D02*
X19473753Y-17342508D01*
X19473753Y-17342508D02*
X19492801Y-17332984D01*
X19492801Y-17332984D02*
X19540420Y-17332984D01*
X19540420Y-17332984D02*
X19559468Y-17342508D01*
X19559468Y-17342508D02*
X19568991Y-17352031D01*
X19568991Y-17352031D02*
X19578515Y-17371079D01*
X19578515Y-17371079D02*
X19578515Y-17390127D01*
X19578515Y-17390127D02*
X19568991Y-17418698D01*
X19568991Y-17418698D02*
X19454706Y-17532984D01*
X19454706Y-17532984D02*
X19578515Y-17532984D01*
X19692801Y-17418698D02*
X19673753Y-17409174D01*
X19673753Y-17409174D02*
X19664230Y-17399650D01*
X19664230Y-17399650D02*
X19654706Y-17380603D01*
X19654706Y-17380603D02*
X19654706Y-17371079D01*
X19654706Y-17371079D02*
X19664230Y-17352031D01*
X19664230Y-17352031D02*
X19673753Y-17342508D01*
X19673753Y-17342508D02*
X19692801Y-17332984D01*
X19692801Y-17332984D02*
X19730896Y-17332984D01*
X19730896Y-17332984D02*
X19749944Y-17342508D01*
X19749944Y-17342508D02*
X19759468Y-17352031D01*
X19759468Y-17352031D02*
X19768991Y-17371079D01*
X19768991Y-17371079D02*
X19768991Y-17380603D01*
X19768991Y-17380603D02*
X19759468Y-17399650D01*
X19759468Y-17399650D02*
X19749944Y-17409174D01*
X19749944Y-17409174D02*
X19730896Y-17418698D01*
X19730896Y-17418698D02*
X19692801Y-17418698D01*
X19692801Y-17418698D02*
X19673753Y-17428222D01*
X19673753Y-17428222D02*
X19664230Y-17437746D01*
X19664230Y-17437746D02*
X19654706Y-17456793D01*
X19654706Y-17456793D02*
X19654706Y-17494889D01*
X19654706Y-17494889D02*
X19664230Y-17513936D01*
X19664230Y-17513936D02*
X19673753Y-17523460D01*
X19673753Y-17523460D02*
X19692801Y-17532984D01*
X19692801Y-17532984D02*
X19730896Y-17532984D01*
X19730896Y-17532984D02*
X19749944Y-17523460D01*
X19749944Y-17523460D02*
X19759468Y-17513936D01*
X19759468Y-17513936D02*
X19768991Y-17494889D01*
X19768991Y-17494889D02*
X19768991Y-17456793D01*
X19768991Y-17456793D02*
X19759468Y-17437746D01*
X19759468Y-17437746D02*
X19749944Y-17428222D01*
X19749944Y-17428222D02*
X19730896Y-17418698D01*
X20007087Y-17532984D02*
X20007087Y-17332984D01*
X20092801Y-17532984D02*
X20092801Y-17428222D01*
X20092801Y-17428222D02*
X20083277Y-17409174D01*
X20083277Y-17409174D02*
X20064230Y-17399650D01*
X20064230Y-17399650D02*
X20035658Y-17399650D01*
X20035658Y-17399650D02*
X20016611Y-17409174D01*
X20016611Y-17409174D02*
X20007087Y-17418698D01*
X20216611Y-17532984D02*
X20197563Y-17523460D01*
X20197563Y-17523460D02*
X20188039Y-17513936D01*
X20188039Y-17513936D02*
X20178515Y-17494889D01*
X20178515Y-17494889D02*
X20178515Y-17437746D01*
X20178515Y-17437746D02*
X20188039Y-17418698D01*
X20188039Y-17418698D02*
X20197563Y-17409174D01*
X20197563Y-17409174D02*
X20216611Y-17399650D01*
X20216611Y-17399650D02*
X20245182Y-17399650D01*
X20245182Y-17399650D02*
X20264230Y-17409174D01*
X20264230Y-17409174D02*
X20273753Y-17418698D01*
X20273753Y-17418698D02*
X20283277Y-17437746D01*
X20283277Y-17437746D02*
X20283277Y-17494889D01*
X20283277Y-17494889D02*
X20273753Y-17513936D01*
X20273753Y-17513936D02*
X20264230Y-17523460D01*
X20264230Y-17523460D02*
X20245182Y-17532984D01*
X20245182Y-17532984D02*
X20216611Y-17532984D01*
X20397563Y-17532984D02*
X20378515Y-17523460D01*
X20378515Y-17523460D02*
X20368992Y-17504412D01*
X20368992Y-17504412D02*
X20368992Y-17332984D01*
X20549944Y-17523460D02*
X20530896Y-17532984D01*
X20530896Y-17532984D02*
X20492801Y-17532984D01*
X20492801Y-17532984D02*
X20473753Y-17523460D01*
X20473753Y-17523460D02*
X20464230Y-17504412D01*
X20464230Y-17504412D02*
X20464230Y-17428222D01*
X20464230Y-17428222D02*
X20473753Y-17409174D01*
X20473753Y-17409174D02*
X20492801Y-17399650D01*
X20492801Y-17399650D02*
X20530896Y-17399650D01*
X20530896Y-17399650D02*
X20549944Y-17409174D01*
X20549944Y-17409174D02*
X20559468Y-17428222D01*
X20559468Y-17428222D02*
X20559468Y-17447270D01*
X20559468Y-17447270D02*
X20464230Y-17466317D01*
X20635658Y-17523460D02*
X20654706Y-17532984D01*
X20654706Y-17532984D02*
X20692801Y-17532984D01*
X20692801Y-17532984D02*
X20711849Y-17523460D01*
X20711849Y-17523460D02*
X20721373Y-17504412D01*
X20721373Y-17504412D02*
X20721373Y-17494889D01*
X20721373Y-17494889D02*
X20711849Y-17475841D01*
X20711849Y-17475841D02*
X20692801Y-17466317D01*
X20692801Y-17466317D02*
X20664230Y-17466317D01*
X20664230Y-17466317D02*
X20645182Y-17456793D01*
X20645182Y-17456793D02*
X20635658Y-17437746D01*
X20635658Y-17437746D02*
X20635658Y-17428222D01*
X20635658Y-17428222D02*
X20645182Y-17409174D01*
X20645182Y-17409174D02*
X20664230Y-17399650D01*
X20664230Y-17399650D02*
X20692801Y-17399650D01*
X20692801Y-17399650D02*
X20711849Y-17409174D01*
X20788039Y-17609174D02*
X20797563Y-17599650D01*
X20797563Y-17599650D02*
X20816611Y-17571079D01*
X20816611Y-17571079D02*
X20826134Y-17552031D01*
X20826134Y-17552031D02*
X20835658Y-17523460D01*
X20835658Y-17523460D02*
X20845182Y-17475841D01*
X20845182Y-17475841D02*
X20845182Y-17437746D01*
X20845182Y-17437746D02*
X20835658Y-17390127D01*
X20835658Y-17390127D02*
X20826134Y-17361555D01*
X20826134Y-17361555D02*
X20816611Y-17342508D01*
X20816611Y-17342508D02*
X20797563Y-17313936D01*
X20797563Y-17313936D02*
X20788039Y-17304412D01*
X21149944Y-17609174D02*
X21140420Y-17599650D01*
X21140420Y-17599650D02*
X21121373Y-17571079D01*
X21121373Y-17571079D02*
X21111849Y-17552031D01*
X21111849Y-17552031D02*
X21102325Y-17523460D01*
X21102325Y-17523460D02*
X21092801Y-17475841D01*
X21092801Y-17475841D02*
X21092801Y-17437746D01*
X21092801Y-17437746D02*
X21102325Y-17390127D01*
X21102325Y-17390127D02*
X21111849Y-17361555D01*
X21111849Y-17361555D02*
X21121373Y-17342508D01*
X21121373Y-17342508D02*
X21140420Y-17313936D01*
X21140420Y-17313936D02*
X21149944Y-17304412D01*
X21226134Y-17399650D02*
X21226134Y-17532984D01*
X21226134Y-17418698D02*
X21235658Y-17409174D01*
X21235658Y-17409174D02*
X21254706Y-17399650D01*
X21254706Y-17399650D02*
X21283277Y-17399650D01*
X21283277Y-17399650D02*
X21302325Y-17409174D01*
X21302325Y-17409174D02*
X21311849Y-17428222D01*
X21311849Y-17428222D02*
X21311849Y-17532984D01*
X21435658Y-17532984D02*
X21416611Y-17523460D01*
X21416611Y-17523460D02*
X21407087Y-17513936D01*
X21407087Y-17513936D02*
X21397563Y-17494889D01*
X21397563Y-17494889D02*
X21397563Y-17437746D01*
X21397563Y-17437746D02*
X21407087Y-17418698D01*
X21407087Y-17418698D02*
X21416611Y-17409174D01*
X21416611Y-17409174D02*
X21435658Y-17399650D01*
X21435658Y-17399650D02*
X21464230Y-17399650D01*
X21464230Y-17399650D02*
X21483277Y-17409174D01*
X21483277Y-17409174D02*
X21492801Y-17418698D01*
X21492801Y-17418698D02*
X21502325Y-17437746D01*
X21502325Y-17437746D02*
X21502325Y-17494889D01*
X21502325Y-17494889D02*
X21492801Y-17513936D01*
X21492801Y-17513936D02*
X21483277Y-17523460D01*
X21483277Y-17523460D02*
X21464230Y-17532984D01*
X21464230Y-17532984D02*
X21435658Y-17532984D01*
X21559468Y-17399650D02*
X21635658Y-17399650D01*
X21588039Y-17332984D02*
X21588039Y-17504412D01*
X21588039Y-17504412D02*
X21597563Y-17523460D01*
X21597563Y-17523460D02*
X21616611Y-17532984D01*
X21616611Y-17532984D02*
X21635658Y-17532984D01*
X21854706Y-17399650D02*
X21854706Y-17599650D01*
X21854706Y-17409174D02*
X21873754Y-17399650D01*
X21873754Y-17399650D02*
X21911849Y-17399650D01*
X21911849Y-17399650D02*
X21930896Y-17409174D01*
X21930896Y-17409174D02*
X21940420Y-17418698D01*
X21940420Y-17418698D02*
X21949944Y-17437746D01*
X21949944Y-17437746D02*
X21949944Y-17494889D01*
X21949944Y-17494889D02*
X21940420Y-17513936D01*
X21940420Y-17513936D02*
X21930896Y-17523460D01*
X21930896Y-17523460D02*
X21911849Y-17532984D01*
X21911849Y-17532984D02*
X21873754Y-17532984D01*
X21873754Y-17532984D02*
X21854706Y-17523460D01*
X22064230Y-17532984D02*
X22045182Y-17523460D01*
X22045182Y-17523460D02*
X22035658Y-17504412D01*
X22035658Y-17504412D02*
X22035658Y-17332984D01*
X22226135Y-17532984D02*
X22226135Y-17428222D01*
X22226135Y-17428222D02*
X22216611Y-17409174D01*
X22216611Y-17409174D02*
X22197563Y-17399650D01*
X22197563Y-17399650D02*
X22159468Y-17399650D01*
X22159468Y-17399650D02*
X22140420Y-17409174D01*
X22226135Y-17523460D02*
X22207087Y-17532984D01*
X22207087Y-17532984D02*
X22159468Y-17532984D01*
X22159468Y-17532984D02*
X22140420Y-17523460D01*
X22140420Y-17523460D02*
X22130896Y-17504412D01*
X22130896Y-17504412D02*
X22130896Y-17485365D01*
X22130896Y-17485365D02*
X22140420Y-17466317D01*
X22140420Y-17466317D02*
X22159468Y-17456793D01*
X22159468Y-17456793D02*
X22207087Y-17456793D01*
X22207087Y-17456793D02*
X22226135Y-17447270D01*
X22292801Y-17399650D02*
X22368992Y-17399650D01*
X22321373Y-17332984D02*
X22321373Y-17504412D01*
X22321373Y-17504412D02*
X22330896Y-17523460D01*
X22330896Y-17523460D02*
X22349944Y-17532984D01*
X22349944Y-17532984D02*
X22368992Y-17532984D01*
X22511849Y-17523460D02*
X22492801Y-17532984D01*
X22492801Y-17532984D02*
X22454706Y-17532984D01*
X22454706Y-17532984D02*
X22435658Y-17523460D01*
X22435658Y-17523460D02*
X22426134Y-17504412D01*
X22426134Y-17504412D02*
X22426134Y-17428222D01*
X22426134Y-17428222D02*
X22435658Y-17409174D01*
X22435658Y-17409174D02*
X22454706Y-17399650D01*
X22454706Y-17399650D02*
X22492801Y-17399650D01*
X22492801Y-17399650D02*
X22511849Y-17409174D01*
X22511849Y-17409174D02*
X22521373Y-17428222D01*
X22521373Y-17428222D02*
X22521373Y-17447270D01*
X22521373Y-17447270D02*
X22426134Y-17466317D01*
X22692801Y-17532984D02*
X22692801Y-17332984D01*
X22692801Y-17523460D02*
X22673754Y-17532984D01*
X22673754Y-17532984D02*
X22635658Y-17532984D01*
X22635658Y-17532984D02*
X22616611Y-17523460D01*
X22616611Y-17523460D02*
X22607087Y-17513936D01*
X22607087Y-17513936D02*
X22597563Y-17494889D01*
X22597563Y-17494889D02*
X22597563Y-17437746D01*
X22597563Y-17437746D02*
X22607087Y-17418698D01*
X22607087Y-17418698D02*
X22616611Y-17409174D01*
X22616611Y-17409174D02*
X22635658Y-17399650D01*
X22635658Y-17399650D02*
X22673754Y-17399650D01*
X22673754Y-17399650D02*
X22692801Y-17409174D01*
X22768992Y-17609174D02*
X22778515Y-17599650D01*
X22778515Y-17599650D02*
X22797563Y-17571079D01*
X22797563Y-17571079D02*
X22807087Y-17552031D01*
X22807087Y-17552031D02*
X22816611Y-17523460D01*
X22816611Y-17523460D02*
X22826134Y-17475841D01*
X22826134Y-17475841D02*
X22826134Y-17437746D01*
X22826134Y-17437746D02*
X22816611Y-17390127D01*
X22816611Y-17390127D02*
X22807087Y-17361555D01*
X22807087Y-17361555D02*
X22797563Y-17342508D01*
X22797563Y-17342508D02*
X22778515Y-17313936D01*
X22778515Y-17313936D02*
X22768992Y-17304412D01*
M02*
