%TF.GenerationSoftware,KiCad,Pcbnew,8.0.6*%
%TF.CreationDate,2024-11-23T01:04:23-05:00*%
%TF.ProjectId,keyboard,6b657962-6f61-4726-942e-6b696361645f,rev?*%
%TF.SameCoordinates,Original*%
%TF.FileFunction,Copper,L2,Bot*%
%TF.FilePolarity,Positive*%
%FSLAX46Y46*%
G04 Gerber Fmt 4.6, Leading zero omitted, Abs format (unit mm)*
G04 Created by KiCad (PCBNEW 8.0.6) date 2024-11-23 01:04:23*
%MOMM*%
%LPD*%
G01*
G04 APERTURE LIST*
G04 Aperture macros list*
%AMRoundRect*
0 Rectangle with rounded corners*
0 $1 Rounding radius*
0 $2 $3 $4 $5 $6 $7 $8 $9 X,Y pos of 4 corners*
0 Add a 4 corners polygon primitive as box body*
4,1,4,$2,$3,$4,$5,$6,$7,$8,$9,$2,$3,0*
0 Add four circle primitives for the rounded corners*
1,1,$1+$1,$2,$3*
1,1,$1+$1,$4,$5*
1,1,$1+$1,$6,$7*
1,1,$1+$1,$8,$9*
0 Add four rect primitives between the rounded corners*
20,1,$1+$1,$2,$3,$4,$5,0*
20,1,$1+$1,$4,$5,$6,$7,0*
20,1,$1+$1,$6,$7,$8,$9,0*
20,1,$1+$1,$8,$9,$2,$3,0*%
G04 Aperture macros list end*
%TA.AperFunction,ComponentPad*%
%ADD10O,0.900000X1.700000*%
%TD*%
%TA.AperFunction,ComponentPad*%
%ADD11O,0.900000X2.000000*%
%TD*%
%TA.AperFunction,SMDPad,CuDef*%
%ADD12R,0.300000X1.140000*%
%TD*%
%TA.AperFunction,SMDPad,CuDef*%
%ADD13R,0.600000X1.140000*%
%TD*%
%TA.AperFunction,SMDPad,CuDef*%
%ADD14R,1.000000X1.000000*%
%TD*%
%TA.AperFunction,SMDPad,CuDef*%
%ADD15R,1.100000X0.600000*%
%TD*%
%TA.AperFunction,SMDPad,CuDef*%
%ADD16R,1.500000X0.550000*%
%TD*%
%TA.AperFunction,SMDPad,CuDef*%
%ADD17R,0.550000X1.500000*%
%TD*%
%TA.AperFunction,SMDPad,CuDef*%
%ADD18RoundRect,0.200000X1.075000X1.050000X-1.075000X1.050000X-1.075000X-1.050000X1.075000X-1.050000X0*%
%TD*%
%TA.AperFunction,SMDPad,CuDef*%
%ADD19RoundRect,0.250000X-0.262500X-0.450000X0.262500X-0.450000X0.262500X0.450000X-0.262500X0.450000X0*%
%TD*%
%TA.AperFunction,SMDPad,CuDef*%
%ADD20RoundRect,0.250000X0.262500X0.450000X-0.262500X0.450000X-0.262500X-0.450000X0.262500X-0.450000X0*%
%TD*%
%TA.AperFunction,SMDPad,CuDef*%
%ADD21R,0.750000X1.000000*%
%TD*%
%TA.AperFunction,SMDPad,CuDef*%
%ADD22R,1.400000X1.200000*%
%TD*%
%TA.AperFunction,SMDPad,CuDef*%
%ADD23RoundRect,0.250000X-0.250000X-0.475000X0.250000X-0.475000X0.250000X0.475000X-0.250000X0.475000X0*%
%TD*%
%TA.AperFunction,SMDPad,CuDef*%
%ADD24RoundRect,0.250000X0.450000X-0.262500X0.450000X0.262500X-0.450000X0.262500X-0.450000X-0.262500X0*%
%TD*%
%TA.AperFunction,SMDPad,CuDef*%
%ADD25RoundRect,0.225000X0.375000X-0.225000X0.375000X0.225000X-0.375000X0.225000X-0.375000X-0.225000X0*%
%TD*%
%TA.AperFunction,SMDPad,CuDef*%
%ADD26RoundRect,0.250000X0.475000X-0.250000X0.475000X0.250000X-0.475000X0.250000X-0.475000X-0.250000X0*%
%TD*%
%TA.AperFunction,SMDPad,CuDef*%
%ADD27RoundRect,0.250000X-0.475000X0.250000X-0.475000X-0.250000X0.475000X-0.250000X0.475000X0.250000X0*%
%TD*%
%TA.AperFunction,SMDPad,CuDef*%
%ADD28RoundRect,0.225000X-0.375000X0.225000X-0.375000X-0.225000X0.375000X-0.225000X0.375000X0.225000X0*%
%TD*%
%TA.AperFunction,SMDPad,CuDef*%
%ADD29RoundRect,0.250000X-0.450000X0.262500X-0.450000X-0.262500X0.450000X-0.262500X0.450000X0.262500X0*%
%TD*%
%TA.AperFunction,SMDPad,CuDef*%
%ADD30RoundRect,0.250000X0.250000X0.475000X-0.250000X0.475000X-0.250000X-0.475000X0.250000X-0.475000X0*%
%TD*%
%TA.AperFunction,SMDPad,CuDef*%
%ADD31RoundRect,0.250000X-0.625000X0.375000X-0.625000X-0.375000X0.625000X-0.375000X0.625000X0.375000X0*%
%TD*%
%TA.AperFunction,ViaPad*%
%ADD32C,0.600000*%
%TD*%
%TA.AperFunction,Conductor*%
%ADD33C,0.254000*%
%TD*%
%TA.AperFunction,Conductor*%
%ADD34C,0.381000*%
%TD*%
%TA.AperFunction,Conductor*%
%ADD35C,0.200000*%
%TD*%
G04 APERTURE END LIST*
D10*
%TO.P,J2,S4,SHIELD*%
%TO.N,GND*%
X245462500Y-61837500D03*
%TO.P,J2,S3,SHIELD*%
X236812500Y-61837500D03*
D11*
%TO.P,J2,S2,SHIELD*%
X245462500Y-66007500D03*
%TO.P,J2,S1,SHIELD*%
X236812500Y-66007500D03*
D12*
%TO.P,J2,B8,SBU2*%
%TO.N,unconnected-(J2-SBU2-PadB8)*%
X239387500Y-66587500D03*
%TO.P,J2,B7,DN2*%
%TO.N,D-*%
X240387500Y-66587500D03*
%TO.P,J2,B6,DP2*%
%TO.N,D+*%
X241887500Y-66587500D03*
%TO.P,J2,B5,CC2*%
%TO.N,CC2*%
X242887500Y-66587500D03*
D13*
%TO.P,J2,B4_A9,VBUS*%
%TO.N,VCC*%
X243537500Y-66587500D03*
%TO.P,J2,B1_A12,GND*%
%TO.N,GND*%
X244337500Y-66587500D03*
D12*
%TO.P,J2,A8,SBU1*%
%TO.N,unconnected-(J2-SBU1-PadA8)*%
X242387500Y-66587500D03*
%TO.P,J2,A7,DN1*%
%TO.N,D-*%
X241387500Y-66587500D03*
%TO.P,J2,A6,DP1*%
%TO.N,D+*%
X240887500Y-66587500D03*
%TO.P,J2,A5,CC1*%
%TO.N,CC1*%
X239887500Y-66587500D03*
D13*
%TO.P,J2,A4_B9,VBUS*%
%TO.N,VCC*%
X238737500Y-66587500D03*
%TO.P,J2,A1_B12,GND*%
%TO.N,GND*%
X237937500Y-66587500D03*
%TD*%
D14*
%TO.P,D-1,1,1*%
%TO.N,D-*%
X236537500Y-71437500D03*
%TD*%
%TO.P,D+1,1,1*%
%TO.N,D+*%
X242887500Y-76993750D03*
%TD*%
D15*
%TO.P,TV1,1,1*%
%TO.N,D-*%
X239156250Y-71003200D03*
%TO.P,TV1,2,2*%
%TO.N,GND*%
X239156250Y-70053200D03*
%TO.P,TV1,3,3*%
%TO.N,CC1*%
X239156250Y-69103200D03*
%TO.P,TV1,4,4*%
%TO.N,CC2*%
X241856250Y-69103200D03*
%TO.P,TV1,5,5*%
%TO.N,VCC*%
X241856250Y-70053200D03*
%TO.P,TV1,6,6*%
%TO.N,D+*%
X241856250Y-71003200D03*
%TD*%
D16*
%TO.P,U1,1,PE6*%
%TO.N,unconnected-(U1-PE6-Pad1)*%
X246856250Y-97625000D03*
%TO.P,U1,2,UVCC*%
%TO.N,+5V*%
X246856250Y-98425000D03*
%TO.P,U1,3,D-*%
%TO.N,Net-(U1-D-)*%
X246856250Y-99225000D03*
%TO.P,U1,4,D+*%
%TO.N,Net-(U1-D+)*%
X246856250Y-100025000D03*
%TO.P,U1,5,UGND*%
%TO.N,GND*%
X246856250Y-100825000D03*
%TO.P,U1,6,UCAP*%
%TO.N,Net-(U1-UCAP)*%
X246856250Y-101625000D03*
%TO.P,U1,7,VBUS*%
%TO.N,+5V*%
X246856250Y-102425000D03*
%TO.P,U1,8,PB0*%
%TO.N,unconnected-(U1-PB0-Pad8)*%
X246856250Y-103225000D03*
%TO.P,U1,9,PB1*%
%TO.N,Y4*%
X246856250Y-104025000D03*
%TO.P,U1,10,PB2*%
%TO.N,unconnected-(U1-PB2-Pad10)*%
X246856250Y-104825000D03*
%TO.P,U1,11,PB3*%
%TO.N,unconnected-(U1-PB3-Pad11)*%
X246856250Y-105625000D03*
D17*
%TO.P,U1,12,PB7*%
%TO.N,unconnected-(U1-PB7-Pad12)*%
X245156250Y-107325000D03*
%TO.P,U1,13,~{RESET}*%
%TO.N,Net-(U1-~{RESET})*%
X244356250Y-107325000D03*
%TO.P,U1,14,VCC*%
%TO.N,+5V*%
X243556250Y-107325000D03*
%TO.P,U1,15,GND*%
%TO.N,GND*%
X242756250Y-107325000D03*
%TO.P,U1,16,XTAL2*%
%TO.N,Net-(U1-XTAL2)*%
X241956250Y-107325000D03*
%TO.P,U1,17,XTAL1*%
%TO.N,Net-(U1-XTAL1)*%
X241156250Y-107325000D03*
%TO.P,U1,18,PD0*%
%TO.N,unconnected-(U1-PD0-Pad18)*%
X240356250Y-107325000D03*
%TO.P,U1,19,PD1*%
%TO.N,unconnected-(U1-PD1-Pad19)*%
X239556250Y-107325000D03*
%TO.P,U1,20,PD2*%
%TO.N,unconnected-(U1-PD2-Pad20)*%
X238756250Y-107325000D03*
%TO.P,U1,21,PD3*%
%TO.N,unconnected-(U1-PD3-Pad21)*%
X237956250Y-107325000D03*
%TO.P,U1,22,PD5*%
%TO.N,unconnected-(U1-PD5-Pad22)*%
X237156250Y-107325000D03*
D16*
%TO.P,U1,23,GND*%
%TO.N,GND*%
X235456250Y-105625000D03*
%TO.P,U1,24,AVCC*%
%TO.N,+5V*%
X235456250Y-104825000D03*
%TO.P,U1,25,PD4*%
%TO.N,unconnected-(U1-PD4-Pad25)*%
X235456250Y-104025000D03*
%TO.P,U1,26,PD6*%
%TO.N,Y3*%
X235456250Y-103225000D03*
%TO.P,U1,27,PD7*%
%TO.N,Y2*%
X235456250Y-102425000D03*
%TO.P,U1,28,PB4*%
%TO.N,Y1*%
X235456250Y-101625000D03*
%TO.P,U1,29,PB5*%
%TO.N,Y0*%
X235456250Y-100825000D03*
%TO.P,U1,30,PB6*%
%TO.N,unconnected-(U1-PB6-Pad30)*%
X235456250Y-100025000D03*
%TO.P,U1,31,PC6*%
%TO.N,unconnected-(U1-PC6-Pad31)*%
X235456250Y-99225000D03*
%TO.P,U1,32,PC7*%
%TO.N,unconnected-(U1-PC7-Pad32)*%
X235456250Y-98425000D03*
%TO.P,U1,33,~{HWB}/PE2*%
%TO.N,Net-(U1-~{HWB}{slash}PE2)*%
X235456250Y-97625000D03*
D17*
%TO.P,U1,34,VCC*%
%TO.N,+5V*%
X237156250Y-95925000D03*
%TO.P,U1,35,GND*%
%TO.N,GND*%
X237956250Y-95925000D03*
%TO.P,U1,36,PF7*%
%TO.N,X0*%
X238756250Y-95925000D03*
%TO.P,U1,37,PF6*%
%TO.N,X1*%
X239556250Y-95925000D03*
%TO.P,U1,38,PF5*%
%TO.N,X4*%
X240356250Y-95925000D03*
%TO.P,U1,39,PF4*%
%TO.N,X3*%
X241156250Y-95925000D03*
%TO.P,U1,40,PF1*%
%TO.N,X2*%
X241956250Y-95925000D03*
%TO.P,U1,41,PF0*%
%TO.N,unconnected-(U1-PF0-Pad41)*%
X242756250Y-95925000D03*
%TO.P,U1,42,AREF*%
%TO.N,unconnected-(U1-AREF-Pad42)*%
X243556250Y-95925000D03*
%TO.P,U1,43,GND*%
%TO.N,GND*%
X244356250Y-95925000D03*
%TO.P,U1,44,AVCC*%
%TO.N,+5V*%
X245156250Y-95925000D03*
%TD*%
D18*
%TO.P,Key_enter1,2,2*%
%TO.N,Y3*%
X231267000Y-131445000D03*
%TO.P,Key_enter1,1,1*%
%TO.N,Net-(D16-A)*%
X218340000Y-133985000D03*
%TD*%
%TO.P,Key_0,1,1*%
%TO.N,Net-(D21-A)*%
X170715000Y-143510000D03*
%TO.P,Key_0,2,2*%
%TO.N,Y0*%
X183642000Y-140970000D03*
%TD*%
%TO.P,Key_+1,1,1*%
%TO.N,Net-(D12-A)*%
X218340000Y-95885000D03*
%TO.P,Key_+1,2,2*%
%TO.N,Y3*%
X231267000Y-93345000D03*
%TD*%
D14*
%TO.P,GND1,1,1*%
%TO.N,GND*%
X247904000Y-72390000D03*
%TD*%
D19*
%TO.P,R8,1*%
%TO.N,GND*%
X235743750Y-69056250D03*
%TO.P,R8,2*%
%TO.N,CC1*%
X237568750Y-69056250D03*
%TD*%
D20*
%TO.P,R7,1*%
%TO.N,GND*%
X245506250Y-69056250D03*
%TO.P,R7,2*%
%TO.N,CC2*%
X243681250Y-69056250D03*
%TD*%
D14*
%TO.P,5V+2,1,1*%
%TO.N,+5V*%
X247840500Y-76962000D03*
%TD*%
D21*
%TO.P,S2,A*%
%TO.N,GND*%
X238631250Y-127175000D03*
%TO.P,S2,B*%
X238631250Y-133175000D03*
%TO.P,S2,C*%
%TO.N,Net-(U1-~{RESET})*%
X242381250Y-127175000D03*
%TO.P,S2,D*%
X242381250Y-133175000D03*
%TD*%
D18*
%TO.P,Custom-1,1,1*%
%TO.N,Net-(D17-A)*%
X249296250Y-67310000D03*
%TO.P,Custom-1,2,2*%
%TO.N,Y4*%
X262223250Y-64770000D03*
%TD*%
%TO.P,Custom-3,1,1*%
%TO.N,Net-(D19-A)*%
X249296250Y-105410000D03*
%TO.P,Custom-3,2,2*%
%TO.N,Y4*%
X262223250Y-102870000D03*
%TD*%
%TO.P,Key_del1,1,1*%
%TO.N,Net-(D23-A)*%
X199290000Y-143510000D03*
%TO.P,Key_del1,2,2*%
%TO.N,Y2*%
X212217000Y-140970000D03*
%TD*%
%TO.P,Key_4,1,1*%
%TO.N,Net-(D5-A)*%
X161190000Y-105410000D03*
%TO.P,Key_4,2,2*%
%TO.N,Y0*%
X174117000Y-102870000D03*
%TD*%
%TO.P,Key_6,1,1*%
%TO.N,Net-(D13-A)*%
X199290000Y-105410000D03*
%TO.P,Key_6,2,2*%
%TO.N,Y2*%
X212217000Y-102870000D03*
%TD*%
%TO.P,Key_2,1,1*%
%TO.N,Net-(D8-A)*%
X180240000Y-124460000D03*
%TO.P,Key_2,2,2*%
%TO.N,Y1*%
X193167000Y-121920000D03*
%TD*%
%TO.P,Custom-4,2,2*%
%TO.N,Y4*%
X262223250Y-121920000D03*
%TO.P,Custom-4,1,1*%
%TO.N,Net-(D20-A)*%
X249296250Y-124460000D03*
%TD*%
%TO.P,Key_\u002A1,2,2*%
%TO.N,Y2*%
X212217000Y-64770000D03*
%TO.P,Key_\u002A1,1,1*%
%TO.N,Net-(D9-A)*%
X199290000Y-67310000D03*
%TD*%
%TO.P,Key_7,1,1*%
%TO.N,Net-(D3-A)*%
X161190000Y-86360000D03*
%TO.P,Key_7,2,2*%
%TO.N,Y0*%
X174117000Y-83820000D03*
%TD*%
%TO.P,Custom-2,2,2*%
%TO.N,Y4*%
X262223250Y-83820000D03*
%TO.P,Custom-2,1,1*%
%TO.N,Net-(D18-A)*%
X249296250Y-86360000D03*
%TD*%
%TO.P,Key_8,1,1*%
%TO.N,Net-(D4-A)*%
X180240000Y-86360000D03*
%TO.P,Key_8,2,2*%
%TO.N,Y1*%
X193167000Y-83820000D03*
%TD*%
%TO.P,Key_3,1,1*%
%TO.N,Net-(D14-A)*%
X199290000Y-124460000D03*
%TO.P,Key_3,2,2*%
%TO.N,Y2*%
X212217000Y-121920000D03*
%TD*%
%TO.P,Key_-1,2,2*%
%TO.N,Y3*%
X231267000Y-64770000D03*
%TO.P,Key_-1,1,1*%
%TO.N,Net-(D11-A)*%
X218340000Y-67310000D03*
%TD*%
%TO.P,Key_9,1,1*%
%TO.N,Net-(D10-A)*%
X199290000Y-86360000D03*
%TO.P,Key_9,2,2*%
%TO.N,Y2*%
X212217000Y-83820000D03*
%TD*%
%TO.P,Key_1,1,1*%
%TO.N,Net-(D6-A)*%
X161190000Y-124460000D03*
%TO.P,Key_1,2,2*%
%TO.N,Y0*%
X174117000Y-121920000D03*
%TD*%
%TO.P,Custom-5,2,2*%
%TO.N,Y4*%
X262223250Y-140970000D03*
%TO.P,Custom-5,1,1*%
%TO.N,Net-(D25-A)*%
X249296250Y-143510000D03*
%TD*%
%TO.P,Key_/1,2,2*%
%TO.N,Y1*%
X193167000Y-64770000D03*
%TO.P,Key_/1,1,1*%
%TO.N,Net-(D2-A)*%
X180240000Y-67310000D03*
%TD*%
%TO.P,Key_5,1,1*%
%TO.N,Net-(D7-A)*%
X180240000Y-105410000D03*
%TO.P,Key_5,2,2*%
%TO.N,Y1*%
X193167000Y-102870000D03*
%TD*%
D22*
%TO.P,Y1,1,1*%
%TO.N,Net-(U1-XTAL1)*%
X240350000Y-109425000D03*
%TO.P,Y1,2,2*%
%TO.N,GND*%
X242550000Y-109425000D03*
%TO.P,Y1,3,3*%
%TO.N,Net-(U1-XTAL2)*%
X242550000Y-111125000D03*
%TO.P,Y1,4,4*%
%TO.N,GND*%
X240350000Y-111125000D03*
%TD*%
D23*
%TO.P,C6,2*%
%TO.N,+5V*%
X245268750Y-93662500D03*
%TO.P,C6,1*%
%TO.N,GND*%
X243368750Y-93662500D03*
%TD*%
D24*
%TO.P,R1,2*%
%TO.N,GND*%
X233362500Y-96043750D03*
%TO.P,R1,1*%
%TO.N,Net-(U1-~{HWB}{slash}PE2)*%
X233362500Y-97868750D03*
%TD*%
D25*
%TO.P,D1,2,A*%
%TO.N,Net-(D1-A)*%
X160337500Y-69787500D03*
%TO.P,D1,1,K*%
%TO.N,X0*%
X160337500Y-73087500D03*
%TD*%
%TO.P,D14,2,A*%
%TO.N,Net-(D14-A)*%
X198437500Y-126937500D03*
%TO.P,D14,1,K*%
%TO.N,X3*%
X198437500Y-130237500D03*
%TD*%
%TO.P,D8,2,A*%
%TO.N,Net-(D8-A)*%
X179387500Y-126937500D03*
%TO.P,D8,1,K*%
%TO.N,X3*%
X179387500Y-130237500D03*
%TD*%
%TO.P,D6,2,A*%
%TO.N,Net-(D6-A)*%
X160337500Y-126937500D03*
%TO.P,D6,1,K*%
%TO.N,X3*%
X160337500Y-130237500D03*
%TD*%
D23*
%TO.P,C5,2*%
%TO.N,+5V*%
X246375000Y-110331250D03*
%TO.P,C5,1*%
%TO.N,GND*%
X244475000Y-110331250D03*
%TD*%
D25*
%TO.P,D4,2,A*%
%TO.N,Net-(D4-A)*%
X179387500Y-88775000D03*
%TO.P,D4,1,K*%
%TO.N,X1*%
X179387500Y-92075000D03*
%TD*%
D26*
%TO.P,C2,2*%
%TO.N,+5V*%
X233362500Y-104775000D03*
%TO.P,C2,1*%
%TO.N,GND*%
X233362500Y-106675000D03*
%TD*%
D27*
%TO.P,C4,2*%
%TO.N,+5V*%
X249237500Y-98425000D03*
%TO.P,C4,1*%
%TO.N,GND*%
X249237500Y-96525000D03*
%TD*%
D23*
%TO.P,C1,2*%
%TO.N,GND*%
X255150000Y-99750000D03*
%TO.P,C1,1*%
%TO.N,Net-(U1-UCAP)*%
X253250000Y-99750000D03*
%TD*%
D25*
%TO.P,D2,2,A*%
%TO.N,Net-(D2-A)*%
X179387500Y-69787500D03*
%TO.P,D2,1,K*%
%TO.N,X0*%
X179387500Y-73087500D03*
%TD*%
%TO.P,D10,2,A*%
%TO.N,Net-(D10-A)*%
X198437500Y-88837500D03*
%TO.P,D10,1,K*%
%TO.N,X1*%
X198437500Y-92137500D03*
%TD*%
%TO.P,D11,2,A*%
%TO.N,Net-(D11-A)*%
X217487500Y-69787500D03*
%TO.P,D11,1,K*%
%TO.N,X0*%
X217487500Y-73087500D03*
%TD*%
D19*
%TO.P,R4,1*%
%TO.N,+5V*%
X240268750Y-125412500D03*
%TO.P,R4,2*%
%TO.N,Net-(U1-~{RESET})*%
X242093750Y-125412500D03*
%TD*%
D25*
%TO.P,D7,2,A*%
%TO.N,Net-(D7-A)*%
X179387500Y-107887500D03*
%TO.P,D7,1,K*%
%TO.N,X2*%
X179387500Y-111187500D03*
%TD*%
%TO.P,D5,2,A*%
%TO.N,Net-(D5-A)*%
X160337500Y-107887500D03*
%TO.P,D5,1,K*%
%TO.N,X2*%
X160337500Y-111187500D03*
%TD*%
%TO.P,D23,2,A*%
%TO.N,Net-(D23-A)*%
X198437500Y-145987500D03*
%TO.P,D23,1,K*%
%TO.N,X4*%
X198437500Y-149287500D03*
%TD*%
%TO.P,D19,2,A*%
%TO.N,Net-(D19-A)*%
X249237500Y-108681250D03*
%TO.P,D19,1,K*%
%TO.N,X2*%
X249237500Y-111981250D03*
%TD*%
D24*
%TO.P,R2,2*%
%TO.N,D+*%
X240982500Y-73025000D03*
%TO.P,R2,1*%
%TO.N,Net-(U1-D+)*%
X240982500Y-74850000D03*
%TD*%
D28*
%TO.P,D12,2,A*%
%TO.N,Net-(D12-A)*%
X217487500Y-93787500D03*
%TO.P,D12,1,K*%
%TO.N,X1*%
X217487500Y-90487500D03*
%TD*%
D29*
%TO.P,R3,2*%
%TO.N,Net-(U1-D-)*%
X238950500Y-74850000D03*
%TO.P,R3,1*%
%TO.N,D-*%
X238950500Y-73025000D03*
%TD*%
D25*
%TO.P,D3,2,A*%
%TO.N,Net-(D3-A)*%
X160337500Y-88775000D03*
%TO.P,D3,1,K*%
%TO.N,X1*%
X160337500Y-92075000D03*
%TD*%
%TO.P,D13,2,A*%
%TO.N,Net-(D13-A)*%
X198437500Y-107887500D03*
%TO.P,D13,1,K*%
%TO.N,X2*%
X198437500Y-111187500D03*
%TD*%
D27*
%TO.P,C7,1*%
%TO.N,Net-(U1-XTAL1)*%
X237787500Y-109225000D03*
%TO.P,C7,2*%
%TO.N,GND*%
X237787500Y-111125000D03*
%TD*%
D25*
%TO.P,D18,1,K*%
%TO.N,X1*%
X248443750Y-92137500D03*
%TO.P,D18,2,A*%
%TO.N,Net-(D18-A)*%
X248443750Y-88837500D03*
%TD*%
%TO.P,D25,1,K*%
%TO.N,X4*%
X248443750Y-149287500D03*
%TO.P,D25,2,A*%
%TO.N,Net-(D25-A)*%
X248443750Y-145987500D03*
%TD*%
%TO.P,D9,2,A*%
%TO.N,Net-(D9-A)*%
X198437500Y-69787500D03*
%TO.P,D9,1,K*%
%TO.N,X0*%
X198437500Y-73087500D03*
%TD*%
D28*
%TO.P,D16,2,A*%
%TO.N,Net-(D16-A)*%
X217487500Y-131825000D03*
%TO.P,D16,1,K*%
%TO.N,X3*%
X217487500Y-128525000D03*
%TD*%
D25*
%TO.P,D20,1,K*%
%TO.N,X3*%
X248443750Y-130175000D03*
%TO.P,D20,2,A*%
%TO.N,Net-(D20-A)*%
X248443750Y-126875000D03*
%TD*%
D23*
%TO.P,C8,2*%
%TO.N,GND*%
X246375000Y-112712500D03*
%TO.P,C8,1*%
%TO.N,Net-(U1-XTAL2)*%
X244475000Y-112712500D03*
%TD*%
D25*
%TO.P,D21,2,A*%
%TO.N,Net-(D21-A)*%
X169862500Y-145987500D03*
%TO.P,D21,1,K*%
%TO.N,X4*%
X169862500Y-149287500D03*
%TD*%
%TO.P,D17,1,K*%
%TO.N,X0*%
X251618750Y-75406250D03*
%TO.P,D17,2,A*%
%TO.N,Net-(D17-A)*%
X251618750Y-72106250D03*
%TD*%
D18*
%TO.P,NumLock1,1,1*%
%TO.N,Net-(D1-A)*%
X161190000Y-67310000D03*
%TO.P,NumLock1,2,2*%
%TO.N,Y0*%
X174117000Y-64770000D03*
%TD*%
D30*
%TO.P,C3,2*%
%TO.N,+5V*%
X236225000Y-92075000D03*
%TO.P,C3,1*%
%TO.N,GND*%
X238125000Y-92075000D03*
%TD*%
D31*
%TO.P,F2,1*%
%TO.N,VCC*%
X244475000Y-72231250D03*
%TO.P,F2,2*%
%TO.N,+5V*%
X244475000Y-75031250D03*
%TD*%
D32*
%TO.N,X0*%
X251500000Y-77250000D03*
%TO.N,GND*%
X236537500Y-88106250D03*
%TO.N,VCC*%
X243681250Y-70643750D03*
X238918750Y-68099998D03*
%TO.N,Y3*%
X233362500Y-103187500D03*
%TO.N,GND*%
X237284769Y-105522269D03*
X237331250Y-103981250D03*
%TO.N,X4*%
X240493744Y-98425000D03*
X237331250Y-135750000D03*
%TO.N,X3*%
X241293747Y-98425000D03*
X247189106Y-106823394D03*
%TO.N,X2*%
X242093750Y-98425000D03*
X242824524Y-114479605D03*
X248840625Y-113903125D03*
%TO.N,X1*%
X239718753Y-94456250D03*
%TO.N,X0*%
X238918750Y-94456250D03*
%TO.N,GND*%
X236537500Y-90487500D03*
%TO.N,Y4*%
X264318750Y-83343750D03*
X264318750Y-102393750D03*
X264318750Y-121443750D03*
X264318750Y-140493750D03*
X264318750Y-64293750D03*
%TO.N,Y3*%
X234311000Y-92868750D03*
X233687500Y-131437500D03*
X234156250Y-64293750D03*
%TO.N,Y2*%
X214312500Y-83343750D03*
X214312500Y-102393750D03*
X214312500Y-121443750D03*
X214312500Y-140493750D03*
X214312500Y-64293750D03*
%TO.N,Y1*%
X196056250Y-83343750D03*
X196056250Y-102393750D03*
X196056250Y-121443750D03*
X196056250Y-64293750D03*
%TO.N,Y0*%
X177006250Y-102393750D03*
X177006250Y-121443750D03*
X185737500Y-140493750D03*
X177006250Y-64293750D03*
%TO.N,X0*%
X235743750Y-77787500D03*
%TO.N,X1*%
X246856250Y-88900000D03*
X241786858Y-88413142D03*
%TO.N,+5V*%
X237896466Y-97972732D03*
X245268750Y-98425000D03*
X246856250Y-95250000D03*
X245268750Y-92268750D03*
X245268750Y-88900000D03*
%TO.N,Y0*%
X177006250Y-82550000D03*
%TD*%
D33*
%TO.N,X0*%
X251500000Y-75525000D02*
X251618750Y-75406250D01*
X251500000Y-77250000D02*
X251500000Y-75525000D01*
%TO.N,Net-(U1-~{RESET})*%
X242381250Y-127175000D02*
X242381250Y-133175000D01*
D34*
%TO.N,GND*%
X238631250Y-127175000D02*
X238631250Y-133175000D01*
D33*
%TO.N,X3*%
X232025000Y-128525000D02*
X217487500Y-128525000D01*
X237750000Y-134250000D02*
X232025000Y-128525000D01*
X244368750Y-134250000D02*
X237750000Y-134250000D01*
X248443750Y-130175000D02*
X244368750Y-134250000D01*
%TO.N,Y3*%
X233687500Y-131437500D02*
X233680000Y-131445000D01*
X233680000Y-131445000D02*
X231267000Y-131445000D01*
%TO.N,X4*%
X247712500Y-149287500D02*
X248443750Y-149287500D01*
X237331250Y-138906250D02*
X247712500Y-149287500D01*
X237331250Y-135750000D02*
X237331250Y-138906250D01*
%TO.N,+5V*%
X236533250Y-99335948D02*
X237896466Y-97972732D01*
X236533250Y-104752000D02*
X236533250Y-99335948D01*
X236460250Y-104825000D02*
X236533250Y-104752000D01*
X235456250Y-104825000D02*
X236460250Y-104825000D01*
X246825000Y-98425000D02*
X249237500Y-98425000D01*
X246800000Y-98400000D02*
X246825000Y-98425000D01*
X246775000Y-98425000D02*
X246800000Y-98400000D01*
X245268750Y-98425000D02*
X246775000Y-98425000D01*
D34*
%TO.N,GND*%
X251949837Y-98634500D02*
X249759337Y-100825000D01*
X254034500Y-98634500D02*
X251949837Y-98634500D01*
X249759337Y-100825000D02*
X246856250Y-100825000D01*
X255150000Y-99750000D02*
X254034500Y-98634500D01*
D33*
%TO.N,Net-(U1-UCAP)*%
X251375000Y-101625000D02*
X253250000Y-99750000D01*
X246856250Y-101625000D02*
X251375000Y-101625000D01*
D34*
%TO.N,GND*%
X244421750Y-91578250D02*
X243368750Y-92631250D01*
X245578250Y-91578250D02*
X244421750Y-91578250D01*
X246545250Y-92545250D02*
X245578250Y-91578250D01*
X246545250Y-93832750D02*
X246545250Y-92545250D01*
X243368750Y-92631250D02*
X243368750Y-93662500D01*
X249237500Y-96525000D02*
X246545250Y-93832750D01*
D33*
%TO.N,+5V*%
X245268750Y-92268750D02*
X245268750Y-93662500D01*
%TO.N,Net-(U1-D-)*%
X246852000Y-99252000D02*
X246800000Y-99200000D01*
X249958428Y-99252000D02*
X246852000Y-99252000D01*
X250289500Y-98920928D02*
X249958428Y-99252000D01*
X250289500Y-95471867D02*
X250289500Y-98920928D01*
X249749184Y-95471867D02*
X250289500Y-95471867D01*
X247062750Y-92785433D02*
X249749184Y-95471867D01*
X247062750Y-92245117D02*
X247062750Y-92785433D01*
X239712500Y-75612000D02*
X239712500Y-84894867D01*
X239712500Y-84894867D02*
X247062750Y-92245117D01*
X238950500Y-74850000D02*
X239712500Y-75612000D01*
%TO.N,+5V*%
X245043750Y-109000000D02*
X246375000Y-110331250D01*
X244227250Y-109000000D02*
X245043750Y-109000000D01*
X243556250Y-107325000D02*
X243556250Y-108329000D01*
X243556250Y-108329000D02*
X244227250Y-109000000D01*
D35*
%TO.N,D+*%
X241826250Y-67468750D02*
X240887500Y-67468750D01*
X241887500Y-67407500D02*
X241826250Y-67468750D01*
X241887500Y-66587500D02*
X241887500Y-67407500D01*
D33*
%TO.N,Net-(D4-A)*%
X179387500Y-87212500D02*
X180240000Y-86360000D01*
X179387500Y-88775000D02*
X179387500Y-87212500D01*
%TO.N,Net-(D3-A)*%
X160337500Y-87212500D02*
X161190000Y-86360000D01*
X160337500Y-88775000D02*
X160337500Y-87212500D01*
D34*
%TO.N,GND*%
X235647000Y-76714235D02*
X236537500Y-77604735D01*
X236537500Y-77604735D02*
X236537500Y-88106250D01*
X235647000Y-69153000D02*
X235647000Y-76714235D01*
X235743750Y-69056250D02*
X235647000Y-69153000D01*
D35*
%TO.N,D+*%
X242887500Y-72034450D02*
X242887500Y-76993750D01*
X241856250Y-71003200D02*
X242887500Y-72034450D01*
%TO.N,D-*%
X237765550Y-71003200D02*
X239156250Y-71003200D01*
X237331250Y-71437500D02*
X237765550Y-71003200D01*
X236537500Y-71437500D02*
X237331250Y-71437500D01*
D34*
%TO.N,GND*%
X247904000Y-71454000D02*
X245506250Y-69056250D01*
X247904000Y-72390000D02*
X247904000Y-71454000D01*
D33*
%TO.N,+5V*%
X246405750Y-76962000D02*
X247840500Y-76962000D01*
X244475000Y-75031250D02*
X246405750Y-76962000D01*
X245268750Y-75825000D02*
X244475000Y-75031250D01*
X245268750Y-88900000D02*
X245268750Y-75825000D01*
D35*
%TO.N,D+*%
X241856250Y-72151250D02*
X240982500Y-73025000D01*
X241856250Y-71003200D02*
X241856250Y-72151250D01*
%TO.N,D-*%
X238950500Y-71405750D02*
X238950500Y-73025000D01*
X239156250Y-71200000D02*
X238950500Y-71405750D01*
X239156250Y-71003200D02*
X239156250Y-71200000D01*
D34*
%TO.N,VCC*%
X243681250Y-71437500D02*
X244475000Y-72231250D01*
X243681250Y-70643750D02*
X243681250Y-71437500D01*
%TO.N,GND*%
X245506250Y-67756250D02*
X244337500Y-66587500D01*
X245506250Y-69056250D02*
X245506250Y-67756250D01*
D33*
%TO.N,CC2*%
X241856250Y-69103200D02*
X243634300Y-69103200D01*
X243634300Y-69103200D02*
X243681250Y-69056250D01*
D34*
%TO.N,VCC*%
X243718982Y-70643750D02*
X243681250Y-70643750D01*
X244584250Y-69778482D02*
X243718982Y-70643750D01*
X244584250Y-68334018D02*
X244584250Y-69778482D01*
X243537500Y-67438500D02*
X243688732Y-67438500D01*
X243688732Y-67438500D02*
X244584250Y-68334018D01*
X241949800Y-70146750D02*
X241856250Y-70053200D01*
X243184250Y-70146750D02*
X241949800Y-70146750D01*
X243681250Y-70643750D02*
X243184250Y-70146750D01*
X243537500Y-67438500D02*
X243537500Y-66587500D01*
%TO.N,GND*%
X239062700Y-70146750D02*
X239156250Y-70053200D01*
X236834250Y-70146750D02*
X239062700Y-70146750D01*
X235743750Y-69056250D02*
X236834250Y-70146750D01*
X235743750Y-68781250D02*
X237937500Y-66587500D01*
X235743750Y-69056250D02*
X235743750Y-68781250D01*
D33*
%TO.N,CC1*%
X237615700Y-69103200D02*
X237568750Y-69056250D01*
X239156250Y-69103200D02*
X237615700Y-69103200D01*
%TO.N,CC2*%
X242887500Y-68071950D02*
X242887500Y-66587500D01*
X241856250Y-69103200D02*
X242887500Y-68071950D01*
D35*
%TO.N,D+*%
X241106250Y-71003200D02*
X241856250Y-71003200D01*
X240887500Y-70784450D02*
X241106250Y-71003200D01*
X240887500Y-67468750D02*
X240887500Y-70784450D01*
%TO.N,D-*%
X240387500Y-70521950D02*
X239906250Y-71003200D01*
X240387500Y-66587500D02*
X240387500Y-70521950D01*
X239906250Y-71003200D02*
X239156250Y-71003200D01*
D34*
%TO.N,VCC*%
X238737500Y-67918748D02*
X238918750Y-68099998D01*
X238737500Y-66587500D02*
X238737500Y-67918748D01*
D33*
%TO.N,X2*%
X248840625Y-113903125D02*
X249237500Y-113506250D01*
X249237500Y-113506250D02*
X249237500Y-111981250D01*
%TO.N,Y4*%
X247048250Y-103833000D02*
X246856250Y-104025000D01*
X250973250Y-103833000D02*
X247048250Y-103833000D01*
X253813250Y-100993000D02*
X250973250Y-103833000D01*
X260346250Y-100993000D02*
X253813250Y-100993000D01*
X262223250Y-102870000D02*
X260346250Y-100993000D01*
%TO.N,Y3*%
X235456250Y-103225000D02*
X233400000Y-103225000D01*
X233400000Y-103225000D02*
X233362500Y-103187500D01*
D34*
%TO.N,GND*%
X237284769Y-105522269D02*
X235558981Y-105522269D01*
X237331250Y-101600000D02*
X237331250Y-103981250D01*
X239915750Y-99015500D02*
X237331250Y-101600000D01*
X239915750Y-99015500D02*
X241725250Y-100825000D01*
X237956250Y-97056000D02*
X239915750Y-99015500D01*
X235558981Y-105522269D02*
X235456250Y-105625000D01*
X233362500Y-94793765D02*
X235334500Y-92821765D01*
X233362500Y-96043750D02*
X233362500Y-94793765D01*
D33*
%TO.N,Net-(U1-~{HWB}{slash}PE2)*%
X233606250Y-97625000D02*
X235456250Y-97625000D01*
X233362500Y-97868750D02*
X233606250Y-97625000D01*
%TO.N,Y2*%
X214343750Y-102425000D02*
X235456250Y-102425000D01*
X214312500Y-102393750D02*
X214343750Y-102425000D01*
%TO.N,Y1*%
X223230500Y-100993000D02*
X223862500Y-101625000D01*
X197457000Y-100993000D02*
X223230500Y-100993000D01*
X223862500Y-101625000D02*
X235456250Y-101625000D01*
X196056250Y-102393750D02*
X197457000Y-100993000D01*
%TO.N,Y0*%
X235310500Y-100970750D02*
X235456250Y-100825000D01*
X224617791Y-100970750D02*
X235310500Y-100970750D01*
X177006250Y-102393750D02*
X179387500Y-100012500D01*
X179387500Y-100012500D02*
X223659541Y-100012500D01*
X223659541Y-100012500D02*
X224617791Y-100970750D01*
%TO.N,X4*%
X240356250Y-98287506D02*
X240356250Y-95925000D01*
X240493744Y-98425000D02*
X240356250Y-98287506D01*
%TO.N,X3*%
X241156250Y-97500006D02*
X241156250Y-95925000D01*
X241293747Y-97637503D02*
X241156250Y-97500006D01*
X241293747Y-98425000D02*
X241293747Y-97637503D01*
X248110000Y-107744288D02*
X247189106Y-106823394D01*
X248110000Y-120190000D02*
X248110000Y-107744288D01*
X247516750Y-120783250D02*
X248110000Y-120190000D01*
X248443750Y-130175000D02*
X247516750Y-129248000D01*
X247516750Y-129248000D02*
X247516750Y-120783250D01*
%TO.N,X2*%
X241956250Y-98287500D02*
X241956250Y-95925000D01*
X242093750Y-98425000D02*
X241956250Y-98287500D01*
X217933646Y-114479605D02*
X242824524Y-114479605D01*
X214641541Y-111187500D02*
X217933646Y-114479605D01*
%TO.N,X1*%
X239718753Y-95762497D02*
X239556250Y-95925000D01*
X239718753Y-94456250D02*
X239718753Y-95762497D01*
D34*
%TO.N,GND*%
X235334500Y-92821765D02*
X235334500Y-91327768D01*
X235334500Y-91327768D02*
X236174768Y-90487500D01*
X236174768Y-90487500D02*
X236537500Y-90487500D01*
X241725250Y-100825000D02*
X246856250Y-100825000D01*
X237956250Y-95925000D02*
X237956250Y-97056000D01*
X237956250Y-92243750D02*
X238125000Y-92075000D01*
X237956250Y-95925000D02*
X237956250Y-92243750D01*
D33*
%TO.N,X0*%
X238918750Y-95762500D02*
X238756250Y-95925000D01*
X238918750Y-94456250D02*
X238918750Y-95762500D01*
D34*
%TO.N,GND*%
X243368750Y-93662500D02*
X241781250Y-92075000D01*
X241781250Y-92075000D02*
X238125000Y-92075000D01*
D33*
%TO.N,+5V*%
X236225000Y-94993750D02*
X237156250Y-95925000D01*
X236225000Y-92075000D02*
X236225000Y-94993750D01*
D34*
%TO.N,GND*%
X236537500Y-90487500D02*
X238125000Y-92075000D01*
D33*
%TO.N,X1*%
X219075000Y-88900000D02*
X217487500Y-90487500D01*
X241786858Y-88413142D02*
X241300000Y-88900000D01*
X241300000Y-88900000D02*
X219075000Y-88900000D01*
%TO.N,Y4*%
X263842500Y-83820000D02*
X264318750Y-83343750D01*
X262223250Y-83820000D02*
X263842500Y-83820000D01*
X262223250Y-102870000D02*
X263842500Y-102870000D01*
X263842500Y-102870000D02*
X264318750Y-102393750D01*
X263842500Y-121920000D02*
X264318750Y-121443750D01*
X262223250Y-121920000D02*
X263842500Y-121920000D01*
X263842500Y-140970000D02*
X264318750Y-140493750D01*
X262223250Y-140970000D02*
X263842500Y-140970000D01*
X263842500Y-64770000D02*
X264318750Y-64293750D01*
X262223250Y-64770000D02*
X263842500Y-64770000D01*
%TO.N,Y3*%
X233680000Y-64770000D02*
X231267000Y-64770000D01*
X234156250Y-64293750D02*
X233680000Y-64770000D01*
X231267000Y-93345000D02*
X233834750Y-93345000D01*
X233834750Y-93345000D02*
X234311000Y-92868750D01*
%TO.N,Y2*%
X213836250Y-83820000D02*
X214312500Y-83343750D01*
X212217000Y-83820000D02*
X213836250Y-83820000D01*
X212217000Y-102870000D02*
X213836250Y-102870000D01*
X213836250Y-102870000D02*
X214312500Y-102393750D01*
X213836250Y-121920000D02*
X214312500Y-121443750D01*
X212217000Y-121920000D02*
X213836250Y-121920000D01*
X213836250Y-140970000D02*
X214312500Y-140493750D01*
X212217000Y-140970000D02*
X213836250Y-140970000D01*
X213836250Y-64770000D02*
X214312500Y-64293750D01*
X212217000Y-64770000D02*
X213836250Y-64770000D01*
%TO.N,Y1*%
X193167000Y-83820000D02*
X195580000Y-83820000D01*
X195580000Y-83820000D02*
X196056250Y-83343750D01*
X193167000Y-102870000D02*
X195580000Y-102870000D01*
X195580000Y-102870000D02*
X196056250Y-102393750D01*
X195580000Y-121920000D02*
X196056250Y-121443750D01*
X193167000Y-121920000D02*
X195580000Y-121920000D01*
X195580000Y-64770000D02*
X196056250Y-64293750D01*
X193167000Y-64770000D02*
X195580000Y-64770000D01*
%TO.N,Y0*%
X174117000Y-102870000D02*
X176530000Y-102870000D01*
X176530000Y-102870000D02*
X177006250Y-102393750D01*
X174117000Y-121920000D02*
X176530000Y-121920000D01*
X176530000Y-121920000D02*
X177006250Y-121443750D01*
X185261250Y-140970000D02*
X185737500Y-140493750D01*
X183642000Y-140970000D02*
X185261250Y-140970000D01*
X174117000Y-64770000D02*
X176530000Y-64770000D01*
X176530000Y-64770000D02*
X177006250Y-64293750D01*
%TO.N,X0*%
X198437500Y-73087500D02*
X217487500Y-73087500D01*
X179387500Y-73087500D02*
X198437500Y-73087500D01*
X160337500Y-73087500D02*
X179387500Y-73087500D01*
%TO.N,X1*%
X179387500Y-92075000D02*
X160337500Y-92075000D01*
X179450000Y-92137500D02*
X179387500Y-92075000D01*
X198437500Y-92137500D02*
X179450000Y-92137500D01*
X215837500Y-92137500D02*
X198437500Y-92137500D01*
X217487500Y-90487500D02*
X215837500Y-92137500D01*
X248443750Y-90487500D02*
X246856250Y-88900000D01*
X248443750Y-92137500D02*
X248443750Y-90487500D01*
%TO.N,X2*%
X198437500Y-111187500D02*
X214641541Y-111187500D01*
X179387500Y-111187500D02*
X198437500Y-111187500D01*
X160337500Y-111187500D02*
X179387500Y-111187500D01*
%TO.N,X3*%
X179387500Y-130237500D02*
X160337500Y-130237500D01*
X198437500Y-130237500D02*
X179387500Y-130237500D01*
X215043750Y-130237500D02*
X198437500Y-130237500D01*
X216756250Y-128525000D02*
X215043750Y-130237500D01*
X217487500Y-128525000D02*
X216756250Y-128525000D01*
D34*
%TO.N,GND*%
X238631250Y-120456250D02*
X245259500Y-113828000D01*
X238631250Y-127175000D02*
X238631250Y-120456250D01*
D33*
%TO.N,Net-(U1-~{RESET})*%
X242381250Y-125700000D02*
X242093750Y-125412500D01*
X242381250Y-127175000D02*
X242381250Y-125700000D01*
%TO.N,X4*%
X198437500Y-149287500D02*
X169862500Y-149287500D01*
X199983900Y-150833900D02*
X198437500Y-149287500D01*
X248443750Y-149287500D02*
X246897350Y-150833900D01*
X246897350Y-150833900D02*
X199983900Y-150833900D01*
%TO.N,Net-(D21-A)*%
X169862500Y-144362500D02*
X170715000Y-143510000D01*
X169862500Y-145987500D02*
X169862500Y-144362500D01*
%TO.N,Net-(D8-A)*%
X179387500Y-125312500D02*
X180240000Y-124460000D01*
X179387500Y-126937500D02*
X179387500Y-125312500D01*
%TO.N,Net-(D6-A)*%
X160337500Y-125312500D02*
X161190000Y-124460000D01*
X160337500Y-126937500D02*
X160337500Y-125312500D01*
%TO.N,Net-(D5-A)*%
X160337500Y-106262500D02*
X161190000Y-105410000D01*
X160337500Y-107887500D02*
X160337500Y-106262500D01*
%TO.N,Net-(D7-A)*%
X179387500Y-107887500D02*
X179387500Y-106262500D01*
X179387500Y-106262500D02*
X180240000Y-105410000D01*
%TO.N,Net-(D12-A)*%
X218340000Y-94640000D02*
X217487500Y-93787500D01*
X218340000Y-95885000D02*
X218340000Y-94640000D01*
%TO.N,Net-(D13-A)*%
X198437500Y-106262500D02*
X199290000Y-105410000D01*
X198437500Y-107887500D02*
X198437500Y-106262500D01*
%TO.N,Net-(D14-A)*%
X198437500Y-125312500D02*
X199290000Y-124460000D01*
X198437500Y-126937500D02*
X198437500Y-125312500D01*
%TO.N,Net-(D23-A)*%
X198437500Y-144362500D02*
X199290000Y-143510000D01*
X198437500Y-145987500D02*
X198437500Y-144362500D01*
%TO.N,Net-(D16-A)*%
X218340000Y-132677500D02*
X217487500Y-131825000D01*
X218340000Y-133985000D02*
X218340000Y-132677500D01*
%TO.N,Net-(D25-A)*%
X248443750Y-144362500D02*
X249296250Y-143510000D01*
X248443750Y-145987500D02*
X248443750Y-144362500D01*
%TO.N,Net-(D20-A)*%
X248443750Y-125312500D02*
X249296250Y-124460000D01*
X248443750Y-126875000D02*
X248443750Y-125312500D01*
%TO.N,Net-(D19-A)*%
X249237500Y-105468750D02*
X249296250Y-105410000D01*
X249237500Y-108681250D02*
X249237500Y-105468750D01*
%TO.N,Net-(D18-A)*%
X248443750Y-87212500D02*
X249296250Y-86360000D01*
X248443750Y-88837500D02*
X248443750Y-87212500D01*
%TO.N,Net-(D17-A)*%
X249296250Y-69783750D02*
X249296250Y-67310000D01*
X251618750Y-72106250D02*
X249296250Y-69783750D01*
%TO.N,Net-(D11-A)*%
X217487500Y-68162500D02*
X218340000Y-67310000D01*
X217487500Y-69787500D02*
X217487500Y-68162500D01*
%TO.N,Net-(D9-A)*%
X198437500Y-68162500D02*
X199290000Y-67310000D01*
X198437500Y-69787500D02*
X198437500Y-68162500D01*
%TO.N,Net-(D2-A)*%
X179387500Y-68162500D02*
X180240000Y-67310000D01*
X179387500Y-69787500D02*
X179387500Y-68162500D01*
%TO.N,Net-(D1-A)*%
X160337500Y-68162500D02*
X161190000Y-67310000D01*
X160337500Y-69787500D02*
X160337500Y-68162500D01*
D34*
%TO.N,GND*%
X237357500Y-66007500D02*
X237937500Y-66587500D01*
X236812500Y-66007500D02*
X237357500Y-66007500D01*
X236812500Y-61837500D02*
X236812500Y-66007500D01*
X245462500Y-61837500D02*
X236812500Y-61837500D01*
X244882500Y-66587500D02*
X245462500Y-66007500D01*
X244337500Y-66587500D02*
X244882500Y-66587500D01*
D35*
%TO.N,D-*%
X240387500Y-65767500D02*
X240387500Y-66587500D01*
X241337500Y-65717500D02*
X240437500Y-65717500D01*
X240437500Y-65717500D02*
X240387500Y-65767500D01*
X241387500Y-65767500D02*
X241337500Y-65717500D01*
%TO.N,D+*%
X240887500Y-67468750D02*
X240887500Y-66587500D01*
D33*
%TO.N,Net-(U1-~{RESET})*%
X245702000Y-106223000D02*
X244373000Y-106223000D01*
X247656000Y-108177000D02*
X245702000Y-106223000D01*
X244373000Y-106223000D02*
X244300000Y-106296000D01*
X247656000Y-119850250D02*
X247656000Y-108177000D01*
X242093750Y-125412500D02*
X247656000Y-119850250D01*
X244300000Y-106296000D02*
X244300000Y-107300000D01*
%TO.N,+5V*%
X247202000Y-111158250D02*
X246375000Y-110331250D01*
X247202000Y-118479250D02*
X247202000Y-111158250D01*
X240268750Y-125412500D02*
X247202000Y-118479250D01*
X243396000Y-104800000D02*
X243500000Y-104696000D01*
X235400000Y-104800000D02*
X243396000Y-104800000D01*
X243500000Y-104696000D02*
X243500000Y-107300000D01*
X245796000Y-102400000D02*
X243500000Y-104696000D01*
X246800000Y-102400000D02*
X245796000Y-102400000D01*
X246206250Y-95900000D02*
X246856250Y-95250000D01*
X245100000Y-95900000D02*
X246206250Y-95900000D01*
D34*
%TO.N,GND*%
X244300000Y-94593750D02*
X243368750Y-93662500D01*
X244300000Y-95900000D02*
X244300000Y-94593750D01*
D33*
%TO.N,+5V*%
X245100000Y-93831250D02*
X245268750Y-93662500D01*
X245100000Y-95900000D02*
X245100000Y-93831250D01*
%TO.N,Net-(U1-XTAL1)*%
X241100000Y-108179000D02*
X241100000Y-107300000D01*
X237787500Y-109225000D02*
X240054000Y-109225000D01*
D34*
%TO.N,GND*%
X237812500Y-111125000D02*
X233362500Y-106675000D01*
X240350000Y-111125000D02*
X237812500Y-111125000D01*
X240350000Y-111125000D02*
X237787500Y-111125000D01*
X243053000Y-113828000D02*
X240350000Y-111125000D01*
X245259500Y-113828000D02*
X243053000Y-113828000D01*
X246375000Y-112712500D02*
X245259500Y-113828000D01*
X244475000Y-110812500D02*
X246375000Y-112712500D01*
X244475000Y-110331250D02*
X244475000Y-110812500D01*
D33*
%TO.N,Net-(U1-XTAL2)*%
X242887500Y-111125000D02*
X244475000Y-112712500D01*
X242550000Y-111125000D02*
X242887500Y-111125000D01*
X241900000Y-108304000D02*
X241900000Y-107300000D01*
X241523000Y-110352000D02*
X241523000Y-108681000D01*
X242296000Y-111125000D02*
X241523000Y-110352000D01*
X241523000Y-108681000D02*
X241900000Y-108304000D01*
X242550000Y-111125000D02*
X242296000Y-111125000D01*
D34*
%TO.N,GND*%
X243568750Y-109425000D02*
X242550000Y-109425000D01*
X244475000Y-110331250D02*
X243568750Y-109425000D01*
X242700000Y-109275000D02*
X242700000Y-107300000D01*
X242550000Y-109425000D02*
X242700000Y-109275000D01*
X234325000Y-106675000D02*
X235400000Y-105600000D01*
X233362500Y-106675000D02*
X234325000Y-106675000D01*
D33*
%TO.N,+5V*%
X235375000Y-104775000D02*
X235400000Y-104800000D01*
X233362500Y-104775000D02*
X235375000Y-104775000D01*
%TO.N,Net-(U1-XTAL1)*%
X240054000Y-109225000D02*
X241100000Y-108179000D01*
%TO.N,Y0*%
X174117000Y-83820000D02*
X175736250Y-83820000D01*
X175736250Y-83820000D02*
X177006250Y-82550000D01*
%TO.N,+5V*%
X237100000Y-97176266D02*
X237100000Y-95900000D01*
X237896466Y-97972732D02*
X237100000Y-97176266D01*
D35*
%TO.N,D-*%
X241387500Y-66587500D02*
X241387500Y-65767500D01*
D34*
%TO.N,GND*%
X245462500Y-66007500D02*
X245462500Y-61837500D01*
D33*
%TO.N,CC1*%
X239887500Y-68371950D02*
X239156250Y-69103200D01*
X239887500Y-66587500D02*
X239887500Y-68371950D01*
%TO.N,X3*%
X217550000Y-128587500D02*
X217487500Y-128525000D01*
D34*
%TO.N,GND*%
X246806250Y-100806250D02*
X246800000Y-100800000D01*
D33*
%TO.N,Net-(D10-A)*%
X198437500Y-88837500D02*
X198437500Y-87212500D01*
X198437500Y-87212500D02*
X199290000Y-86360000D01*
%TO.N,Net-(U1-D+)*%
X247804000Y-100000000D02*
X246800000Y-100000000D01*
X248098000Y-99706000D02*
X247804000Y-100000000D01*
X250146481Y-99706000D02*
X248098000Y-99706000D01*
X250743500Y-99108981D02*
X250146481Y-99706000D01*
X247833870Y-92914500D02*
X248374185Y-92914500D01*
X248374185Y-92914500D02*
X250743500Y-95283815D01*
X247516750Y-92597380D02*
X247833870Y-92914500D01*
X250743500Y-95283815D02*
X250743500Y-99108981D01*
X247516750Y-92034712D02*
X247516750Y-92597380D01*
X240982500Y-85500462D02*
X247516750Y-92034712D01*
X240982500Y-74850000D02*
X240982500Y-85500462D01*
%TO.N,X0*%
X217487500Y-73087500D02*
X217550000Y-73025000D01*
X217550000Y-73025000D02*
X230981250Y-73025000D01*
X230981250Y-73025000D02*
X235743750Y-77787500D01*
%TD*%
M02*
