M48
; DRILL file {KiCad 8.0.6} date 2024-11-23T01:04:26-0500
; FORMAT={-:-/ absolute / metric / decimal}
; #@! TF.CreationDate,2024-11-23T01:04:26-05:00
; #@! TF.GenerationSoftware,Kicad,Pcbnew,8.0.6
; #@! TF.FileFunction,NonPlated,1,2,NPTH
FMAT,2
METRIC
; #@! TA.AperFunction,NonPlated,NPTH,ComponentDrill
T1C0.600
; #@! TA.AperFunction,NonPlated,NPTH,ComponentDrill
T2C1.702
; #@! TA.AperFunction,NonPlated,NPTH,ComponentDrill
T3C3.000
; #@! TA.AperFunction,NonPlated,NPTH,ComponentDrill
T4C3.048
; #@! TA.AperFunction,NonPlated,NPTH,ComponentDrill
T5C3.988
%
G90
G05
T1
X238.248Y-65.517
X244.027Y-65.517
T2
X163.195Y-69.85
X163.195Y-88.9
X163.195Y-107.95
X163.195Y-127.0
X172.72Y-146.05
X173.355Y-69.85
X173.355Y-88.9
X173.355Y-107.95
X173.355Y-127.0
X182.245Y-69.85
X182.245Y-88.9
X182.245Y-107.95
X182.245Y-127.0
X182.88Y-146.05
X192.405Y-69.85
X192.405Y-88.9
X192.405Y-107.95
X192.405Y-127.0
X201.295Y-69.85
X201.295Y-88.9
X201.295Y-107.95
X201.295Y-127.0
X201.295Y-146.05
X211.455Y-69.85
X211.455Y-88.9
X211.455Y-107.95
X211.455Y-127.0
X211.455Y-146.05
X220.345Y-69.85
X220.345Y-98.425
X220.345Y-136.525
X230.505Y-69.85
X230.505Y-98.425
X230.505Y-136.525
X251.301Y-69.85
X251.301Y-88.9
X251.301Y-107.95
X251.301Y-127.0
X251.301Y-146.05
X261.461Y-69.85
X261.461Y-88.9
X261.461Y-107.95
X261.461Y-127.0
X261.461Y-146.05
T3
X164.465Y-67.31
X164.465Y-86.36
X164.465Y-105.41
X164.465Y-124.46
X170.815Y-64.77
X170.815Y-83.82
X170.815Y-102.87
X170.815Y-121.92
X173.99Y-143.51
X180.34Y-140.97
X183.515Y-67.31
X183.515Y-86.36
X183.515Y-105.41
X183.515Y-124.46
X189.865Y-64.77
X189.865Y-83.82
X189.865Y-102.87
X189.865Y-121.92
X202.565Y-67.31
X202.565Y-86.36
X202.565Y-105.41
X202.565Y-124.46
X202.565Y-143.51
X208.915Y-64.77
X208.915Y-83.82
X208.915Y-102.87
X208.915Y-121.92
X208.915Y-140.97
X221.615Y-67.31
X221.615Y-95.885
X221.615Y-133.985
X227.965Y-64.77
X227.965Y-93.345
X227.965Y-131.445
X252.571Y-67.31
X252.571Y-86.36
X252.571Y-105.41
X252.571Y-124.46
X252.571Y-143.51
X258.921Y-64.77
X258.921Y-83.82
X258.921Y-102.87
X258.921Y-121.92
X258.921Y-140.97
T4
X165.862Y-153.035
X189.738Y-153.035
X232.41Y-86.487
X232.41Y-110.363
X232.41Y-124.587
X232.41Y-148.463
T5
X165.862Y-137.795
X168.275Y-69.85
X168.275Y-88.9
X168.275Y-107.95
X168.275Y-127.0
X177.8Y-146.05
X187.325Y-69.85
X187.325Y-88.9
X187.325Y-107.95
X187.325Y-127.0
X189.738Y-137.795
X206.375Y-69.85
X206.375Y-88.9
X206.375Y-107.95
X206.375Y-127.0
X206.375Y-146.05
X217.17Y-86.487
X217.17Y-110.363
X217.17Y-124.587
X217.17Y-148.463
X225.425Y-69.85
X225.425Y-98.425
X225.425Y-136.525
X256.381Y-69.85
X256.381Y-88.9
X256.381Y-107.95
X256.381Y-127.0
X256.381Y-146.05
M30
