M48
; DRILL file {KiCad 8.0.6} date 2024-11-23T01:04:26-0500
; FORMAT={-:-/ absolute / metric / decimal}
; #@! TF.CreationDate,2024-11-23T01:04:26-05:00
; #@! TF.GenerationSoftware,Kicad,Pcbnew,8.0.6
; #@! TF.FileFunction,Plated,1,2,PTH
FMAT,2
METRIC
; #@! TA.AperFunction,Plated,PTH,ViaDrill
T1C0.300
; #@! TA.AperFunction,Plated,PTH,ComponentDrill
T2C0.600
%
G90
G05
T1
X177.006Y-64.294
X177.006Y-82.55
X177.006Y-102.394
X177.006Y-121.444
X185.737Y-140.494
X196.056Y-64.294
X196.056Y-83.344
X196.056Y-102.394
X196.056Y-121.444
X214.312Y-64.294
X214.312Y-83.344
X214.312Y-102.394
X214.312Y-121.444
X214.312Y-140.494
X233.362Y-103.188
X233.688Y-131.438
X234.156Y-64.294
X234.311Y-92.869
X235.744Y-77.787
X236.537Y-88.106
X236.537Y-90.487
X237.285Y-105.522
X237.331Y-103.981
X237.331Y-135.75
X237.896Y-97.973
X238.919Y-68.1
X238.919Y-94.456
X239.719Y-94.456
X240.494Y-98.425
X241.294Y-98.425
X241.787Y-88.413
X242.094Y-98.425
X242.825Y-114.48
X243.681Y-70.644
X245.269Y-88.9
X245.269Y-92.269
X245.269Y-98.425
X246.856Y-88.9
X246.856Y-95.25
X247.189Y-106.823
X248.841Y-113.903
X251.5Y-77.25
X264.319Y-64.294
X264.319Y-83.344
X264.319Y-102.394
X264.319Y-121.444
X264.319Y-140.494
T2
X236.812Y-61.438G85X236.812Y-62.237
G05
X236.812Y-65.457G85X236.812Y-66.557
G05
X245.462Y-61.438G85X245.462Y-62.237
G05
X245.462Y-65.457G85X245.462Y-66.557
G05
M30
