%TF.GenerationSoftware,KiCad,Pcbnew,8.0.6*%
%TF.CreationDate,2024-11-23T01:04:23-05:00*%
%TF.ProjectId,keyboard,6b657962-6f61-4726-942e-6b696361645f,rev?*%
%TF.SameCoordinates,Original*%
%TF.FileFunction,Copper,L1,Top*%
%TF.FilePolarity,Positive*%
%FSLAX46Y46*%
G04 Gerber Fmt 4.6, Leading zero omitted, Abs format (unit mm)*
G04 Created by KiCad (PCBNEW 8.0.6) date 2024-11-23 01:04:23*
%MOMM*%
%LPD*%
G01*
G04 APERTURE LIST*
%TA.AperFunction,ComponentPad*%
%ADD10O,0.900000X1.700000*%
%TD*%
%TA.AperFunction,ComponentPad*%
%ADD11O,0.900000X2.000000*%
%TD*%
%TA.AperFunction,ViaPad*%
%ADD12C,0.600000*%
%TD*%
%TA.AperFunction,Conductor*%
%ADD13C,0.254000*%
%TD*%
%TA.AperFunction,Conductor*%
%ADD14C,0.381000*%
%TD*%
G04 APERTURE END LIST*
D10*
%TO.P,J2,S4,SHIELD*%
%TO.N,GND*%
X245462500Y-61837500D03*
%TO.P,J2,S3,SHIELD*%
X236812500Y-61837500D03*
D11*
%TO.P,J2,S2,SHIELD*%
X245462500Y-66007500D03*
%TO.P,J2,S1,SHIELD*%
X236812500Y-66007500D03*
%TD*%
D12*
%TO.N,X0*%
X251500000Y-77250000D03*
%TO.N,GND*%
X236537500Y-88106250D03*
%TO.N,VCC*%
X243681250Y-70643750D03*
X238918750Y-68099998D03*
%TO.N,Y3*%
X233362500Y-103187500D03*
%TO.N,GND*%
X237284769Y-105522269D03*
X237331250Y-103981250D03*
%TO.N,X4*%
X240493744Y-98425000D03*
X237331250Y-135750000D03*
%TO.N,X3*%
X241293747Y-98425000D03*
X247189106Y-106823394D03*
%TO.N,X2*%
X242093750Y-98425000D03*
X242824524Y-114479605D03*
X248840625Y-113903125D03*
%TO.N,X1*%
X239718753Y-94456250D03*
%TO.N,X0*%
X238918750Y-94456250D03*
%TO.N,GND*%
X236537500Y-90487500D03*
%TO.N,Y4*%
X264318750Y-83343750D03*
X264318750Y-102393750D03*
X264318750Y-121443750D03*
X264318750Y-140493750D03*
X264318750Y-64293750D03*
%TO.N,Y3*%
X234311000Y-92868750D03*
X233687500Y-131437500D03*
X234156250Y-64293750D03*
%TO.N,Y2*%
X214312500Y-83343750D03*
X214312500Y-102393750D03*
X214312500Y-121443750D03*
X214312500Y-140493750D03*
X214312500Y-64293750D03*
%TO.N,Y1*%
X196056250Y-83343750D03*
X196056250Y-102393750D03*
X196056250Y-121443750D03*
X196056250Y-64293750D03*
%TO.N,Y0*%
X177006250Y-102393750D03*
X177006250Y-121443750D03*
X185737500Y-140493750D03*
X177006250Y-64293750D03*
%TO.N,X0*%
X235743750Y-77787500D03*
%TO.N,X1*%
X246856250Y-88900000D03*
X241786858Y-88413142D03*
%TO.N,+5V*%
X237896466Y-97972732D03*
X245268750Y-98425000D03*
X246856250Y-95250000D03*
X245268750Y-92268750D03*
X245268750Y-88900000D03*
%TO.N,Y0*%
X177006250Y-82550000D03*
%TD*%
D13*
%TO.N,X0*%
X250000000Y-78750000D02*
X236706250Y-78750000D01*
X251500000Y-77250000D02*
X250000000Y-78750000D01*
%TO.N,Y3*%
X234311000Y-109575580D02*
X233362500Y-108627080D01*
X233362500Y-108627080D02*
X233362500Y-103187500D01*
X234311000Y-130814000D02*
X234311000Y-109575580D01*
X233687500Y-131437500D02*
X234311000Y-130814000D01*
%TO.N,X4*%
X240493744Y-103200006D02*
X240493744Y-98425000D01*
X236537500Y-112712500D02*
X236537500Y-107156250D01*
X237331250Y-135750000D02*
X237331250Y-113506250D01*
X237331250Y-113506250D02*
X236537500Y-112712500D01*
X236537500Y-107156250D02*
X240493744Y-103200006D01*
%TO.N,+5V*%
X245268750Y-88900000D02*
X245268750Y-92268750D01*
D14*
%TO.N,GND*%
X236537500Y-88106250D02*
X236537500Y-90487500D01*
%TO.N,VCC*%
X241137498Y-68099998D02*
X243681250Y-70643750D01*
X238918750Y-68099998D02*
X241137498Y-68099998D01*
D13*
%TO.N,X2*%
X248264145Y-114479605D02*
X242824524Y-114479605D01*
X248840625Y-113903125D02*
X248264145Y-114479605D01*
X242093750Y-101085986D02*
X242093750Y-98425000D01*
X247204158Y-106196394D02*
X242093750Y-101085986D01*
X248443750Y-113506250D02*
X248443750Y-107191326D01*
X247448818Y-106196394D02*
X247204158Y-106196394D01*
X248443750Y-107191326D02*
X247448818Y-106196394D01*
X248840625Y-113903125D02*
X248443750Y-113506250D01*
%TO.N,Y3*%
X233362500Y-93817250D02*
X233362500Y-103187500D01*
X234311000Y-92868750D02*
X233362500Y-93817250D01*
D14*
%TO.N,GND*%
X237331250Y-105475788D02*
X237284769Y-105522269D01*
X237331250Y-103981250D02*
X237331250Y-105475788D01*
D13*
%TO.N,+5V*%
X238237948Y-97631250D02*
X237896466Y-97972732D01*
X246062500Y-97631250D02*
X238237948Y-97631250D01*
%TO.N,X3*%
X241293747Y-100928035D02*
X241293747Y-98425000D01*
X247189106Y-106823394D02*
X241293747Y-100928035D01*
%TO.N,X1*%
X241786858Y-92388145D02*
X239718753Y-94456250D01*
X241786858Y-88413142D02*
X241786858Y-92388145D01*
X246062500Y-88106250D02*
X246856250Y-88900000D01*
X241786858Y-88413142D02*
X242093750Y-88106250D01*
X242093750Y-88106250D02*
X246062500Y-88106250D01*
%TO.N,Y4*%
X264318750Y-83343750D02*
X264318750Y-102393750D01*
X264318750Y-64293750D02*
X264318750Y-83343750D01*
X264318750Y-102393750D02*
X264318750Y-121443750D01*
X264318750Y-121443750D02*
X264318750Y-140493750D01*
%TO.N,Y3*%
X234311000Y-64448500D02*
X234311000Y-92868750D01*
X234156250Y-64293750D02*
X234311000Y-64448500D01*
%TO.N,Y2*%
X214312500Y-83343750D02*
X214312500Y-102393750D01*
X214312500Y-64293750D02*
X214312500Y-83343750D01*
X214312500Y-102393750D02*
X214312500Y-121443750D01*
X214312500Y-121443750D02*
X214312500Y-140493750D01*
%TO.N,Y1*%
X196056250Y-83343750D02*
X196056250Y-102393750D01*
X196056250Y-64293750D02*
X196056250Y-83343750D01*
X196056250Y-102393750D02*
X196056250Y-121443750D01*
%TO.N,Y0*%
X177006250Y-102393750D02*
X177006250Y-121443750D01*
X177006250Y-121443750D02*
X177006250Y-131762500D01*
X177006250Y-131762500D02*
X185737500Y-140493750D01*
%TO.N,+5V*%
X246062500Y-97631250D02*
X245268750Y-98425000D01*
X246856250Y-96837500D02*
X246062500Y-97631250D01*
X246856250Y-95250000D02*
X246856250Y-96837500D01*
%TO.N,Y0*%
X177006250Y-64293750D02*
X177006250Y-82550000D01*
X177006250Y-82550000D02*
X177006250Y-102393750D01*
%TO.N,X0*%
X238918750Y-80962500D02*
X238918750Y-94456250D01*
X235743750Y-77787500D02*
X236706250Y-78750000D01*
X235743750Y-77787500D02*
X238918750Y-80962500D01*
%TD*%
M02*
