%TF.GenerationSoftware,KiCad,Pcbnew,8.0.6*%
%TF.CreationDate,2024-11-30T15:29:51-05:00*%
%TF.ProjectId,keyboard,6b657962-6f61-4726-942e-6b696361645f,rev?*%
%TF.SameCoordinates,Original*%
%TF.FileFunction,Soldermask,Top*%
%TF.FilePolarity,Negative*%
%FSLAX46Y46*%
G04 Gerber Fmt 4.6, Leading zero omitted, Abs format (unit mm)*
G04 Created by KiCad (PCBNEW 8.0.6) date 2024-11-30 15:29:51*
%MOMM*%
%LPD*%
G01*
G04 APERTURE LIST*
%ADD10C,3.048000*%
%ADD11C,3.987800*%
%ADD12C,3.200000*%
%ADD13C,1.750000*%
%ADD14C,3.300000*%
%ADD15C,0.600000*%
%ADD16O,1.104000X2.204000*%
%ADD17O,1.104000X1.904000*%
%ADD18O,1.500000X1.100000*%
G04 APERTURE END LIST*
D10*
%TO.C,H6*%
X232410000Y-124618750D03*
D11*
X217170000Y-124618750D03*
D10*
X232410000Y-148431250D03*
D11*
X217170000Y-148431250D03*
%TD*%
D10*
%TO.C,H7*%
X189697806Y-153030855D03*
D11*
X189697806Y-137790855D03*
D10*
X165885306Y-153030855D03*
D11*
X165885306Y-137790855D03*
%TD*%
D12*
%TO.C,H2*%
X196850000Y-136525000D03*
%TD*%
%TO.C,H4*%
X246856250Y-79375000D03*
%TD*%
%TO.C,H3*%
X246856250Y-136525000D03*
%TD*%
%TO.C,H1*%
X196850000Y-79375000D03*
%TD*%
D10*
%TO.C,H5*%
X232412773Y-86522306D03*
D11*
X217172773Y-86522306D03*
D10*
X232412773Y-110334806D03*
D11*
X217172773Y-110334806D03*
%TD*%
D13*
%TO.C,NumLock1*%
X173355000Y-69850000D03*
D11*
X168275000Y-69850000D03*
D13*
X163195000Y-69850000D03*
D14*
X164465000Y-67310000D03*
X170815000Y-64770000D03*
%TD*%
D13*
%TO.C,Custom-1*%
X261461250Y-69850000D03*
D11*
X256381250Y-69850000D03*
D13*
X251301250Y-69850000D03*
D14*
X252571250Y-67310000D03*
X258921250Y-64770000D03*
%TD*%
D15*
%TO.C,J2*%
X238247500Y-65517500D03*
X244027500Y-65517500D03*
D16*
X236812500Y-66007500D03*
X245462500Y-66007500D03*
D17*
X236812500Y-61837500D03*
X245462500Y-61837500D03*
%TD*%
D13*
%TO.C,Custom-3*%
X261461250Y-107950000D03*
D11*
X256381250Y-107950000D03*
D13*
X251301250Y-107950000D03*
D14*
X252571250Y-105410000D03*
X258921250Y-102870000D03*
%TD*%
D13*
%TO.C,Key_del1*%
X211455000Y-146050000D03*
D11*
X206375000Y-146050000D03*
D13*
X201295000Y-146050000D03*
D14*
X202565000Y-143510000D03*
X208915000Y-140970000D03*
%TD*%
D13*
%TO.C,Key_4*%
X173355000Y-107950000D03*
D11*
X168275000Y-107950000D03*
D13*
X163195000Y-107950000D03*
D14*
X164465000Y-105410000D03*
X170815000Y-102870000D03*
%TD*%
D13*
%TO.C,Key_6*%
X211455000Y-107950000D03*
D11*
X206375000Y-107950000D03*
D13*
X201295000Y-107950000D03*
D14*
X202565000Y-105410000D03*
X208915000Y-102870000D03*
%TD*%
D13*
%TO.C,Key_0*%
X182880000Y-146050000D03*
D11*
X177800000Y-146050000D03*
D13*
X172720000Y-146050000D03*
D14*
X173990000Y-143510000D03*
X180340000Y-140970000D03*
%TD*%
D13*
%TO.C,Key_2*%
X192405000Y-127000000D03*
D11*
X187325000Y-127000000D03*
D13*
X182245000Y-127000000D03*
D14*
X183515000Y-124460000D03*
X189865000Y-121920000D03*
%TD*%
D13*
%TO.C,Custom-4*%
X261461250Y-127000000D03*
D11*
X256381250Y-127000000D03*
D13*
X251301250Y-127000000D03*
D14*
X252571250Y-124460000D03*
X258921250Y-121920000D03*
%TD*%
D13*
%TO.C,Key_\u002A1*%
X211455000Y-69850000D03*
D11*
X206375000Y-69850000D03*
D13*
X201295000Y-69850000D03*
D14*
X202565000Y-67310000D03*
X208915000Y-64770000D03*
%TD*%
D13*
%TO.C,Key_+1*%
X225425000Y-93345000D03*
D11*
X225425000Y-98425000D03*
D13*
X225425000Y-103505000D03*
D14*
X222885000Y-102235000D03*
X220345000Y-95885000D03*
%TD*%
D13*
%TO.C,Key_7*%
X173355000Y-88900000D03*
D11*
X168275000Y-88900000D03*
D13*
X163195000Y-88900000D03*
D14*
X164465000Y-86360000D03*
X170815000Y-83820000D03*
%TD*%
D13*
%TO.C,Custom-2*%
X261461250Y-88900000D03*
D11*
X256381250Y-88900000D03*
D13*
X251301250Y-88900000D03*
D14*
X252571250Y-86360000D03*
X258921250Y-83820000D03*
%TD*%
D13*
%TO.C,Key_8*%
X192405000Y-88900000D03*
D11*
X187325000Y-88900000D03*
D13*
X182245000Y-88900000D03*
D14*
X183515000Y-86360000D03*
X189865000Y-83820000D03*
%TD*%
D13*
%TO.C,Key_3*%
X211455000Y-127000000D03*
D11*
X206375000Y-127000000D03*
D13*
X201295000Y-127000000D03*
D14*
X202565000Y-124460000D03*
X208915000Y-121920000D03*
%TD*%
D13*
%TO.C,Key_-1*%
X230505000Y-69850000D03*
D11*
X225425000Y-69850000D03*
D13*
X220345000Y-69850000D03*
D14*
X221615000Y-67310000D03*
X227965000Y-64770000D03*
%TD*%
D13*
%TO.C,Key_9*%
X211455000Y-88900000D03*
D11*
X206375000Y-88900000D03*
D13*
X201295000Y-88900000D03*
D14*
X202565000Y-86360000D03*
X208915000Y-83820000D03*
%TD*%
D13*
%TO.C,Key_1*%
X173355000Y-127000000D03*
D11*
X168275000Y-127000000D03*
D13*
X163195000Y-127000000D03*
D14*
X164465000Y-124460000D03*
X170815000Y-121920000D03*
%TD*%
D13*
%TO.C,Custom-5*%
X261461250Y-146050000D03*
D11*
X256381250Y-146050000D03*
D13*
X251301250Y-146050000D03*
D14*
X252571250Y-143510000D03*
X258921250Y-140970000D03*
%TD*%
D13*
%TO.C,Key_/1*%
X192405000Y-69850000D03*
D11*
X187325000Y-69850000D03*
D13*
X182245000Y-69850000D03*
D14*
X183515000Y-67310000D03*
X189865000Y-64770000D03*
%TD*%
D13*
%TO.C,Key_enter1*%
X225425000Y-131445000D03*
D11*
X225425000Y-136525000D03*
D13*
X225425000Y-141605000D03*
D14*
X222885000Y-140335000D03*
X220345000Y-133985000D03*
%TD*%
D13*
%TO.C,Key_5*%
X192405000Y-107950000D03*
D11*
X187325000Y-107950000D03*
D13*
X182245000Y-107950000D03*
D14*
X183515000Y-105410000D03*
X189865000Y-102870000D03*
%TD*%
D18*
%TO.C,SW1*%
X250560000Y-61640000D03*
X253060000Y-61640000D03*
X255560000Y-61640000D03*
%TD*%
M02*
